<?xml version="1.0" encoding="utf-8"?>
<!-- Generator: Adobe Illustrator 21.0.0, SVG Export Plug-In . SVG Version: 6.00 Build 0)  -->
<svg version="1.1" id="Layer_1" xmlns="http://www.w3.org/2000/svg" xmlns:xlink="http://www.w3.org/1999/xlink" x="0px" y="0px"
	 viewBox="0 0 372.7 213.9" style="enable-background:new 0 0 372.7 213.9;" xml:space="preserve">
<style type="text/css">
	.st0{fill:#575654;}
	.st1{fill:#353535;}
	.st2{fill:#E6E6E8;}
	.st3{fill:#A7AAAB;}
	.st4{fill:#5AB3AC;}
	.st5{fill:#5BB0A9;}
	.st6{fill:#FEFEFE;}
	.st7{fill:#D1D0CE;}
	.st8{fill:#FDFDFD;}
	.st9{fill:#A7A7A7;}
	.st10{enable-background:new    ;}
	.st11{fill:#3F7BA0;}
	.st12{fill:#3C8DBC;}
	.st13{opacity:0.9;enable-background:new    ;}
	.st14{opacity:0.53;enable-background:new    ;}
	.st15{fill:#78797A;}
	.st16{fill:#F2F2F2;}
</style>
<title>laptop</title>
<g id="Layer_1_1_">
	<path class="st0" d="M41.6,189c0-58.6,0-117.3,0-175.9C41.6,4.1,46.1,0,56,0h257.8c4.1,0,8,0.2,10.6,4.1c-0.1,2.4-1.6,4.5-3.8,5.4
		c-2.5,1.2-3,3.1-3,5.7c0.5,51.8,0.2,103.7,0.2,155.5c0,1.3-0.1,2.7-0.1,4c-0.2,4-2.2,6.1-6.2,6.3c-3,0.2-6,0.1-9,0.1
		c-75.2,0-150.3,0.2-225.5-0.2c-12-0.1-23.1,0.7-32.8,8.5C43.3,189.9,42.3,189.7,41.6,189z"/>
	<path class="st1" d="M43.6,189c6.6-6,13.2-10.2,23.1-10.1c80.6,0.4,161.2,0.2,241.9,0.2c7.1,0,7.1,0,7.1-7.1c0-51,0-101.9,0-152.9
		c0-2.5,1-5.6-3.1-6.4c3.2-4,8.3-5.2,11.8-8.5c2,1.4,2.8,3.5,3.5,5.8c1.3,2.9,1.9,6,1.8,9.1c-0.1,54.4-0.1,108.8,0,163.2
		c0,2.5,0.3,5-1.4,7.2c-1.8,1.9-4.3,1.7-6.5,1.7c-33.7,0.1-67.3,0.6-101-0.1c-21.6-0.5-43.3-0.9-64.9-0.3
		c-35.1,0.9-70.3,0.2-105.4,0.4C48,191.2,45.3,191.6,43.6,189z"/>
	<path class="st2" d="M43.6,189c34.8,0.1,69.6,0.1,104.3,0.2c57.9,0,115.8,0,173.7,0c2,0,4-0.1,6-0.2c1.1-1.1,2.8-1.1,3.9,0l0,0H362
		c7,0,7,0,6.7,6.8c0,1.3-0.2,2.6-0.2,4c-1.4,2.1-3.7,2-5.8,2.3c-1.8,0.2-3.7,0.2-5.5,0.2c-115,0-230,0-345,0
		c-3.6,0-7.4,0.6-10.5-2.1c-3.5-6.7-1.3-11.2,5.7-11.2h34.2H43.6z"/>
	<path class="st3" d="M1.6,200.1c56.6,0,113.3-0.1,169.9-0.1c64,0,127.9,0,191.9,0c1.7,0,3.3-0.1,5-0.2l0.2,0.4
		c-0.3,4.7-4.7,9-10.1,9.8c-1.7,0.2-3.3,0.3-5,0.2c-111.4,0.1-222.9,0.1-334.3,0c-5.5,0-10.7-0.7-14.5-5.2
		C3.8,203.2,1.8,202.2,1.6,200.1z"/>
	<path class="st4" d="M4.6,205c6.7,3,13.8,2.9,21,2.9c108.7,0,217.5,0,326.2,0.1c7.2,0,12.5-2.3,16.8-7.8c0.2-0.4,0.5-0.8,0.8-1.3
		c0.6-1.2-0.3-3.6,2-3.2c1.9,0.3,1.2,2.5,1.3,3.9c0.4,8.2-4.4,13.6-12.6,14.3c-1.5,0.1-3,0.1-4.5,0.1c-111.2,0-222.5,0-333.7,0
		C14.5,214,7.9,212.8,4.6,205z"/>
	<path class="st5" d="M331.6,188.9h-4c0-58,0-116,0.1-174c0-1.7,0.1-3.3,0.1-5c2.9,1.9,3.8,4.7,3.8,8.1
		C331.6,75,331.6,132,331.6,188.9z"/>
	<path class="st6" d="M184.3,178.1c-42,0-84,0-126,0.1c-3.3,0-3.8-1.1-3.8-4c0.1-52.1,0.1-104.3,0-156.4c0-3.5,1.2-4,4.3-4
		c83.3,0.1,166.6,0.1,249.9,0c4.9,0,6.3,1.1,6.3,6.3c-0.2,51-0.2,102,0,152.9c0,4.2-1.1,5.2-5.2,5.2
		C267.9,178,226.1,178.1,184.3,178.1z"/>
	<path class="st7" d="M184.6,9.7c-0.9,0-1.7-0.8-1.7-1.7c0-0.1,0-0.2,0-0.3c0.1-0.9,0.8-1.5,1.7-1.4c0.9-0.1,1.7,0.6,1.7,1.5
		c0,0.1,0,0.3,0,0.4C186.3,9.1,185.5,9.8,184.6,9.7z"/>
	<path class="st8" d="M161.6,195c-2.6-0.9-7.3,0.2-7-3.6c0.2-2.5,4.6-1.2,7.1-1.2c16.3-0.1,32.6-0.1,48.8,0c1.5,0,4.1-0.9,4.2,1.2
		c0.1,2.4-2.5,2.7-4.5,2.7c-14.3,0-28.6,0-42.8,0C165.4,194,163.4,193.6,161.6,195L161.6,195z"/>
</g>
<g>
	<path class="st9" d="M161.6,195H207c-1.3,1.2-3.1,1.8-4.9,1.7c-11.5,0.1-23,0.1-34.4-0.1C165.7,196.6,163.3,196.9,161.6,195
		L161.6,195z"/>
</g>
<g class="st10">
	<path class="st11" d="M109.9,140l-1.1-1.9H108v1.9h-0.6v-4.6h1.4c0.9,0,1.6,0.3,1.6,1.3c0,0.7-0.4,1.1-1,1.3l1.2,2H109.9z
		 M108,137.5h0.8c0.7,0,1.1-0.3,1.1-0.9c0-0.6-0.4-0.8-1.1-0.8H108V137.5z"/>
</g>
<g class="st10">
	<path class="st11" d="M112.6,136.5c0.9,0,1.4,0.6,1.4,1.6c0,0.1,0,0.2,0,0.3h-2.3c0,0.7,0.5,1.2,1.1,1.2c0.3,0,0.6-0.1,0.8-0.3
		l0.2,0.4c-0.3,0.2-0.7,0.4-1.1,0.4c-0.9,0-1.6-0.7-1.6-1.8C111.1,137.2,111.8,136.5,112.6,136.5z M113.5,138c0-0.7-0.3-1.1-0.8-1.1
		c-0.5,0-0.9,0.4-1,1.1H113.5z"/>
	<path class="st11" d="M114.7,139.2c0.3,0.2,0.6,0.4,1,0.4c0.4,0,0.7-0.2,0.7-0.5c0-0.4-0.4-0.5-0.8-0.6c-0.5-0.2-1-0.4-1-1
		c0-0.5,0.4-1,1.2-1c0.4,0,0.8,0.2,1.1,0.4l-0.3,0.4c-0.2-0.2-0.5-0.3-0.8-0.3c-0.4,0-0.6,0.2-0.6,0.5c0,0.3,0.4,0.4,0.8,0.6
		c0.5,0.2,1,0.4,1,1c0,0.6-0.4,1-1.2,1c-0.5,0-0.9-0.2-1.3-0.5L114.7,139.2z"/>
	<path class="st11" d="M119,136.5c0.9,0,1.4,0.6,1.4,1.6c0,0.1,0,0.2,0,0.3h-2.3c0,0.7,0.5,1.2,1.1,1.2c0.3,0,0.6-0.1,0.8-0.3
		l0.2,0.4c-0.3,0.2-0.7,0.4-1.1,0.4c-0.9,0-1.6-0.7-1.6-1.8C117.5,137.2,118.2,136.5,119,136.5z M119.9,138c0-0.7-0.3-1.1-0.8-1.1
		c-0.5,0-0.9,0.4-1,1.1H119.9z"/>
	<path class="st11" d="M121.2,136.6h0.5l0,0.5h0c0.3-0.3,0.7-0.6,1.1-0.6c0.7,0,1,0.5,1,1.3v2.2h-0.6v-2.1c0-0.6-0.2-0.9-0.6-0.9
		c-0.4,0-0.6,0.2-0.9,0.5v2.5h-0.6V136.6z"/>
	<path class="st11" d="M126.3,136.5c0.4,0,0.7,0.1,1,0.4l0-0.6V135h0.6v5h-0.5l0-0.4h0c-0.3,0.3-0.6,0.5-1,0.5
		c-0.9,0-1.4-0.6-1.4-1.8C124.8,137.2,125.5,136.5,126.3,136.5z M126.3,139.6c0.3,0,0.6-0.2,0.9-0.5v-1.8c-0.3-0.3-0.5-0.4-0.8-0.4
		c-0.5,0-1,0.5-1,1.3C125.4,139.1,125.7,139.6,126.3,139.6z"/>
</g>
<g class="st10">
	<path class="st11" d="M129.9,136.6h0.6l0.6,1.9c0.1,0.3,0.2,0.7,0.3,1h0c0.1-0.3,0.2-0.7,0.3-1l0.6-1.9h0.6l-1.2,3.4h-0.7
		L129.9,136.6z"/>
</g>
<g class="st10">
	<path class="st11" d="M134.9,136.5c0.9,0,1.4,0.6,1.4,1.6c0,0.1,0,0.2,0,0.3h-2.3c0,0.7,0.5,1.2,1.1,1.2c0.3,0,0.6-0.1,0.8-0.3
		l0.2,0.4c-0.3,0.2-0.7,0.4-1.1,0.4c-0.9,0-1.6-0.7-1.6-1.8C133.3,137.2,134.1,136.5,134.9,136.5z M135.7,138c0-0.7-0.3-1.1-0.8-1.1
		c-0.5,0-0.9,0.4-1,1.1H135.7z"/>
	<path class="st11" d="M137.1,136.6h0.5l0,0.6h0c0.2-0.4,0.6-0.7,1-0.7c0.1,0,0.3,0,0.4,0.1l-0.1,0.5c-0.1,0-0.2-0.1-0.3-0.1
		c-0.3,0-0.6,0.2-0.9,0.8v2.2h-0.6V136.6z"/>
	<path class="st11" d="M139.4,135.5c0-0.2,0.2-0.4,0.4-0.4s0.4,0.1,0.4,0.4c0,0.2-0.2,0.4-0.4,0.4S139.4,135.7,139.4,135.5z
		 M139.5,136.6h0.6v3.4h-0.6V136.6z"/>
	<path class="st11" d="M142.8,135.4c-0.1-0.1-0.3-0.1-0.4-0.1c-0.3,0-0.5,0.2-0.5,0.7v0.5h0.7v0.5h-0.7v2.9h-0.6V137h-0.5v-0.4
		l0.5,0V136c0-0.7,0.3-1.1,1-1.1c0.2,0,0.4,0,0.6,0.1L142.8,135.4z"/>
	<path class="st11" d="M143.2,135.5c0-0.2,0.2-0.4,0.4-0.4s0.4,0.1,0.4,0.4c0,0.2-0.2,0.4-0.4,0.4S143.2,135.7,143.2,135.5z
		 M143.3,136.6h0.6v3.4h-0.6V136.6z"/>
</g>
<g class="st10">
	<path class="st11" d="M146.4,136.5c0.4,0,0.8,0.2,1,0.4l-0.3,0.4c-0.2-0.2-0.4-0.3-0.7-0.3c-0.6,0-1.1,0.5-1.1,1.3
		c0,0.8,0.4,1.3,1.1,1.3c0.3,0,0.6-0.2,0.8-0.3l0.3,0.4c-0.3,0.3-0.7,0.4-1.1,0.4c-0.9,0-1.6-0.7-1.6-1.8
		C144.7,137.1,145.5,136.5,146.4,136.5z"/>
</g>
<g class="st10">
	<path class="st11" d="M150,137.8c0-0.4-0.1-0.9-0.7-0.9c-0.4,0-0.7,0.2-1,0.4l-0.2-0.4c0.3-0.2,0.8-0.4,1.3-0.4
		c0.8,0,1.2,0.6,1.2,1.4v2.1h-0.5l0-0.4h0c-0.3,0.3-0.7,0.5-1.1,0.5c-0.6,0-1-0.4-1-1C147.9,138.3,148.6,138,150,137.8z
		 M149.1,139.6c0.3,0,0.6-0.2,0.9-0.5v-0.9c-1.1,0.1-1.5,0.4-1.5,0.9C148.5,139.4,148.8,139.6,149.1,139.6z"/>
	<path class="st11" d="M151.8,137h-0.5v-0.4l0.5,0l0.1-1h0.5v1h0.9v0.5h-0.9v1.9c0,0.4,0.1,0.7,0.5,0.7c0.1,0,0.3,0,0.4-0.1l0.1,0.4
		c-0.2,0.1-0.4,0.1-0.6,0.1c-0.7,0-1-0.5-1-1.1V137z"/>
	<path class="st11" d="M153.9,135.5c0-0.2,0.2-0.4,0.4-0.4s0.4,0.1,0.4,0.4c0,0.2-0.2,0.4-0.4,0.4S153.9,135.7,153.9,135.5z
		 M154.1,136.6h0.6v3.4h-0.6V136.6z"/>
	<path class="st11" d="M157.1,136.5c0.8,0,1.6,0.7,1.6,1.8c0,1.1-0.7,1.8-1.6,1.8s-1.6-0.7-1.6-1.8
		C155.5,137.1,156.3,136.5,157.1,136.5z M157.1,139.6c0.6,0,1-0.5,1-1.3c0-0.8-0.4-1.3-1-1.3c-0.6,0-1,0.5-1,1.3
		C156.1,139,156.5,139.6,157.1,139.6z"/>
	<path class="st11" d="M159.6,136.6h0.5l0,0.5h0c0.3-0.3,0.7-0.6,1.1-0.6c0.7,0,1,0.5,1,1.3v2.2h-0.6v-2.1c0-0.6-0.2-0.9-0.6-0.9
		c-0.4,0-0.6,0.2-0.9,0.5v2.5h-0.6V136.6z"/>
	<path class="st11" d="M166.1,136.5c0.9,0,1.4,0.6,1.4,1.6c0,0.1,0,0.2,0,0.3h-2.3c0,0.7,0.5,1.2,1.1,1.2c0.3,0,0.6-0.1,0.8-0.3
		l0.2,0.4c-0.3,0.2-0.7,0.4-1.1,0.4c-0.9,0-1.6-0.7-1.6-1.8C164.6,137.2,165.3,136.5,166.1,136.5z M166.9,138c0-0.7-0.3-1.1-0.8-1.1
		c-0.5,0-0.9,0.4-1,1.1H166.9z"/>
	<path class="st11" d="M168.3,136.6h0.5l0,0.5h0c0.3-0.3,0.7-0.6,1.1-0.6c0.5,0,0.8,0.2,0.9,0.7c0.4-0.4,0.7-0.7,1.1-0.7
		c0.7,0,1,0.5,1,1.3v2.2h-0.6v-2.1c0-0.6-0.2-0.9-0.6-0.9c-0.3,0-0.5,0.2-0.9,0.5v2.5h-0.6v-2.1c0-0.6-0.2-0.9-0.6-0.9
		c-0.3,0-0.5,0.2-0.9,0.5v2.5h-0.6V136.6z"/>
	<path class="st11" d="M176,137.8c0-0.4-0.1-0.9-0.7-0.9c-0.4,0-0.7,0.2-1,0.4l-0.2-0.4c0.3-0.2,0.8-0.4,1.3-0.4
		c0.8,0,1.2,0.6,1.2,1.4v2.1h-0.5l0-0.4h0c-0.3,0.3-0.7,0.5-1.1,0.5c-0.6,0-1-0.4-1-1C173.9,138.3,174.6,138,176,137.8z
		 M175.1,139.6c0.3,0,0.6-0.2,0.9-0.5v-0.9c-1.1,0.1-1.5,0.4-1.5,0.9C174.5,139.4,174.7,139.6,175.1,139.6z"/>
	<path class="st11" d="M177.6,135.5c0-0.2,0.2-0.4,0.4-0.4s0.4,0.1,0.4,0.4c0,0.2-0.2,0.4-0.4,0.4S177.6,135.7,177.6,135.5z
		 M177.7,136.6h0.6v3.4h-0.6V136.6z"/>
	<path class="st11" d="M179.4,135h0.6v4.3c0,0.2,0.1,0.3,0.2,0.3c0,0,0.1,0,0.1,0l0.1,0.4c-0.1,0-0.2,0.1-0.3,0.1
		c-0.4,0-0.6-0.3-0.6-0.8V135z"/>
</g>
<g class="st10">
	<path class="st12" d="M109.9,149.6l-1.1-1.9H108v1.9h-0.6V145h1.4c0.9,0,1.6,0.3,1.6,1.3c0,0.7-0.4,1.1-1,1.3l1.2,2H109.9z
		 M108,147.2h0.8c0.7,0,1.1-0.3,1.1-0.9c0-0.6-0.4-0.8-1.1-0.8H108V147.2z"/>
	<path class="st12" d="M112.6,146.1c0.9,0,1.4,0.6,1.4,1.6c0,0.1,0,0.2,0,0.3h-2.3c0,0.7,0.5,1.2,1.1,1.2c0.3,0,0.6-0.1,0.8-0.3
		l0.2,0.4c-0.3,0.2-0.7,0.4-1.1,0.4c-0.9,0-1.6-0.7-1.6-1.8C111.1,146.8,111.8,146.1,112.6,146.1z M113.5,147.7
		c0-0.7-0.3-1.1-0.8-1.1c-0.5,0-0.9,0.4-1,1.1H113.5z"/>
</g>
<g class="st10">
	<path class="st12" d="M115,149.5L115,149.5c-0.2-0.1-0.3-0.3-0.3-0.6c0-0.3,0.2-0.5,0.4-0.6v0c-0.2-0.2-0.4-0.5-0.4-0.9
		c0-0.7,0.6-1.2,1.3-1.2c0.2,0,0.4,0,0.5,0.1h1.2v0.4h-0.7c0.2,0.2,0.3,0.4,0.3,0.7c0,0.7-0.6,1.2-1.2,1.2c-0.2,0-0.4,0-0.5-0.1
		c-0.1,0.1-0.2,0.2-0.2,0.4c0,0.2,0.1,0.4,0.6,0.4h0.7c0.8,0,1.2,0.2,1.2,0.8c0,0.6-0.7,1.2-1.7,1.2c-0.8,0-1.4-0.3-1.4-0.9
		C114.5,150,114.7,149.7,115,149.5z M116,150.8c0.7,0,1.1-0.3,1.1-0.7c0-0.3-0.2-0.4-0.7-0.4h-0.6c-0.1,0-0.3,0-0.4-0.1
		c-0.2,0.2-0.4,0.4-0.4,0.6C115,150.6,115.4,150.8,116,150.8z M116.6,147.4c0-0.5-0.3-0.8-0.7-0.8c-0.4,0-0.7,0.3-0.7,0.8
		s0.3,0.8,0.7,0.8C116.3,148.2,116.6,147.9,116.6,147.4z"/>
	<path class="st12" d="M118.2,145.2c0-0.2,0.2-0.4,0.4-0.4s0.4,0.1,0.4,0.4c0,0.2-0.2,0.4-0.4,0.4S118.2,145.4,118.2,145.2z
		 M118.3,146.2h0.6v3.4h-0.6V146.2z"/>
	<path class="st12" d="M119.9,148.9c0.3,0.2,0.6,0.4,1,0.4c0.4,0,0.7-0.2,0.7-0.5c0-0.4-0.4-0.5-0.8-0.6c-0.5-0.2-1-0.4-1-1
		c0-0.5,0.4-1,1.2-1c0.4,0,0.8,0.2,1.1,0.4l-0.3,0.4c-0.2-0.2-0.5-0.3-0.8-0.3c-0.4,0-0.6,0.2-0.6,0.5c0,0.3,0.4,0.4,0.8,0.6
		c0.5,0.2,1,0.4,1,1c0,0.6-0.4,1-1.2,1c-0.5,0-0.9-0.2-1.3-0.5L119.9,148.9z"/>
</g>
<g class="st10">
	<path class="st12" d="M123,146.7h-0.5v-0.4l0.5,0l0.1-1h0.5v1h0.9v0.5h-0.9v1.9c0,0.4,0.1,0.7,0.5,0.7c0.1,0,0.3,0,0.4-0.1l0.1,0.4
		c-0.2,0.1-0.4,0.1-0.6,0.1c-0.7,0-1-0.5-1-1.1V146.7z"/>
</g>
<g class="st10">
	<path class="st12" d="M126.5,146.1c0.9,0,1.4,0.6,1.4,1.6c0,0.1,0,0.2,0,0.3h-2.3c0,0.7,0.5,1.2,1.1,1.2c0.3,0,0.6-0.1,0.8-0.3
		l0.2,0.4c-0.3,0.2-0.7,0.4-1.1,0.4c-0.9,0-1.6-0.7-1.6-1.8C125,146.8,125.7,146.1,126.5,146.1z M127.4,147.7c0-0.7-0.3-1.1-0.8-1.1
		c-0.5,0-0.9,0.4-1,1.1H127.4z"/>
	<path class="st12" d="M128.7,146.2h0.5l0,0.6h0c0.2-0.4,0.6-0.7,1-0.7c0.1,0,0.3,0,0.4,0.1l-0.1,0.5c-0.1,0-0.2-0.1-0.3-0.1
		c-0.3,0-0.6,0.2-0.9,0.8v2.2h-0.6V146.2z"/>
</g>
<g class="st13">
	<path d="M173.3,41.4c0.4,0.4,1,0.7,1.6,0.7c0.8,0,1.2-0.4,1.2-1c0-0.6-0.4-0.8-1-1l-0.8-0.4c-0.5-0.2-1.2-0.7-1.2-1.5
		c0-0.9,0.8-1.6,1.9-1.6c0.7,0,1.3,0.3,1.7,0.7l-0.4,0.5c-0.4-0.3-0.8-0.6-1.3-0.6c-0.7,0-1.1,0.3-1.1,0.9c0,0.6,0.5,0.8,1,1
		l0.8,0.4c0.7,0.3,1.2,0.7,1.2,1.6c0,0.9-0.8,1.7-2,1.7c-0.8,0-1.5-0.3-2.1-0.9L173.3,41.4z"/>
	<path d="M177.8,37c0-0.3,0.2-0.5,0.5-0.5s0.5,0.2,0.5,0.5c0,0.3-0.2,0.5-0.5,0.5S177.8,37.2,177.8,37z M177.9,38.3h0.7v4.4h-0.7
		V38.3z"/>
	<path d="M180.5,42.6L180.5,42.6c-0.2-0.2-0.4-0.4-0.4-0.7c0-0.4,0.3-0.7,0.5-0.8v0c-0.3-0.2-0.6-0.7-0.6-1.2c0-1,0.8-1.6,1.6-1.6
		c0.2,0,0.5,0,0.6,0.1h1.5v0.6h-0.9c0.2,0.2,0.4,0.5,0.4,0.9c0,0.9-0.7,1.5-1.6,1.5c-0.2,0-0.5-0.1-0.7-0.2
		c-0.2,0.1-0.3,0.3-0.3,0.5c0,0.3,0.2,0.5,0.8,0.5h0.8c1,0,1.5,0.3,1.5,1c0,0.8-0.9,1.5-2.2,1.5c-1.1,0-1.8-0.4-1.8-1.2
		C179.8,43.2,180.1,42.8,180.5,42.6z M181.7,44.2c0.8,0,1.4-0.4,1.4-0.9c0-0.4-0.3-0.5-0.9-0.5h-0.8c-0.2,0-0.4,0-0.6-0.1
		c-0.3,0.2-0.5,0.5-0.5,0.7C180.5,43.9,181,44.2,181.7,44.2z M182.6,39.8c0-0.6-0.4-1-0.9-1s-0.9,0.4-0.9,1c0,0.6,0.4,1,0.9,1
		C182.1,40.8,182.6,40.4,182.6,39.8z"/>
	<path d="M184.7,38.3h0.6l0.1,0.6h0c0.4-0.4,0.9-0.7,1.5-0.7c0.9,0,1.3,0.6,1.3,1.7v2.8h-0.7V40c0-0.8-0.3-1.2-0.8-1.2
		c-0.5,0-0.8,0.2-1.2,0.7v3.2h-0.7V38.3z"/>
	<path d="M191.3,37c0-0.3,0.2-0.5,0.5-0.5c0.3,0,0.5,0.2,0.5,0.5c0,0.3-0.2,0.5-0.5,0.5C191.5,37.4,191.3,37.2,191.3,37z
		 M191.4,38.3h0.7v4.4h-0.7V38.3z"/>
	<path d="M193.7,38.3h0.6l0.1,0.6h0c0.4-0.4,0.9-0.7,1.5-0.7c0.9,0,1.3,0.6,1.3,1.7v2.8h-0.7V40c0-0.8-0.3-1.2-0.8-1.2
		c-0.5,0-0.8,0.2-1.2,0.7v3.2h-0.7V38.3z"/>
</g>
<g class="st13">
	<path d="M113.5,60.9h0.6v2.7c0,1.1,0.5,1.5,1.1,1.5c0.6,0,1.1-0.4,1.1-1.5v-2.7h0.6v2.7c0,1.5-0.7,2-1.7,2s-1.7-0.5-1.7-2V60.9z"/>
</g>
<g class="st13">
	<path d="M117.8,64.7c0.3,0.2,0.6,0.4,1,0.4c0.4,0,0.7-0.2,0.7-0.5c0-0.4-0.4-0.5-0.8-0.6c-0.5-0.2-1-0.4-1-1c0-0.5,0.4-1,1.2-1
		c0.4,0,0.8,0.2,1.1,0.4l-0.3,0.4c-0.2-0.2-0.5-0.3-0.8-0.3c-0.4,0-0.6,0.2-0.6,0.5c0,0.3,0.4,0.4,0.8,0.6c0.5,0.2,1,0.4,1,1
		c0,0.6-0.4,1-1.2,1c-0.5,0-0.9-0.2-1.3-0.5L117.8,64.7z"/>
	<path d="M122.1,62c0.9,0,1.4,0.6,1.4,1.6c0,0.1,0,0.2,0,0.3h-2.3c0,0.7,0.5,1.2,1.1,1.2c0.3,0,0.6-0.1,0.8-0.3l0.2,0.4
		c-0.3,0.2-0.7,0.4-1.1,0.4c-0.9,0-1.6-0.7-1.6-1.8C120.6,62.7,121.3,62,122.1,62z M123,63.5c0-0.7-0.3-1.1-0.8-1.1
		c-0.5,0-0.9,0.4-1,1.1H123z"/>
	<path d="M124.3,62.1h0.5l0,0.6h0c0.2-0.4,0.6-0.7,1-0.7c0.1,0,0.3,0,0.4,0.1l-0.1,0.5c-0.1,0-0.2-0.1-0.3-0.1
		c-0.3,0-0.6,0.2-0.9,0.8v2.2h-0.6V62.1z"/>
	<path d="M126.7,62.1h0.5l0,0.5h0c0.3-0.3,0.7-0.6,1.1-0.6c0.7,0,1,0.5,1,1.3v2.2h-0.6v-2.1c0-0.6-0.2-0.9-0.6-0.9
		c-0.4,0-0.6,0.2-0.9,0.5v2.5h-0.6V62.1z"/>
	<path d="M132.5,63.3c0-0.4-0.1-0.9-0.7-0.9c-0.4,0-0.7,0.2-1,0.4l-0.2-0.4c0.3-0.2,0.8-0.4,1.3-0.4c0.8,0,1.2,0.6,1.2,1.4v2.1h-0.5
		l0-0.4h0c-0.3,0.3-0.7,0.5-1.1,0.5c-0.6,0-1-0.4-1-1C130.4,63.8,131.1,63.5,132.5,63.3z M131.6,65.1c0.3,0,0.6-0.2,0.9-0.5v-0.9
		c-1.1,0.1-1.5,0.4-1.5,0.9C131,64.9,131.2,65.1,131.6,65.1z"/>
	<path d="M134.2,62.1h0.5l0,0.5h0c0.3-0.3,0.7-0.6,1.1-0.6c0.5,0,0.8,0.2,0.9,0.7c0.4-0.4,0.7-0.7,1.1-0.7c0.7,0,1,0.5,1,1.3v2.2
		h-0.6v-2.1c0-0.6-0.2-0.9-0.6-0.9c-0.3,0-0.5,0.2-0.9,0.5v2.5h-0.6v-2.1c0-0.6-0.2-0.9-0.6-0.9c-0.3,0-0.5,0.2-0.9,0.5v2.5h-0.6
		V62.1z"/>
	<path d="M141.2,62c0.9,0,1.4,0.6,1.4,1.6c0,0.1,0,0.2,0,0.3h-2.3c0,0.7,0.5,1.2,1.1,1.2c0.3,0,0.6-0.1,0.8-0.3l0.2,0.4
		c-0.3,0.2-0.7,0.4-1.1,0.4c-0.9,0-1.6-0.7-1.6-1.8C139.7,62.7,140.5,62,141.2,62z M142.1,63.5c0-0.7-0.3-1.1-0.8-1.1
		c-0.5,0-0.9,0.4-1,1.1H142.1z"/>
</g>
<g class="st13">
	<path d="M113.7,84h1.4c1,0,1.7,0.3,1.7,1.4c0,1-0.7,1.4-1.7,1.4h-0.8v1.8h-0.6V84z M115.1,86.3c0.8,0,1.2-0.3,1.2-0.9
		c0-0.7-0.4-0.9-1.2-0.9h-0.7v1.8H115.1z"/>
</g>
<g class="st13">
	<path d="M119.3,86.5c0-0.4-0.1-0.9-0.7-0.9c-0.4,0-0.7,0.2-1,0.4l-0.2-0.4c0.3-0.2,0.8-0.4,1.3-0.4c0.8,0,1.2,0.6,1.2,1.4v2.1h-0.5
		l0-0.4h0c-0.3,0.3-0.7,0.5-1.1,0.5c-0.6,0-1-0.4-1-1C117.2,87,117.9,86.6,119.3,86.5z M118.4,88.3c0.3,0,0.6-0.2,0.9-0.5v-0.9
		c-1.1,0.1-1.5,0.4-1.5,0.9C117.8,88.1,118.1,88.3,118.4,88.3z"/>
	<path d="M120.9,87.9c0.3,0.2,0.6,0.4,1,0.4c0.4,0,0.7-0.2,0.7-0.5c0-0.4-0.4-0.5-0.8-0.6c-0.5-0.2-1-0.4-1-1c0-0.5,0.4-1,1.2-1
		c0.4,0,0.8,0.2,1.1,0.4l-0.3,0.4c-0.2-0.2-0.5-0.3-0.8-0.3c-0.4,0-0.6,0.2-0.6,0.5c0,0.3,0.4,0.4,0.8,0.6c0.5,0.2,1,0.4,1,1
		c0,0.6-0.4,1-1.2,1c-0.5,0-0.9-0.2-1.3-0.5L120.9,87.9z"/>
	<path d="M123.8,87.9c0.3,0.2,0.6,0.4,1,0.4c0.4,0,0.7-0.2,0.7-0.5c0-0.4-0.4-0.5-0.8-0.6c-0.5-0.2-1-0.4-1-1c0-0.5,0.4-1,1.2-1
		c0.4,0,0.8,0.2,1.1,0.4l-0.3,0.4c-0.2-0.2-0.5-0.3-0.8-0.3c-0.4,0-0.6,0.2-0.6,0.5c0,0.3,0.4,0.4,0.8,0.6c0.5,0.2,1,0.4,1,1
		c0,0.6-0.4,1-1.2,1c-0.5,0-0.9-0.2-1.3-0.5L123.8,87.9z"/>
</g>
<g class="st13">
	<path d="M126.5,85.2h0.6l0.5,2c0.1,0.3,0.1,0.6,0.2,0.9h0c0.1-0.3,0.1-0.6,0.2-0.9l0.5-2h0.6l0.5,2c0.1,0.3,0.2,0.6,0.2,0.9h0
		c0.1-0.3,0.1-0.6,0.2-0.9l0.5-2h0.5l-0.9,3.4h-0.7l-0.5-1.8c-0.1-0.3-0.1-0.6-0.2-1h0c-0.1,0.3-0.1,0.7-0.2,1l-0.5,1.8h-0.7
		L126.5,85.2z"/>
</g>
<g class="st13">
	<path d="M133.2,85.1c0.8,0,1.6,0.7,1.6,1.8c0,1.1-0.7,1.8-1.6,1.8s-1.6-0.7-1.6-1.8C131.6,85.8,132.3,85.1,133.2,85.1z M133.2,88.2
		c0.6,0,1-0.5,1-1.3c0-0.8-0.4-1.3-1-1.3c-0.6,0-1,0.5-1,1.3C132.2,87.7,132.6,88.2,133.2,88.2z"/>
</g>
<g class="st13">
	<path d="M135.7,85.2h0.5l0,0.6h0c0.2-0.4,0.6-0.7,1-0.7c0.1,0,0.3,0,0.4,0.1l-0.1,0.5c-0.1,0-0.2-0.1-0.3-0.1
		c-0.3,0-0.6,0.2-0.9,0.8v2.2h-0.6V85.2z"/>
</g>
<g class="st13">
	<path d="M139.2,85.1c0.4,0,0.7,0.1,1,0.4l0-0.6v-1.3h0.6v5h-0.5l0-0.4h0c-0.3,0.3-0.6,0.5-1,0.5c-0.9,0-1.4-0.6-1.4-1.8
		C137.8,85.8,138.5,85.1,139.2,85.1z M139.3,88.2c0.3,0,0.6-0.2,0.9-0.5V86c-0.3-0.3-0.5-0.4-0.8-0.4c-0.5,0-1,0.5-1,1.3
		C138.4,87.7,138.7,88.2,139.3,88.2z"/>
</g>
<g class="st13">
	<path d="M122.1,114.6l-1.1-1.9h-0.8v1.9h-0.6V110h1.4c0.9,0,1.6,0.3,1.6,1.3c0,0.7-0.4,1.1-1,1.3l1.2,2H122.1z M120.2,112.2h0.8
		c0.7,0,1.1-0.3,1.1-0.9c0-0.6-0.4-0.8-1.1-0.8h-0.8V112.2z"/>
</g>
<g class="st13">
	<path d="M124.8,111.1c0.9,0,1.4,0.6,1.4,1.6c0,0.1,0,0.2,0,0.3h-2.3c0,0.7,0.5,1.2,1.1,1.2c0.3,0,0.6-0.1,0.8-0.3l0.2,0.4
		c-0.3,0.2-0.7,0.4-1.1,0.4c-0.9,0-1.6-0.7-1.6-1.8C123.3,111.8,124,111.1,124.8,111.1z M125.6,112.7c0-0.7-0.3-1.1-0.8-1.1
		c-0.5,0-0.9,0.4-1,1.1H125.6z"/>
	<path d="M127,111.2h0.5l0,0.5h0c0.3-0.3,0.7-0.6,1.1-0.6c0.5,0,0.8,0.2,0.9,0.7c0.4-0.4,0.7-0.7,1.1-0.7c0.7,0,1,0.5,1,1.3v2.2
		h-0.6v-2.1c0-0.6-0.2-0.9-0.6-0.9c-0.3,0-0.5,0.2-0.9,0.5v2.5h-0.6v-2.1c0-0.6-0.2-0.9-0.6-0.9c-0.3,0-0.5,0.2-0.9,0.5v2.5H127
		V111.2z"/>
	<path d="M134.1,111.1c0.9,0,1.4,0.6,1.4,1.6c0,0.1,0,0.2,0,0.3h-2.3c0,0.7,0.5,1.2,1.1,1.2c0.3,0,0.6-0.1,0.8-0.3l0.2,0.4
		c-0.3,0.2-0.7,0.4-1.1,0.4c-0.9,0-1.6-0.7-1.6-1.8C132.5,111.8,133.3,111.1,134.1,111.1z M134.9,112.7c0-0.7-0.3-1.1-0.8-1.1
		c-0.5,0-0.9,0.4-1,1.1H134.9z"/>
	<path d="M136.3,111.2h0.5l0,0.5h0c0.3-0.3,0.7-0.6,1.1-0.6c0.5,0,0.8,0.2,0.9,0.7c0.4-0.4,0.7-0.7,1.1-0.7c0.7,0,1,0.5,1,1.3v2.2
		h-0.6v-2.1c0-0.6-0.2-0.9-0.6-0.9c-0.3,0-0.5,0.2-0.9,0.5v2.5h-0.6v-2.1c0-0.6-0.2-0.9-0.6-0.9c-0.3,0-0.5,0.2-0.9,0.5v2.5h-0.6
		V111.2z"/>
	<path d="M142.1,109.6h0.6v1.4l0,0.6c0.3-0.3,0.7-0.5,1.1-0.5c0.9,0,1.4,0.7,1.4,1.7c0,1.2-0.7,1.8-1.5,1.8c-0.3,0-0.7-0.2-1-0.4h0
		l0,0.3h-0.5V109.6z M143.5,114.2c0.6,0,1-0.5,1-1.4c0-0.7-0.3-1.3-0.9-1.3c-0.3,0-0.6,0.2-0.9,0.5v1.8
		C142.9,114.1,143.2,114.2,143.5,114.2z"/>
	<path d="M147.2,111.1c0.9,0,1.4,0.6,1.4,1.6c0,0.1,0,0.2,0,0.3h-2.3c0,0.7,0.5,1.2,1.1,1.2c0.3,0,0.6-0.1,0.8-0.3l0.2,0.4
		c-0.3,0.2-0.7,0.4-1.1,0.4c-0.9,0-1.6-0.7-1.6-1.8C145.7,111.8,146.4,111.1,147.2,111.1z M148.1,112.7c0-0.7-0.3-1.1-0.8-1.1
		c-0.5,0-0.9,0.4-1,1.1H148.1z"/>
	<path d="M149.4,111.2h0.5l0,0.6h0c0.2-0.4,0.6-0.7,1-0.7c0.1,0,0.3,0,0.4,0.1l-0.1,0.5c-0.1,0-0.2-0.1-0.3-0.1
		c-0.3,0-0.6,0.2-0.9,0.8v2.2h-0.6V111.2z"/>
	<path d="M153.3,111.2h0.5l0,0.5h0c0.3-0.3,0.7-0.6,1.1-0.6c0.5,0,0.8,0.2,0.9,0.7c0.4-0.4,0.7-0.7,1.1-0.7c0.7,0,1,0.5,1,1.3v2.2
		h-0.6v-2.1c0-0.6-0.2-0.9-0.6-0.9c-0.3,0-0.5,0.2-0.9,0.5v2.5h-0.6v-2.1c0-0.6-0.2-0.9-0.6-0.9c-0.3,0-0.5,0.2-0.9,0.5v2.5h-0.6
		V111.2z"/>
	<path d="M160.3,111.1c0.9,0,1.4,0.6,1.4,1.6c0,0.1,0,0.2,0,0.3h-2.3c0,0.7,0.5,1.2,1.1,1.2c0.3,0,0.6-0.1,0.8-0.3l0.2,0.4
		c-0.3,0.2-0.7,0.4-1.1,0.4c-0.9,0-1.6-0.7-1.6-1.8C158.8,111.8,159.6,111.1,160.3,111.1z M161.2,112.7c0-0.7-0.3-1.1-0.8-1.1
		c-0.5,0-0.9,0.4-1,1.1H161.2z"/>
	<path d="M163,113.8c0.2,0,0.4,0.2,0.4,0.4c0,0.3-0.2,0.4-0.4,0.4c-0.2,0-0.4-0.2-0.4-0.4C162.6,114,162.7,113.8,163,113.8z
		 M162.7,110.6l0-0.7h0.6l0,0.7l-0.1,2.6h-0.4L162.7,110.6z"/>
</g>
<g class="st10">
	<path class="st12" d="M107.4,125.7h0.6v4.6h-0.6V125.7z"/>
</g>
<g class="st10">
	<path class="st12" d="M112.1,125.8c-0.1-0.1-0.3-0.1-0.4-0.1c-0.3,0-0.5,0.2-0.5,0.7v0.5h0.7v0.5h-0.7v2.9h-0.6v-2.9h-0.5v-0.4
		l0.5,0v-0.5c0-0.7,0.3-1.1,1-1.1c0.2,0,0.4,0,0.6,0.1L112.1,125.8z"/>
</g>
<g class="st10">
	<path class="st12" d="M113.9,126.8c0.8,0,1.6,0.7,1.6,1.8c0,1.1-0.7,1.8-1.6,1.8s-1.6-0.7-1.6-1.8
		C112.3,127.5,113.1,126.8,113.9,126.8z M113.9,129.9c0.6,0,1-0.5,1-1.3c0-0.8-0.4-1.3-1-1.3c-0.6,0-1,0.5-1,1.3
		C112.9,129.4,113.3,129.9,113.9,129.9z"/>
</g>
<g class="st10">
	<path class="st12" d="M116.4,126.9h0.5l0,0.6h0c0.2-0.4,0.6-0.7,1-0.7c0.1,0,0.3,0,0.4,0.1l-0.1,0.5c-0.1,0-0.2-0.1-0.3-0.1
		c-0.3,0-0.6,0.2-0.9,0.8v2.2h-0.6V126.9z"/>
</g>
<g class="st10">
	<path class="st12" d="M119,130.2L119,130.2c-0.2-0.1-0.3-0.3-0.3-0.6c0-0.3,0.2-0.5,0.4-0.6v0c-0.2-0.2-0.4-0.5-0.4-0.9
		c0-0.7,0.6-1.2,1.3-1.2c0.2,0,0.4,0,0.5,0.1h1.2v0.4h-0.7c0.2,0.2,0.3,0.4,0.3,0.7c0,0.7-0.6,1.2-1.2,1.2c-0.2,0-0.4,0-0.5-0.1
		c-0.1,0.1-0.2,0.2-0.2,0.4c0,0.2,0.1,0.4,0.6,0.4h0.7c0.8,0,1.2,0.2,1.2,0.8c0,0.6-0.7,1.2-1.7,1.2c-0.8,0-1.4-0.3-1.4-0.9
		C118.5,130.7,118.7,130.4,119,130.2z M120,131.5c0.7,0,1.1-0.3,1.1-0.7c0-0.3-0.2-0.4-0.7-0.4h-0.6c-0.1,0-0.3,0-0.4-0.1
		c-0.2,0.2-0.4,0.4-0.4,0.6C119,131.2,119.4,131.5,120,131.5z M120.6,128c0-0.5-0.3-0.8-0.7-0.8c-0.4,0-0.7,0.3-0.7,0.8
		s0.3,0.8,0.7,0.8C120.3,128.8,120.6,128.5,120.6,128z"/>
</g>
<g class="st10">
	<path class="st12" d="M123.5,126.8c0.8,0,1.6,0.7,1.6,1.8c0,1.1-0.7,1.8-1.6,1.8s-1.6-0.7-1.6-1.8
		C121.9,127.5,122.7,126.8,123.5,126.8z M123.5,129.9c0.6,0,1-0.5,1-1.3c0-0.8-0.4-1.3-1-1.3c-0.6,0-1,0.5-1,1.3
		C122.5,129.4,122.9,129.9,123.5,129.9z"/>
	<path class="st12" d="M126.1,127.4h-0.5v-0.4l0.5,0l0.1-1h0.5v1h0.9v0.5h-0.9v1.9c0,0.4,0.1,0.7,0.5,0.7c0.1,0,0.3,0,0.4-0.1
		l0.1,0.4c-0.2,0.1-0.4,0.1-0.6,0.1c-0.7,0-1-0.5-1-1.1V127.4z"/>
	<path class="st12" d="M129.7,126.9h0.5l0,0.5h0c0.3-0.3,0.7-0.6,1.1-0.6c0.5,0,0.8,0.2,0.9,0.7c0.4-0.4,0.7-0.7,1.1-0.7
		c0.7,0,1,0.5,1,1.3v2.2h-0.6v-2.1c0-0.6-0.2-0.9-0.6-0.9c-0.3,0-0.5,0.2-0.9,0.5v2.5h-0.6v-2.1c0-0.6-0.2-0.9-0.6-0.9
		c-0.3,0-0.5,0.2-0.9,0.5v2.5h-0.6V126.9z"/>
	<path class="st12" d="M135.6,131.3c0.4,0,0.6-0.3,0.8-0.7l0.1-0.3l-1.4-3.4h0.6l0.7,1.9c0.1,0.3,0.2,0.6,0.3,1h0
		c0.1-0.3,0.2-0.7,0.3-1l0.6-1.9h0.6l-1.3,3.7c-0.2,0.7-0.6,1.2-1.3,1.2c-0.2,0-0.3,0-0.4-0.1l0.1-0.5
		C135.4,131.2,135.5,131.3,135.6,131.3z"/>
</g>
<g class="st10">
	<path class="st12" d="M140.8,130.6v1.1h-0.6v-4.8h0.5l0,0.4h0c0.3-0.3,0.7-0.5,1.1-0.5c0.9,0,1.3,0.7,1.3,1.7
		c0,1.2-0.7,1.8-1.5,1.8c-0.3,0-0.6-0.1-0.9-0.4L140.8,130.6z M141.6,129.9c0.6,0,1-0.5,1-1.4c0-0.7-0.3-1.3-0.9-1.3
		c-0.3,0-0.6,0.2-0.9,0.5v1.8C141.1,129.8,141.4,129.9,141.6,129.9z"/>
</g>
<g class="st10">
	<path class="st12" d="M145.9,128.1c0-0.4-0.1-0.9-0.7-0.9c-0.4,0-0.7,0.2-1,0.4l-0.2-0.4c0.3-0.2,0.8-0.4,1.3-0.4
		c0.8,0,1.2,0.6,1.2,1.4v2.1H146l0-0.4h0c-0.3,0.3-0.7,0.5-1.1,0.5c-0.6,0-1-0.4-1-1C143.8,128.7,144.5,128.3,145.9,128.1z
		 M145,129.9c0.3,0,0.6-0.2,0.9-0.5v-0.9c-1.1,0.1-1.5,0.4-1.5,0.9C144.4,129.8,144.7,129.9,145,129.9z"/>
	<path class="st12" d="M147.5,129.5c0.3,0.2,0.6,0.4,1,0.4c0.4,0,0.7-0.2,0.7-0.5c0-0.4-0.4-0.5-0.8-0.6c-0.5-0.2-1-0.4-1-1
		c0-0.5,0.4-1,1.2-1c0.4,0,0.8,0.2,1.1,0.4l-0.3,0.4c-0.2-0.2-0.5-0.3-0.8-0.3c-0.4,0-0.6,0.2-0.6,0.5c0,0.3,0.4,0.4,0.8,0.6
		c0.5,0.2,1,0.4,1,1c0,0.6-0.4,1-1.2,1c-0.5,0-0.9-0.2-1.3-0.5L147.5,129.5z"/>
</g>
<g class="st10">
	<path class="st12" d="M150.1,126.9h0.6l0.5,2c0.1,0.3,0.1,0.6,0.2,0.9h0c0.1-0.3,0.1-0.6,0.2-0.9l0.5-2h0.6l0.5,2
		c0.1,0.3,0.2,0.6,0.2,0.9h0c0.1-0.3,0.1-0.6,0.2-0.9l0.5-2h0.5l-0.9,3.4h-0.7l-0.5-1.8c-0.1-0.3-0.1-0.6-0.2-1h0
		c-0.1,0.3-0.1,0.7-0.2,1l-0.5,1.8h-0.7L150.1,126.9z"/>
</g>
<g class="st10">
	<path class="st12" d="M156.8,126.8c0.8,0,1.6,0.7,1.6,1.8c0,1.1-0.7,1.8-1.6,1.8s-1.6-0.7-1.6-1.8
		C155.3,127.5,156,126.8,156.8,126.8z M156.8,129.9c0.6,0,1-0.5,1-1.3c0-0.8-0.4-1.3-1-1.3c-0.6,0-1,0.5-1,1.3
		C155.9,129.4,156.3,129.9,156.8,129.9z"/>
</g>
<g class="st10">
	<path class="st12" d="M159.3,126.9h0.5l0,0.6h0c0.2-0.4,0.6-0.7,1-0.7c0.1,0,0.3,0,0.4,0.1l-0.1,0.5c-0.1,0-0.2-0.1-0.3-0.1
		c-0.3,0-0.6,0.2-0.9,0.8v2.2h-0.6V126.9z"/>
</g>
<g class="st10">
	<path class="st12" d="M162.9,126.8c0.4,0,0.7,0.1,1,0.4l0-0.6v-1.3h0.6v5h-0.5l0-0.4h0c-0.3,0.3-0.6,0.5-1,0.5
		c-0.9,0-1.4-0.6-1.4-1.8C161.4,127.5,162.1,126.8,162.9,126.8z M163,129.9c0.3,0,0.6-0.2,0.9-0.5v-1.8c-0.3-0.3-0.5-0.4-0.8-0.4
		c-0.5,0-1,0.5-1,1.3C162,129.4,162.4,129.9,163,129.9z"/>
</g>
<g class="st14">
	<path class="st15" d="M262.8,71.2H107.4V54.8h155.5V71.2z M107.9,70.8h154.5V55.2H107.9V70.8z"/>
</g>
<g class="st14">
	<path class="st15" d="M262.8,94.8H107.4V78.2h155.5V94.8z M107.9,94.2h154.5V78.8H107.9V94.2z"/>
</g>
<g class="st14">
	<path class="st15" d="M117.4,117.8h-10v-10.5h10V117.8z M107.9,117.2h9v-9.5h-9V117.2z"/>
</g>
<g>
	<rect x="219.6" y="104" class="st12" width="43" height="17"/>
</g>
<g class="st10">
	<path class="st16" d="M232.4,109.6h0.6v4.1h2v0.5h-2.6V109.6z"/>
</g>
<g class="st10">
	<path class="st16" d="M237,110.7c0.8,0,1.6,0.7,1.6,1.8c0,1.1-0.7,1.8-1.6,1.8c-0.8,0-1.6-0.7-1.6-1.8
		C235.4,111.4,236.2,110.7,237,110.7z M237,113.8c0.6,0,1-0.5,1-1.3c0-0.8-0.4-1.3-1-1.3c-0.6,0-1,0.5-1,1.3
		C236,113.3,236.4,113.8,237,113.8z"/>
	<path class="st16" d="M239.7,114.1L239.7,114.1c-0.2-0.1-0.3-0.3-0.3-0.6c0-0.3,0.2-0.5,0.4-0.6v0c-0.2-0.2-0.4-0.5-0.4-0.9
		c0-0.7,0.6-1.2,1.3-1.2c0.2,0,0.4,0,0.5,0.1h1.2v0.4h-0.7c0.2,0.2,0.3,0.4,0.3,0.7c0,0.7-0.6,1.2-1.2,1.2c-0.2,0-0.4,0-0.5-0.1
		c-0.1,0.1-0.2,0.2-0.2,0.4c0,0.2,0.1,0.4,0.6,0.4h0.7c0.8,0,1.2,0.2,1.2,0.8c0,0.6-0.7,1.2-1.7,1.2c-0.8,0-1.4-0.3-1.4-0.9
		C239.2,114.6,239.4,114.3,239.7,114.1z M240.7,115.4c0.7,0,1.1-0.3,1.1-0.7c0-0.3-0.2-0.4-0.7-0.4h-0.6c-0.1,0-0.3,0-0.4-0.1
		c-0.2,0.2-0.4,0.4-0.4,0.6C239.7,115.1,240.1,115.4,240.7,115.4z M241.3,111.9c0-0.5-0.3-0.8-0.7-0.8c-0.4,0-0.7,0.3-0.7,0.8
		s0.3,0.8,0.7,0.8C241,112.7,241.3,112.4,241.3,111.9z"/>
	<path class="st16" d="M242.9,109.7c0-0.2,0.2-0.4,0.4-0.4c0.2,0,0.4,0.1,0.4,0.4c0,0.2-0.2,0.4-0.4,0.4
		C243.1,110.1,242.9,110,242.9,109.7z M243,110.8h0.6v3.4H243V110.8z"/>
	<path class="st16" d="M244.7,110.8h0.5l0,0.5h0c0.3-0.3,0.7-0.6,1.1-0.6c0.7,0,1,0.5,1,1.3v2.2h-0.6v-2.1c0-0.6-0.2-0.9-0.6-0.9
		c-0.3,0-0.6,0.2-0.9,0.5v2.5h-0.6V110.8z"/>
</g>
</svg>
