<svg id="Layer_2" data-name="Layer 2" xmlns="http://www.w3.org/2000/svg" viewBox="0 0 297.38 316.03"><defs><style>.cls-1{fill:#ff8f8f;}.cls-10,.cls-2,.cls-6,.cls-7,.cls-8,.cls-9{fill:none;}.cls-2{stroke:#ff8f8f;stroke-width:12px;}.cls-10,.cls-2,.cls-7,.cls-8,.cls-9{stroke-miterlimit:10;}.cls-3{fill:#d86c6c;}.cls-4{fill:#212121;}.cls-4,.cls-5{opacity:0.14;}.cls-5{fill:#fff;}.cls-6{opacity:0.24;}.cls-7{stroke:#eaa7a7;opacity:0.86;}.cls-10,.cls-7,.cls-8,.cls-9{stroke-width:2px;}.cls-10,.cls-8,.cls-9{stroke:#8e5b5b;}.cls-8{opacity:0.59;}.cls-9{opacity:0.52;}.cls-10{opacity:0.39;}</style></defs><title>angular</title><polygon class="cls-1" points="28.02 196.22 82.69 316.03 214.69 316.03 269.36 191.7 28.02 196.22"/><polyline class="cls-2" points="247.17 196.44 280.09 196.44 290.49 166.36 263.92 139.55 249.48 104 186.52 52.58 173.18 36.92 148.74 8.22 148.45 8.44 110.86 52.58 47.9 104 33.46 139.55 6.89 166.36 17.29 196.44 50.21 196.44"/><polyline class="cls-2" points="10.62 161.7 90.62 131.7 147.62 115.7 153.62 152.7 282.62 169.7"/><polygon class="cls-1" points="150.62 12.7 128.88 33.48 165.62 82.7 198.62 110.7 265.62 144.7 259.62 122.7 240.62 95.7 194.62 61.7 150.62 12.7"/><path class="cls-2" d="M280,156" transform="translate(-133.38 -143.3)"/><polygon class="cls-3" points="150.62 12.7 189.62 50.7 253.62 98.7 268.62 138.7 296.62 164.7 156.62 149.37 147.95 110.7 31.95 149.37 48.62 106.03 150.62 12.7"/><polygon class="cls-1" points="17.29 196.44 6.89 166.36 143.95 118.03 153.62 152.7 286.62 171.37 279.95 193.37 17.29 196.44"/><polyline class="cls-4" points="284.12 202.2 267.12 201.7 214.69 316.03 187.28 315.7 247.17 196.44 267.95 198.03"/><polyline class="cls-5" points="13.28 202.2 30.28 201.7 82.71 316.03 110.12 315.7 50.23 196.44 29.45 198.03"/><polygon class="cls-6" points="77.62 206.7 217.62 206.7 175.62 305.7 124.62 305.7 77.62 206.7"/><line class="cls-7" x1="266.83" y1="202.22" x2="214.75" y2="314.86"/><line class="cls-8" x1="30.62" y1="204.37" x2="83.95" y2="314.7"/><polyline class="cls-9" points="44.28 101.37 29.62 136.87 0.78 165.87"/><line class="cls-10" x1="162.95" y1="200.7" x2="245.62" y2="200.7"/></svg>