<?xml version="1.0" encoding="utf-8"?>
<!-- Generator: Adobe Illustrator 16.0.0, SVG Export Plug-In . SVG Version: 6.00 Build 0)  -->
<!DOCTYPE svg PUBLIC "-//W3C//DTD SVG 1.1//EN" "http://www.w3.org/Graphics/SVG/1.1/DTD/svg11.dtd">
<svg version="1.1" id="Layer_1" xmlns="http://www.w3.org/2000/svg" xmlns:xlink="http://www.w3.org/1999/xlink" x="0px" y="0px"
	 width="46.167px" height="51.167px" viewBox="11.417 21.132 46.167 51.167" enable-background="new 11.417 21.132 46.167 51.167"
	 xml:space="preserve">
<g>
	<path fill="#FFFFFF" d="M13.944,47.803c-0.186,0.333-0.215,0.744-0.137,1.233c0.89,2.338,3.287,6.025,4.745,9.813
		c1.448,3.738,1.839,5.625,3.14,7.416c1.301,1.791,5.841,2.964,5.841,2.964l5.792,1.164V50.865
		C33.335,50.865,14.541,46.747,13.944,47.803z"/>
	<polygon fill="#FFFFFF" points="37.346,24.068 36.818,24.597 36.251,24.969 30.713,28.853 34.186,31.249 39.107,31.367 
		37.297,27.718 37.297,25.918 	"/>
	<path fill="#FFFFFF" d="M19.98,35.016L19.98,35.016c-0.039,0.039-0.068,0.069-0.098,0.098l0,0c-0.078,0-0.146,0.021-0.196,0.099
		l0,0c-0.029,0.028-0.068,0.058-0.098,0.098c-0.254,0.029-0.381,0.235-0.528,0.401c-0.587,0.665-1.194,1.301-1.878,1.878
		c-1.018,0.861-1.859,1.897-2.69,2.917c-0.353,0.42-0.725,0.85-0.959,1.359c-0.392,0.059-0.627,0.382-0.93,0.587
		c-0.176,0.127-0.157,0.283-0.039,0.46c0.196,0.282,0.333,0.615,0.264,0.958c-0.078,0.373,0.029,0.655,0.274,0.92
		c0.039,0.028,0.088,0.068,0.127,0.098l0,0c0,0.088,0,0.167,0.098,0.195l0,0c0,0.089,0.01,0.167,0.098,0.195l0,0
		c0,0.089,0.02,0.157,0.098,0.195l0,0c0.029,0.039,0.069,0.078,0.097,0.107c0.167,0.255,0.333,0.509,0.49,0.763
		c0,0.265,0,0.529,0,0.793c-0.235,0.372-0.196,0.763-0.049,1.154c0.049,0.138,0.04,0.284,0.059,0.431
		c0.079,0.724,0.411,1.311,1.018,1.673c0.47,0.284,0.763,0.567,0.646,1.135c-0.02,0.078,0,0.166,0,0.245
		c-0.02,0.313,0.127,0.44,0.44,0.44c0.47,0,0.939,0,1.399-0.157c0.147-0.048,0.342-0.126,0.45,0.021
		c0.088,0.117-0.088,0.226-0.136,0.333c-0.177,0.322-0.069,0.616,0.146,0.852c0.225,0.245,0.499,0.117,0.704-0.04
		c0.284-0.215,0.401-0.059,0.509,0.177c0.343,0.725,0.734,0.841,1.429,0.459c0.254-0.137,0.479-0.361,0.792-0.411
		c0.058,0.196,0,0.343-0.04,0.509c-0.186,0.86,0.127,1.165,0.988,0.949c0.108-0.028,0.215-0.068,0.323-0.106
		c0.499-0.157,0.948-0.431,1.418-0.656c0.274-0.137,0.42-0.088,0.479,0.226c0.059,0.322,0.147,0.636,0.303,0.92
		c0.128,0.234,0.254,0.479,0.578,0.421c0.343-0.069,0.323-0.381,0.352-0.617c0.039-0.372-0.029-0.763,0.118-1.125
		c0.459,0.019,0.822,0.342,1.271,0.4c0.333,0.038,0.548,0.194,0.567,0.548c0.01,0.176,0.01,0.352,0.02,0.538
		c0.059,1.202,0.206,1.329,1.37,1.135c-0.186,0.157-0.186,0.322-0.127,0.557c0.273,1.185,0.616,2.349,0.978,3.503
		c0.303,0.958,0.518,1.938,0.91,2.866l0,0c0.029,0.069,0.069,0.127,0.098,0.196l0,0c0.029,0.166-0.078,0.381,0.186,0.439
		c0.127,0.979,0.284,1.957,0.382,2.935c0.048,0.528,0.342,1.026,0.195,1.576c-0.215,0.322-0.45,0.264-0.655,0.019
		c-0.245-0.293-0.46-0.606-0.685-0.919c-0.049-0.215-0.176-0.401-0.214-0.636c-0.226-1.526-0.323-3.072-0.676-4.579
		c-0.391-1.645-0.704-3.297-1.409-4.854c-0.039-0.078-0.01-0.215-0.137-0.226c-0.108-0.009-0.167,0.098-0.186,0.196
		c-0.098,0.518-0.313,1.027-0.167,1.585c0.255,1.008,0.499,2.015,0.597,3.052c0.107,1.105,0.656,2.113,0.783,3.209
		c0.098,0.822,0.371,1.575,0.714,2.319c0.078,0.176,0.215,0.333,0.176,0.537c-0.069,0.118-0.167,0.217-0.167,0.362
		c-0.499,0.587-0.763,0.567-1.193-0.089c-0.274-0.42-0.42-0.9-0.567-1.369c0.02-0.167,0-0.323-0.039-0.479
		c-0.616-2.467-1.213-4.94-1.976-7.377c-0.206-0.655-0.382-1.32-0.753-1.938c-0.195,0.187-0.225,0.354-0.186,0.567
		c0.274,1.81,0.753,3.581,1.204,5.352c0.234,0.939,0.567,1.858,0.714,2.828c-0.098,0.439,0.137,0.851,0.079,1.291
		c-0.03,0.195,0.01,0.431-0.177,0.519c-0.215,0.099-0.332-0.127-0.469-0.254c-0.088-0.088-0.166-0.186-0.254-0.294
		c0.078,0.773,0.675,1.596,1.31,1.703c0.734,0.127,1.419,0.401,2.133,0.598c0.186,0.059,0.362,0.127,0.558,0.176
		c0.733,0.185,1.428,0.636,2.171,0.605c1.859-0.067,3.64,0.401,5.449,0.646c1.751,0.234,3.474,0.176,5.195-0.06
		c1.83-0.243,3.64-0.636,5.508-0.576c0.978,0.027,1.986-0.108,2.925-0.411c1.232-0.412,2.417-0.97,3.62-1.478
		c0.617-0.254,0.724-0.979,0.147-1.331c-0.607-0.372-0.832-0.881-0.93-1.546c-0.068-0.518-0.322-1.008-0.9-1.065
		c-0.362-0.039-0.597-0.206-0.851-0.393c-0.342-0.245-0.675-0.499-1.007-0.764c-0.676-0.547-1.341-1.125-2.378-0.841
		c1.438-3.435,2.71-6.907,4.452-10.165c0.577-0.783,1.007-1.645,1.477-2.485c0.137-0.245,0.372-0.45,0.352-0.763
		c0.157-0.245,0.304-0.5,0.46-0.744c0.157-0.06,0.176-0.157,0.079-0.284c0.146-0.088,0.078-0.175,0-0.264
		c-0.206-0.234-0.401-0.48-0.606-0.715c-0.196-0.353-0.069-0.654,0.126-0.948c0.147-0.235,0.284-0.469,0.401-0.725
		c0.157-0.322,0.04-0.488-0.274-0.577c-0.439-0.127-0.87-0.254-1.31-0.382c-0.226-0.067-0.479-0.146-0.49-0.4
		c-0.019-0.411-0.244-0.694-0.46-0.998c-0.058-0.146-0.146-0.274-0.313-0.294c0.156-0.616-0.313-0.9-0.656-1.252
		c-0.234-0.245-0.166-0.548-0.118-0.832c0.059-0.353,0.177-0.686,0.274-1.037c0.098-0.166,0.234-0.322,0.019-0.626
		c-0.019,0.226-0.029,0.333-0.029,0.439c-0.029,0-0.069,0-0.098,0c0-0.136,0.049-0.282-0.078-0.399c0-0.04-0.01-0.069-0.01-0.107
		c-0.02-0.167,0.059-0.343-0.079-0.488l-0.01-0.021c-0.019-0.284,0.039-0.605-0.293-0.772c-0.039,0-0.068,0-0.108,0l0,0
		c-0.049-0.411-0.489-0.499-0.685-0.783c-0.049-0.705-0.597-1.019-1.105-1.34c-0.783-0.5-1.741-0.655-2.495-1.214
		c-0.127-0.137-0.254-0.282-0.401-0.421c-0.841-0.82-1.722-1.633-2.318-2.661c-0.421-0.724-1.077-0.909-1.81-1.037
		c-0.098-0.059-0.196-0.127-0.293-0.187c-0.108-0.225-0.323-0.313-0.529-0.411c-0.538-0.264-1.115-0.421-1.653-0.694
		c-0.939-0.489-1.741-1.251-2.827-1.457c-0.167-0.029-0.255-0.188-0.274-0.372c-0.127-0.42-0.167-0.853-0.01-1.282
		c0.049-0.939,0.049-1.879,0.666-2.671c0.039-0.049,0.059-0.118,0.088-0.176c0.039-0.079,0.058-0.167-0.02-0.216
		c-0.078-0.049-0.156,0.011-0.196,0.088c-0.117,0.205-0.303,0.382-0.342,0.637c-0.029,0.028-0.059,0.068-0.088,0.098l0,0
		c-0.137,0-0.186,0.107-0.245,0.206c-0.293,0.479-0.332,1.017-0.323,1.545c0.02,0.773-0.146,1.497-0.41,2.221
		c-0.069,0.196-0.197,0.226-0.372,0.245c-0.509,0.068-1.028,0.118-1.527,0.226c-0.607,0.128-0.812,0.548-0.577,1.125
		c0.068,0.186,0.108,0.459,0.362,0.47c0.254,0.019,0.45-0.216,0.499-0.402c0.187-0.685,0.646-0.812,1.263-0.742
		c0.147,0.02,0.293,0,0.44,0c0.959,0.02,1.458,0.537,1.497,1.507c0.01,0.332-0.079,0.469-0.43,0.45c-0.685-0.03-1.37-0.011-2.055,0
		c-0.157,0-0.333-0.05-0.46,0.097c-0.068,0-0.127,0-0.196,0c-1.115-0.088-1.947-0.909-3.003-1.173
		c-0.108-0.03-0.167-0.187-0.079-0.226c0.381-0.156,0.167-0.421,0.147-0.655c-0.01-0.157-0.029-0.293,0.166-0.411
		c0.655-0.411,1.341-0.764,1.908-1.34c0.577-0.568,1.32-0.97,1.878-1.586c0.108-0.116,0.314-0.204,0.177-0.448
		c-1.135,0.91-2.299,1.761-3.659,2.299c-0.401,0.068-0.773,0.215-1.086,0.499c-0.294,0-0.558,0.127-0.764,0.284
		c-0.822,0.626-1.722,1.066-2.68,1.419c-0.48,0.176-0.969,0.342-1.419,0.566c-0.763,0.383-1.252,1.066-1.78,1.693
		c-0.421,0.499-0.871,1.017-1.438,1.292c-0.734,0.342-1.468,0.685-2.192,1.046c-0.42,0.215-0.89,0.392-1.154,0.842
		C20.039,34.939,20.01,34.977,19.98,35.016z"/>
	<path fill="#FFFFFF" d="M22.231,60.258c-0.009-0.039-0.029-0.088-0.039-0.128c-0.01,0.01-0.039,0.02-0.039,0.03
		C22.182,60.19,22.201,60.228,22.231,60.258c0.01,0.078,0.02,0.146,0.039,0.215c0.01-0.009,0.029-0.009,0.039-0.029
		C22.338,60.365,22.299,60.297,22.231,60.258z"/>
	<path fill="#FFFFFF" d="M22.456,56.178c-0.059,1.351,2.994,10.566,3.688,11.084C24.98,63.535,24.315,59.69,22.456,56.178z"/>
	<path fill="#FFFFFF" d="M22.622,61.403c0.234,1.008,0.616,1.985,0.734,3.003c0.098,0.813,0.361,1.536,0.714,2.25
		c0.069,0.138,0.098,0.383,0.293,0.313c0.206-0.069,0.118-0.313,0.088-0.479C24.109,64.71,23.209,63.115,22.622,61.403z"/>
	<path fill="#FFFFFF" d="M22.123,63.751c0.107,0.45-0.127,0.93,0.156,1.358c0.46,0.705,0.665,0.939,0.91,1.038
		C22.749,65.374,22.564,64.513,22.123,63.751z"/>
	<path fill="#FFFFFF" d="M21.976,59.612c0.01-0.029,0.01-0.049,0.02-0.067c-0.01,0-0.02,0.01-0.039,0.01
		C21.967,59.573,21.967,59.582,21.976,59.612z"/>
	<path fill="#FFFFFF" d="M22.074,59.896c0.039,0,0.049-0.019,0.02-0.049c0,0-0.02,0.01-0.04,0.01
		C22.064,59.866,22.064,59.877,22.074,59.896z"/>
	<path fill="#FFFFFF" d="M22.407,60.737c-0.01-0.01-0.02-0.02-0.029-0.028c-0.01,0.009-0.02,0.019-0.029,0.028
		c0.009,0.011,0.029,0.03,0.039,0.039C22.397,60.767,22.397,60.747,22.407,60.737z"/>
	<path fill="#F7E3E5" d="M32.592,27.278c1.359-0.539,2.523-1.39,3.659-2.3c0.137,0.245-0.068,0.333-0.176,0.45
		c-0.558,0.617-1.311,1.018-1.879,1.585c-0.577,0.577-1.252,0.929-1.907,1.34c-0.196,0.118-0.176,0.254-0.167,0.411
		c0.02,0.235,0.235,0.499-0.146,0.656c-0.088,0.039-0.03,0.194,0.078,0.225c1.057,0.266,1.889,1.086,3.004,1.174
		c-0.03,0.234,0.117,0.265,0.303,0.322c0.166,0.06,0.439-0.029,0.489,0.264c-0.049,0.265,0.137,0.383,0.303,0.51
		c0.215,0.166,0.44,0.322,0.666,0.479c-0.01,0.254-0.157,0.205-0.343,0.187c-0.186-0.021-0.382-0.206-0.656,0.019
		c0.773,0.235,1.487,0.45,2.202,0.656c1.692,0.489,3.425,0.802,5.137,1.184c0.586,0.138,0.743,0.333,0.792,0.958
		c-1.507-0.038-3.004-0.214-4.511-0.01c-0.039-0.048-0.068-0.028-0.088,0.02c-0.01,0.196,0.157,0.235,0.284,0.274
		c1.066,0.333,2.142,0.597,3.238,0.803c0.049,0.078,0.118,0.087,0.206,0.078h0.01c-0.548,0.166-1.145,0.107-1.673,0.362
		c0.107,0.049,0.127,0.069,0.088,0.146c-0.156-0.019-0.323-0.019-0.479-0.049c-1.271-0.264-2.524-0.558-3.805-0.753
		c-0.293-0.048-0.725-0.235-0.812,0.039c-0.069,0.215,0.44,0.283,0.714,0.353c1.575,0.41,3.189,0.538,4.784,0.812
		c0.137,0.519,0.705,0.293,0.979,0.567c-1.301,0.04-2.602,0.079-3.894,0.117c0.029-0.088,0.206-0.195-0.079-0.225
		c-0.508-0.049-1.027-0.127-1.526-0.254c-1.957-0.479-3.855-1.115-5.685-1.966c-1.125-0.52-2.269-1.019-3.101-1.986
		c-0.117-0.293-0.264-0.587-0.352-0.891c-0.137-0.46,0.068-0.674,0.508-0.528c0.382,0.127,0.46-0.029,0.47-0.343
		c0.147,0,0.293,0.011,0.42,0.088c0.636,0.391,1.273,0.771,1.909,1.154c0.723,0.421,1.428,0.86,2.269,1.046
		c1.497,0.322,2.994,0.706,4.491,1.018c0.255,0.049,0.538,0.245,0.891-0.009c-0.871-0.362-1.722-0.587-2.534-0.93
		c-1.026-0.431-1.996-0.87-2.651-1.85c-0.225-0.333-0.567-0.605-1.027-0.763c-0.861-0.283-1.722-0.577-2.495-1.066
		c-0.509-0.322-0.968-0.294-1.458,0.068c-0.137,0.098-0.245,0.215-0.235,0.401c-0.234,0.272-0.596,0.43-0.782,0.763
		c-0.293-0.255-0.539-0.01-0.813,0.059c-0.431,0.127-0.694,0.509-1.096,0.686c0.03-0.157,0.059-0.313,0.147-0.46
		c0.234-0.401,0.234-0.479,0.117-0.988c-0.489,0.529-0.851,1.146-1.214,1.751c-0.126,0.206-0.225,0.45-0.176,0.695
		c0.167,0.771,0.02,1.585,0.274,2.349c-0.098,0.058-0.137,0.187-0.274,0.187c-0.411,0.009-0.343,0.186-0.147,0.409
		c0.098,0.108,0.167,0.236,0.275,0.344c0.948,0.948,2.162,1.507,3.296,2.19c0.157,0.089,0.323,0.177,0.518,0.127
		c-0.009-0.136-0.107-0.155-0.176-0.186c-0.851-0.392-1.594-0.929-2.299-1.545c-0.117-0.108-0.215-0.254-0.401-0.254
		c-0.274-0.011-0.343-0.216-0.401-0.421c0.118-0.167-0.029-0.256-0.117-0.362l0.009,0.01c-0.088-0.362-0.205-0.714-0.244-1.086
		c-0.059-0.567,0.059-1.095,0.518-1.575c0.137,0.725,0.304,1.36,0.9,1.771l0,0c0.01,0.187,0.127,0.273,0.294,0.293l0,0
		c0.029,0.029,0.069,0.068,0.098,0.099c0.323,0.155,0.499,0.479,0.803,0.675c0.998,0.636,1.957,1.32,2.955,1.946
		c0.538,0.333,1.095,0.665,1.77,0.763c-0.009-0.225-0.293-0.186-0.293-0.421c0.43-0.097,0.9,0.049,1.33-0.088
		c0.265-0.078,0.5-0.019,0.754,0.088c0.93,0.421,1.761,1.019,2.73,1.37c0.577,0.206,1.105,0.529,1.741,0.567
		c-0.782-0.686-1.595-1.32-2.524-1.79c-0.822-0.421-1.585-0.968-2.436-1.312c-0.891-0.361-1.869-0.519-2.789-0.821
		c-0.675-0.226-1.144-0.733-1.614-1.272c0.215-0.107,0.303,0.01,0.42,0.059c0.637,0.274,1.223,0.695,1.918,0.804
		c2.269,0.342,4.393,1.213,6.594,1.779c0,0.138,0.087,0.206,0.206,0.245c0.597,0.206,1.174,0.471,1.81,0.538
		c1.066,0.118,2.074,0.568,3.161,0.617c0.039,0,0.068,0.098,0.107,0.147c-0.079,0.019-0.137,0.059-0.196,0.126
		c-0.499,0.636-0.694,0.646-1.36,0.167c-0.127-0.089-0.264-0.323-0.44-0.157c-0.146,0.146-0.01,0.333,0.059,0.489
		c0.254,0.548,0.704,0.958,1.066,1.428c-0.195,0.186-0.45,0.138-0.645,0.088c-0.734-0.206-1.497-0.264-2.231-0.42
		c-2.015-0.431-4.079-0.606-6.085-1.115c-0.147-0.04-0.323-0.069-0.45,0.097c-0.782-0.293-1.565-0.587-2.348-0.88
		c0.245,0.293,0.577,0.42,0.9,0.559c3.268,1.388,6.644,2.455,10.116,3.188c0.166,0.039,0.489-0.039,0.489,0.195
		c0,0.264-0.323,0.274-0.528,0.333c-0.107,0.039-0.225,0.02-0.342,0.02c-1.037,0.068-2.035-0.128-3.042-0.361
		c-1.555-0.372-3.043-0.931-4.559-1.43c-0.137-0.088-0.264-0.194-0.46-0.136c0.127,0.127,0.274,0.156,0.411,0.195
		c2.357,1.359,4.97,1.947,7.592,2.495c1.154,0.234,2.328,0.4,3.492,0.597c0.029,0.225,0.235,0.225,0.381,0.303
		c0.401,0.206,0.88,0.274,1.174,0.665c-0.069,0-0.127,0-0.196,0c-0.088-0.098-0.196-0.078-0.303-0.067
		c-0.597-0.04-1.193-0.079-1.791-0.118c0,0.03-0.009,0.059-0.009,0.088c1.154,0.265,2.318,0.539,3.473,0.803
		c-0.166,0.166-0.362,0.099-0.539,0.068c-0.538-0.108-1.037-0.01-1.517,0.234c-0.156-0.02-0.323-0.02-0.479-0.048
		c-1.389-0.216-2.778-0.44-4.167-0.646c-1.517-0.227-3.053-0.343-4.579-0.461c-0.136-0.009-0.293-0.06-0.401,0.118
		c0.265,0.127,0.529,0.254,0.822,0.265c0.039,0.029,0.068,0.048,0.107,0.079c0.059,0.009,0.118,0.009,0.186,0.019
		c0,0.166,0.069,0.234,0.245,0.293c0.412,0.138,0.813,0.313,1.146,0.617c0.283,0.264,0.264,0.43-0.098,0.586
		c-0.999,0.432-2.045,0.705-3.073,1.027c-0.401,0.127-0.783,0.392-1.252,0.303c-0.01-0.196,0.029-0.392-0.049-0.578
		c-0.098-0.225-0.234-0.352-0.489-0.264c-0.949,0.323-1.888,0.676-2.847,0.999c-1.321,0.439-2.651,0.734-4.07,0.616
		c0.049-0.039,0.069-0.069,0.098-0.069c1.527-0.058,2.867-0.694,4.226-1.282c0.284-0.126,0.461-0.283,0.265-0.665
		c-0.734-1.477-1.448-2.964-2.504-4.235c-0.685-0.821-1.302-1.693-2.045-2.467c-0.254-0.264-0.459-0.566-0.685-0.851
		c0.029-0.03,0.059-0.049,0.098-0.078c0.646,0.509,1.301,1.007,1.947,1.517c0.137,0.107,0.274,0.303,0.46,0.156
		c0.195-0.156,0.352-0.028,0.488,0.04c0.479,0.244,0.93,0.519,1.409,0.772c0.362,0.186,0.734,0.352,1.096,0.519
		c-0.753-0.763-1.742-1.165-2.495-1.908c1.996,1.125,3.982,2.241,6.212,2.828c-0.527-0.304-1.076-0.548-1.624-0.821
		c-1.223-0.607-2.456-1.186-3.63-1.898c-1.673-1.007-3.326-2.025-4.774-3.336c-0.764-0.694-1.536-1.409-1.722-2.515
		c-0.039-0.244-0.205-0.4-0.391-0.45c-0.381-0.088-0.705-0.313-1.066-0.431c-0.176-0.059-0.323-0.049-0.45,0.067
		c-0.146,0.138-0.009,0.274,0.039,0.402c0.382,0.86,0.705,1.741,1.165,2.563c0.646,1.174,1.271,2.368,2.25,3.307
		c0.519,0.499,0.959,1.047,1.35,1.645c0.783,1.193,1.37,2.494,2.114,3.707c0.039,0.069,0.078,0.157,0,0.226
		c-0.079,0.068-0.157,0-0.206-0.06c-0.852-0.899-1.859-1.663-2.407-2.836c-0.431-0.919-0.891-1.829-1.477-2.661
		c-0.206-0.293-0.294-0.646-0.568-0.899c-0.146-0.128-0.245-0.146-0.343,0.028c-0.059,0.108,0.01,0.305-0.185,0.294
		c-0.177-0.01-0.177-0.206-0.245-0.333c-0.52-0.987-1.008-1.995-1.722-2.867c-0.088-0.106-0.137-0.254-0.284-0.194
		c-0.823,0.293-1.889,0.206-2.202,1.34c-0.03,0.118-0.098,0.225-0.234,0.177c-0.127-0.05-0.235-0.146-0.225-0.294
		c0.01-0.088,0.078-0.176,0.117-0.254c0.088-0.167,0.068-0.313-0.059-0.45c-0.137-0.146-0.264-0.117-0.44-0.059
		c-0.519,0.196-0.832,0.655-1.282,0.938c-0.127,0.078-0.274,0.216-0.177,0.411c0.098,0.176,0.275,0.166,0.431,0.127
		c0.362-0.078,0.724-0.176,1.086-0.254c0.333-0.078,0.548,0.011,0.499,0.411c-0.137,0.137-0.264,0.284-0.401,0.421
		c-0.303,0.313-0.625,0.616-0.597,1.115c-0.43-0.127-0.861-0.274-1.184-0.606c0.039-0.156,0.069-0.313,0.107-0.47
		c0.05-0.186-0.029-0.322-0.175-0.42c-0.187-0.117-0.265,0.069-0.343,0.167c-0.509,0.577-0.773,1.262-0.861,2.025
		c-0.303,0.068-0.196,0.392-0.342,0.558c-0.324,0.372-0.225,0.753-0.039,1.174c0.362,0.813,0.87,1.527,1.408,2.202
		c0.44,0.558,0.949,1.076,1.575,1.497c0.519,0.343,1.077,0.646,1.507,1.125c0.167,0.187,0.235,0.323,0.04,0.519
		c0.186,0.431,0.577,0.587,0.968,0.744l0.011,0.009c0.352,0.422,0.822,0.686,1.271,0.959c0.176,0.489,0.293,1.076,0.852,1.224
		c0.724,0.196,1.389,0.528,2.132,0.655c0.783,0.137,1.576,0.195,2.349,0.352c0.264,0.059,0.577,0.188,1.007,0.02
		c-1.135-0.282-2.055-0.763-3.014-1.162l0,0c0.46-0.06,0.871,0.127,1.282,0.255c1.683,0.518,3.394,0.625,5.146,0.43
		c1.399-0.157,2.779-0.401,4.188-0.519c0.323-0.029,0.685-0.011,1.008-0.138c0.157-0.059,0.333-0.106,0.372-0.273
		c0.049-0.196-0.137-0.273-0.273-0.353c-0.382-0.194-0.773-0.392-1.154-0.578c0.087-0.088,0.205-0.079,0.323-0.088
		c0.91-0.127,1.819-0.273,2.739-0.361c1.145-0.107,2.26-0.392,3.415-0.411c0.724,0.342,1.281,0.88,1.653,1.575
		c0.274,0.509,0.039,0.813-0.528,0.88c-0.597,0.068-1.193,0.059-1.79,0.107c-1.272,0.108-2.534,0.265-3.806,0.362
		c-1.331,0.106-2.642,0.214-3.884,0.753c-0.46,0.195-0.939,0.333-1.418,0.47c-0.685,0.205-1.379,0.382-2.074,0.577
		c-0.157-0.04-0.294-0.107-0.46-0.138c-1.028-0.146-2.045-0.332-3.073-0.479c-0.763-0.107-1.467-0.382-2.201-0.606
		c-0.108-0.028-0.323-0.235-0.313,0.107c-0.763-0.068-1.478-0.245-2.065-0.772c0.157-0.068,0.216-0.187,0.187-0.354
		c-0.01-0.078-0.059-0.116-0.137-0.098c-0.528,0.176-0.763-0.206-1.028-0.528c0.128,0,0.265,0,0.392,0
		c0.039,0.039,0.078,0.088,0.117,0.127c0.01-0.02,0.029-0.039,0.039-0.059c-0.049-0.021-0.108-0.049-0.156-0.068
		c-0.098-0.107-0.176-0.234-0.284-0.333c-1.067-0.919-2.172-1.8-3.239-2.729c-1.408-1.224-2.866-2.389-4.305-3.572
		c-0.43-0.352-0.655-0.743-0.597-1.331c0.059-0.566,0.157-1.115,0.401-1.634c0.234-0.508,0.616-0.939,0.958-1.36
		c0.842-1.017,1.683-2.054,2.691-2.915c0.684-0.577,1.291-1.213,1.878-1.879c0.147-0.167,0.274-0.381,0.528-0.4
		c0.029-0.029,0.069-0.06,0.098-0.099l0,0c0.079,0,0.157-0.01,0.196-0.098l0,0c0.029-0.029,0.059-0.068,0.098-0.098l0,0
		c0.029-0.04,0.059-0.078,0.098-0.118c0.264-0.45,0.724-0.625,1.155-0.841c0.723-0.362,1.458-0.705,2.191-1.048
		c0.567-0.273,1.017-0.792,1.438-1.291c0.538-0.626,1.027-1.311,1.781-1.692c0.459-0.226,0.939-0.392,1.418-0.567
		c0.959-0.342,1.859-0.792,2.681-1.418c0.206-0.157,0.479-0.284,0.763-0.284c0.107,0,0.254,0.05,0.323,0
		C32.083,27.601,32.533,27.728,32.592,27.278z"/>
	<path fill="#E794A1" d="M47.961,47.05c-1.155-0.264-2.319-0.539-3.473-0.802c0-0.03,0.01-0.061,0.01-0.088
		c0.596,0.038,1.193,0.077,1.79,0.116c0.088,0.087,0.186,0.087,0.304,0.067c0.068,0,0.127,0,0.195,0.01
		c1.067,0.021,2.143,0.156,3.199,0.01c1.066-0.146,1.888-0.753,2.514-1.584c0.235-0.313,0.157-0.743-0.157-0.969
		c-0.313-0.214-0.538,0.157-0.782,0.313c-0.088,0.059-0.137,0.176-0.195,0.272c-0.509,0.822-1.262,1.165-2.202,1.204
		c-1.321,0.06-2.622-0.146-3.933-0.206c-1.165-0.196-2.338-0.361-3.492-0.597c-2.622-0.539-5.234-1.135-7.593-2.495
		c0.02-0.02,0.04-0.039,0.049-0.068c1.507,0.499,3.004,1.058,4.559,1.43c0.999,0.233,2.006,0.43,3.043,0.36
		c0.118-0.009,0.235,0.011,0.343-0.02c0.206-0.068,0.528-0.078,0.528-0.333c0-0.234-0.322-0.166-0.489-0.196
		c-3.473-0.733-6.849-1.8-10.116-3.188c-0.323-0.137-0.656-0.264-0.9-0.558c0.782,0.294,1.565,0.587,2.348,0.88
		c1.341,0.607,2.74,0.998,4.148,1.38c1.625,0.45,3.269,0.831,4.941,1.076c0.127,0.021,0.255,0.108,0.313-0.098
		c0.108-0.342,0.274-0.675,0-1.008c-0.362-0.479-0.812-0.881-1.066-1.429c-0.069-0.155-0.215-0.352-0.06-0.489
		c0.177-0.175,0.313,0.059,0.441,0.156c0.666,0.479,0.861,0.47,1.36-0.167c0.059-0.068,0.118-0.106,0.195-0.127
		c0.177,0.03,0.362,0.03,0.519,0.099c1.301,0.479,2.612,0.959,3.903,1.468c1.272,0.489,2.769-0.078,3.415-1.32
		c0.117-0.02,0.196-0.088,0.196-0.215v0.01c0.254-0.078,0.273-0.303,0.284-0.509c0.01-0.225-0.03-0.459,0-0.675
		c0.03-0.283,0.137,0.02,0.205-0.009l0.01,0.019c0.01,0.166-0.068,0.343,0.079,0.489c0,0.04,0.01,0.068,0.01,0.108
		c0,0.137-0.049,0.282,0.078,0.4c0.029,0,0.069,0,0.098,0c0,0.059,0.01,0.127,0.01,0.187c-0.088,0.342-0.205,0.685-0.274,1.037
		c-0.048,0.282-0.117,0.587,0.118,0.832c0.343,0.353,0.812,0.636,0.656,1.252c0.059,0.156,0.146,0.273,0.313,0.293
		c0.206,0.303,0.441,0.597,0.46,0.998c0.011,0.265,0.264,0.342,0.49,0.4c0.44,0.128,0.871,0.254,1.31,0.382
		c0.314,0.088,0.431,0.254,0.274,0.578c-0.118,0.254-0.245,0.488-0.401,0.725c-0.196,0.294-0.323,0.605-0.126,0.948
		c-0.353,0.195-0.695,0.383-1.047,0.577c-0.04,0.029-0.088,0.068-0.127,0.099c-0.391,0.302-0.479,0.724-0.499,1.184
		c-0.206-0.079-0.401-0.157-0.607-0.236c0.137,0.226,0.333,0.393,0.431,0.627c-0.489,0.401-1.028,0.753-1.576,1.075
		c-0.068,0.03-0.127,0.069-0.195,0.099h0.009c-0.166-0.029-0.332-0.059-0.508-0.088c-0.02,0.187,0.186,0.167,0.225,0.293
		c-0.636,0.421-1.302,0.813-1.908,1.272c-0.342,0.264-0.714,0.382-1.115,0.508c-0.323,0.099-0.646-0.126-0.95,0.061l-0.019-0.021
		l-0.029,0.009c-0.304-0.009-0.587,0.127-0.695,0.354c-0.303,0.606-0.822,0.538-1.35,0.538c-0.264,0-0.538,0.079-0.802,0.118
		c-0.225,0.039-0.44,0.106-0.606,0.272c-0.391,0.323-0.822,0.479-1.34,0.411c-0.108-0.009-0.225,0.107-0.333,0.157
		c-0.45-0.471-0.724-0.039-1.027,0.205c-0.117-0.117-0.235,0.079-0.353,0.02c-0.401,0.039-0.822-0.059-1.223,0.06
		c-0.617-0.157-1.281,0.027-1.888-0.255c0.773-0.226,1.584-0.049,2.367-0.187c0.998-0.176,2.025-0.167,3.003-0.567
		c1.017-0.421,2.054-0.803,3.131-1.057c0.616-0.146,1.232-0.283,1.839-0.46c0.274-0.078,0.548-0.215,0.538-0.596
		c-0.01-0.354-0.254-0.479-0.528-0.56c-0.518-0.146-1.037-0.264-1.555-0.399c-0.489-0.127-0.989-0.265-1.478-0.401
		c0.959-0.186,1.917-0.244,2.857-0.391c1.008-0.157,2.025-0.245,3.003-0.568c0.117-0.039,0.284-0.058,0.284-0.215
		c0-0.147-0.127-0.226-0.245-0.274c-0.146-0.068-0.303-0.127-0.46-0.167c-0.939-0.205-1.908-0.186-2.867-0.194
		c-0.948-0.011-1.907,0.146-2.837,0.361c-0.939,0.214-1.888,0.401-2.837,0.598c-1.155,0.019-2.27,0.303-3.415,0.41
		c-0.92,0.089-1.83,0.245-2.739,0.361c-0.108,0.02-0.225,0-0.323,0.089c-0.127,0.009-0.254,0.021-0.382,0.029
		c-0.029,0-0.068,0-0.098,0c-0.9,0.098-1.81,0.186-2.71,0.293c-2.446,0.294-4.892,0.421-7.358,0.362
		c-1.144-0.021-2.27-0.146-3.336-0.598c-0.45-0.283-0.919-0.538-1.272-0.958c0.539,0.226,1.077,0.45,1.644,0.587
		c2.866,0.725,5.782,0.803,8.707,0.549c0.989,0,1.966-0.166,2.955-0.256c1.595-0.146,3.189-0.381,4.765-0.675
		c1.82-0.342,3.62-0.724,5.43-1.104c0.655-0.138,1.301-0.323,2.054-0.509c-1.516-0.255-2.906-0.479-4.295-0.726
		c-1.448-0.253-2.896-0.527-4.354-0.791c-0.059-0.01-0.118-0.01-0.186-0.02c-0.039-0.029-0.068-0.049-0.107-0.078
		c-0.303-0.011-0.558-0.139-0.822-0.266c0.098-0.175,0.255-0.127,0.401-0.116c1.536,0.116,3.062,0.233,4.578,0.459
		c1.389,0.206,2.778,0.431,4.168,0.646c0.156,0.03,0.323,0.03,0.479,0.049c0.04,0.029,0.079,0.068,0.118,0.077
		c1.233,0.207,2.476,0.354,3.688,0.617c1.418,0.304,2.729,0.088,4.021-0.49c0.42-0.185,0.577-0.538,0.724-0.919
		c0.068-0.166-0.02-0.254-0.186-0.245c-0.147,0-0.294,0.011-0.43,0.039C51.904,46.815,49.957,47.177,47.961,47.05z"/>
	<path fill="#7A7A7A" d="M44.029,54.094c0.166-0.166,0.381-0.235,0.606-0.274c0.401,0.293,0.89,0.42,1.262,0.772
		c0.225,0.215,0.421,0.666,0.734,0.528c0.303-0.126,0.206-0.598,0.255-0.93c0.078-0.508,0.019-1.086,0.597-1.389l0.029-0.01
		l0.02,0.019c0.577-0.009,1.037,0.323,1.546,0.528c0.293,0.118,0.655,0.343,0.89,0.02c0.225-0.293-0.088-0.567-0.254-0.812
		c-0.02-0.021-0.01-0.059-0.02-0.099c0.744,0.138,1.458,0.333,2.201,0.401c0.49,0.048,0.705-0.107,0.773-0.568
		c0.079-0.547-0.03-0.958-0.617-1.135c-0.098-0.028-0.176-0.127-0.264-0.194c0.009-0.06,0.009-0.118,0.02-0.187h-0.01
		c0.049,0,0.098-0.01,0.157-0.01c0.744-0.03,1.497,0.196,2.24-0.061c0.03,0.029,0.049,0.051,0.079,0.079
		c-0.235,0.432-0.499,0.843-0.705,1.282c-1.731,3.816-3.561,7.593-5.068,11.506c-0.313,0.802-0.792,1.359-1.604,1.723
		c-0.773,0.333-1.468,0.832-2.192,1.271c-0.871,0.538-1.634,1.212-2.612,1.604c-2.231,0.899-4.433,1.868-6.878,2.055
		c-0.792,0.059-1.575,0.303-2.368,0.107c-0.587-0.138-1.164-0.294-1.75-0.382c-0.127-0.02-0.225-0.048-0.245-0.194
		c-0.049-0.393-0.294-0.676-0.499-0.979c0.215-0.01,0.215-0.117,0.166-0.293c-0.059-0.225-0.138-0.47,0.049-0.685
		c0.226,0.303,0.44,0.626,0.685,0.919c0.206,0.245,0.45,0.304,0.655-0.02c0.157-0.106,0.196-0.029,0.264,0.118
		c0.069,0.156,0.205,0.322,0.411,0.205c0.166-0.098,0.362-0.225,0.303-0.488c-0.02-0.088-0.029-0.187-0.049-0.273
		c0.362,0.067,0.46,0.43,0.685,0.646c0.519,0.499,0.803,0.471,1.174-0.137c0.079,0,0.147,0,0.225-0.01
		c0.548,0,1.066-0.088,1.409-0.587c0.177,0.167,0.196,0.391,0.216,0.615c0.009,0.118,0.078,0.167,0.186,0.196
		c0.088,0.021,0.127-0.059,0.127-0.106c0.039-0.422,0.313-0.46,0.646-0.401c0.754,0.548,0.822,0.538,1.262-0.098
		c0.059-0.029,0.128-0.089,0.177-0.069c0.558,0.167,0.763-0.176,0.9-0.616c0.343-1.115,0.353-2.299,0.636-3.424
		c0.117,0.049,0.02,0.304,0.225,0.284c0.04,0.088,0.088,0.177,0.117,0.264c0.225,0.617,0.313,0.636,0.783,0.226
		c0.029,0.615-0.313,1.164-0.381,1.888c0.087-0.156,0.117-0.195,0.137-0.235c0.802-2.22,1.526-4.47,2.221-6.73
		c0.304-0.959,0.45-1.917,0.304-2.916c-0.069-0.284,0.107-0.547,0.068-0.832c0.097-0.226,0.019-0.45,0.01-0.665
		c0.146-0.226,0.127-0.45-0.01-0.675C43.921,54.613,43.901,54.339,44.029,54.094z M45.32,65.052c0.04-0.089,0.079-0.176,0.127-0.265
		c1.497-3.492,2.984-6.985,4.471-10.479c0.049-0.107,0.176-0.264,0.029-0.353c-0.186-0.107-0.245,0.107-0.313,0.226
		c-0.469,0.832-0.861,1.712-1.242,2.592c-1.115,2.612-2.329,5.187-3.023,7.954C45.359,64.836,45.339,64.944,45.32,65.052
		c0,0.009-0.009,0.019-0.02,0.029C45.31,65.071,45.31,65.061,45.32,65.052z M50.994,54.681c-0.147,0.078-0.176,0.225-0.206,0.381
		c-0.068,0.127-0.147,0.254-0.215,0.382c-1.35,2.495-2.25,5.176-3.278,7.808c-0.068,0.186-0.234,0.361-0.166,0.694
		c0.108-0.233,0.186-0.372,0.245-0.519c0.606-1.438,1.223-2.866,1.83-4.304c0.557-1.331,1.085-2.671,1.633-4.013
		C50.926,54.975,51.004,54.848,50.994,54.681c0.029-0.03,0.049-0.069,0.079-0.098c-0.02-0.012-0.04-0.021-0.049-0.039
		C51.014,54.593,51.004,54.633,50.994,54.681z M46.426,56.139c-0.803,1.34-2.994,7.963-2.71,9.46
		C44.683,62.43,45.78,59.348,46.426,56.139z M46.748,64.719c-0.01,0-0.029,0-0.029,0.009c-0.01,0.01-0.01,0.029-0.01,0.04
		c0.02,0,0.039-0.01,0.059-0.01C46.758,64.749,46.758,64.729,46.748,64.719z M51.151,54.27c-0.009,0-0.02,0-0.02,0.01
		c-0.01,0.01-0.01,0.029-0.01,0.04c0.02,0.039,0.029,0.029,0.039-0.01C51.16,54.3,51.16,54.289,51.151,54.27z M47.061,64.073
		c-0.01-0.028-0.02-0.059-0.03-0.078c-0.009,0.01-0.029,0.02-0.029,0.04c0,0.028,0.01,0.058,0.01,0.088
		C47.031,64.102,47.051,64.093,47.061,64.073z M46.875,64.494c-0.009-0.029-0.019-0.05-0.029-0.078c-0.01,0.01-0.04,0.02-0.04,0.028
		c0.011,0.029,0.02,0.06,0.03,0.079C46.846,64.513,46.866,64.504,46.875,64.494z"/>
	<path fill="#272424" d="M30.332,68.77c0.205,0.303,0.449,0.598,0.498,0.979c0.02,0.146,0.118,0.176,0.245,0.194
		c0.596,0.088,1.174,0.244,1.75,0.383c0.793,0.186,1.585-0.05,2.368-0.108c2.446-0.187,4.647-1.154,6.878-2.055
		c0.969-0.393,1.742-1.066,2.612-1.604c0.725-0.44,1.419-0.938,2.191-1.271c0.812-0.353,1.292-0.919,1.604-1.723
		c1.517-3.913,3.336-7.689,5.068-11.506c0.205-0.438,0.469-0.851,0.705-1.282c0.039-0.027,0.078-0.049,0.117-0.079
		c0.029,0.029,0.059,0.051,0.079,0.079c-0.225,0.627-0.675,1.165-0.812,1.83c-1.742,3.258-3.014,6.731-4.452,10.165
		c1.037-0.284,1.702,0.293,2.377,0.841c0.323,0.265,0.666,0.52,1.007,0.765c0.254,0.186,0.5,0.352,0.852,0.391
		c0.577,0.068,0.822,0.548,0.9,1.066c0.087,0.666,0.313,1.174,0.929,1.546c0.577,0.343,0.469,1.065-0.147,1.33
		c-1.203,0.509-2.387,1.066-3.62,1.478c-0.93,0.305-1.938,0.45-2.925,0.412c-1.869-0.059-3.679,0.322-5.508,0.577
		c-1.722,0.235-3.444,0.303-5.195,0.059c-1.811-0.243-3.59-0.714-5.45-0.646c-0.743,0.03-1.438-0.42-2.172-0.606
		c-0.186-0.049-0.372-0.118-0.558-0.176c0.04-0.361,0.333-0.675,0.186-1.065c-0.009-0.147,0.098-0.255,0.167-0.362
		C30.204,68.457,30.175,68.692,30.332,68.77z"/>
	<path fill="#F5CFD6" d="M35.829,31.397c-0.039-0.294-0.322-0.207-0.489-0.265c-0.176-0.068-0.333-0.088-0.303-0.323
		c0.068,0,0.127,0,0.196,0c0.548,0.098,1.096,0.226,1.653,0.284c1.478,0.176,2.965,0.283,4.383,0.792
		c0.127-0.323-0.146-0.499-0.235-0.714c-0.44-1.038-1.086-1.899-2.25-2.202c-0.616-0.157-1.115-0.578-1.78-0.734
		c0.421,0.011,0.567-0.116,0.392-0.499c-0.049-0.106-0.04-0.264,0.088-0.352c0.02,0.177,0.107,0.333,0.274,0.372
		c1.086,0.215,1.888,0.969,2.828,1.458c0.538,0.283,1.116,0.43,1.653,0.695c0.206,0.097,0.421,0.185,0.528,0.409
		c-0.675-0.155-1.272-0.566-1.996-0.615c1.624,1.153,3.189,2.367,4.667,3.697c-0.333-0.88-0.871-1.604-1.585-2.2
		c-0.274-0.226-0.528-0.471-0.792-0.694c0.734,0.117,1.39,0.313,1.81,1.037c0.598,1.026,1.478,1.83,2.319,2.661
		c0.137,0.137,0.265,0.283,0.401,0.421c-0.509-0.078-0.949-0.353-1.331-0.666c-0.617-0.479-1.35-0.226-2.005-0.401
		c-0.059-0.02-0.137,0-0.157,0.078s0.02,0.127,0.079,0.156c0.528,0.264,1.037,0.605,1.653,0.626
		c0.919,0.028,1.467,0.597,1.937,1.271c-0.89-0.098-1.741-0.4-2.651-0.381c1.096,0.381,2.211,0.733,3.316,1.066
		c0.235,0.067,0.45,0.156,0.205,0.411c-0.127,0.137-0.342,0.244-0.577,0.127c-0.392-0.205-0.783-0.393-1.174-0.587
		c-0.929-0.461-1.879-0.871-2.945-0.931c-0.048-0.626-0.206-0.822-0.792-0.958c-1.712-0.391-3.444-0.705-5.136-1.184
		c-0.715-0.206-1.429-0.421-2.202-0.656c0.274-0.225,0.46-0.029,0.655-0.019c0.176,0.01,0.333,0.059,0.342-0.187
		c0.147-0.06,0.069-0.254,0.187-0.323c0.098,0.549,0.459,0.861,0.832,0.655c0.411-0.225,0.822-0.118,1.232-0.127
		c0.098,0,0.235,0.127,0.274-0.058c0.029-0.127-0.078-0.187-0.186-0.245c-0.547-0.333-1.125-0.548-1.761-0.606
		C36.867,31.582,36.348,31.494,35.829,31.397z M40.536,29.616c0.01-0.011,0.019-0.021,0.029-0.021c-0.01-0.01-0.019-0.02-0.029-0.03
		c-0.01,0.011-0.03,0.03-0.04,0.04C40.506,29.606,40.526,29.606,40.536,29.616z"/>
	<path fill="#BDBCBC" d="M22.123,52.431c0.587,0.538,1.301,0.705,2.064,0.773l0,0c0.136,0.186,0.323,0.215,0.538,0.195l0,0
		c0.078,0.087,0.176,0.107,0.293,0.098c0.146,0,0.254,0.039,0.293,0.195c0.157,0.127,0.333,0.226,0.538,0.196l0,0
		c0.029,0.097,0.108,0.117,0.196,0.097l0,0c-0.136,0.363-0.068,0.754-0.117,1.125c-0.029,0.246-0.01,0.559-0.352,0.617
		c-0.323,0.06-0.45-0.186-0.577-0.421c-0.157-0.293-0.245-0.605-0.304-0.92c-0.058-0.322-0.206-0.362-0.479-0.224
		c-0.47,0.224-0.909,0.508-1.418,0.653c-0.107,0.03-0.215,0.079-0.323,0.108c-0.851,0.205-1.174-0.088-0.988-0.949
		c0.029-0.157,0.098-0.313,0.039-0.509c-0.313,0.04-0.538,0.265-0.792,0.411c-0.704,0.382-1.095,0.264-1.428-0.46
		c-0.107-0.234-0.226-0.392-0.509-0.176c-0.215,0.156-0.479,0.283-0.704,0.039c-0.215-0.234-0.313-0.527-0.146-0.852
		c0.058-0.107,0.234-0.215,0.137-0.333c-0.107-0.146-0.304-0.069-0.451-0.02c-0.459,0.146-0.929,0.146-1.398,0.156
		c-0.303,0-0.46-0.128-0.441-0.439c0.01-0.078-0.009-0.166,0-0.245c0.108-0.568-0.175-0.861-0.646-1.135
		c-0.606-0.362-0.939-0.958-1.017-1.673c-0.02-0.146-0.01-0.305-0.059-0.432c-0.147-0.399-0.186-0.782,0.049-1.155
		c0.274,0.05,0.391,0.383,0.685,0.402c0.098,0.176,0.206,0.362,0.304,0.538c0.029,0.01,0.058,0.02,0.088,0.04l-0.01-0.011
		c0.039,0.059,0.088,0.106,0.127,0.167c0.147,0.185,0.245,0.41,0.47,0.527l-0.01-0.01c0.068,0.107,0.147,0.226,0.215,0.333
		c0.059,0.234,0.176,0.43,0.46,0.43c0.01,0.011,0.02,0.03,0.03,0.04c-0.02,0.146,0.068,0.177,0.195,0.177
		c0.293,0.194,0.607,0.333,0.949,0.391c0.225,0.196,0.479,0.372,0.763,0.382c0.567,0.029,1.027,0.323,1.438,0.617
		C20.538,51.707,21.33,52.069,22.123,52.431z"/>
	<path fill="#110D0E" d="M37.865,54.691c0.607,0.284,1.262,0.098,1.889,0.254c0.411,0.039,0.822,0.127,1.223-0.06
		c0.117,0.06,0.225-0.127,0.352-0.009c-0.206,0.321-0.294,0.665-0.304,1.046c0,0.548-0.254,0.772-0.782,0.685
		c-0.656-0.106-1.282-0.304-1.751-0.831c-0.196-0.216-0.42-0.412-0.655-0.578c-0.577-0.42-0.939-0.303-1.233,0.372
		c-0.225,0.382-0.391,0.813-0.773,1.076c-0.625,0.175-0.89,0.021-1.301-0.772c-0.098,0.067-0.127,0.176-0.157,0.273
		c-0.411,0.489-0.861,0.939-1.487,1.155c-0.832,0.02-1.262-0.539-1.634-1.155c-0.167-0.273-0.303-0.4-0.587-0.176
		c-0.46,0.215-0.92,0.43-1.38,0.646c-1.164,0.195-1.311,0.068-1.369-1.135c-0.01-0.177-0.02-0.353-0.02-0.539
		c-0.02-0.421,0.293-0.392,0.539-0.333c0.401,0.108,0.851,0.205,1.174,0.44c0.753,0.558,1.556,0.401,2.348,0.254
		c0.773-0.146,1.507-0.49,2.329-0.44c0.206,0.011,0.411-0.078,0.597-0.186C35.859,54.584,36.867,54.525,37.865,54.691z"/>
	<path fill="#F7E3E5" d="M37.493,27.385c-0.127,0.098-0.137,0.245-0.088,0.352c0.176,0.383,0.029,0.52-0.391,0.499
		c0.655,0.167,1.164,0.577,1.78,0.734c1.164,0.303,1.8,1.164,2.25,2.202c0.098,0.225,0.362,0.399,0.235,0.714
		c-1.419-0.509-2.906-0.616-4.383-0.792c-0.558-0.069-1.105-0.188-1.654-0.284c0.128-0.146,0.304-0.098,0.46-0.098
		c0.685-0.01,1.37-0.02,2.055,0c0.352,0.01,0.44-0.127,0.431-0.449c-0.029-0.979-0.538-1.498-1.497-1.507
		c-0.146,0-0.293,0.009-0.44,0c-0.606-0.069-1.077,0.058-1.263,0.743c-0.048,0.186-0.244,0.421-0.498,0.4
		c-0.255-0.019-0.293-0.282-0.363-0.469c-0.225-0.587-0.019-0.998,0.578-1.125c0.499-0.108,1.017-0.167,1.526-0.225
		c0.176-0.021,0.303-0.05,0.372-0.245c0.264-0.714,0.421-1.438,0.411-2.222c-0.01-0.527,0.029-1.065,0.322-1.546
		c0.059-0.097,0.108-0.204,0.245-0.204c-0.206,0.577-0.293,1.174-0.293,1.79c0,0.178-0.02,0.363,0.186,0.46
		C37.327,26.534,37.375,26.955,37.493,27.385z"/>
	<path fill="#F5CFD6" d="M13.524,41.865c-0.254,0.519-0.353,1.057-0.401,1.634c-0.059,0.587,0.167,0.987,0.597,1.331
		c1.438,1.184,2.906,2.338,4.305,3.57c1.066,0.93,2.172,1.811,3.239,2.729c0.107,0.097,0.195,0.215,0.284,0.332l0,0
		c-0.127,0-0.264,0-0.392,0c-0.029,0-0.058,0-0.097-0.01c-0.03-0.029-0.069-0.06-0.098-0.089c-1.018-0.459-2.025-0.919-3.043-1.38
		c-0.303-0.293-0.724-0.371-1.066-0.586c0.029-0.245-0.127-0.273-0.313-0.313c-0.196-0.048-0.382-0.146-0.039-0.372
		c-0.206,0.049-0.401-0.068-0.529,0.118c-0.058-0.01-0.117-0.118-0.186-0.021l0.009,0.01c0.099-0.068-0.009-0.128-0.009-0.195
		c0.157-0.196,0-0.177-0.117-0.177l0.01,0.01c0.019-0.167,0.068-0.353-0.146-0.431c-0.118-0.049-0.118,0.059-0.127,0.127
		c-0.068,0-0.127-0.117-0.196-0.019l0.009,0.009c0.089-0.067-0.009-0.117-0.009-0.186c0.088-0.343-0.186-0.45-0.391-0.607l0,0
		c0.009-0.137-0.049-0.226-0.177-0.272c-0.088-0.293-0.186-0.588-0.508-0.716c-0.167-0.254-0.333-0.508-0.489-0.763
		c-0.029-0.039-0.068-0.078-0.098-0.106l0,0c0-0.079-0.01-0.157-0.098-0.196l0,0c0-0.087-0.009-0.156-0.098-0.196l0,0
		c0-0.087-0.019-0.156-0.098-0.195l0,0c-0.039-0.028-0.088-0.068-0.127-0.098c-0.244-0.265-0.352-0.548-0.273-0.919
		c0.078-0.343-0.068-0.675-0.265-0.959c-0.127-0.176-0.137-0.341,0.039-0.459C12.897,42.247,13.132,41.924,13.524,41.865z"/>
	<path fill="#E794A1" d="M43.95,35.406c1.056,0.06,2.006,0.471,2.945,0.931c0.391,0.196,0.783,0.381,1.174,0.587
		c0.235,0.117,0.45,0.01,0.577-0.127c0.245-0.254,0.03-0.333-0.205-0.41c-1.115-0.333-2.221-0.685-3.317-1.067
		c0.911-0.028,1.771,0.274,2.652,0.383c1.145,0.225,2.299,0.449,3.17,1.331c0.068,0.067,0.166,0.097,0.254,0.146
		c0.205,0.284,0.636,0.363,0.685,0.783c-0.323-0.206-0.567-0.528-0.978-0.587c-0.763-0.421-1.604-0.138-2.407-0.215
		c-0.812-0.079-1.663-0.021-2.495-0.138c-0.969-0.137-1.947-0.293-2.915-0.438h-0.01c-0.049-0.079-0.118-0.089-0.206-0.079
		c-1.096-0.205-2.172-0.479-3.238-0.802c-0.126-0.04-0.293-0.078-0.284-0.274c0.03,0,0.059-0.01,0.088-0.02
		C40.947,35.192,42.444,35.368,43.95,35.406z"/>
	<path fill="#5F5F5F" d="M30.332,68.77c-0.157-0.078-0.128-0.313-0.304-0.372c0.039-0.215-0.098-0.373-0.176-0.538
		c-0.343-0.744-0.616-1.497-0.714-2.317c-0.127-1.097-0.666-2.104-0.783-3.209c-0.107-1.037-0.342-2.045-0.597-3.053
		c-0.138-0.548,0.068-1.057,0.167-1.585c0.019-0.098,0.078-0.194,0.186-0.194c0.127,0.01,0.098,0.146,0.137,0.225
		c0.705,1.545,1.018,3.209,1.409,4.853c0.353,1.507,0.45,3.053,0.676,4.578c0.039,0.235,0.166,0.422,0.214,0.637
		c-0.186,0.215-0.107,0.46-0.049,0.685C30.547,68.653,30.547,68.76,30.332,68.77z"/>
	<path fill="#5F5F5F" d="M32.817,68.251c0.019,0.088,0.028,0.186,0.048,0.273c0.059,0.265-0.137,0.381-0.302,0.488
		c-0.206,0.117-0.343-0.049-0.412-0.205c-0.059-0.146-0.107-0.225-0.264-0.118c0.157-0.548-0.147-1.047-0.195-1.576
		c-0.098-0.978-0.255-1.957-0.382-2.935c0.02-0.137,0.049-0.274-0.049-0.401c-0.146-1.165-0.293-2.338-0.44-3.502
		c-0.029-0.597-0.147-1.184-0.079-1.78c0.284,0.088,0.372,0.352,0.479,0.576c0.509,1.037,0.842,2.123,0.949,3.288
		C32.347,64.327,32.601,66.284,32.817,68.251z"/>
	<path fill="#BDBCBC" d="M27.054,66.265c-0.137-0.968-0.47-1.888-0.714-2.827c-0.45-1.771-0.93-3.542-1.203-5.353
		c-0.03-0.215,0-0.38,0.186-0.567c0.372,0.616,0.548,1.283,0.753,1.938c0.763,2.427,1.351,4.901,1.977,7.377
		c0.039,0.155,0.059,0.321,0.039,0.479c-0.42,0.5-0.431,0.49-0.675-0.106C27.299,66.891,27.182,66.577,27.054,66.265z"/>
	<path fill="#BDBCBC" d="M30.742,58.497c-0.068,0.597,0.049,1.184,0.079,1.78c-0.127,0.138-0.088,0.313-0.069,0.47
		c0.069,0.597,0.186,1.184,0.235,1.77c0.03,0.334,0.234,0.676,0.039,1.02c-0.392-0.93-0.607-1.908-0.91-2.867
		c-0.362-1.154-0.695-2.318-0.978-3.502c-0.059-0.234-0.059-0.401,0.127-0.559c0.459-0.215,0.919-0.431,1.379-0.646
		c0.098,0.138,0.098,0.304,0.098,0.461C30.742,57.118,30.742,57.802,30.742,58.497z"/>
	<path fill="#BDBCBC" d="M22.456,56.178c1.868,3.512,2.524,7.357,3.688,11.084C25.449,66.755,22.397,57.538,22.456,56.178z"/>
	<path fill="#E794A1" d="M34.861,54.681c-0.186,0.107-0.392,0.196-0.596,0.187c-0.813-0.05-1.546,0.293-2.329,0.439
		c-0.803,0.147-1.595,0.304-2.348-0.254c-0.323-0.245-0.764-0.333-1.175-0.44c-0.234-0.059-0.548-0.088-0.538,0.333
		c-0.02-0.353-0.235-0.509-0.567-0.548c-0.44-0.058-0.812-0.372-1.271-0.4l0,0c-0.03-0.107-0.118-0.107-0.196-0.099l0,0
		c-0.146-0.166-0.323-0.225-0.538-0.195c-0.04-0.146-0.146-0.195-0.294-0.195c-0.078-0.089-0.176-0.118-0.293-0.098l0,0
		c-0.137-0.187-0.313-0.255-0.539-0.196l0,0c-0.009-0.354,0.206-0.147,0.313-0.107c0.724,0.226,1.438,0.489,2.202,0.606
		c1.027,0.146,2.044,0.333,3.072,0.479c0.166,0.029,0.313,0.098,0.46,0.138c0.195,0.587,0.626,0.812,1.272,0.713
		C32.621,54.867,33.726,54.593,34.861,54.681z"/>
	<path fill="#5F5F5F" d="M27.054,66.265c0.127,0.313,0.244,0.626,0.372,0.939c0.234,0.597,0.254,0.597,0.675,0.106
		c0.147,0.47,0.293,0.95,0.567,1.37c0.44,0.656,0.695,0.676,1.193,0.089c0.137,0.392-0.146,0.703-0.186,1.066
		c-0.714-0.196-1.398-0.469-2.132-0.598c-0.646-0.107-1.232-0.929-1.311-1.702c0.088,0.098,0.156,0.206,0.254,0.294
		c0.137,0.127,0.254,0.361,0.47,0.254c0.186-0.088,0.156-0.323,0.176-0.519C27.191,67.115,26.956,66.705,27.054,66.265z"/>
	<path fill="#F7E3E5" d="M51.19,37.178c-0.088-0.049-0.186-0.078-0.254-0.146c-0.871-0.881-2.015-1.105-3.17-1.33
		c-0.479-0.686-1.017-1.242-1.937-1.272c-0.607-0.02-1.116-0.362-1.653-0.626c-0.059-0.029-0.098-0.078-0.079-0.157
		c0.02-0.078,0.098-0.097,0.157-0.078c0.655,0.187,1.388-0.076,2.005,0.401c0.392,0.304,0.822,0.578,1.331,0.666
		c0.753,0.557,1.712,0.714,2.495,1.213C50.584,36.161,51.131,36.464,51.19,37.178z"/>
	<path fill="#7A7A7A" d="M54.36,50.709c-0.04,0.028-0.079,0.049-0.118,0.078c-0.03-0.029-0.049-0.05-0.079-0.078
		c0.118-0.52-0.303-0.783-0.528-1.136c0.039-0.098,0.079-0.186,0.117-0.283c0.264,0.049,0.538,0.127,0.802,0.146
		c0.45,0.021,0.597-0.234,0.353-0.616c-0.187-0.294-0.401-0.588-0.695-0.793c0.04-0.028,0.088-0.068,0.127-0.098
		c0.548,0.137,1.106,0.274,1.654,0.411c0.088,0.128,0.078,0.226-0.079,0.285c-0.196,0.058-0.284,0.245-0.382,0.399
		c-0.059,0.099-0.332,0.178-0.068,0.354c0.021,0.323-0.215,0.529-0.352,0.763c-0.47,0.841-0.9,1.712-1.477,2.485
		c0.137-0.666,0.587-1.203,0.812-1.83c0.068-0.126,0.137-0.253,0.205-0.381c0.02-0.039,0.049-0.088,0.068-0.127
		c0.088-0.029,0.108-0.099,0.118-0.187c0.048-0.021,0.078-0.049,0.029-0.088c-0.02,0.021-0.029,0.049-0.049,0.068
		c-0.088,0.04-0.118,0.107-0.098,0.195c-0.078-0.009-0.087,0.04-0.107,0.09C54.468,50.435,54.418,50.573,54.36,50.709z"/>
	<path fill="#F7E3E5" d="M43.07,30.507c0.264,0.235,0.519,0.479,0.793,0.694c0.723,0.587,1.252,1.32,1.584,2.2
		c-1.478-1.331-3.042-2.553-4.667-3.697c0.724,0.049,1.312,0.46,1.996,0.615C42.874,30.379,42.971,30.448,43.07,30.507z"/>
	<path fill="#BDBCBC" d="M22.622,61.403c0.577,1.711,1.487,3.308,1.829,5.098c0.03,0.166,0.118,0.4-0.088,0.479
		c-0.195,0.068-0.235-0.186-0.293-0.313c-0.353-0.713-0.626-1.438-0.714-2.25C23.239,63.378,22.857,62.41,22.622,61.403z"/>
	<path fill="#F7E3E5" d="M50.896,37.364c0.411,0.06,0.666,0.383,0.979,0.588l0,0c0.04,0.088,0.069,0.078,0.107,0
		c0.333,0.167,0.274,0.479,0.293,0.772c-0.068,0.03-0.176-0.273-0.206,0.009c-0.02,0.227,0.01,0.45,0,0.676
		c-0.009,0.205-0.029,0.431-0.283,0.509c-0.03-0.313,0.098-0.607,0.147-0.911c0.048-0.342-0.235-0.939-0.519-0.939
		C50.857,38.079,50.877,37.746,50.896,37.364z"/>
	<path fill="#110D0E" d="M55.994,48.331c-0.548-0.137-1.106-0.272-1.654-0.41c0.353-0.196,0.695-0.382,1.048-0.577
		c0.204,0.234,0.4,0.479,0.606,0.714C56.072,48.156,56.14,48.243,55.994,48.331z"/>
	<path fill="#BDBCBC" d="M22.123,63.751c0.44,0.763,0.625,1.624,1.056,2.396c-0.244-0.098-0.45-0.333-0.91-1.038
		C21.996,64.68,22.231,64.191,22.123,63.751z"/>
	<path fill="#F5CFD6" d="M37.483,26.103c-0.206-0.087-0.186-0.272-0.186-0.459c-0.009-0.616,0.078-1.213,0.293-1.791l0,0
		c0.03-0.029,0.059-0.067,0.089-0.097c0.029-0.254,0.225-0.433,0.342-0.637c0.039-0.068,0.117-0.138,0.196-0.089
		c0.078,0.049,0.059,0.138,0.02,0.217c-0.03,0.058-0.049,0.127-0.088,0.175C37.532,24.225,37.532,25.164,37.483,26.103z"/>
	<path fill="#F7E3E5" d="M31.026,63.535c0.195-0.343-0.009-0.686-0.039-1.02c-0.049-0.596-0.166-1.183-0.235-1.77
		c-0.02-0.156-0.058-0.323,0.069-0.47c0.146,1.164,0.293,2.338,0.44,3.502c-0.04-0.01-0.088-0.028-0.127-0.04l0,0
		C31.105,63.663,31.065,63.603,31.026,63.535L31.026,63.535z"/>
	<path fill="#F7E3E5" d="M14.111,46.365c0.323,0.128,0.411,0.422,0.509,0.716c0.019,0.117,0.029,0.233,0.176,0.272l0,0
		c0,0.069,0.01,0.147,0.01,0.215c-0.293-0.02-0.411-0.353-0.685-0.4C14.111,46.894,14.111,46.63,14.111,46.365z"/>
	<path fill="#F5CFD6" d="M32.592,27.278c-0.059,0.45-0.509,0.323-0.754,0.489c-0.078,0.049-0.215,0.009-0.323,0
		C31.819,27.493,32.19,27.346,32.592,27.278z"/>
	<path fill="#110D0E" d="M55.456,49.369c-0.265-0.167,0.009-0.255,0.068-0.353c0.097-0.157,0.186-0.333,0.381-0.401
		C55.759,48.87,55.612,49.115,55.456,49.369z"/>
	<path fill="#BDBCBC" d="M31.134,63.731c0.039,0.01,0.088,0.03,0.127,0.039c0.107,0.127,0.079,0.266,0.049,0.401
		C31.055,64.113,31.153,63.897,31.134,63.731z"/>
	<path fill="#F7E3E5" d="M52.569,39.908c0-0.06-0.01-0.128-0.01-0.187c0.01-0.107,0.02-0.215,0.03-0.44
		C52.804,39.585,52.657,39.741,52.569,39.908z"/>
	<path fill="#7A7A7A" d="M53.382,43.323c-0.176-0.028-0.264-0.146-0.313-0.294C53.244,43.049,53.323,43.176,53.382,43.323z"/>
	<path fill="#F7E3E5" d="M52.364,39.213c-0.147-0.137-0.068-0.322-0.078-0.489C52.423,38.871,52.344,39.057,52.364,39.213z"/>
	<path fill="#F7E3E5" d="M52.452,39.722c-0.127-0.117-0.079-0.265-0.079-0.401C52.501,39.438,52.452,39.585,52.452,39.722z"/>
	<path fill="#F7E3E5" d="M22.231,60.258c0.068,0.048,0.107,0.106,0.078,0.195c0,0.011-0.02,0.02-0.039,0.029
		C22.26,60.405,22.24,60.336,22.231,60.258L22.231,60.258z"/>
	<path fill="#F7E3E5" d="M21.976,59.612c-0.01-0.029-0.01-0.039-0.019-0.059c0.009,0,0.019-0.01,0.039-0.01
		C21.996,59.563,21.986,59.582,21.976,59.612z"/>
	<path fill="#BDBCBC" d="M13.426,45.289c0.088,0.039,0.098,0.116,0.098,0.195C13.445,45.446,13.416,45.377,13.426,45.289z"/>
	<path fill="#BDBCBC" d="M13.328,45.094c0.088,0.038,0.098,0.118,0.098,0.195C13.328,45.259,13.318,45.181,13.328,45.094z"/>
	<path fill="#BDBCBC" d="M13.23,44.898c0.078,0.039,0.098,0.117,0.098,0.195C13.23,45.064,13.23,44.986,13.23,44.898z"/>
	<path fill="#F7E3E5" d="M22.074,59.896c0-0.01-0.01-0.028-0.01-0.04c0.01,0,0.03-0.01,0.04-0.01
		C22.123,59.877,22.113,59.896,22.074,59.896z"/>
	<path fill="#F7E3E5" d="M22.231,60.258c-0.02-0.039-0.049-0.068-0.068-0.108c0,0,0.02-0.02,0.039-0.028
		C22.211,60.17,22.221,60.209,22.231,60.258L22.231,60.258z"/>
	<path fill="#F7E3E5" d="M22.407,60.737c0,0.011-0.01,0.03-0.01,0.039c-0.01-0.009-0.03-0.028-0.04-0.039
		c0.01-0.01,0.02-0.02,0.03-0.028C22.387,60.717,22.397,60.727,22.407,60.737z"/>
	<path fill="#F5CFD6" d="M19.883,35.115c-0.039,0.078-0.107,0.099-0.196,0.099C19.726,35.134,19.795,35.105,19.883,35.115z"/>
	<path fill="#BDBCBC" d="M13.524,45.485c0.029,0.039,0.069,0.078,0.097,0.107C13.582,45.563,13.553,45.524,13.524,45.485z"/>
	<path fill="#F5CFD6" d="M19.687,35.213c-0.029,0.029-0.068,0.058-0.098,0.098C19.619,35.27,19.649,35.241,19.687,35.213z"/>
	<path fill="#E794A1" d="M51.982,37.951c-0.039,0.078-0.068,0.088-0.107,0C51.904,37.951,51.944,37.951,51.982,37.951z"/>
	<path fill="#BDBCBC" d="M13.103,44.8c0.039,0.029,0.088,0.068,0.127,0.098C13.191,44.868,13.142,44.829,13.103,44.8z"/>
	<path fill="#F5CFD6" d="M19.98,35.016c-0.029,0.029-0.059,0.069-0.098,0.098C19.912,35.075,19.942,35.046,19.98,35.016z"/>
	<path fill="#BDBCBC" d="M31.036,63.535c0.029,0.067,0.068,0.127,0.097,0.194C31.105,63.663,31.065,63.603,31.036,63.535z"/>
	<path fill="#F5CFD6" d="M20.069,34.899c-0.029,0.04-0.059,0.078-0.098,0.117C20.01,34.977,20.039,34.939,20.069,34.899z"/>
	<path fill="#F7E3E5" d="M37.679,23.756c-0.03,0.029-0.059,0.067-0.089,0.097C37.62,23.823,37.65,23.795,37.679,23.756z"/>
	<path fill="#FFFFFF" d="M30.83,50.739c-2.935,0.244-5.841,0.167-8.707-0.548c-0.568-0.146-1.105-0.371-1.644-0.586l-0.01-0.01
		c-0.244-0.353-0.567-0.597-0.968-0.743c0.196-0.187,0.127-0.323-0.039-0.52c-0.431-0.479-0.989-0.782-1.507-1.125
		c-0.626-0.411-1.135-0.939-1.575-1.497c-0.538-0.674-1.046-1.389-1.409-2.201c-0.185-0.42-0.293-0.802,0.04-1.174
		c0.146-0.176,0.039-0.489,0.342-0.559c0,0.656,0.079,1.291,0.304,1.907c0.303,0.813,0.9,1.392,1.497,1.948
		c0.763,0.713,1.546,1.409,2.387,2.172c-0.029-0.264-0.157-0.324-0.245-0.411c-0.841-0.859-1.643-1.751-2.406-2.681
		c-1.097-1.33-1.204-1.732-0.822-3.365c0.146,0.744,0.411,1.331,0.763,1.869c0.011,0.146,0,0.293,0.196,0.313
		c0.011,0.089-0.019,0.196,0.088,0.234c0.021,0.01,0.079-0.038,0.089-0.068c0.02-0.127-0.068-0.155-0.166-0.177
		c0.009-0.185-0.05-0.352-0.187-0.489c-0.284-0.832-0.43-1.673-0.245-2.553c0.333,0.332,0.753,0.479,1.184,0.605
		c0.147,0.216,0.303,0.265,0.489,0.049c0,0.861,0.538,1.311,1.242,1.664c-0.088-0.354-0.225-0.676-0.362-1.008
		c-0.137-0.343-0.185-0.733-0.029-1.038c0.166-0.322,0.675-0.322,0.861-0.694c0.009-0.029,0.175,0.029,0.264,0.049
		c0.156,0.029,0.313,0.068,0.47,0.107c0.009,0.068,0.009,0.157,0.117,0.146c0.01,0,0.03-0.02,0.03-0.028
		c0.009-0.107-0.079-0.107-0.147-0.118c-0.274-0.323-0.538-0.646-0.813-0.959c-0.156-0.166-0.323-0.353-0.558-0.098
		c-0.029,0.028-0.059,0.049-0.088,0.077l0,0c-0.245-0.009-0.303,0.255-0.489,0.333c0.049-0.401-0.166-0.479-0.499-0.411
		c-0.362,0.077-0.724,0.176-1.086,0.253c-0.156,0.04-0.342,0.05-0.431-0.126c-0.097-0.195,0.049-0.322,0.177-0.41
		c0.45-0.284,0.763-0.744,1.282-0.939c0.176-0.068,0.303-0.088,0.44,0.059c0.127,0.138,0.147,0.283,0.059,0.45
		c-0.049,0.088-0.117,0.167-0.117,0.254c-0.01,0.147,0.098,0.245,0.225,0.293c0.147,0.05,0.205-0.059,0.234-0.176
		c0.313-1.135,1.37-1.047,2.202-1.34c0.146-0.049,0.195,0.098,0.284,0.196c0.714,0.87,1.203,1.878,1.722,2.865
		c0.068,0.128,0.068,0.313,0.245,0.333c0.195,0.01,0.126-0.186,0.185-0.293c0.098-0.186,0.196-0.167,0.343-0.028
		c0.274,0.245,0.362,0.605,0.568,0.899c0.586,0.832,1.046,1.742,1.477,2.661c0.548,1.174,1.555,1.938,2.407,2.837
		c0.059,0.061,0.127,0.127,0.206,0.061c0.078-0.061,0.049-0.147,0-0.227c-0.744-1.213-1.341-2.515-2.114-3.708
		c-0.391-0.596-0.831-1.144-1.35-1.643c-0.979-0.939-1.604-2.143-2.25-3.306c-0.46-0.822-0.783-1.703-1.165-2.563
		c-0.059-0.128-0.186-0.265-0.039-0.402c0.127-0.116,0.274-0.137,0.45-0.067c0.362,0.127,0.685,0.342,1.066,0.43
		c0.195,0.048,0.352,0.205,0.391,0.45c0.186,1.104,0.958,1.81,1.722,2.515c1.448,1.312,3.101,2.328,4.774,3.336
		c1.174,0.714,2.408,1.292,3.63,1.898c0.538,0.264,1.096,0.519,1.624,0.822c-2.23-0.588-4.226-1.703-6.212-2.828
		c0.753,0.743,1.742,1.145,2.495,1.908c-0.372-0.177-0.744-0.333-1.096-0.52c-0.469-0.244-0.929-0.527-1.409-0.771
		c-0.137-0.069-0.293-0.196-0.488-0.04c-0.187,0.137-0.323-0.05-0.46-0.156c-0.656-0.499-1.302-1.007-1.947-1.518
		c-0.029,0.029-0.058,0.05-0.098,0.078c0.225,0.284,0.43,0.587,0.685,0.853c0.744,0.772,1.36,1.644,2.045,2.465
		c1.057,1.282,1.771,2.769,2.504,4.236c0.196,0.391,0.019,0.548-0.265,0.666c-1.359,0.587-2.699,1.231-4.226,1.28
		c-0.019,0-0.048,0.03-0.098,0.069c1.419,0.117,2.749-0.177,4.07-0.616c0.949-0.323,1.898-0.674,2.847-0.998
		c0.255-0.088,0.401,0.039,0.489,0.265c0.078,0.187,0.039,0.381,0.049,0.577c-0.988,0.401-2.016,0.694-3.043,0.987
		C31.134,50.531,30.909,50.513,30.83,50.739z"/>
	<path fill="#F5CFD6" d="M34.861,54.681c-1.135-0.088-2.24,0.187-3.346,0.354c-0.645,0.098-1.086-0.118-1.271-0.715
		c0.694-0.187,1.389-0.373,2.074-0.577c0.479-0.138,0.958-0.274,1.418-0.471c1.243-0.527,2.563-0.646,3.884-0.753
		c1.272-0.098,2.543-0.254,3.806-0.362c0.597-0.049,1.193-0.038,1.79-0.107c0.567-0.068,0.803-0.371,0.528-0.88
		c-0.381-0.696-0.939-1.224-1.653-1.575c0.949-0.196,1.898-0.382,2.837-0.597c0.939-0.216,1.889-0.362,2.837-0.362
		c0.95,0.011,1.918-0.009,2.867,0.196c0.157,0.04,0.313,0.097,0.46,0.166c0.117,0.049,0.254,0.127,0.245,0.273
		c0,0.157-0.167,0.176-0.284,0.216c-0.978,0.313-1.996,0.411-3.003,0.567c-0.939,0.147-1.898,0.206-2.857,0.392
		c0.489,0.138,0.988,0.273,1.478,0.401c0.518,0.137,1.037,0.254,1.555,0.401c0.274,0.079,0.519,0.195,0.528,0.558
		c0.01,0.382-0.264,0.52-0.538,0.597c-0.606,0.177-1.223,0.313-1.839,0.459c-1.077,0.254-2.114,0.637-3.131,1.058
		c-0.969,0.4-1.996,0.381-3.003,0.566c-0.792,0.138-1.594-0.039-2.367,0.187C36.867,54.525,35.859,54.584,34.861,54.681z"/>
	<path fill="#F5CFD6" d="M50.896,37.364c-0.019,0.383-0.039,0.716,0.519,0.705c0.284,0,0.567,0.598,0.519,0.939
		c-0.049,0.304-0.177,0.587-0.147,0.911v-0.01c-0.147,0-0.206,0.078-0.195,0.215c-0.636,1.243-2.134,1.81-3.415,1.32
		c-1.301-0.499-2.603-0.979-3.904-1.467c-0.166-0.059-0.352-0.068-0.518-0.098c-0.04-0.049-0.068-0.146-0.107-0.146
		c-1.086-0.049-2.094-0.5-3.161-0.615c-0.636-0.068-1.213-0.333-1.81-0.539c-0.107-0.039-0.206-0.107-0.206-0.245
		c0.167,0,0.323,0,0.489,0c0.098,0.049,0.196,0.118,0.303,0.137c0.88,0.186,1.761,0.431,2.661,0.518
		c0.607,0.061,1.204,0.235,1.83,0.235c0.753,0,1.507,0.137,2.26,0.234c0.695,0.089,1.379,0.176,2.084,0.137
		c0.098-0.01,0.206,0,0.235-0.117c0.03-0.118-0.068-0.186-0.157-0.206c-0.254-0.059-0.469-0.206-0.713-0.284
		c-0.323-0.107-0.715-0.059-0.959-0.371c0.147-0.146,0.519-0.128,0.431-0.421c-0.078-0.264-0.392-0.146-0.606-0.146
		c-1.145-0.01-2.299-0.01-3.444-0.01c-0.273-0.274-0.841-0.06-0.979-0.567c0.49,0.049,0.989,0.088,1.478,0.137
		c0-0.02,0.009-0.039,0.009-0.067c-0.626-0.157-1.252-0.313-1.888-0.472c0.039-0.077,0.029-0.098-0.088-0.146
		c0.528-0.254,1.125-0.187,1.673-0.362c0.968,0.147,1.937,0.304,2.915,0.44c0.832,0.117,1.673,0.067,2.495,0.136
		C49.292,37.228,50.133,36.944,50.896,37.364z"/>
	<path fill="#FFFFFF" d="M38.961,38.343c-0.167,0-0.323,0-0.489,0c-2.201-0.567-4.325-1.428-6.594-1.78
		c-0.695-0.106-1.272-0.527-1.918-0.803c-0.107-0.048-0.205-0.176-0.42-0.058c0.48,0.527,0.949,1.047,1.614,1.271
		c0.92,0.304,1.898,0.459,2.789,0.822c0.851,0.342,1.614,0.89,2.436,1.31c0.929,0.48,1.731,1.106,2.524,1.791
		c-0.636-0.04-1.174-0.361-1.741-0.566c-0.959-0.353-1.8-0.949-2.73-1.369c-0.245-0.108-0.489-0.177-0.754-0.088
		c-0.43,0.136-0.89-0.011-1.33,0.088c0.01,0.233,0.284,0.195,0.293,0.42c-0.675-0.099-1.232-0.43-1.77-0.763
		c-0.998-0.627-1.957-1.32-2.955-1.947c-0.304-0.196-0.479-0.519-0.803-0.674c-0.029-0.03-0.068-0.069-0.098-0.099l0,0
		c-0.01-0.186-0.088-0.304-0.294-0.293l0,0c0.059-0.187-0.098-0.293-0.166-0.431c-0.43-0.793-0.812-1.595-0.46-2.523
		c0.392-0.177,0.665-0.567,1.096-0.686c0.264-0.078,0.519-0.313,0.812-0.059c0,0.177-0.019,0.362-0.01,0.538
		c0.039,0.5,0.098,0.999,0.587,1.312c0.841,0.969,1.986,1.468,3.102,1.986c1.829,0.842,3.728,1.487,5.684,1.967
		c0.499,0.127,1.008,0.206,1.527,0.254c0.283,0.029,0.107,0.127,0.078,0.225c0.098,0.117,0.245,0.06,0.362,0.099
		C39.235,38.392,39.088,38.323,38.961,38.343z"/>
	<path fill="#FFFFFF" d="M35.242,50.494c0.128-0.011,0.255-0.021,0.382-0.03c0.382,0.196,0.773,0.381,1.154,0.577
		c0.147,0.078,0.323,0.156,0.274,0.352c-0.039,0.167-0.215,0.215-0.372,0.274c-0.322,0.137-0.675,0.118-1.008,0.137
		c-1.399,0.118-2.788,0.363-4.187,0.519c-1.752,0.196-3.463,0.089-5.146-0.431c-0.411-0.127-0.822-0.323-1.281-0.254
		c-0.098-0.313-0.333-0.303-0.587-0.215c0.196,0.068,0.392,0.146,0.587,0.215c0.958,0.391,1.878,0.881,3.012,1.164
		c-0.43,0.167-0.743,0.041-1.007-0.019c-0.782-0.166-1.565-0.216-2.348-0.354c-0.744-0.127-1.409-0.469-2.133-0.655
		c-0.558-0.146-0.675-0.733-0.852-1.223c1.066,0.45,2.192,0.578,3.336,0.596c2.456,0.05,4.912-0.067,7.358-0.36
		c0.9-0.107,1.81-0.196,2.71-0.293C35.174,50.543,35.213,50.531,35.242,50.494z"/>
	<path fill="#F5CFD6" d="M30.83,50.739c0.089-0.225,0.303-0.215,0.489-0.265c1.027-0.293,2.055-0.586,3.043-0.987
		c0.459,0.099,0.841-0.176,1.252-0.304c1.027-0.323,2.083-0.587,3.071-1.027c0.362-0.155,0.382-0.321,0.098-0.587
		c-0.332-0.303-0.724-0.488-1.144-0.615c-0.176-0.06-0.245-0.127-0.245-0.293c1.448,0.264,2.896,0.538,4.353,0.792
		c1.39,0.244,2.779,0.47,4.295,0.725c-0.763,0.186-1.409,0.372-2.054,0.508c-1.81,0.382-3.61,0.763-5.431,1.105
		c-1.575,0.293-3.159,0.528-4.764,0.675C32.797,50.573,31.819,50.739,30.83,50.739z"/>
	<path fill="#FFFFFF" d="M28.785,31.142c-0.009-0.186,0.098-0.293,0.235-0.4c0.479-0.362,0.938-0.393,1.457-0.069
		c0.773,0.489,1.644,0.783,2.495,1.066c0.46,0.147,0.802,0.431,1.027,0.764c0.656,0.979,1.624,1.418,2.652,1.849
		c0.812,0.333,1.663,0.56,2.534,0.93c-0.353,0.245-0.636,0.06-0.891,0.01c-1.497-0.322-2.994-0.694-4.491-1.018
		c-0.841-0.187-1.546-0.617-2.27-1.047c-0.636-0.381-1.272-0.763-1.907-1.154c-0.137-0.078-0.274-0.088-0.421-0.088
		c0-0.194,0-0.392,0-0.587c0.088-0.106,0.098-0.205-0.029-0.293C29.04,30.966,28.923,31.113,28.785,31.142z"/>
	<path fill="#F5CFD6" d="M47.961,47.05c1.996,0.127,3.943-0.235,5.89-0.636c0.137-0.029,0.293-0.039,0.431-0.039
		c0.167,0,0.245,0.078,0.186,0.244c-0.147,0.382-0.304,0.733-0.724,0.92c-1.292,0.576-2.612,0.792-4.021,0.488
		c-1.213-0.264-2.456-0.41-3.688-0.616c-0.04-0.01-0.078-0.049-0.118-0.079c0.479-0.244,0.979-0.343,1.517-0.234
		C47.609,47.148,47.795,47.217,47.961,47.05z"/>
	<path fill="#F5CFD6" d="M42.884,41.953c0.274,0.332,0.099,0.675,0,1.007c-0.059,0.195-0.186,0.118-0.313,0.098
		c-1.672-0.244-3.316-0.626-4.94-1.076c-1.409-0.391-2.818-0.783-4.148-1.379c0.117-0.167,0.303-0.127,0.45-0.098
		c2.006,0.498,4.061,0.684,6.085,1.114c0.733,0.156,1.497,0.215,2.23,0.421C42.434,42.1,42.688,42.148,42.884,41.953z"/>
	<path fill="#F5CFD6" d="M45.221,45.387c1.312,0.059,2.613,0.264,3.933,0.206c0.95-0.04,1.693-0.381,2.202-1.204
		c0.059-0.098,0.108-0.215,0.196-0.274c0.244-0.155,0.469-0.537,0.783-0.313c0.313,0.216,0.391,0.646,0.157,0.968
		c-0.626,0.842-1.448,1.438-2.515,1.585c-1.066,0.147-2.133,0.01-3.199-0.01c-0.294-0.381-0.773-0.458-1.174-0.665
		C45.457,45.612,45.251,45.612,45.221,45.387z"/>
	<path fill="#E794A1" d="M16.625,40.476c-0.187,0.879-0.04,1.721,0.244,2.553c-0.009,0.06-0.019,0.127-0.028,0.187
		c-0.362-0.538-0.627-1.125-0.763-1.869c-0.382,1.633-0.274,2.035,0.821,3.365c0.763,0.93,1.565,1.819,2.407,2.681
		c0.088,0.087,0.206,0.147,0.245,0.411c-0.842-0.763-1.625-1.458-2.388-2.172c-0.606-0.568-1.194-1.135-1.497-1.948
		c-0.235-0.625-0.303-1.262-0.303-1.907c0.087-0.763,0.352-1.447,0.861-2.024c0.087-0.099,0.167-0.284,0.342-0.167
		c0.137,0.098,0.215,0.234,0.176,0.42C16.694,40.162,16.664,40.319,16.625,40.476z"/>
	<path fill="#E794A1" d="M39.342,38.264c-0.117-0.039-0.264,0.021-0.362-0.097c1.301-0.04,2.603-0.079,3.894-0.118
		c1.145,0,2.3,0,3.444,0.01c0.215,0,0.519-0.118,0.607,0.146c0.088,0.293-0.294,0.273-0.431,0.42c-0.127,0.01-0.254,0.02-0.391,0.02
		c-0.029,0-0.068,0-0.098,0c-0.519,0.068-1.037,0.088-1.546,0.06C42.747,38.626,41.034,38.499,39.342,38.264z"/>
	<path fill="#E794A1" d="M26.115,32.65c-0.361,0.93,0.03,1.73,0.46,2.523c0.078,0.137,0.225,0.244,0.166,0.431
		c-0.596-0.411-0.763-1.047-0.9-1.771c-0.459,0.479-0.577,1.008-0.518,1.575c0.039,0.362,0.157,0.724,0.245,1.086
		c-0.215-0.088-0.304-0.265-0.304-0.489C25,35.242,25.157,34.43,24.99,33.656c-0.049-0.243,0.049-0.479,0.176-0.693
		c0.363-0.606,0.725-1.224,1.214-1.752c0.117,0.5,0.117,0.587-0.117,0.989C26.173,32.335,26.144,32.492,26.115,32.65z"/>
	<path fill="#E794A1" d="M41.494,37.08c0.626,0.156,1.252,0.313,1.889,0.47c0,0.02-0.01,0.039-0.01,0.068
		c-0.489-0.05-0.988-0.089-1.477-0.138c-1.596-0.265-3.21-0.4-4.785-0.812c-0.274-0.068-0.773-0.138-0.714-0.353
		c0.078-0.273,0.519-0.088,0.812-0.04c1.282,0.196,2.544,0.49,3.806,0.754C41.171,37.061,41.338,37.061,41.494,37.08z"/>
	<path fill="#FFFFFF" d="M25.254,36.005c0,0.225,0.088,0.391,0.303,0.489l-0.01-0.01c-0.019,0.137,0.039,0.254,0.118,0.362
		c0.059,0.206,0.127,0.411,0.4,0.421c0.186,0.01,0.284,0.156,0.402,0.254c0.704,0.606,1.448,1.155,2.299,1.546
		c0.068,0.03,0.157,0.05,0.176,0.187c-0.195,0.04-0.371-0.039-0.519-0.126c-1.135-0.675-2.348-1.243-3.297-2.191
		c-0.098-0.098-0.176-0.225-0.274-0.343c-0.196-0.225-0.274-0.4,0.147-0.411C25.117,36.191,25.156,36.053,25.254,36.005z"/>
	<path fill="#FFFFFF" d="M17.916,49.975c1.018,0.459,2.025,0.92,3.043,1.38c0.029,0.029,0.068,0.059,0.098,0.087
		c0.029,0,0.059,0,0.097,0.011c0.265,0.333,0.5,0.704,1.028,0.528c0.079-0.028,0.117,0.021,0.137,0.098
		c0.029,0.167-0.03,0.283-0.187,0.353c-0.792-0.372-1.584-0.724-2.309-1.252c-0.41-0.303-0.87-0.587-1.438-0.617
		c-0.284-0.019-0.538-0.186-0.763-0.382C17.779,50.21,17.828,50.064,17.916,49.975z"/>
	<path fill="#E794A1" d="M29.206,31.396c0,0.196,0,0.393,0,0.587c-0.01,0.313-0.088,0.47-0.47,0.344
		c-0.44-0.147-0.646,0.067-0.509,0.526c0.088,0.304,0.235,0.598,0.353,0.892c-0.479-0.313-0.538-0.813-0.587-1.312
		c-0.02-0.176,0-0.352,0.01-0.538c0.186-0.332,0.548-0.479,0.782-0.763c0.127-0.02,0.245-0.166,0.392-0.039
		C29.187,31.201,29.197,31.298,29.206,31.396z"/>
	<path fill="#E794A1" d="M18.308,41.131c-0.186,0.215-0.343,0.167-0.489-0.049c-0.04-0.499,0.284-0.802,0.597-1.115
		c0.137-0.137,0.264-0.273,0.401-0.42c0.186-0.079,0.245-0.343,0.489-0.333c0.029,0.167-0.078,0.273-0.137,0.402
		C18.895,40.143,18.503,40.583,18.308,41.131z"/>
	<path fill="#E794A1" d="M35.829,31.397c0.519,0.098,1.028,0.186,1.546,0.283c-0.137,0.127-0.342,0.176-0.381,0.391
		c-0.127,0.069-0.049,0.265-0.187,0.323c-0.225-0.157-0.449-0.313-0.666-0.479C35.977,31.788,35.781,31.66,35.829,31.397z"/>
	<path fill="#E794A1" d="M19.501,48.84c0.401,0.146,0.724,0.401,0.968,0.744C20.078,49.427,19.687,49.271,19.501,48.84z"/>
	<path fill="#E794A1" d="M26.731,35.604c0.206-0.011,0.284,0.116,0.294,0.293C26.859,35.867,26.751,35.78,26.731,35.604z"/>
	<path fill="#E794A1" d="M34.127,42.295c-0.137-0.039-0.273-0.068-0.41-0.195c0.195-0.059,0.332,0.048,0.459,0.137
		C34.167,42.256,34.147,42.276,34.127,42.295z"/>
	<path fill="#E794A1" d="M25.665,36.846c-0.079-0.107-0.137-0.226-0.118-0.362C25.635,36.591,25.782,36.679,25.665,36.846z"/>
	<path fill="#F5CFD6" d="M21.546,51.452c0.048,0.02,0.107,0.049,0.156,0.068c-0.01,0.02-0.029,0.04-0.039,0.06
		C21.624,51.54,21.585,51.492,21.546,51.452L21.546,51.452z"/>
	<path fill="#F5CFD6" d="M46.592,46.345c-0.108,0.02-0.215,0.02-0.304-0.067C46.396,46.267,46.504,46.248,46.592,46.345z"/>
	<path fill="#F5CFD6" d="M42.874,36.493c0.079-0.01,0.157,0,0.206,0.077C42.991,36.582,42.923,36.572,42.874,36.493z"/>
	<path fill="#FFFFFF" d="M39.44,35.388c-0.029,0.01-0.058,0.021-0.088,0.021C39.371,35.36,39.401,35.34,39.44,35.388z"/>
	<path fill="#F5CFD6" d="M37.102,46.581c0.039,0.028,0.068,0.049,0.107,0.078C37.17,46.63,37.141,46.6,37.102,46.581z"/>
	<path fill="#E794A1" d="M27.025,35.897c0.029,0.029,0.068,0.068,0.098,0.099C27.093,35.966,27.054,35.927,27.025,35.897z"/>
	<path fill="#FFFFFF" d="M36.603,55.562c0.293-0.676,0.656-0.782,1.233-0.372c0.235,0.167,0.459,0.362,0.655,0.578
		c0.47,0.528,1.096,0.725,1.751,0.831c0.528,0.088,0.782-0.146,0.782-0.685c0-0.381,0.098-0.725,0.304-1.047
		c0.313-0.245,0.577-0.676,1.027-0.206c0.333,0.421,0.646,0.852,0.989,1.262c0.146,0.176,0.293,0.411,0.606,0.304
		c0.029,0.283-0.137,0.547-0.068,0.832c-0.04,0.107-0.088,0.215-0.118,0.323c-0.656,2.504-1.331,5-2.074,7.474
		c-0.059,0.029-0.078,0.068-0.059,0.127c-0.01,0.021-0.029,0.049-0.029,0.078c-0.47,0.411-0.558,0.393-0.783-0.225
		c-0.029-0.087-0.078-0.175-0.117-0.265c-0.058-0.381-0.206-0.763-0.156-1.153c0.166-1.37,0.332-2.73,0.518-4.101
		c0.049-0.361,0-0.675-0.146-0.988c-0.049-0.107-0.029-0.293-0.206-0.293c-0.206,0.01-0.176,0.194-0.206,0.333
		c-0.293,1.162-0.44,2.356-0.655,3.542c-0.392,2.151-0.567,4.344-1.086,6.485c-0.439,0.638-0.518,0.646-1.262,0.099
		c-0.068-0.234-0.508-0.068-0.43-0.577c0.283-1.702,0.45-3.415,0.646-5.127c0.157-1.359,0.157-2.729,0.215-4.099
		c0.02-0.479,0.029-0.938-0.225-1.37c-0.138-0.226-0.186-0.616-0.509-0.567c-0.274,0.049-0.235,0.411-0.304,0.656
		c-0.146-0.187-0.068-0.401-0.078-0.598C36.779,56.384,36.769,55.962,36.603,55.562z"/>
	<path fill="#110D0E" d="M51.766,50.954c0.089,0.067,0.167,0.166,0.265,0.194c0.587,0.178,0.705,0.599,0.617,1.136
		c-0.069,0.47-0.284,0.615-0.773,0.567c-0.744-0.067-1.468-0.264-2.201-0.4c0.01,0.039,0.01,0.077,0.02,0.098
		c0.166,0.255,0.479,0.519,0.254,0.812c-0.235,0.323-0.606,0.099-0.89-0.02c-0.509-0.205-0.959-0.537-1.546-0.528
		c0.304-0.194,0.626,0.029,0.949-0.058c0.401-0.118,0.773-0.235,1.116-0.509c0.606-0.46,1.272-0.853,1.908-1.271
		C51.592,50.974,51.679,50.964,51.766,50.954z"/>
	<path fill="#110D0E" d="M47.482,52.812c-0.578,0.303-0.519,0.881-0.597,1.39c-0.049,0.322,0.059,0.793-0.255,0.93
		c-0.313,0.136-0.509-0.323-0.734-0.528c-0.372-0.353-0.861-0.479-1.262-0.772c0.264-0.039,0.539-0.118,0.802-0.118
		c0.528,0,1.037,0.068,1.35-0.537C46.905,52.94,47.188,52.803,47.482,52.812z"/>
	<path fill="#110D0E" d="M43.95,56.218c-0.303,0.117-0.46-0.127-0.606-0.304c-0.343-0.411-0.666-0.842-0.989-1.263
		c0.108-0.059,0.235-0.176,0.333-0.155c0.519,0.067,0.949-0.088,1.34-0.411c-0.136,0.255-0.108,0.519-0.078,0.793
		c0,0.225,0.01,0.45,0.01,0.675C43.969,55.778,44.048,56.002,43.95,56.218z"/>
	<path fill="#110D0E" d="M53.636,49.573c0.235,0.354,0.655,0.616,0.528,1.136c-0.743,0.245-1.487,0.028-2.24,0.059
		c0.01-0.03,0.029-0.059,0.039-0.088c0.548-0.323,1.086-0.666,1.575-1.076C53.577,49.594,53.607,49.585,53.636,49.573z"/>
	<path fill="#110D0E" d="M54.213,48.029c0.294,0.205,0.5,0.499,0.695,0.793c0.245,0.382,0.088,0.637-0.353,0.616
		c-0.274-0.01-0.539-0.098-0.802-0.146c-0.01-0.029-0.019-0.049-0.03-0.078C53.734,48.753,53.831,48.331,54.213,48.029z"/>
	<path fill="#F5CFD6" d="M53.715,49.212c0.009,0.029,0.02,0.049,0.029,0.078c-0.039,0.098-0.078,0.186-0.117,0.283
		c-0.03,0.012-0.059,0.021-0.088,0.03c-0.098-0.234-0.303-0.392-0.43-0.627C53.313,49.056,53.518,49.134,53.715,49.212z"/>
	<path fill="#F5CFD6" d="M40.976,54.886c-0.401,0.187-0.813,0.109-1.223,0.06C40.154,54.818,40.575,54.926,40.976,54.886z"/>
	<path fill="#F5CFD6" d="M51.766,50.954c-0.087,0.01-0.185,0.02-0.273,0.028c-0.029-0.127-0.235-0.106-0.225-0.293
		c0.176,0.029,0.343,0.06,0.508,0.087C51.777,50.836,51.777,50.895,51.766,50.954z"/>
	<path fill="#F7E3E5" d="M51.581,40.123c0-0.138,0.059-0.215,0.195-0.215C51.777,40.045,51.709,40.104,51.581,40.123z"/>
	<path fill="#F5CFD6" d="M51.972,50.67c-0.01,0.027-0.029,0.058-0.039,0.088c-0.049,0-0.098,0.01-0.157,0.01
		C51.836,50.739,51.904,50.709,51.972,50.67z"/>
	<path fill="#F7E3E5" d="M35.242,50.494c-0.029,0.037-0.068,0.049-0.098,0C35.174,50.494,35.213,50.494,35.242,50.494z"/>
	<path fill="#FFFFFF" d="M30.742,58.497c0-0.686,0-1.379,0-2.065c0-0.156,0-0.323-0.098-0.459c0.283-0.226,0.42-0.089,0.587,0.176
		c0.372,0.616,0.802,1.185,1.633,1.155c0.186,0.175,0.108,0.401,0.108,0.597c0.01,0.44-0.088,0.931,0.704,0.931
		c-0.655-0.068-0.626,0.225-0.538,0.625c0.088,0.392,0.069,0.803,0.117,1.204c0.245,2.034,0.489,4.079,0.803,6.104
		c0.02,0.127,0.049,0.225,0.195,0.235c0.127,0.587,0.079,1.213,0.411,1.761c-0.372,0.606-0.655,0.626-1.174,0.137
		c-0.225-0.216-0.323-0.578-0.685-0.646c-0.215-1.967-0.469-3.935-0.646-5.9c-0.107-1.164-0.44-2.25-0.949-3.288
		C31.115,58.849,31.026,58.575,30.742,58.497z"/>
	<path fill="#FFFFFF" d="M34.363,56.149c0.029-0.107,0.059-0.215,0.156-0.273c0.421,0.793,0.675,0.938,1.301,0.772
		c0.02,2.555,0.118,5.099,0.392,7.729c0.283-0.362,0.156-0.686,0.215-0.989c0.029,0,0.048,0,0.079,0
		c0.009,1.36-0.177,2.72-0.108,4.08c0.01,0.245-0.029,0.479-0.098,0.714c-0.342,0.499-0.861,0.587-1.409,0.587
		c0.058-3.092,0.195-6.183,0.146-9.274c-0.01-0.597-0.186-1.184-0.587-1.662C34.401,57.264,34.577,56.697,34.363,56.149z"/>
	<path fill="#5F5F5F" d="M36.309,68.182c0.078-0.234,0.118-0.47,0.098-0.714c-0.079-1.359,0.107-2.719,0.107-4.08
		c0.176-1.36,0.176-2.729,0.254-4.089c0.039-0.626,0.088-1.262,0.127-1.888c0.059-0.245,0.03-0.616,0.304-0.656
		c0.323-0.049,0.371,0.333,0.509,0.567c0.253,0.421,0.245,0.88,0.225,1.37c-0.069,1.369-0.058,2.739-0.215,4.099
		c-0.195,1.712-0.362,3.425-0.646,5.127c-0.088,0.499,0.362,0.343,0.43,0.577c-0.333-0.059-0.606-0.02-0.646,0.4
		c-0.01,0.06-0.049,0.127-0.127,0.107c-0.098-0.021-0.176-0.079-0.186-0.195C36.506,68.573,36.486,68.348,36.309,68.182z"/>
	<path fill="#5F5F5F" d="M38.755,68.388c0.509-2.133,0.685-4.325,1.086-6.487c0.215-1.184,0.362-2.376,0.655-3.541
		c0.029-0.137,0-0.322,0.206-0.332c0.176,0,0.157,0.187,0.205,0.293c0.147,0.313,0.207,0.625,0.147,0.988
		c-0.196,1.359-0.353,2.729-0.519,4.101c-0.049,0.391,0.098,0.771,0.156,1.154c-0.206,0.009-0.107-0.246-0.225-0.284
		c-0.283,1.135-0.303,2.31-0.635,3.425c-0.138,0.44-0.333,0.782-0.9,0.615C38.882,68.3,38.814,68.359,38.755,68.388z"/>
	<path fill="#5F5F5F" d="M34.45,57.822c0.401,0.479,0.577,1.066,0.587,1.663c0.049,3.093-0.078,6.184-0.146,9.275
		c-0.079,0-0.147,0-0.225,0.01c-0.333-0.538-0.284-1.165-0.411-1.761c0-1.751,0.117-3.512-0.078-5.253
		c-0.098-0.871-0.176-1.752-0.098-2.623C34.127,58.682,34.03,58.174,34.45,57.822z"/>
	<path fill="#110D0E" d="M45.379,64.719c0.695-2.769,1.907-5.352,3.023-7.955c0.382-0.88,0.763-1.761,1.243-2.592
		c0.068-0.118,0.127-0.323,0.313-0.227c0.147,0.079,0.02,0.245-0.03,0.354c-1.487,3.493-2.983,6.985-4.471,10.478
		C45.418,64.758,45.398,64.739,45.379,64.719z"/>
	<path fill="#110D0E" d="M46.426,56.139c-0.636,3.209-1.742,6.292-2.71,9.46C43.431,64.102,45.623,57.469,46.426,56.139z"/>
	<path fill="#110D0E" d="M41.68,64.846c0.744-2.475,1.429-4.97,2.075-7.475c0.029-0.107,0.078-0.216,0.117-0.322
		c0.147,0.998,0,1.957-0.303,2.915c-0.704,2.26-1.418,4.501-2.221,6.73c-0.02,0.05-0.049,0.089-0.137,0.234
		c0.079-0.724,0.421-1.272,0.382-1.888c0.01-0.03,0.02-0.049,0.029-0.079C41.69,64.944,41.7,64.905,41.68,64.846z"/>
	<path fill="#110D0E" d="M50.828,55.102c-0.538,1.341-1.076,2.682-1.634,4.011c-0.597,1.438-1.213,2.866-1.83,4.306
		c-0.059,0.146-0.137,0.293-0.245,0.518c-0.069-0.333,0.098-0.509,0.166-0.693c1.028-2.633,1.928-5.313,3.278-7.809
		c0.068-0.127,0.147-0.254,0.216-0.381C50.799,55.073,50.809,55.082,50.828,55.102z"/>
	<path fill="#BDBCBC" d="M43.96,55.552c0-0.225-0.01-0.45-0.01-0.675C44.087,55.102,44.107,55.327,43.96,55.552z"/>
	<path fill="#110D0E" d="M50.994,54.681c0.01,0.167-0.069,0.293-0.167,0.42c-0.009-0.01-0.029-0.029-0.039-0.039
		C50.819,54.916,50.847,54.759,50.994,54.681L50.994,54.681z"/>
	<path fill="#110D0E" d="M45.447,64.778c-0.039,0.09-0.078,0.178-0.127,0.266v0.01c0.02-0.108,0.03-0.226,0.049-0.333
		C45.398,64.739,45.418,64.758,45.447,64.778z"/>
	<path fill="#5F5F5F" d="M46.748,64.719c0,0.009,0.01,0.029,0.01,0.039c-0.02,0-0.039,0.01-0.059,0.01c0-0.01,0-0.029,0.01-0.04
		C46.719,64.719,46.738,64.719,46.748,64.719z"/>
	<path fill="#110D0E" d="M51.151,54.27c0,0.01,0.01,0.03,0.01,0.04c-0.01,0.049-0.019,0.049-0.039,0.01c0-0.01,0-0.029,0.01-0.04
		C51.131,54.28,51.141,54.28,51.151,54.27z"/>
	<path fill="#110D0E" d="M50.994,54.681c0.01-0.049,0.02-0.089,0.02-0.137c0.019,0.009,0.039,0.019,0.049,0.039
		C51.044,54.613,51.024,54.652,50.994,54.681L50.994,54.681z"/>
	<path fill="#110D0E" d="M47.061,64.073c-0.02,0.02-0.039,0.029-0.059,0.039c0-0.028-0.01-0.059-0.01-0.088
		c0-0.01,0.02-0.029,0.029-0.04C47.042,64.025,47.051,64.054,47.061,64.073z"/>
	<path fill="#5F5F5F" d="M46.875,64.494c-0.009,0.01-0.029,0.019-0.039,0.029c-0.01-0.029-0.019-0.049-0.03-0.079
		c0-0.009,0.02-0.02,0.04-0.028C46.856,64.436,46.866,64.465,46.875,64.494z"/>
	<path fill="#110D0E" d="M45.32,65.052c-0.009,0.009-0.009,0.019-0.02,0.029C45.31,65.071,45.32,65.061,45.32,65.052
		C45.329,65.052,45.32,65.052,45.32,65.052z"/>
	<path fill="#F7E3E5" d="M36.994,32.062c0.048-0.215,0.253-0.265,0.381-0.392c0.637,0.059,1.224,0.265,1.761,0.605
		c0.108,0.06,0.215,0.118,0.187,0.245c-0.039,0.187-0.177,0.06-0.274,0.06c-0.411,0.01-0.822-0.099-1.233,0.127
		C37.454,32.923,37.092,32.609,36.994,32.062z"/>
	<path fill="#F7E3E5" d="M40.536,29.616c-0.01,0-0.02-0.011-0.03-0.011c0.01-0.01,0.03-0.028,0.04-0.04
		c0.009,0.011,0.019,0.021,0.029,0.03C40.555,29.596,40.546,29.606,40.536,29.616z"/>
	<path fill="#E794A1" d="M17.916,49.975c-0.088,0.078-0.137,0.227-0.303,0.196c-0.342-0.068-0.656-0.206-0.949-0.393
		c-0.069-0.059-0.127-0.116-0.196-0.175c-0.01-0.02-0.02-0.03-0.03-0.04c0.049-0.264,0.255-0.137,0.402-0.167
		C17.192,49.604,17.613,49.692,17.916,49.975z"/>
	<path fill="#F7E3E5" d="M16.85,49.398c-0.147,0.039-0.352-0.097-0.401,0.167c-0.284,0-0.392-0.187-0.46-0.431
		c0.039,0.019,0.079,0.049,0.118,0.068c0.01-0.039,0.049-0.089,0.03-0.118c-0.049-0.099-0.118-0.187-0.186-0.273
		c0.127-0.186,0.323-0.068,0.528-0.118c-0.333,0.226-0.156,0.323,0.039,0.372C16.722,49.124,16.879,49.153,16.85,49.398z"/>
	<path fill="#E794A1" d="M14.805,47.559c0-0.069-0.01-0.146-0.01-0.215c0.206,0.156,0.479,0.263,0.392,0.606
		c-0.107,0-0.068,0.087-0.078,0.146C15.001,47.911,14.903,47.735,14.805,47.559z"/>
	<path fill="#110D0E" d="M15.774,48.615c0,0.068,0.108,0.128,0.01,0.196c-0.225-0.118-0.323-0.342-0.47-0.529
		c0.029-0.02,0.049-0.049,0.079-0.067c0.088,0.078,0.176,0.146,0.264,0.225l-0.01-0.009C15.695,48.498,15.735,48.557,15.774,48.615z
		"/>
	<path fill="#110D0E" d="M15.96,48.822c0.058,0.088,0.127,0.177,0.186,0.274c0.01,0.019-0.02,0.078-0.029,0.117
		c-0.039-0.021-0.078-0.049-0.117-0.068c-0.068-0.106-0.146-0.225-0.215-0.333C15.852,48.713,15.901,48.822,15.96,48.822z"/>
	<path fill="#F7E3E5" d="M24.188,53.214c0.225-0.06,0.401,0.01,0.538,0.196C24.52,53.429,24.324,53.4,24.188,53.214z"/>
	<path fill="#FFFFFF" d="M25.313,53.702c0.215-0.029,0.401,0.029,0.538,0.195C25.635,53.918,25.469,53.83,25.313,53.702z"/>
	<path fill="#F7E3E5" d="M16.478,49.604c0.068,0.059,0.127,0.117,0.195,0.175C16.556,49.789,16.459,49.76,16.478,49.604z"/>
	<path fill="#FFFFFF" d="M25.85,53.898c0.088,0,0.167,0,0.196,0.099C25.958,54.006,25.88,53.996,25.85,53.898z"/>
	<path fill="#F7E3E5" d="M24.726,53.409c0.117-0.021,0.215,0.009,0.293,0.098C24.912,53.517,24.804,53.497,24.726,53.409z"/>
	<path fill="#110D0E" d="M15.177,48.116c0.078-0.099,0.127,0.021,0.195,0.021c0,0.029,0.01,0.048,0.01,0.077
		c-0.03,0.02-0.049,0.049-0.078,0.067C15.264,48.234,15.225,48.176,15.177,48.116z"/>
	<path fill="#110D0E" d="M15.109,48.097c0.01-0.059-0.039-0.137,0.078-0.146c0,0.059,0.107,0.116,0.01,0.187
		C15.167,48.116,15.138,48.107,15.109,48.097z"/>
	<path fill="#BDBCBC" d="M34.45,57.822c-0.421,0.354-0.333,0.861-0.372,1.312c-0.079,0.871,0,1.752,0.098,2.623
		c0.205,1.751,0.088,3.502,0.078,5.253c-0.146-0.01-0.176-0.108-0.195-0.235c-0.313-2.035-0.558-4.069-0.803-6.104
		c-0.048-0.4-0.029-0.813-0.117-1.203c-0.088-0.401-0.127-0.694,0.538-0.626c-0.792,0-0.694-0.489-0.704-0.929
		c0-0.205,0.069-0.432-0.108-0.598c0.626-0.215,1.077-0.665,1.487-1.153C34.577,56.697,34.401,57.264,34.45,57.822z"/>
	<path fill="#BDBCBC" d="M36.886,57.411c-0.039,0.626-0.087,1.262-0.127,1.888c-0.088,0.029-0.137,0.079-0.137,0.166
		c-0.059,1.311-0.127,2.612-0.187,3.923c-0.058,0.293,0.07,0.617-0.214,0.989c-0.274-2.632-0.362-5.176-0.392-7.729
		c0.382-0.273,0.548-0.694,0.773-1.076c0.167,0.401,0.167,0.832,0.205,1.251C36.828,57.01,36.74,57.225,36.886,57.411z"/>
	<path fill="#F7E3E5" d="M15.392,48.214c0-0.029-0.01-0.048-0.01-0.077c0.02-0.07,0.01-0.177,0.127-0.127
		c0.215,0.077,0.167,0.264,0.147,0.43C15.568,48.371,15.48,48.293,15.392,48.214z"/>
	<path fill="#F7E3E5" d="M15.774,48.615c-0.039-0.059-0.079-0.116-0.117-0.176C15.774,48.439,15.93,48.43,15.774,48.615z"/>
	<path fill="#E794A1" d="M14.795,47.344c-0.146-0.03-0.157-0.157-0.176-0.274C14.737,47.118,14.795,47.217,14.795,47.344z"/>
	<path fill="#F7E3E5" d="M21.057,51.452c-0.03-0.029-0.069-0.06-0.098-0.089C20.988,51.384,21.027,51.424,21.057,51.452z"/>
	<path fill="#110D0E" d="M54.36,50.709c0.058-0.138,0.107-0.274,0.244-0.342c0.01,0.009,0.03,0.028,0.039,0.037
		c-0.068,0.127-0.137,0.256-0.206,0.383C54.418,50.758,54.389,50.739,54.36,50.709z"/>
	<path fill="#110D0E" d="M54.702,50.269c-0.02-0.098,0.01-0.157,0.098-0.196l0.02,0.021C54.82,50.18,54.8,50.25,54.702,50.269
		L54.702,50.269z"/>
	<path fill="#110D0E" d="M54.8,50.073c0.02-0.02,0.029-0.049,0.049-0.068c0.049,0.049,0.029,0.078-0.029,0.088
		C54.829,50.103,54.8,50.073,54.8,50.073z"/>
	<path fill="#110D0E" d="M54.604,50.367c0.02-0.05,0.03-0.108,0.108-0.09l0.009,0.011c-0.02,0.039-0.048,0.088-0.068,0.127
		C54.634,50.397,54.615,50.376,54.604,50.367z"/>
	<path fill="#F7E3E5" d="M18.308,41.131c0.195-0.559,0.597-0.998,0.851-1.517c0.069-0.127,0.176-0.234,0.137-0.401l0,0
		c0.03-0.029,0.059-0.049,0.088-0.078c0.235-0.255,0.411-0.078,0.558,0.098c0.284,0.314,0.548,0.638,0.812,0.959l0,0
		c-0.157-0.039-0.314-0.067-0.469-0.106c-0.089-0.021-0.255-0.069-0.265-0.049c-0.196,0.372-0.694,0.372-0.861,0.694
		c-0.156,0.304-0.107,0.694,0.03,1.037c0.127,0.333,0.274,0.655,0.362,1.007C18.846,42.442,18.298,41.992,18.308,41.131z"/>
	<path fill="#F5CFD6" d="M16.841,43.215c0.009-0.06,0.019-0.127,0.028-0.187c0.128,0.138,0.196,0.305,0.187,0.489l-0.01,0.01
		C16.841,43.518,16.85,43.361,16.841,43.215z"/>
	<path fill="#F5CFD6" d="M17.046,43.528c0.098,0.021,0.186,0.05,0.166,0.177c-0.009,0.028-0.068,0.077-0.087,0.067
		C17.007,43.734,17.046,43.626,17.046,43.528L17.046,43.528z"/>
	<path fill="#F7E3E5" d="M20.763,40.202c0.069,0.009,0.157,0.009,0.147,0.116c0,0.011-0.02,0.029-0.029,0.029
		C20.773,40.358,20.773,40.27,20.763,40.202L20.763,40.202z"/>
	<path fill="#E794A1" d="M19.384,39.145c-0.029,0.03-0.058,0.05-0.088,0.079C19.325,39.203,19.354,39.175,19.384,39.145z"/>
	<path fill="#F7E3E5" d="M46.103,38.656c0.127-0.01,0.254-0.02,0.391-0.02c0.244,0.313,0.636,0.264,0.959,0.371
		c0.245,0.079,0.459,0.225,0.714,0.285c0.088,0.019,0.186,0.087,0.157,0.205c-0.029,0.117-0.138,0.117-0.235,0.117
		c-0.694,0.039-1.389-0.049-2.083-0.137c-0.753-0.098-1.506-0.226-2.26-0.234c-0.625,0-1.212-0.177-1.829-0.235
		c-0.891-0.087-1.771-0.332-2.661-0.519c-0.108-0.02-0.206-0.088-0.304-0.137c0.127-0.02,0.274,0.04,0.382-0.088
		c1.692,0.246,3.405,0.373,5.117,0.46c0.518,0.03,1.037,0.01,1.545-0.059C46.034,38.705,46.073,38.695,46.103,38.656z"/>
	<path fill="#F7E3E5" d="M25.068,51.649c-0.195-0.067-0.391-0.146-0.586-0.216C24.736,51.355,24.969,51.335,25.068,51.649
		L25.068,51.649z"/>
	<path fill="#F7E3E5" d="M29.206,31.396c-0.01-0.098-0.02-0.194-0.029-0.293C29.304,31.191,29.295,31.289,29.206,31.396z"/>
	<path fill="#F5CFD6" d="M46.103,38.656c-0.029,0.039-0.068,0.05-0.098,0C46.034,38.656,46.073,38.656,46.103,38.656z"/>
	<path fill="#7A7A7A" d="M41.68,64.846c0.021,0.059,0,0.108-0.058,0.127C41.602,64.905,41.632,64.865,41.68,64.846z"/>
	<path fill="#F7E3E5" d="M36.436,63.388c0.059-1.311,0.127-2.612,0.187-3.923c0-0.098,0.059-0.146,0.137-0.166
		c-0.078,1.36-0.078,2.729-0.253,4.089C36.486,63.388,36.456,63.388,36.436,63.388z"/>
</g>
</svg>
