<?xml version="1.0" encoding="utf-8"?>
<!-- Generator: Adobe Illustrator 16.0.0, SVG Export Plug-In . SVG Version: 6.00 Build 0)  -->
<!DOCTYPE svg PUBLIC "-//W3C//DTD SVG 1.1//EN" "http://www.w3.org/Graphics/SVG/1.1/DTD/svg11.dtd">
<svg version="1.1" id="Layer_1" xmlns="http://www.w3.org/2000/svg" xmlns:xlink="http://www.w3.org/1999/xlink" x="0px" y="0px"
	 width="205.833px" height="192.264px" viewBox="0 15.595 205.833 192.264" enable-background="new 0 15.595 205.833 192.264"
	 xml:space="preserve">
<g>
	<path fill="#FFFFFF" d="M17.753,112.145c-0.668,1.198-0.773,2.671-0.491,4.428c3.197,8.396,11.805,21.643,17.042,35.24
		c5.199,13.424,6.605,20.203,11.277,26.633c4.671,6.431,20.977,10.646,20.977,10.646l20.801,4.18v-70.131
		C87.394,123.142,19.896,108.352,17.753,112.145z"/>
	<polygon fill="#FFFFFF" points="101.798,26.901 99.903,28.802 97.865,30.138 77.977,44.086 90.45,52.693 108.123,53.117 
		101.623,40.009 101.623,33.545 	"/>
	<path fill="#FFFFFF" d="M39.431,66.222L39.431,66.222c-0.139,0.14-0.246,0.247-0.351,0.352l0,0c-0.281,0-0.524,0.07-0.704,0.353
		l0,0c-0.105,0.104-0.244,0.207-0.351,0.351c-0.914,0.105-1.37,0.843-1.897,1.439c-2.109,2.387-4.288,4.673-6.744,6.745
		c-3.656,3.093-6.676,6.818-9.663,10.474c-1.266,1.508-2.604,3.053-3.444,4.884c-1.406,0.208-2.251,1.37-3.339,2.104
		c-0.631,0.458-0.563,1.021-0.14,1.654c0.703,1.017,1.194,2.213,0.949,3.442c-0.281,1.338,0.105,2.355,0.983,3.304
		c0.141,0.104,0.316,0.247,0.458,0.351l0,0c0,0.317,0,0.6,0.351,0.702l0,0c0,0.321,0.037,0.6,0.351,0.705l0,0
		c0,0.315,0.07,0.563,0.353,0.701l0,0c0.105,0.14,0.248,0.281,0.349,0.386c0.6,0.916,1.196,1.829,1.759,2.739
		c0,0.952,0,1.901,0,2.85c-0.843,1.334-0.703,2.739-0.177,4.144c0.177,0.495,0.142,1.021,0.212,1.548
		c0.282,2.599,1.477,4.708,3.654,6.008c1.687,1.019,2.741,2.038,2.318,4.076c-0.072,0.28,0,0.596,0,0.878
		c-0.072,1.123,0.458,1.582,1.582,1.582c1.687,0,3.373,0,5.024-0.565c0.528-0.172,1.229-0.454,1.615,0.07
		c0.317,0.422-0.315,0.81-0.489,1.196c-0.635,1.159-0.249,2.215,0.526,3.058c0.808,0.879,1.792,0.421,2.529-0.142
		c1.021-0.773,1.441-0.21,1.827,0.635c1.231,2.599,2.636,3.02,5.131,1.65c0.912-0.493,1.722-1.301,2.846-1.477
		c0.208,0.703,0,1.229-0.142,1.826c-0.667,3.091,0.458,4.182,3.549,3.411c0.388-0.105,0.773-0.247,1.161-0.386
		c1.792-0.563,3.406-1.548,5.094-2.357c0.984-0.491,1.51-0.315,1.72,0.809c0.21,1.161,0.528,2.285,1.089,3.304
		c0.459,0.843,0.914,1.724,2.074,1.512c1.231-0.248,1.161-1.37,1.265-2.215c0.14-1.334-0.104-2.739,0.422-4.039
		c1.65,0.066,2.951,1.228,4.566,1.438c1.194,0.14,1.968,0.701,2.038,1.969c0.037,0.631,0.037,1.263,0.07,1.932
		c0.212,4.319,0.738,4.777,4.92,4.076c-0.668,0.563-0.668,1.157-0.456,2.001c0.982,4.25,2.211,8.433,3.512,12.58
		c1.087,3.442,1.861,6.958,3.267,10.293l0,0c0.105,0.248,0.247,0.456,0.351,0.705l0,0c0.105,0.595-0.281,1.368,0.668,1.582
		c0.456,3.513,1.021,7.027,1.372,10.538c0.173,1.901,1.228,3.689,0.701,5.659c-0.773,1.159-1.617,0.947-2.353,0.068
		c-0.879-1.052-1.652-2.178-2.46-3.302c-0.175-0.771-0.631-1.44-0.77-2.283c-0.81-5.48-1.161-11.032-2.427-16.443
		c-1.405-5.903-2.529-11.84-5.059-17.427c-0.14-0.281-0.035-0.773-0.491-0.811c-0.387-0.033-0.6,0.353-0.668,0.705
		c-0.353,1.861-1.126,3.691-0.598,5.692c0.916,3.619,1.792,7.237,2.143,10.961c0.386,3.972,2.355,7.59,2.813,11.525
		c0.351,2.951,1.333,5.655,2.563,8.328c0.279,0.633,0.771,1.194,0.631,1.933c-0.247,0.422-0.598,0.775-0.598,1.301
		c-1.79,2.108-2.739,2.038-4.286-0.319c-0.984-1.51-1.51-3.232-2.038-4.917c0.072-0.598,0-1.159-0.14-1.722
		c-2.213-8.855-4.358-17.743-7.097-26.493c-0.74-2.352-1.371-4.742-2.706-6.957c-0.702,0.668-0.809,1.268-0.668,2.038
		c0.983,6.499,2.706,12.861,4.322,19.221c0.842,3.372,2.038,6.674,2.564,10.155c-0.353,1.578,0.493,3.056,0.282,4.636
		c-0.107,0.702,0.035,1.548-0.635,1.862c-0.771,0.353-1.192-0.458-1.685-0.914c-0.316-0.315-0.596-0.667-0.912-1.056
		c0.279,2.778,2.423,5.728,4.705,6.115c2.637,0.458,5.098,1.441,7.661,2.145c0.668,0.21,1.301,0.456,2.004,0.631
		c2.634,0.665,5.128,2.285,7.798,2.178c6.676-0.246,13.071,1.441,19.57,2.32c6.29,0.844,12.475,0.633,18.658-0.212
		c6.572-0.877,13.071-2.283,19.782-2.071c3.513,0.102,7.132-0.389,10.506-1.477c4.426-1.478,8.679-3.479,13-5.305
		c2.215-0.914,2.601-3.516,0.528-4.78c-2.18-1.334-2.986-3.163-3.339-5.552c-0.246-1.86-1.157-3.62-3.232-3.828
		c-1.299-0.14-2.143-0.74-3.057-1.406c-1.229-0.878-2.425-1.791-3.618-2.743c-2.427-1.966-4.815-4.039-8.54-3.02
		c5.165-12.333,9.732-24.807,15.988-36.506c2.073-2.813,3.618-5.905,5.305-8.924c0.493-0.88,1.334-1.617,1.264-2.741
		c0.563-0.879,1.091-1.794,1.652-2.671c0.563-0.212,0.633-0.563,0.282-1.021c0.526-0.316,0.281-0.628,0-0.947
		c-0.738-0.842-1.441-1.724-2.178-2.567c-0.705-1.265-0.249-2.35,0.454-3.406c0.53-0.845,1.019-1.685,1.441-2.599
		c0.563-1.161,0.142-1.755-0.985-2.076c-1.578-0.456-3.125-0.912-4.705-1.368c-0.81-0.246-1.72-0.528-1.759-1.442
		c-0.068-1.476-0.877-2.493-1.652-3.584c-0.208-0.526-0.526-0.986-1.122-1.056c0.561-2.213-1.125-3.232-2.355-4.497
		c-0.842-0.878-0.596-1.967-0.422-2.986c0.21-1.264,0.635-2.46,0.985-3.725c0.351-0.596,0.842-1.157,0.068-2.25
		c-0.068,0.81-0.104,1.196-0.104,1.58c-0.105,0-0.247,0-0.353,0c0-0.487,0.176-1.015-0.279-1.438c0-0.142-0.037-0.247-0.037-0.384
		c-0.072-0.6,0.21-1.233-0.282-1.757l-0.035-0.072c-0.068-1.021,0.14-2.178-1.052-2.776c-0.14,0-0.246,0-0.388,0l0,0
		c-0.175-1.475-1.757-1.792-2.46-2.811c-0.175-2.53-2.143-3.654-3.968-4.813c-2.811-1.794-6.253-2.354-8.961-4.358
		c-0.456-0.491-0.914-1.017-1.441-1.512c-3.02-2.949-6.184-5.866-8.326-9.555c-1.512-2.599-3.867-3.269-6.499-3.727
		c-0.353-0.208-0.703-0.456-1.054-0.666c-0.388-0.809-1.161-1.124-1.899-1.475c-1.932-0.949-4.005-1.511-5.938-2.497
		c-3.372-1.755-6.253-4.494-10.153-5.232c-0.598-0.105-0.916-0.67-0.984-1.334c-0.458-1.51-0.6-3.06-0.037-4.604
		c0.177-3.374,0.177-6.748,2.39-9.592c0.138-0.177,0.21-0.422,0.317-0.633c0.138-0.282,0.208-0.6-0.072-0.773
		c-0.281-0.177-0.562,0.035-0.704,0.314c-0.421,0.74-1.087,1.373-1.229,2.287c-0.105,0.104-0.21,0.248-0.316,0.351l0,0
		c-0.493,0-0.666,0.386-0.88,0.738c-1.052,1.722-1.192,3.653-1.159,5.55c0.072,2.776-0.526,5.376-1.473,7.977
		c-0.249,0.703-0.707,0.809-1.334,0.878c-1.829,0.246-3.691,0.423-5.483,0.807c-2.18,0.459-2.917,1.967-2.073,4.042
		c0.245,0.666,0.387,1.65,1.299,1.688c0.914,0.068,1.615-0.775,1.791-1.445c0.67-2.458,2.322-2.917,4.535-2.669
		c0.528,0.072,1.054,0,1.58,0c3.446,0.072,5.236,1.932,5.376,5.413c0.035,1.192-0.282,1.686-1.545,1.615
		c-2.46-0.107-4.921-0.035-7.379,0c-0.563,0-1.194-0.175-1.652,0.349c-0.245,0-0.458,0-0.703,0
		c-4.005-0.316-6.992-3.264-10.785-4.214c-0.389-0.107-0.6-0.667-0.284-0.809c1.37-0.563,0.598-1.513,0.53-2.355
		c-0.037-0.563-0.105-1.054,0.596-1.475c2.354-1.475,4.815-2.739,6.852-4.813c2.073-2.04,4.742-3.481,6.744-5.694
		c0.389-0.419,1.127-0.736,0.635-1.613c-4.075,3.269-8.256,6.323-13.14,8.256c-1.441,0.244-2.778,0.773-3.9,1.791
		c-1.056,0-2.004,0.458-2.743,1.019c-2.951,2.25-6.183,3.832-9.625,5.098c-1.724,0.631-3.481,1.229-5.098,2.036
		c-2.739,1.372-4.497,3.83-6.394,6.08c-1.512,1.792-3.128,3.653-5.165,4.639c-2.636,1.227-5.271,2.458-7.872,3.758
		c-1.51,0.773-3.197,1.406-4.144,3.023C39.643,65.943,39.536,66.08,39.431,66.222z"/>
	<path fill="#FFFFFF" d="M47.513,156.874c-0.033-0.14-0.105-0.317-0.14-0.459c-0.035,0.037-0.14,0.072-0.14,0.107
		C47.338,156.629,47.408,156.767,47.513,156.874c0.035,0.281,0.07,0.526,0.141,0.772c0.035-0.034,0.105-0.034,0.14-0.105
		C47.9,157.26,47.759,157.012,47.513,156.874z"/>
	<path fill="#FFFFFF" d="M48.322,142.221c-0.21,4.851,10.751,37.948,13.247,39.808C57.388,168.644,54.998,154.835,48.322,142.221z"
		/>
	<path fill="#FFFFFF" d="M48.92,160.986c0.842,3.618,2.213,7.13,2.636,10.787c0.351,2.916,1.297,5.517,2.563,8.079
		c0.248,0.493,0.353,1.373,1.054,1.126c0.74-0.248,0.422-1.126,0.315-1.722C54.26,172.862,51.028,167.133,48.92,160.986z"/>
	<path fill="#FFFFFF" d="M47.128,169.417c0.386,1.615-0.456,3.339,0.562,4.882c1.653,2.53,2.386,3.374,3.269,3.726
		C49.374,175.248,48.71,172.156,47.128,169.417z"/>
	<path fill="#FFFFFF" d="M46.6,154.554c0.035-0.107,0.035-0.175,0.072-0.246c-0.037,0-0.072,0.035-0.141,0.035
		C46.565,154.415,46.565,154.447,46.6,154.554z"/>
	<path fill="#FFFFFF" d="M46.952,155.573c0.139,0,0.175-0.069,0.072-0.177c0,0-0.072,0.035-0.142,0.035
		C46.916,155.468,46.916,155.504,46.952,155.573z"/>
	<path fill="#FFFFFF" d="M48.147,158.594c-0.035-0.035-0.07-0.072-0.105-0.103c-0.037,0.031-0.072,0.068-0.105,0.103
		c0.033,0.035,0.105,0.107,0.14,0.141C48.112,158.701,48.112,158.629,48.147,158.594z"/>
	<path fill="#F7E3E5" d="M84.725,38.431c4.882-1.936,9.063-4.991,13.14-8.26c0.491,0.879-0.245,1.196-0.633,1.615
		c-2.002,2.216-4.708,3.656-6.748,5.694c-2.071,2.073-4.496,3.337-6.85,4.812c-0.705,0.424-0.631,0.914-0.598,1.477
		c0.072,0.845,0.843,1.792-0.526,2.357c-0.317,0.138-0.107,0.701,0.281,0.807c3.796,0.95,6.783,3.9,10.788,4.217
		c-0.107,0.842,0.419,0.947,1.089,1.157c0.596,0.212,1.579-0.104,1.755,0.949c-0.177,0.949,0.491,1.373,1.089,1.829
		c0.773,0.596,1.58,1.159,2.39,1.722c-0.037,0.914-0.565,0.734-1.231,0.666c-0.666-0.072-1.371-0.74-2.355,0.068
		c2.776,0.844,5.342,1.617,7.907,2.355c6.078,1.757,12.3,2.879,18.448,4.252c2.106,0.491,2.669,1.194,2.846,3.442
		c-5.412-0.137-10.788-0.77-16.2-0.035c-0.141-0.174-0.246-0.102-0.316,0.07c-0.035,0.705,0.565,0.844,1.019,0.984
		c3.83,1.196,7.693,2.143,11.63,2.883c0.175,0.281,0.422,0.314,0.74,0.281h0.035c-1.969,0.596-4.112,0.386-6.01,1.299
		c0.386,0.175,0.458,0.247,0.316,0.526c-0.561-0.068-1.159-0.068-1.722-0.175c-4.566-0.947-9.064-2.002-13.666-2.704
		c-1.054-0.173-2.603-0.843-2.917,0.141c-0.249,0.771,1.58,1.017,2.564,1.264c5.657,1.475,11.455,1.934,17.18,2.917
		c0.493,1.862,2.532,1.054,3.515,2.038c-4.672,0.142-9.345,0.284-13.983,0.422c0.105-0.317,0.738-0.703-0.282-0.808
		c-1.826-0.177-3.688-0.456-5.48-0.914c-7.027-1.721-13.845-4.005-20.416-7.062c-4.042-1.862-8.149-3.654-11.137-7.132
		c-0.421-1.054-0.949-2.108-1.264-3.2c-0.491-1.652,0.246-2.422,1.826-1.896c1.373,0.456,1.652-0.105,1.687-1.231
		c0.528,0,1.054,0.039,1.51,0.317C76.43,56.98,78.717,58.35,81,59.721c2.597,1.512,5.129,3.092,8.149,3.758
		c5.376,1.161,10.753,2.534,16.128,3.654c0.916,0.175,1.931,0.88,3.199-0.033c-3.128-1.299-6.185-2.11-9.101-3.339
		c-3.686-1.545-7.167-3.125-9.522-6.641c-0.808-1.196-2.038-2.176-3.689-2.741c-3.091-1.017-6.183-2.073-8.959-3.828
		c-1.827-1.161-3.478-1.056-5.234,0.246c-0.493,0.353-0.879,0.771-0.845,1.441c-0.84,0.982-2.141,1.545-2.808,2.741
		c-1.054-0.915-1.934-0.035-2.918,0.21c-1.547,0.456-2.494,1.826-3.937,2.458c0.107-0.563,0.21-1.124,0.53-1.652
		c0.842-1.441,0.842-1.72,0.421-3.549c-1.755,1.899-3.057,4.114-4.359,6.291c-0.455,0.74-0.807,1.617-0.631,2.495
		c0.6,2.774,0.07,5.694,0.983,8.435c-0.352,0.208-0.491,0.666-0.983,0.666c-1.475,0.032-1.231,0.668-0.528,1.473
		c0.353,0.388,0.598,0.847,0.987,1.231c3.405,3.409,7.765,5.412,11.838,7.869c0.564,0.319,1.159,0.636,1.86,0.458
		c-0.031-0.489-0.386-0.561-0.631-0.667c-3.057-1.404-5.726-3.335-8.256-5.55c-0.421-0.388-0.771-0.914-1.439-0.914
		c-0.986-0.035-1.231-0.772-1.441-1.512c0.422-0.598-0.105-0.916-0.421-1.301l0.033,0.035c-0.317-1.299-0.736-2.565-0.877-3.9
		c-0.212-2.038,0.21-3.934,1.861-5.657c0.493,2.601,1.091,4.885,3.232,6.36l0,0c0.037,0.67,0.458,0.984,1.056,1.054l0,0
		c0.105,0.107,0.247,0.248,0.351,0.354c1.161,0.558,1.792,1.718,2.883,2.423c3.583,2.281,7.027,4.742,10.611,6.99
		c1.931,1.194,3.933,2.389,6.356,2.741c-0.033-0.808-1.052-0.666-1.052-1.511c1.545-0.349,3.234,0.175,4.777-0.316
		c0.952-0.28,1.794-0.068,2.708,0.316c3.339,1.511,6.324,3.656,9.805,4.92c2.073,0.738,3.968,1.899,6.251,2.036
		c-2.809-2.459-5.727-4.742-9.064-6.427c-2.951-1.512-5.692-3.477-8.747-4.708c-3.2-1.301-6.711-1.864-10.016-2.953
		c-2.425-0.809-4.109-2.632-5.798-4.568c0.773-0.386,1.089,0.035,1.51,0.21c2.287,0.985,4.393,2.496,6.89,2.883
		c8.149,1.229,15.775,4.356,23.681,6.394c0,0.493,0.314,0.74,0.738,0.879c2.143,0.738,4.216,1.687,6.499,1.931
		c3.83,0.424,7.449,2.041,11.351,2.216c0.141,0,0.244,0.351,0.386,0.528c-0.283,0.068-0.493,0.21-0.704,0.454
		c-1.792,2.285-2.494,2.32-4.885,0.598c-0.456-0.317-0.947-1.159-1.58-0.563c-0.526,0.53-0.035,1.196,0.21,1.757
		c0.914,1.969,2.529,3.442,3.83,5.129c-0.702,0.668-1.615,0.495-2.317,0.318c-2.635-0.738-5.376-0.949-8.014-1.51
		c-7.235-1.546-14.649-2.178-21.854-4.003c-0.528-0.144-1.161-0.249-1.617,0.349c-2.808-1.052-5.622-2.108-8.433-3.162
		c0.878,1.054,2.073,1.51,3.234,2.004c11.735,4.985,23.859,8.817,36.331,11.453c0.597,0.139,1.755-0.14,1.755,0.701
		c0,0.949-1.159,0.984-1.897,1.196c-0.384,0.138-0.809,0.072-1.229,0.072c-3.725,0.244-7.309-0.459-10.927-1.301
		c-5.585-1.336-10.928-3.339-16.373-5.133c-0.493-0.315-0.949-0.701-1.652-0.489c0.456,0.456,0.985,0.561,1.476,0.702
		c8.467,4.884,17.848,6.992,27.267,8.961c4.146,0.843,8.361,1.439,12.542,2.143c0.104,0.807,0.844,0.807,1.37,1.089
		c1.441,0.738,3.162,0.983,4.217,2.388c-0.247,0-0.456,0-0.703,0c-0.315-0.353-0.703-0.281-1.089-0.244
		c-2.143-0.142-4.286-0.284-6.431-0.424c0,0.108-0.033,0.21-0.033,0.315c4.144,0.951,8.326,1.936,12.473,2.883
		c-0.596,0.596-1.301,0.351-1.934,0.246c-1.931-0.388-3.723-0.035-5.447,0.844c-0.561-0.07-1.159-0.07-1.72-0.174
		c-4.989-0.775-9.978-1.583-14.967-2.318c-5.447-0.81-10.963-1.232-16.445-1.655c-0.489-0.032-1.054-0.21-1.441,0.423
		c0.952,0.456,1.899,0.914,2.953,0.95c0.14,0.104,0.246,0.174,0.386,0.282c0.21,0.032,0.422,0.032,0.667,0.068
		c0,0.596,0.249,0.84,0.878,1.052c1.478,0.493,2.918,1.124,4.114,2.217c1.017,0.947,0.947,1.545-0.351,2.106
		c-3.586,1.546-7.346,2.532-11.035,3.689c-1.442,0.458-2.811,1.406-4.497,1.089c-0.037-0.705,0.104-1.406-0.177-2.074
		c-0.351-0.807-0.842-1.263-1.757-0.949c-3.407,1.161-6.779,2.427-10.224,3.586c-4.745,1.582-9.522,2.638-14.618,2.213
		c0.177-0.14,0.247-0.247,0.351-0.247c5.483-0.208,10.297-2.492,15.177-4.603c1.021-0.454,1.656-1.017,0.952-2.389
		c-2.635-5.303-5.199-10.646-8.994-15.212c-2.46-2.949-4.675-6.08-7.346-8.855c-0.914-0.949-1.65-2.036-2.458-3.057
		c0.105-0.107,0.212-0.175,0.351-0.279c2.318,1.827,4.672,3.618,6.994,5.443c0.493,0.387,0.983,1.089,1.653,0.564
		c0.702-0.564,1.263-0.105,1.754,0.142c1.722,0.875,3.34,1.859,5.059,2.774c1.301,0.667,2.636,1.265,3.937,1.863
		c-2.706-2.741-6.255-4.183-8.961-6.854c7.167,4.041,14.303,8.047,22.311,10.155c-1.894-1.092-3.863-1.967-5.831-2.951
		c-4.391-2.182-8.82-4.254-13.038-6.818c-6.008-3.618-11.944-7.274-17.145-11.981c-2.742-2.494-5.517-5.059-6.185-9.031
		c-0.141-0.877-0.737-1.438-1.405-1.615c-1.37-0.317-2.53-1.124-3.83-1.545c-0.631-0.212-1.159-0.177-1.617,0.242
		c-0.526,0.495-0.033,0.985,0.141,1.445c1.371,3.092,2.53,6.251,4.182,9.205c2.318,4.217,4.566,8.505,8.081,11.874
		c1.864,1.792,3.444,3.762,4.849,5.906c2.813,4.286,4.92,8.958,7.591,13.313c0.139,0.247,0.281,0.563,0,0.81
		c-0.282,0.246-0.563,0-0.738-0.214c-3.058-3.23-6.676-5.971-8.644-10.187c-1.546-3.3-3.198-6.569-5.305-9.557
		c-0.74-1.054-1.056-2.318-2.039-3.232c-0.526-0.458-0.879-0.526-1.231,0.104c-0.21,0.387,0.037,1.09-0.665,1.056
		c-0.635-0.035-0.635-0.74-0.878-1.196c-1.866-3.547-3.619-7.165-6.185-10.295c-0.317-0.384-0.493-0.912-1.019-0.7
		c-2.955,1.052-6.783,0.738-7.907,4.812c-0.107,0.423-0.351,0.809-0.842,0.635c-0.458-0.179-0.843-0.528-0.808-1.056
		c0.035-0.317,0.28-0.631,0.421-0.914c0.317-0.6,0.246-1.122-0.21-1.617c-0.491-0.526-0.949-0.421-1.58-0.21
		c-1.862,0.705-2.986,2.353-4.603,3.374c-0.458,0.28-0.984,0.771-0.635,1.475c0.352,0.633,0.987,0.596,1.546,0.456
		c1.301-0.279,2.601-0.631,3.902-0.914c1.194-0.281,1.967,0.039,1.791,1.477c-0.491,0.493-0.947,1.019-1.441,1.511
		c-1.089,1.123-2.247,2.211-2.143,4.005c-1.545-0.456-3.092-0.984-4.251-2.178c0.141-0.563,0.248-1.127,0.386-1.688
		c0.179-0.667-0.105-1.157-0.63-1.51c-0.67-0.421-0.95,0.249-1.231,0.598c-1.827,2.071-2.778,4.532-3.091,7.272
		c-1.089,0.247-0.704,1.408-1.229,2.002c-1.163,1.336-0.809,2.704-0.14,4.216c1.299,2.918,3.125,5.483,5.057,7.907
		c1.582,2.004,3.409,3.863,5.655,5.375c1.864,1.233,3.867,2.32,5.412,4.04c0.598,0.67,0.844,1.161,0.142,1.864
		c0.667,1.545,2.073,2.108,3.476,2.672l0.039,0.034c1.265,1.511,2.952,2.46,4.566,3.444c0.633,1.757,1.054,3.865,3.059,4.391
		c2.599,0.703,4.989,1.897,7.658,2.353c2.811,0.493,5.659,0.705,8.435,1.263c0.947,0.212,2.071,0.67,3.618,0.07
		c-4.076-1.017-7.379-2.739-10.823-4.177l0,0c1.653-0.212,3.128,0.456,4.605,0.916c6.044,1.859,12.189,2.245,18.479,1.543
		c5.026-0.563,9.98-1.439,15.039-1.862c1.159-0.105,2.46-0.035,3.62-0.491c0.563-0.21,1.194-0.386,1.334-0.986
		c0.177-0.703-0.491-0.982-0.982-1.262c-1.371-0.702-2.776-1.407-4.146-2.075c0.314-0.316,0.735-0.282,1.159-0.316
		c3.267-0.456,6.534-0.983,9.838-1.301c4.11-0.386,8.116-1.405,12.263-1.475c2.599,1.228,4.602,3.162,5.936,5.657
		c0.985,1.827,0.14,2.918-1.897,3.16c-2.143,0.247-4.286,0.212-6.429,0.387c-4.568,0.388-9.099,0.949-13.667,1.301
		c-4.778,0.384-9.487,0.77-13.95,2.706c-1.652,0.701-3.374,1.194-5.094,1.687c-2.46,0.736-4.954,1.371-7.448,2.073
		c-0.564-0.142-1.056-0.388-1.652-0.495c-3.691-0.524-7.344-1.192-11.035-1.719c-2.741-0.389-5.27-1.373-7.903-2.181
		c-0.388-0.102-1.159-0.844-1.125,0.389c-2.741-0.247-5.306-0.88-7.416-2.778c0.563-0.244,0.775-0.668,0.67-1.266
		c-0.037-0.28-0.21-0.419-0.493-0.351c-1.897,0.633-2.741-0.738-3.691-1.896c0.459,0,0.951,0,1.408,0
		c0.141,0.14,0.281,0.315,0.421,0.456c0.035-0.07,0.105-0.14,0.141-0.21c-0.176-0.07-0.388-0.177-0.562-0.245
		c-0.352-0.39-0.633-0.845-1.019-1.198c-3.832-3.3-7.802-6.464-11.632-9.799c-5.057-4.391-10.293-8.575-15.459-12.828
		c-1.545-1.264-2.354-2.669-2.143-4.778c0.212-2.038,0.563-4.003,1.441-5.868c0.842-1.825,2.213-3.372,3.442-4.884
		c3.023-3.653,6.043-7.377,9.664-10.469c2.457-2.071,4.637-4.358,6.744-6.748c0.53-0.598,0.986-1.37,1.897-1.439
		c0.105-0.105,0.249-0.212,0.351-0.351l0,0c0.282,0,0.563-0.035,0.703-0.351l0,0c0.105-0.105,0.21-0.246,0.353-0.351l0,0
		c0.105-0.142,0.21-0.281,0.351-0.424c0.949-1.615,2.601-2.247,4.147-3.02c2.597-1.301,5.235-2.532,7.871-3.761
		c2.036-0.984,3.652-2.844,5.164-4.637c1.931-2.248,3.688-4.707,6.396-6.08c1.65-0.807,3.374-1.405,5.094-2.038
		c3.444-1.229,6.676-2.846,9.627-5.094c0.738-0.564,1.722-1.021,2.741-1.021c0.386,0,0.914,0.177,1.161,0
		C82.896,39.59,84.513,40.048,84.725,38.431z"/>
	<path fill="#E794A1" d="M139.921,109.439c-4.147-0.947-8.33-1.934-12.473-2.879c0-0.109,0.037-0.214,0.037-0.316
		c2.141,0.139,4.286,0.279,6.429,0.421c0.317,0.314,0.668,0.314,1.091,0.242c0.246,0,0.456,0,0.702,0.037
		c3.832,0.072,7.694,0.562,11.489,0.035c3.83-0.528,6.781-2.704,9.029-5.69c0.845-1.125,0.563-2.672-0.563-3.481
		c-1.122-0.77-1.931,0.565-2.809,1.126c-0.316,0.212-0.491,0.633-0.702,0.982c-1.829,2.953-4.533,4.184-7.907,4.324
		c-4.745,0.212-9.417-0.529-14.125-0.738c-4.182-0.703-8.396-1.299-12.542-2.143c-9.417-1.934-18.797-4.076-27.269-8.961
		c0.072-0.07,0.142-0.14,0.175-0.246c5.412,1.792,10.79,3.795,16.374,5.131c3.586,0.842,7.206,1.543,10.928,1.298
		c0.423-0.032,0.844,0.035,1.231-0.07c0.738-0.244,1.896-0.28,1.896-1.194c0-0.842-1.158-0.596-1.755-0.703
		c-12.474-2.636-24.596-6.464-36.331-11.455c-1.161-0.489-2.355-0.945-3.232-2.001c2.809,1.056,5.62,2.108,8.431,3.162
		c4.815,2.18,9.839,3.584,14.897,4.956c5.836,1.615,11.739,2.985,17.745,3.863c0.458,0.072,0.916,0.39,1.124-0.351
		c0.388-1.229,0.985-2.425,0-3.62c-1.299-1.72-2.916-3.163-3.828-5.129c-0.249-0.562-0.773-1.265-0.214-1.759
		c0.635-0.629,1.126,0.212,1.583,0.565c2.39,1.72,3.093,1.685,4.884-0.598c0.212-0.247,0.422-0.386,0.701-0.458
		c0.635,0.107,1.301,0.107,1.864,0.351c4.671,1.724,9.382,3.446,14.018,5.271c4.568,1.757,9.945-0.281,12.263-4.742
		c0.421-0.072,0.703-0.317,0.703-0.773v0.035c0.912-0.282,0.982-1.087,1.019-1.829c0.035-0.809-0.107-1.648,0-2.423
		c0.107-1.017,0.493,0.07,0.736-0.033l0.035,0.068c0.037,0.596-0.246,1.231,0.282,1.755c0,0.142,0.037,0.245,0.037,0.389
		c0,0.491-0.177,1.017,0.279,1.441c0.105,0,0.248,0,0.353,0c0,0.208,0.035,0.456,0.035,0.667c-0.317,1.228-0.736,2.458-0.985,3.725
		c-0.174,1.017-0.419,2.108,0.422,2.986c1.231,1.266,2.917,2.283,2.355,4.496c0.21,0.564,0.526,0.984,1.122,1.054
		c0.74,1.089,1.583,2.145,1.652,3.584c0.039,0.951,0.949,1.229,1.759,1.44c1.58,0.459,3.127,0.914,4.705,1.371
		c1.127,0.317,1.548,0.912,0.985,2.075c-0.422,0.912-0.878,1.753-1.441,2.599c-0.703,1.056-1.159,2.178-0.454,3.409
		c-1.268,0.701-2.496,1.371-3.76,2.073c-0.142,0.105-0.317,0.246-0.458,0.353c-1.405,1.085-1.722,2.599-1.791,4.25
		c-0.74-0.282-1.441-0.564-2.18-0.847c0.491,0.808,1.196,1.408,1.546,2.251c-1.757,1.439-3.691,2.704-5.659,3.861
		c-0.244,0.109-0.456,0.247-0.701,0.353h0.033c-0.596-0.105-1.192-0.207-1.826-0.314c-0.07,0.667,0.668,0.598,0.809,1.054
		c-2.283,1.51-4.675,2.917-6.853,4.568c-1.228,0.949-2.564,1.371-4.003,1.826c-1.161,0.352-2.322-0.455-3.411,0.214l-0.068-0.072
		l-0.105,0.034c-1.091-0.034-2.11,0.458-2.496,1.266c-1.089,2.18-2.951,1.931-4.849,1.931c-0.949,0-1.932,0.282-2.881,0.424
		c-0.809,0.14-1.58,0.386-2.178,0.982c-1.405,1.161-2.953,1.722-4.813,1.477c-0.388-0.033-0.809,0.386-1.196,0.563
		c-1.615-1.687-2.599-0.141-3.688,0.736c-0.421-0.419-0.844,0.284-1.266,0.072c-1.44,0.141-2.951-0.21-4.391,0.212
		c-2.215-0.564-4.602,0.102-6.779-0.914c2.776-0.812,5.688-0.177,8.501-0.67c3.584-0.631,7.272-0.598,10.786-2.036
		c3.653-1.513,7.377-2.883,11.244-3.796c2.213-0.526,4.426-1.017,6.604-1.652c0.986-0.279,1.968-0.771,1.933-2.141
		c-0.035-1.266-0.914-1.722-1.897-2.006c-1.86-0.524-3.725-0.948-5.585-1.438c-1.757-0.458-3.551-0.949-5.307-1.442
		c3.444-0.668,6.886-0.876,10.26-1.404c3.62-0.565,7.274-0.879,10.787-2.04c0.421-0.14,1.019-0.208,1.019-0.771
		c0-0.528-0.458-0.809-0.878-0.984c-0.526-0.247-1.089-0.458-1.652-0.6c-3.372-0.737-6.852-0.667-10.295-0.7
		c-3.405-0.037-6.85,0.528-10.188,1.299c-3.372,0.77-6.781,1.44-10.188,2.143c-4.147,0.068-8.152,1.087-12.263,1.477
		c-3.304,0.317-6.571,0.878-9.838,1.297c-0.389,0.068-0.807,0-1.159,0.319c-0.458,0.031-0.914,0.07-1.371,0.104
		c-0.105,0-0.246,0-0.351,0c-3.234,0.353-6.5,0.668-9.732,1.054c-8.786,1.056-17.569,1.512-26.425,1.301
		c-4.108-0.072-8.15-0.526-11.98-2.145c-1.615-1.019-3.302-1.931-4.568-3.442c1.934,0.808,3.867,1.617,5.904,2.108
		c10.292,2.601,20.766,2.881,31.27,1.967c3.551,0,7.062-0.596,10.611-0.916c5.729-0.526,11.455-1.368,17.112-2.423
		c6.536-1.229,13.001-2.599,19.502-3.968c2.352-0.493,4.673-1.159,7.377-1.829c-5.445-0.912-10.436-1.72-15.424-2.602
		c-5.201-0.91-10.402-1.894-15.637-2.841c-0.21-0.037-0.422-0.037-0.666-0.072c-0.141-0.104-0.246-0.175-0.386-0.279
		c-1.089-0.039-2.003-0.495-2.952-0.952c0.351-0.629,0.916-0.456,1.442-0.419c5.515,0.419,10.995,0.842,16.441,1.65
		c4.989,0.738,9.978,1.547,14.969,2.318c0.561,0.107,1.159,0.107,1.72,0.177c0.142,0.104,0.284,0.246,0.423,0.277
		c4.428,0.742,8.891,1.27,13.247,2.217c5.094,1.091,9.803,0.315,14.441-1.759c1.51-0.665,2.073-1.931,2.601-3.3
		c0.246-0.596-0.072-0.914-0.668-0.879c-0.528,0-1.056,0.035-1.545,0.141C154.081,108.595,147.09,109.895,139.921,109.439z"/>
	<path fill="#7A7A7A" d="M125.798,134.738c0.596-0.596,1.37-0.843,2.178-0.983c1.439,1.054,3.197,1.51,4.531,2.774
		c0.808,0.773,1.512,2.39,2.636,1.897c1.089-0.454,0.738-2.143,0.915-3.337c0.281-1.826,0.068-3.9,2.143-4.987l0.105-0.037
		l0.07,0.069c2.073-0.032,3.725,1.161,5.552,1.897c1.054,0.423,2.354,1.233,3.197,0.072c0.808-1.054-0.316-2.04-0.914-2.917
		c-0.07-0.072-0.037-0.208-0.07-0.353c2.67,0.493,5.234,1.196,7.905,1.441c1.759,0.174,2.53-0.387,2.776-2.039
		c0.282-1.966-0.107-3.442-2.215-4.077c-0.351-0.104-0.631-0.456-0.947-0.7c0.033-0.212,0.033-0.423,0.07-0.667h-0.037
		c0.177,0,0.353-0.037,0.563-0.037c2.67-0.109,5.376,0.703,8.045-0.214c0.107,0.105,0.177,0.18,0.282,0.282
		c-0.843,1.548-1.792,3.025-2.53,4.603c-6.217,13.705-12.789,27.269-18.201,41.322c-1.126,2.881-2.844,4.882-5.761,6.183
		c-2.778,1.198-5.271,2.986-7.872,4.57c-3.127,1.931-5.868,4.354-9.38,5.761c-8.012,3.233-15.919,6.711-24.703,7.379
		c-2.844,0.212-5.657,1.089-8.503,0.388c-2.108-0.495-4.179-1.056-6.287-1.371c-0.458-0.07-0.808-0.174-0.878-0.702
		c-0.177-1.406-1.056-2.425-1.792-3.514c0.772-0.035,0.772-0.421,0.597-1.054c-0.21-0.809-0.495-1.687,0.175-2.46
		c0.81,1.089,1.582,2.248,2.46,3.3c0.738,0.88,1.615,1.091,2.354-0.067c0.563-0.386,0.705-0.107,0.949,0.423
		c0.247,0.56,0.736,1.156,1.477,0.735c0.596-0.351,1.299-0.807,1.089-1.754c-0.072-0.317-0.105-0.67-0.175-0.985
		c1.301,0.244,1.652,1.543,2.458,2.318c1.864,1.792,2.883,1.687,4.216-0.491c0.282,0,0.529,0,0.808-0.037
		c1.969,0,3.83-0.316,5.061-2.108c0.635,0.598,0.703,1.405,0.775,2.213c0.034,0.423,0.279,0.598,0.667,0.703
		c0.316,0.072,0.456-0.21,0.456-0.386c0.14-1.511,1.124-1.652,2.318-1.441c2.708,1.968,2.953,1.933,4.531-0.351
		c0.21-0.105,0.459-0.316,0.635-0.247c2.002,0.598,2.741-0.633,3.232-2.213c1.231-4.005,1.266-8.256,2.283-12.298
		c0.421,0.177,0.07,1.092,0.808,1.019c0.142,0.317,0.317,0.635,0.421,0.948c0.809,2.215,1.124,2.285,2.813,0.809
		c0.105,2.213-1.124,4.183-1.37,6.781c0.314-0.561,0.421-0.702,0.491-0.844c2.881-7.973,5.48-16.054,7.975-24.173
		c1.091-3.444,1.617-6.886,1.091-10.471c-0.248-1.019,0.386-1.965,0.246-2.986c0.349-0.808,0.068-1.615,0.035-2.388
		c0.526-0.809,0.456-1.617-0.035-2.425C125.41,136.599,125.34,135.617,125.798,134.738z M130.434,174.091
		c0.142-0.319,0.282-0.633,0.458-0.95c5.376-12.542,10.716-25.087,16.058-37.63c0.176-0.388,0.633-0.949,0.105-1.266
		c-0.668-0.386-0.88,0.389-1.126,0.81c-1.685,2.986-3.091,6.148-4.461,9.31c-4.005,9.381-8.363,18.623-10.856,28.566
		C130.576,173.316,130.505,173.703,130.434,174.091c0,0.034-0.033,0.068-0.07,0.105
		C130.401,174.159,130.401,174.124,130.434,174.091z M150.815,136.846c-0.528,0.279-0.631,0.809-0.738,1.37
		c-0.246,0.458-0.528,0.914-0.773,1.372c-4.849,8.959-8.081,18.586-11.772,28.036c-0.244,0.668-0.842,1.301-0.596,2.496
		c0.388-0.842,0.667-1.334,0.878-1.864c2.178-5.163,4.393-10.292,6.573-15.456c2.001-4.78,3.898-9.592,5.866-14.409
		C150.567,137.9,150.85,137.444,150.815,136.846c0.105-0.107,0.177-0.247,0.282-0.351c-0.072-0.039-0.144-0.074-0.177-0.14
		C150.885,136.527,150.85,136.671,150.815,136.846z M134.406,142.081c-2.883,4.812-10.753,28.599-9.734,33.976
		C128.149,164.676,132.086,153.607,134.406,142.081z M135.565,172.897c-0.037,0-0.105,0-0.105,0.033
		c-0.035,0.037-0.035,0.105-0.035,0.142c0.07,0,0.14-0.037,0.21-0.037C135.6,173.002,135.6,172.93,135.565,172.897z
		 M151.376,135.368c-0.033,0-0.07,0-0.07,0.037c-0.035,0.033-0.035,0.105-0.035,0.142c0.072,0.14,0.105,0.105,0.141-0.037
		C151.411,135.475,151.411,135.438,151.376,135.368z M136.689,170.576c-0.037-0.105-0.07-0.21-0.107-0.282
		c-0.033,0.037-0.104,0.072-0.104,0.142c0,0.104,0.037,0.208,0.037,0.315C136.582,170.68,136.653,170.645,136.689,170.576z
		 M136.021,172.086c-0.033-0.103-0.068-0.175-0.104-0.28c-0.037,0.035-0.144,0.072-0.144,0.105c0.039,0.105,0.072,0.21,0.107,0.283
		C135.918,172.155,135.988,172.121,136.021,172.086z"/>
	<path fill="#272424" d="M76.609,187.443c0.735,1.089,1.613,2.143,1.789,3.514c0.072,0.528,0.422,0.631,0.88,0.702
		c2.142,0.315,4.216,0.876,6.287,1.371c2.848,0.668,5.694-0.175,8.503-0.388c8.786-0.668,16.691-4.146,24.701-7.379
		c3.479-1.406,6.255-3.83,9.382-5.761c2.603-1.583,5.096-3.372,7.87-4.57c2.916-1.263,4.638-3.302,5.762-6.183
		c5.447-14.053,11.982-27.617,18.203-41.322c0.736-1.578,1.683-3.055,2.53-4.603c0.139-0.102,0.279-0.177,0.419-0.282
		c0.105,0.105,0.212,0.18,0.282,0.282c-0.808,2.251-2.425,4.184-2.916,6.572c-6.255,11.7-10.823,24.173-15.987,36.506
		c3.723-1.019,6.113,1.052,8.538,3.021c1.159,0.947,2.39,1.862,3.618,2.743c0.914,0.668,1.794,1.263,3.058,1.405
		c2.073,0.244,2.952,1.967,3.234,3.828c0.314,2.39,1.124,4.217,3.337,5.552c2.073,1.231,1.685,3.83-0.528,4.777
		c-4.321,1.829-8.571,3.832-13,5.306c-3.339,1.091-6.958,1.617-10.506,1.479c-6.711-0.212-13.213,1.157-19.78,2.071
		c-6.185,0.845-12.37,1.089-18.658,0.21c-6.502-0.876-12.895-2.563-19.572-2.318c-2.669,0.107-5.164-1.51-7.8-2.178
		c-0.667-0.175-1.336-0.423-2.004-0.633c0.142-1.298,1.198-2.425,0.668-3.83c-0.033-0.528,0.351-0.912,0.598-1.299
		C76.15,186.319,76.045,187.162,76.609,187.443z"/>
	<path fill="#F5CFD6" d="M96.351,53.224c-0.139-1.057-1.157-0.742-1.755-0.95c-0.631-0.246-1.196-0.316-1.089-1.161
		c0.246,0,0.458,0,0.703,0c1.968,0.351,3.935,0.809,5.936,1.021c5.306,0.633,10.648,1.017,15.742,2.846
		c0.458-1.161-0.526-1.79-0.843-2.563c-1.582-3.727-3.9-6.82-8.083-7.907c-2.211-0.564-4.003-2.074-6.394-2.637
		c1.514,0.037,2.038-0.419,1.407-1.792c-0.177-0.384-0.142-0.947,0.315-1.264c0.07,0.635,0.386,1.194,0.984,1.336
		c3.902,0.773,6.781,3.479,10.155,5.236c1.933,1.017,4.007,1.545,5.938,2.495c0.738,0.347,1.512,0.665,1.897,1.473
		c-2.424-0.561-4.568-2.036-7.167-2.213c5.833,4.144,11.455,8.503,16.759,13.282c-1.194-3.162-3.126-5.764-5.692-7.905
		c-0.984-0.809-1.896-1.687-2.846-2.494c2.637,0.421,4.991,1.124,6.499,3.723c2.146,3.689,5.308,6.571,8.328,9.557
		c0.493,0.493,0.951,1.019,1.441,1.512c-1.827-0.281-3.409-1.264-4.778-2.39c-2.217-1.72-4.849-0.809-7.202-1.44
		c-0.212-0.072-0.493,0-0.563,0.281s0.07,0.456,0.282,0.561c1.896,0.947,3.725,2.178,5.938,2.25
		c3.302,0.104,5.268,2.143,6.955,4.566c-3.197-0.353-6.253-1.441-9.52-1.37c3.935,1.37,7.94,2.634,11.91,3.83
		c0.844,0.245,1.617,0.563,0.736,1.476c-0.456,0.491-1.228,0.88-2.071,0.456c-1.406-0.736-2.811-1.406-4.216-2.108
		c-3.337-1.652-6.748-3.126-10.576-3.339c-0.174-2.248-0.738-2.951-2.846-3.442c-6.15-1.405-12.368-2.531-18.446-4.252
		c-2.567-0.738-5.131-1.512-7.907-2.355c0.984-0.808,1.652-0.104,2.354-0.068c0.633,0.037,1.196,0.21,1.229-0.666
		c0.528-0.214,0.249-0.914,0.67-1.161c0.351,1.969,1.65,3.092,2.986,2.354c1.475-0.809,2.953-0.423,4.426-0.458
		c0.353,0,0.843,0.458,0.984-0.208c0.105-0.458-0.281-0.667-0.668-0.878c-1.966-1.196-4.04-1.969-6.323-2.178
		C100.078,53.889,98.216,53.573,96.351,53.224z M113.254,46.827c0.037-0.035,0.068-0.07,0.105-0.07
		c-0.037-0.035-0.068-0.07-0.105-0.107c-0.037,0.037-0.107,0.107-0.142,0.142C113.147,46.792,113.218,46.792,113.254,46.827z"/>
	<path fill="#BDBCBC" d="M47.128,128.764c2.108,1.932,4.672,2.53,7.415,2.776l0,0c0.489,0.668,1.159,0.771,1.932,0.705l0,0
		c0.281,0.313,0.631,0.386,1.054,0.349c0.524,0,0.912,0.141,1.054,0.703c0.563,0.456,1.194,0.809,1.931,0.704l0,0
		c0.105,0.349,0.388,0.42,0.703,0.349l0,0c-0.489,1.303-0.245,2.709-0.421,4.041c-0.105,0.882-0.035,2.004-1.264,2.216
		c-1.161,0.21-1.617-0.668-2.073-1.512c-0.564-1.052-0.878-2.178-1.091-3.304c-0.208-1.157-0.738-1.299-1.722-0.805
		c-1.687,0.805-3.266,1.825-5.094,2.35c-0.386,0.109-0.772,0.284-1.159,0.39c-3.057,0.736-4.216-0.317-3.548-3.409
		c0.105-0.563,0.351-1.124,0.139-1.827c-1.124,0.142-1.933,0.95-2.846,1.477c-2.528,1.371-3.933,0.947-5.129-1.654
		c-0.384-0.842-0.811-1.403-1.828-0.631c-0.771,0.565-1.72,1.019-2.528,0.142c-0.773-0.843-1.126-1.897-0.526-3.058
		c0.209-0.386,0.842-0.771,0.491-1.194c-0.386-0.524-1.091-0.247-1.619-0.072c-1.648,0.528-3.337,0.528-5.022,0.564
		c-1.089,0-1.652-0.459-1.583-1.582c0.037-0.281-0.033-0.596,0-0.879c0.39-2.039-0.629-3.091-2.318-4.077
		c-2.178-1.3-3.372-3.441-3.652-6.008c-0.07-0.526-0.035-1.091-0.21-1.547c-0.528-1.438-0.667-2.809,0.175-4.147
		c0.984,0.177,1.405,1.373,2.458,1.445c0.351,0.631,0.74,1.299,1.091,1.931c0.105,0.035,0.208,0.07,0.315,0.144l-0.035-0.039
		c0.139,0.212,0.316,0.386,0.456,0.6c0.528,0.665,0.878,1.473,1.687,1.897l-0.035-0.037c0.246,0.386,0.528,0.809,0.771,1.194
		c0.212,0.841,0.633,1.545,1.652,1.545c0.037,0.037,0.072,0.108,0.107,0.142c-0.07,0.526,0.245,0.631,0.701,0.631
		c1.054,0.702,2.18,1.196,3.409,1.405c0.808,0.703,1.722,1.336,2.741,1.372c2.038,0.105,3.689,1.159,5.163,2.214
		C41.434,126.165,44.28,127.465,47.128,128.764z"/>
	<path fill="#110D0E" d="M103.66,136.881c2.18,1.019,4.533,0.349,6.783,0.914c1.475,0.141,2.952,0.456,4.393-0.214
		c0.421,0.214,0.807-0.456,1.264-0.032c-0.738,1.158-1.056,2.389-1.091,3.758c0,1.967-0.912,2.777-2.809,2.46
		c-2.355-0.386-4.603-1.09-6.29-2.984c-0.704-0.775-1.51-1.479-2.354-2.076c-2.073-1.508-3.374-1.089-4.428,1.336
		c-0.809,1.37-1.405,2.917-2.778,3.865c-2.246,0.629-3.195,0.072-4.671-2.776c-0.351,0.245-0.458,0.631-0.563,0.983
		c-1.475,1.755-3.092,3.374-5.34,4.147c-2.986,0.072-4.533-1.934-5.868-4.147c-0.598-0.983-1.089-1.441-2.107-0.631
		c-1.652,0.773-3.304,1.545-4.956,2.318c-4.179,0.703-4.707,0.248-4.917-4.073c-0.037-0.635-0.072-1.266-0.072-1.935
		c-0.07-1.512,1.054-1.406,1.934-1.196c1.44,0.388,3.055,0.736,4.216,1.582c2.706,2.004,5.587,1.441,8.431,0.914
		c2.776-0.528,5.412-1.759,8.363-1.582c0.74,0.037,1.475-0.282,2.145-0.667C96.458,136.495,100.078,136.283,103.66,136.881z"/>
	<path fill="#F7E3E5" d="M102.326,38.815c-0.458,0.353-0.493,0.88-0.316,1.264c0.633,1.374,0.105,1.863-1.404,1.792
		c2.353,0.602,4.179,2.073,6.394,2.637c4.181,1.087,6.464,4.181,8.081,7.907c0.353,0.808,1.299,1.436,0.845,2.563
		c-5.096-1.829-10.436-2.213-15.742-2.846c-2.004-0.248-3.97-0.67-5.939-1.021c0.459-0.526,1.093-0.352,1.652-0.352
		c2.46-0.035,4.921-0.069,7.379,0c1.264,0.037,1.582-0.456,1.546-1.614c-0.105-3.516-1.932-5.378-5.376-5.412
		c-0.524,0-1.054,0.034-1.58,0c-2.176-0.247-3.867,0.209-4.535,2.669c-0.173,0.668-0.877,1.511-1.789,1.439
		c-0.916-0.068-1.054-1.017-1.303-1.685c-0.807-2.108-0.069-3.584,2.074-4.039c1.792-0.388,3.653-0.598,5.482-0.809
		c0.633-0.072,1.087-0.177,1.334-0.88c0.949-2.565,1.512-5.164,1.477-7.977c-0.037-1.896,0.104-3.828,1.157-5.554
		c0.212-0.347,0.388-0.733,0.88-0.733c-0.74,2.071-1.054,4.214-1.054,6.427c0,0.636-0.072,1.303,0.667,1.653
		C101.73,35.758,101.903,37.27,102.326,38.815z"/>
	<path fill="#F5CFD6" d="M16.243,90.82c-0.914,1.859-1.266,3.791-1.441,5.866c-0.21,2.108,0.598,3.547,2.143,4.778
		c5.166,4.252,10.438,8.398,15.459,12.826c3.83,3.335,7.8,6.499,11.632,9.802c0.386,0.349,0.701,0.772,1.019,1.192l0,0
		c-0.458,0-0.949,0-1.408,0c-0.103,0-0.207,0-0.349-0.035c-0.107-0.104-0.248-0.21-0.351-0.316
		c-3.655-1.65-7.272-3.302-10.929-4.956c-1.089-1.052-2.601-1.333-3.83-2.106c0.105-0.88-0.458-0.986-1.124-1.126
		c-0.704-0.173-1.372-0.526-0.141-1.334c-0.738,0.175-1.439-0.244-1.899,0.423c-0.209-0.034-0.419-0.423-0.667-0.07l0.033,0.037
		c0.354-0.247-0.033-0.459-0.033-0.703c0.563-0.703,0-0.633-0.421-0.633l0.035,0.033c0.068-0.598,0.246-1.264-0.526-1.545
		c-0.425-0.175-0.425,0.208-0.458,0.456c-0.246,0-0.458-0.423-0.703-0.067l0.032,0.032c0.321-0.244-0.032-0.421-0.032-0.667
		c0.315-1.229-0.667-1.617-1.405-2.18l0,0c0.034-0.493-0.177-0.81-0.635-0.982c-0.315-1.054-0.666-2.11-1.825-2.567
		c-0.598-0.914-1.196-1.825-1.757-2.739c-0.105-0.14-0.246-0.28-0.351-0.386l0,0c0-0.282-0.035-0.563-0.353-0.705l0,0
		c0-0.314-0.033-0.562-0.353-0.704l0,0c0-0.313-0.068-0.561-0.351-0.699l0,0c-0.14-0.105-0.316-0.249-0.456-0.353
		c-0.877-0.951-1.264-1.969-0.982-3.302c0.279-1.231-0.246-2.425-0.951-3.446c-0.456-0.631-0.493-1.226,0.141-1.65
		C13.993,92.189,14.837,91.028,16.243,90.82z"/>
	<path fill="#E794A1" d="M125.517,67.626c3.793,0.21,7.204,1.687,10.576,3.339c1.403,0.703,2.811,1.37,4.216,2.108
		c0.843,0.421,1.617,0.037,2.071-0.458c0.88-0.912,0.107-1.194-0.736-1.473c-4.005-1.196-7.976-2.46-11.912-3.833
		c3.271-0.105,6.362,0.984,9.523,1.373c4.112,0.809,8.258,1.615,11.385,4.78c0.245,0.244,0.596,0.349,0.914,0.524
		c0.736,1.019,2.285,1.303,2.458,2.811c-1.159-0.738-2.036-1.897-3.513-2.108c-2.741-1.511-5.762-0.493-8.645-0.773
		c-2.917-0.283-5.973-0.072-8.959-0.493c-3.479-0.491-6.992-1.054-10.469-1.578h-0.035c-0.177-0.284-0.422-0.319-0.74-0.284
		c-3.937-0.736-7.8-1.722-11.63-2.879c-0.454-0.142-1.054-0.28-1.019-0.985c0.107,0,0.212-0.035,0.316-0.07
		C114.729,66.853,120.106,67.486,125.517,67.626z"/>
	<path fill="#5F5F5F" d="M76.609,187.443c-0.564-0.281-0.459-1.124-1.092-1.336c0.14-0.773-0.353-1.338-0.631-1.932
		c-1.231-2.671-2.213-5.375-2.563-8.326c-0.458-3.937-2.391-7.555-2.813-11.525c-0.386-3.725-1.228-7.344-2.143-10.961
		c-0.494-1.969,0.246-3.796,0.598-5.694c0.068-0.353,0.281-0.702,0.668-0.702c0.456,0.035,0.351,0.526,0.491,0.809
		c2.53,5.548,3.654,11.524,5.059,17.425c1.266,5.412,1.617,10.963,2.427,16.443c0.139,0.845,0.595,1.512,0.77,2.285
		c-0.667,0.773-0.386,1.652-0.175,2.46C77.379,187.022,77.379,187.407,76.609,187.443z"/>
	<path fill="#5F5F5F" d="M85.533,185.58c0.068,0.315,0.102,0.668,0.172,0.985c0.212,0.947-0.491,1.368-1.085,1.754
		c-0.74,0.421-1.233-0.175-1.479-0.735c-0.212-0.53-0.386-0.809-0.949-0.423c0.563-1.967-0.528-3.759-0.701-5.659
		c-0.351-3.512-0.916-7.028-1.372-10.541c0.07-0.491,0.176-0.983-0.175-1.439c-0.526-4.183-1.054-8.398-1.58-12.579
		c-0.105-2.145-0.528-4.252-0.282-6.396c1.019,0.317,1.336,1.265,1.72,2.073c1.829,3.725,3.023,7.625,3.409,11.807
		C83.844,171.489,84.757,178.517,85.533,185.58z"/>
	<path fill="#BDBCBC" d="M64.838,178.447c-0.493-3.477-1.689-6.779-2.566-10.153c-1.615-6.36-3.339-12.72-4.321-19.223
		c-0.107-0.771,0-1.366,0.667-2.038c1.336,2.213,1.968,4.606,2.704,6.958c2.741,8.715,4.851,17.604,7.099,26.495
		c0.14,0.561,0.212,1.157,0.14,1.719c-1.51,1.794-1.547,1.759-2.425-0.384C65.714,180.695,65.295,179.569,64.838,178.447z"/>
	<path fill="#BDBCBC" d="M78.082,150.549c-0.246,2.143,0.177,4.251,0.282,6.396c-0.456,0.491-0.317,1.124-0.247,1.685
		c0.247,2.143,0.668,4.252,0.843,6.357c0.107,1.199,0.842,2.429,0.141,3.658c-1.406-3.337-2.18-6.852-3.267-10.297
		c-1.301-4.146-2.497-8.326-3.512-12.577c-0.212-0.842-0.212-1.44,0.456-2.003c1.648-0.773,3.3-1.546,4.954-2.322
		c0.351,0.495,0.351,1.091,0.351,1.656C78.082,145.596,78.082,148.055,78.082,150.549z"/>
	<path fill="#BDBCBC" d="M48.322,142.221c6.709,12.614,9.066,26.423,13.247,39.808C59.073,180.205,48.112,147.106,48.322,142.221z"
		/>
	<path fill="#E794A1" d="M92.874,136.846c-0.666,0.384-1.406,0.703-2.141,0.667c-2.918-0.177-5.552,1.054-8.363,1.582
		c-2.883,0.528-5.727,1.091-8.431-0.914c-1.161-0.878-2.745-1.194-4.219-1.582c-0.842-0.21-1.968-0.316-1.933,1.196
		c-0.07-1.266-0.843-1.829-2.038-1.969c-1.582-0.208-2.916-1.334-4.566-1.439l0,0C61.076,134,60.76,134,60.478,134.033l0,0
		c-0.524-0.595-1.159-0.809-1.931-0.703c-0.142-0.526-0.526-0.7-1.056-0.7c-0.279-0.319-0.631-0.423-1.052-0.353l0,0
		c-0.493-0.668-1.126-0.914-1.935-0.703l0,0c-0.033-1.266,0.74-0.528,1.124-0.386c2.601,0.808,5.166,1.755,7.907,2.178
		c3.689,0.528,7.342,1.194,11.032,1.722c0.596,0.105,1.126,0.349,1.652,0.493c0.702,2.108,2.25,2.915,4.568,2.562
		C84.828,137.512,88.799,136.529,92.874,136.846z"/>
	<path fill="#5F5F5F" d="M64.838,178.447c0.458,1.123,0.876,2.248,1.334,3.374c0.841,2.143,0.912,2.143,2.423,0.384
		c0.528,1.688,1.054,3.411,2.038,4.918c1.582,2.357,2.496,2.427,4.286,0.319c0.493,1.403-0.526,2.525-0.668,3.828
		c-2.564-0.703-5.022-1.685-7.658-2.143c-2.318-0.387-4.426-3.337-4.708-6.115c0.315,0.353,0.561,0.738,0.914,1.056
		c0.491,0.456,0.912,1.299,1.687,0.912c0.668-0.316,0.561-1.159,0.631-1.861C65.328,181.503,64.485,180.029,64.838,178.447z"/>
	<path fill="#F7E3E5" d="M151.516,73.987c-0.315-0.175-0.666-0.28-0.912-0.524c-3.127-3.165-7.237-3.972-11.386-4.78
		c-1.722-2.46-3.653-4.461-6.955-4.568c-2.182-0.07-4.007-1.301-5.938-2.248c-0.212-0.105-0.353-0.281-0.282-0.565
		c0.07-0.28,0.351-0.349,0.563-0.28c2.354,0.668,4.985-0.277,7.202,1.441c1.406,1.091,2.951,2.074,4.778,2.39
		c2.706,2,6.15,2.563,8.959,4.356C149.34,70.334,151.305,71.421,151.516,73.987z"/>
	<path fill="#7A7A7A" d="M162.902,122.581c-0.142,0.105-0.282,0.175-0.422,0.28c-0.107-0.105-0.177-0.175-0.283-0.28
		c0.423-1.864-1.089-2.811-1.896-4.077c0.14-0.351,0.282-0.667,0.421-1.019c0.947,0.177,1.933,0.458,2.881,0.528
		c1.617,0.072,2.145-0.843,1.266-2.211c-0.67-1.056-1.442-2.111-2.498-2.848c0.144-0.105,0.318-0.247,0.458-0.353
		c1.967,0.491,3.972,0.985,5.939,1.475c0.315,0.459,0.279,0.811-0.282,1.022c-0.704,0.209-1.019,0.878-1.372,1.437
		c-0.21,0.352-1.192,0.635-0.246,1.266c0.074,1.159-0.771,1.901-1.264,2.741c-1.687,3.021-3.234,6.15-5.305,8.926
		c0.491-2.39,2.108-4.321,2.916-6.573c0.246-0.454,0.491-0.91,0.737-1.369c0.072-0.141,0.175-0.316,0.246-0.456
		c0.317-0.105,0.387-0.353,0.424-0.667c0.173-0.074,0.279-0.177,0.104-0.317c-0.07,0.07-0.104,0.175-0.175,0.244
		c-0.316,0.144-0.423,0.388-0.353,0.705c-0.281-0.033-0.314,0.142-0.384,0.319C163.288,121.595,163.111,122.09,162.902,122.581z"/>
	<path fill="#F7E3E5" d="M122.354,50.026c0.949,0.843,1.862,1.72,2.848,2.494c2.597,2.109,4.497,4.743,5.69,7.905
		c-5.306-4.779-10.927-9.17-16.761-13.282c2.601,0.177,4.71,1.652,7.168,2.213C121.651,49.566,122.001,49.813,122.354,50.026z"/>
	<path fill="#BDBCBC" d="M48.92,160.986c2.071,6.146,5.339,11.875,6.569,18.304c0.107,0.596,0.424,1.439-0.315,1.722
		c-0.702,0.246-0.844-0.668-1.054-1.125c-1.266-2.562-2.248-5.165-2.563-8.081C51.133,168.079,49.762,164.604,48.92,160.986z"/>
	<path fill="#F7E3E5" d="M150.462,74.653c1.475,0.212,2.39,1.373,3.514,2.108l0,0c0.142,0.317,0.247,0.284,0.386,0
		c1.194,0.602,0.984,1.724,1.054,2.777c-0.245,0.107-0.631-0.983-0.738,0.034c-0.07,0.812,0.037,1.617,0,2.425
		c-0.034,0.74-0.104,1.546-1.017,1.829c-0.107-1.124,0.351-2.18,0.528-3.271c0.173-1.228-0.845-3.372-1.864-3.372
		C150.322,77.22,150.394,76.026,150.462,74.653z"/>
	<path fill="#110D0E" d="M168.77,114.039c-1.968-0.487-3.972-0.979-5.939-1.471c1.266-0.703,2.495-1.372,3.763-2.073
		c0.733,0.84,1.438,1.72,2.176,2.565C169.049,113.409,169.296,113.725,168.77,114.039z"/>
	<path fill="#BDBCBC" d="M47.128,169.417c1.582,2.739,2.247,5.831,3.793,8.608c-0.876-0.352-1.615-1.196-3.267-3.726
		C46.672,172.756,47.513,170.997,47.128,169.417z"/>
	<path fill="#F5CFD6" d="M102.291,34.212c-0.738-0.314-0.668-0.98-0.668-1.65c-0.034-2.213,0.28-4.357,1.054-6.43l0,0
		c0.107-0.105,0.212-0.244,0.319-0.349c0.105-0.914,0.807-1.55,1.228-2.287c0.14-0.244,0.421-0.491,0.703-0.316
		c0.28,0.174,0.21,0.491,0.07,0.775c-0.107,0.207-0.176,0.458-0.318,0.629C102.466,27.466,102.466,30.84,102.291,34.212z"/>
	<path fill="#F7E3E5" d="M79.101,168.644c0.701-1.229-0.033-2.459-0.141-3.658c-0.175-2.141-0.596-4.249-0.843-6.357
		c-0.07-0.561-0.208-1.159,0.247-1.685c0.526,4.181,1.054,8.396,1.58,12.579c-0.142-0.037-0.317-0.105-0.458-0.142l0,0
		C79.384,169.102,79.241,168.888,79.101,168.644L79.101,168.644z"/>
	<path fill="#F7E3E5" d="M18.351,106.979c1.159,0.458,1.475,1.513,1.827,2.567c0.068,0.422,0.105,0.842,0.631,0.982l0,0
		c0,0.247,0.035,0.528,0.035,0.773c-1.054-0.07-1.475-1.266-2.458-1.44C18.351,108.878,18.351,107.931,18.351,106.979z"/>
	<path fill="#F5CFD6" d="M84.725,38.431c-0.212,1.617-1.829,1.159-2.708,1.755c-0.28,0.175-0.773,0.033-1.161,0
		C81.949,39.202,83.282,38.675,84.725,38.431z"/>
	<path fill="#110D0E" d="M166.837,117.767c-0.95-0.598,0.033-0.914,0.246-1.264c0.349-0.563,0.667-1.196,1.37-1.441
		C167.925,115.976,167.398,116.853,166.837,117.767z"/>
	<path fill="#BDBCBC" d="M79.487,169.345c0.14,0.035,0.315,0.107,0.458,0.14c0.386,0.456,0.282,0.951,0.175,1.442
		C79.206,170.717,79.557,169.942,79.487,169.345z"/>
	<path fill="#F7E3E5" d="M156.47,83.789c0-0.212-0.035-0.458-0.035-0.667c0.035-0.386,0.072-0.773,0.107-1.582
		C157.313,82.63,156.787,83.191,156.47,83.789z"/>
	<path fill="#7A7A7A" d="M159.388,96.052c-0.633-0.105-0.949-0.526-1.124-1.056C158.895,95.069,159.177,95.526,159.388,96.052z"/>
	<path fill="#F7E3E5" d="M155.734,81.294c-0.528-0.491-0.246-1.157-0.281-1.755C155.946,80.066,155.661,80.733,155.734,81.294z"/>
	<path fill="#F7E3E5" d="M156.049,83.123c-0.456-0.421-0.282-0.95-0.282-1.439C156.224,82.102,156.049,82.63,156.049,83.123z"/>
	<path fill="#F7E3E5" d="M47.513,156.874c0.246,0.174,0.386,0.386,0.281,0.7c0,0.039-0.07,0.072-0.14,0.107
		C47.621,157.4,47.549,157.155,47.513,156.874L47.513,156.874z"/>
	<path fill="#F7E3E5" d="M46.6,154.554c-0.035-0.107-0.035-0.139-0.068-0.21c0.034,0,0.068-0.035,0.141-0.035
		C46.672,154.379,46.635,154.447,46.6,154.554z"/>
	<path fill="#BDBCBC" d="M15.891,103.114c0.317,0.14,0.353,0.421,0.353,0.705C15.961,103.677,15.856,103.429,15.891,103.114z"/>
	<path fill="#BDBCBC" d="M15.54,102.412c0.316,0.137,0.351,0.423,0.351,0.702C15.54,103.007,15.505,102.726,15.54,102.412z"/>
	<path fill="#BDBCBC" d="M15.19,101.711c0.28,0.14,0.351,0.421,0.351,0.701C15.19,102.305,15.19,102.027,15.19,101.711z"/>
	<path fill="#F7E3E5" d="M46.952,155.573c0-0.035-0.037-0.105-0.037-0.142c0.037,0,0.108-0.035,0.142-0.035
		C47.128,155.504,47.091,155.573,46.952,155.573z"/>
	<path fill="#F7E3E5" d="M47.513,156.874c-0.07-0.14-0.175-0.245-0.245-0.387c0,0,0.07-0.072,0.14-0.104
		C47.444,156.556,47.48,156.698,47.513,156.874L47.513,156.874z"/>
	<path fill="#F7E3E5" d="M48.147,158.594c0,0.035-0.035,0.107-0.035,0.141c-0.035-0.033-0.107-0.105-0.142-0.141
		c0.035-0.035,0.072-0.072,0.107-0.103C48.076,158.522,48.112,158.559,48.147,158.594z"/>
	<path fill="#F5CFD6" d="M39.081,66.574c-0.141,0.281-0.386,0.353-0.704,0.353C38.519,66.644,38.765,66.539,39.081,66.574z"/>
	<path fill="#BDBCBC" d="M16.243,103.819c0.105,0.14,0.248,0.28,0.349,0.386C16.454,104.099,16.349,103.959,16.243,103.819z"/>
	<path fill="#F5CFD6" d="M38.377,66.927c-0.105,0.104-0.244,0.207-0.351,0.351C38.134,67.134,38.24,67.03,38.377,66.927z"/>
	<path fill="#E794A1" d="M154.362,76.761c-0.139,0.284-0.244,0.317-0.386,0C154.081,76.761,154.223,76.761,154.362,76.761z"/>
	<path fill="#BDBCBC" d="M14.732,101.359c0.141,0.105,0.316,0.246,0.458,0.353C15.048,101.604,14.872,101.464,14.732,101.359z"/>
	<path fill="#F5CFD6" d="M39.431,66.222c-0.105,0.105-0.21,0.247-0.351,0.352C39.186,66.434,39.293,66.327,39.431,66.222z"/>
	<path fill="#BDBCBC" d="M79.138,168.644c0.104,0.244,0.246,0.458,0.349,0.701C79.384,169.102,79.241,168.888,79.138,168.644z"/>
	<path fill="#F5CFD6" d="M39.749,65.801c-0.105,0.142-0.212,0.279-0.351,0.421C39.536,66.08,39.643,65.943,39.749,65.801z"/>
	<path fill="#F7E3E5" d="M102.996,25.782c-0.107,0.105-0.212,0.244-0.319,0.349C102.783,26.026,102.889,25.921,102.996,25.782z"/>
	<path fill="#FFFFFF" d="M78.398,122.686c-10.541,0.877-20.977,0.598-31.271-1.969c-2.039-0.524-3.97-1.333-5.902-2.104
		l-0.037-0.037c-0.876-1.266-2.038-2.143-3.477-2.669c0.705-0.67,0.456-1.161-0.141-1.866c-1.548-1.719-3.551-2.81-5.412-4.041
		c-2.248-1.477-4.075-3.372-5.657-5.376c-1.933-2.422-3.758-4.985-5.061-7.903c-0.665-1.51-1.054-2.881,0.144-4.218
		c0.526-0.631,0.139-1.755,1.228-2.002c0,2.355,0.283,4.637,1.091,6.85c1.089,2.918,3.232,4.994,5.375,6.995
		c2.741,2.562,5.552,5.059,8.573,7.8c-0.105-0.949-0.563-1.163-0.878-1.477c-3.021-3.09-5.901-6.288-8.642-9.627
		c-3.938-4.777-4.322-6.22-2.953-12.086c0.526,2.671,1.477,4.779,2.739,6.711c0.039,0.524,0,1.054,0.703,1.124
		c0.039,0.316-0.068,0.705,0.316,0.842c0.074,0.037,0.282-0.137,0.319-0.244c0.07-0.456-0.246-0.561-0.597-0.635
		c0.034-0.665-0.179-1.264-0.669-1.755c-1.019-2.988-1.545-6.01-0.879-9.168c1.196,1.192,2.704,1.72,4.252,2.175
		c0.528,0.775,1.089,0.95,1.757,0.177c0,3.093,1.931,4.708,4.461,5.975c-0.317-1.266-0.808-2.427-1.301-3.621
		c-0.491-1.229-0.665-2.632-0.104-3.727c0.596-1.155,2.423-1.155,3.093-2.492c0.033-0.105,0.629,0.105,0.947,0.175
		c0.561,0.105,1.124,0.244,1.687,0.386c0.033,0.249,0.033,0.563,0.421,0.528c0.035,0,0.107-0.072,0.107-0.105
		c0.033-0.384-0.282-0.384-0.528-0.423c-0.984-1.159-1.933-2.316-2.918-3.444c-0.561-0.595-1.159-1.263-2.002-0.347
		c-0.104,0.102-0.21,0.172-0.316,0.277l0,0c-0.878-0.033-1.089,0.916-1.757,1.198c0.177-1.443-0.596-1.722-1.791-1.475
		c-1.301,0.277-2.601,0.627-3.902,0.91c-0.56,0.142-1.229,0.175-1.546-0.455c-0.349-0.703,0.177-1.159,0.635-1.477
		c1.617-1.021,2.741-2.672,4.603-3.374c0.631-0.246,1.089-0.316,1.58,0.21c0.456,0.491,0.528,1.017,0.21,1.617
		c-0.175,0.317-0.421,0.598-0.421,0.914c-0.035,0.528,0.351,0.878,0.808,1.054c0.528,0.176,0.735-0.212,0.842-0.633
		c1.124-4.075,4.919-3.76,7.907-4.813c0.526-0.176,0.701,0.352,1.019,0.705c2.566,3.125,4.319,6.746,6.185,10.294
		c0.244,0.458,0.244,1.124,0.878,1.194c0.702,0.034,0.455-0.668,0.665-1.054c0.352-0.667,0.705-0.598,1.231-0.105
		c0.983,0.879,1.299,2.178,2.039,3.232c2.106,2.988,3.758,6.255,5.305,9.557c1.968,4.218,5.585,6.955,8.644,10.188
		c0.21,0.214,0.456,0.458,0.738,0.214c0.281-0.214,0.175-0.528,0-0.81c-2.671-4.356-4.815-9.031-7.591-13.318
		c-1.405-2.141-2.984-4.109-4.849-5.901c-3.514-3.373-5.762-7.693-8.081-11.874c-1.652-2.953-2.811-6.115-4.182-9.207
		c-0.21-0.459-0.667-0.952-0.141-1.443c0.458-0.419,0.986-0.491,1.617-0.244c1.3,0.458,2.46,1.228,3.83,1.545
		c0.702,0.174,1.264,0.735,1.405,1.617c0.668,3.968,3.442,6.5,6.185,9.031c5.201,4.708,11.137,8.361,17.145,11.98
		c4.218,2.565,8.647,4.638,13.038,6.816c1.931,0.949,3.937,1.862,5.831,2.951c-8.008-2.108-15.177-6.115-22.311-10.155
		c2.706,2.669,6.255,4.112,8.961,6.852c-1.336-0.631-2.67-1.194-3.937-1.864c-1.686-0.875-3.337-1.894-5.059-2.772
		c-0.491-0.247-1.052-0.703-1.754-0.142c-0.67,0.491-1.161-0.175-1.653-0.561c-2.355-1.792-4.675-3.618-6.994-5.447
		c-0.105,0.105-0.208,0.177-0.351,0.281c0.809,1.019,1.545,2.108,2.458,3.058c2.671,2.778,4.886,5.903,7.346,8.852
		c3.795,4.604,6.359,9.945,8.994,15.214c0.704,1.405,0.068,1.968-0.952,2.39c-4.88,2.11-9.694,4.426-15.177,4.602
		c-0.068,0-0.174,0.107-0.351,0.247c5.096,0.421,9.873-0.635,14.618-2.213c3.407-1.161,6.816-2.422,10.224-3.583
		c0.916-0.317,1.441,0.139,1.757,0.947c0.28,0.67,0.14,1.37,0.177,2.075c-3.549,1.439-7.239,2.492-10.928,3.544
		C79.487,121.946,78.68,121.877,78.398,122.686z"/>
	<path fill="#F5CFD6" d="M92.874,136.846c-4.075-0.317-8.045,0.667-12.017,1.266c-2.316,0.351-3.9-0.422-4.565-2.565
		c2.494-0.67,4.987-1.338,7.448-2.074c1.72-0.491,3.442-0.984,5.094-1.687c4.463-1.896,9.207-2.318,13.95-2.704
		c4.568-0.351,9.135-0.914,13.667-1.301c2.143-0.177,4.286-0.14,6.429-0.388c2.038-0.246,2.883-1.331,1.897-3.16
		c-1.37-2.499-3.372-4.393-5.936-5.657c3.407-0.703,6.816-1.372,10.188-2.145c3.372-0.772,6.783-1.301,10.188-1.301
		c3.411,0.039,6.888-0.032,10.295,0.705c0.563,0.142,1.126,0.349,1.652,0.596c0.421,0.175,0.914,0.456,0.878,0.983
		c0,0.563-0.598,0.633-1.019,0.775c-3.513,1.122-7.167,1.475-10.787,2.036c-3.374,0.53-6.816,0.738-10.26,1.407
		c1.755,0.491,3.549,0.982,5.307,1.439c1.86,0.491,3.725,0.914,5.585,1.44c0.984,0.282,1.862,0.703,1.897,2.002
		c0.035,1.371-0.947,1.864-1.933,2.145c-2.178,0.633-4.391,1.124-6.604,1.65c-3.867,0.914-7.591,2.285-11.244,3.796
		c-3.479,1.441-7.167,1.37-10.786,2.038c-2.846,0.491-5.726-0.14-8.501,0.668C100.078,136.283,96.458,136.495,92.874,136.846z"/>
	<path fill="#F5CFD6" d="M150.462,74.653c-0.068,1.373-0.14,2.567,1.862,2.53c1.019,0,2.038,2.145,1.864,3.372
		c-0.177,1.091-0.635,2.11-0.528,3.271v-0.037c-0.528,0-0.738,0.282-0.702,0.773c-2.285,4.463-7.663,6.499-12.265,4.743
		c-4.673-1.792-9.347-3.514-14.02-5.27c-0.596-0.21-1.264-0.247-1.86-0.353c-0.142-0.175-0.246-0.526-0.386-0.526
		c-3.901-0.177-7.521-1.794-11.351-2.213c-2.283-0.246-4.356-1.196-6.499-1.935c-0.386-0.14-0.738-0.386-0.738-0.878
		c0.598,0,1.159,0,1.757,0c0.351,0.177,0.703,0.423,1.089,0.493c3.162,0.668,6.323,1.547,9.555,1.861
		c2.182,0.214,4.323,0.845,6.573,0.845c2.706,0,5.411,0.491,8.115,0.842c2.496,0.319,4.954,0.633,7.484,0.493
		c0.351-0.035,0.738,0,0.844-0.421c0.107-0.423-0.246-0.667-0.563-0.738c-0.912-0.212-1.685-0.738-2.562-1.021
		c-1.161-0.388-2.567-0.21-3.446-1.334c0.528-0.526,1.862-0.456,1.547-1.51c-0.281-0.949-1.407-0.526-2.178-0.526
		c-4.112-0.037-8.258-0.037-12.37-0.037c-0.982-0.984-3.021-0.21-3.515-2.038c1.759,0.177,3.551,0.315,5.309,0.493
		c0-0.072,0.033-0.141,0.033-0.244c-2.248-0.565-4.497-1.126-6.779-1.691c0.14-0.279,0.105-0.351-0.318-0.526
		c1.897-0.914,4.041-0.667,6.01-1.299c3.478,0.528,6.955,1.089,10.469,1.582c2.986,0.421,6.009,0.244,8.96,0.489
		C144.7,74.164,147.721,73.143,150.462,74.653z"/>
	<path fill="#FFFFFF" d="M107.597,78.167c-0.598,0-1.159,0-1.757,0c-7.905-2.036-15.532-5.129-23.681-6.394
		c-2.497-0.384-4.57-1.897-6.89-2.883c-0.384-0.174-0.737-0.631-1.51-0.209c1.724,1.896,3.409,3.76,5.798,4.566
		c3.305,1.091,6.816,1.65,10.016,2.953c3.055,1.229,5.796,3.197,8.747,4.705c3.337,1.724,6.218,3.972,9.064,6.432
		c-2.283-0.142-4.216-1.299-6.251-2.038c-3.444-1.265-6.466-3.409-9.805-4.917c-0.878-0.389-1.755-0.635-2.708-0.317
		c-1.543,0.489-3.195-0.035-4.777,0.317c0.035,0.842,1.019,0.704,1.052,1.508c-2.423-0.351-4.426-1.545-6.356-2.741
		c-3.584-2.248-7.029-4.742-10.611-6.992c-1.091-0.703-1.722-1.86-2.883-2.422c-0.104-0.107-0.246-0.247-0.351-0.353l0,0
		c-0.035-0.668-0.316-1.092-1.056-1.054l0,0c0.212-0.67-0.351-1.054-0.596-1.547c-1.545-2.848-2.917-5.727-1.652-9.063
		c1.406-0.636,2.388-2.041,3.937-2.464c0.947-0.279,1.862-1.122,2.917-0.208c0,0.631-0.068,1.299-0.035,1.931
		c0.139,1.794,0.351,3.586,2.108,4.708c3.02,3.479,7.132,5.271,11.139,7.132c6.569,3.025,13.387,5.343,20.412,7.063
		c1.792,0.458,3.622,0.738,5.484,0.914c1.017,0.105,0.386,0.456,0.28,0.809c0.351,0.419,0.879,0.21,1.3,0.353
		C108.581,78.344,108.053,78.097,107.597,78.167z"/>
	<path fill="#FFFFFF" d="M94.243,121.809c0.459-0.037,0.916-0.075,1.372-0.107c1.371,0.703,2.776,1.37,4.146,2.073
		c0.529,0.281,1.161,0.563,0.983,1.265c-0.138,0.6-0.771,0.771-1.334,0.983c-1.157,0.491-2.423,0.423-3.619,0.491
		c-5.024,0.422-10.013,1.303-15.036,1.864c-6.292,0.703-12.438,0.315-18.483-1.547c-1.477-0.456-2.953-1.159-4.601-0.914
		c-0.353-1.124-1.196-1.089-2.11-0.771c0.703,0.246,1.407,0.526,2.11,0.771c3.442,1.405,6.744,3.164,10.818,4.179
		c-1.545,0.6-2.669,0.146-3.618-0.066c-2.81-0.596-5.622-0.773-8.431-1.266c-2.673-0.456-5.06-1.686-7.66-2.354
		c-2.004-0.526-2.425-2.636-3.058-4.393c3.83,1.615,7.872,2.074,11.98,2.141c8.821,0.181,17.64-0.244,26.425-1.298
		c3.232-0.386,6.499-0.703,9.732-1.052C93.998,121.984,94.138,121.946,94.243,121.809z"/>
	<path fill="#F5CFD6" d="M78.398,122.686c0.319-0.809,1.089-0.771,1.757-0.952c3.689-1.052,7.379-2.104,10.929-3.544
		c1.65,0.353,3.021-0.633,4.498-1.091c3.688-1.159,7.483-2.108,11.03-3.689c1.301-0.562,1.372-1.158,0.351-2.108
		c-1.192-1.089-2.599-1.757-4.108-2.213c-0.633-0.21-0.878-0.456-0.878-1.054c5.201,0.947,10.4,1.934,15.633,2.844
		c4.992,0.879,9.981,1.689,15.426,2.603c-2.739,0.667-5.059,1.334-7.377,1.826c-6.5,1.371-12.966,2.741-19.503,3.97
		c-5.655,1.052-11.346,1.899-17.11,2.425C85.46,122.09,81.949,122.686,78.398,122.686z"/>
	<path fill="#FFFFFF" d="M71.054,52.309c-0.033-0.668,0.353-1.054,0.845-1.441c1.722-1.301,3.371-1.407,5.233-0.248
		c2.777,1.757,5.904,2.813,8.961,3.832c1.652,0.528,2.881,1.545,3.689,2.739c2.355,3.516,5.833,5.094,9.524,6.641
		c2.914,1.196,5.971,2.006,9.099,3.339c-1.266,0.88-2.283,0.212-3.199,0.033c-5.375-1.158-10.751-2.494-16.127-3.651
		c-3.021-0.67-5.552-2.215-8.151-3.762c-2.285-1.368-4.568-2.739-6.85-4.146c-0.493-0.282-0.985-0.315-1.513-0.315
		c0-0.702,0-1.407,0-2.11c0.317-0.384,0.353-0.736-0.105-1.054C71.969,51.676,71.549,52.203,71.054,52.309z"/>
	<path fill="#F5CFD6" d="M139.921,109.439c7.169,0.456,14.16-0.844,21.152-2.285c0.491-0.104,1.054-0.138,1.547-0.138
		c0.598,0,0.878,0.28,0.668,0.876c-0.528,1.373-1.091,2.636-2.601,3.304c-4.638,2.073-9.382,2.843-14.441,1.757
		c-4.357-0.949-8.819-1.475-13.245-2.215c-0.142-0.033-0.281-0.174-0.423-0.282c1.72-0.877,3.514-1.228,5.447-0.842
		C138.657,109.79,139.325,110.037,139.921,109.439z"/>
	<path fill="#F5CFD6" d="M121.686,91.135c0.985,1.192,0.354,2.423,0,3.616c-0.21,0.705-0.667,0.422-1.125,0.352
		c-6.006-0.876-11.91-2.248-17.743-3.865c-5.059-1.405-10.12-2.811-14.898-4.952c0.421-0.6,1.089-0.456,1.617-0.351
		c7.204,1.787,14.583,2.457,21.855,4.001c2.634,0.563,5.376,0.773,8.011,1.514C120.071,91.661,120.984,91.835,121.686,91.135z"/>
	<path fill="#F5CFD6" d="M130.082,103.467c4.71,0.21,9.383,0.949,14.125,0.738c3.411-0.142,6.08-1.37,7.907-4.323
		c0.21-0.353,0.388-0.771,0.703-0.984c0.877-0.561,1.685-1.933,2.811-1.124c1.126,0.775,1.405,2.318,0.563,3.478
		c-2.25,3.023-5.199,5.166-9.031,5.692c-3.83,0.528-7.661,0.035-11.489-0.037c-1.056-1.37-2.776-1.646-4.218-2.389
		C130.927,104.275,130.189,104.275,130.082,103.467z"/>
	<path fill="#E794A1" d="M27.383,85.83c-0.67,3.158-0.142,6.18,0.875,9.168c-0.034,0.212-0.068,0.458-0.102,0.668
		c-1.301-1.932-2.251-4.04-2.741-6.711c-1.373,5.866-0.985,7.309,2.95,12.086c2.739,3.339,5.622,6.537,8.644,9.627
		c0.317,0.314,0.738,0.528,0.88,1.477c-3.023-2.741-5.836-5.238-8.575-7.8c-2.178-2.04-4.288-4.077-5.375-6.995
		c-0.843-2.245-1.089-4.531-1.089-6.85c0.314-2.739,1.264-5.199,3.091-7.272c0.314-0.353,0.598-1.019,1.229-0.598
		c0.491,0.351,0.773,0.843,0.631,1.51C27.628,84.703,27.523,85.266,27.383,85.83z"/>
	<path fill="#E794A1" d="M108.967,77.885c-0.421-0.139-0.949,0.074-1.299-0.347c4.673-0.144,9.347-0.284,13.983-0.423
		c4.112,0,8.259,0,12.368,0.035c0.773,0,1.862-0.423,2.18,0.526c0.317,1.052-1.056,0.986-1.547,1.51
		c-0.456,0.037-0.912,0.072-1.405,0.072c-0.105,0-0.245,0-0.352,0c-1.862,0.246-3.725,0.315-5.552,0.212
		C121.195,79.186,115.045,78.728,108.967,77.885z"/>
	<path fill="#E794A1" d="M61.462,57.722c-1.297,3.335,0.107,6.215,1.654,9.063c0.279,0.493,0.808,0.877,0.594,1.547
		c-2.141-1.477-2.739-3.761-3.232-6.36c-1.648,1.72-2.073,3.62-1.86,5.655c0.14,1.303,0.563,2.599,0.878,3.9
		c-0.773-0.313-1.091-0.948-1.091-1.755c-0.947-2.741-0.384-5.657-0.983-8.433c-0.175-0.877,0.177-1.722,0.631-2.494
		c1.303-2.178,2.604-4.393,4.359-6.292c0.421,1.794,0.421,2.108-0.421,3.553C61.672,56.593,61.569,57.157,61.462,57.722z"/>
	<path fill="#E794A1" d="M116.697,73.634c2.25,0.565,4.498,1.126,6.783,1.689c0,0.07-0.037,0.139-0.037,0.246
		c-1.757-0.176-3.547-0.317-5.303-0.493c-5.731-0.95-11.528-1.441-17.184-2.916c-0.984-0.246-2.778-0.491-2.565-1.264
		c0.28-0.986,1.862-0.317,2.916-0.142c4.604,0.703,9.136,1.759,13.669,2.709C115.536,73.564,116.135,73.564,116.697,73.634z"/>
	<path fill="#FFFFFF" d="M58.37,69.771c0,0.807,0.317,1.404,1.089,1.755l-0.035-0.033c-0.068,0.489,0.14,0.914,0.424,1.299
		c0.21,0.738,0.456,1.475,1.438,1.512c0.668,0.035,1.021,0.561,1.443,0.912c2.529,2.178,5.199,4.147,8.256,5.552
		c0.246,0.107,0.563,0.177,0.631,0.667c-0.702,0.144-1.333-0.141-1.862-0.454c-4.076-2.425-8.433-4.465-11.84-7.871
		c-0.353-0.352-0.633-0.808-0.984-1.232c-0.703-0.807-0.984-1.438,0.528-1.477C57.881,70.439,58.021,69.947,58.37,69.771z"/>
	<path fill="#FFFFFF" d="M32.019,119.945c3.656,1.65,7.274,3.304,10.929,4.956c0.103,0.104,0.244,0.208,0.351,0.314
		c0.105,0,0.21,0,0.349,0.035c0.951,1.196,1.794,2.53,3.691,1.899c0.283-0.104,0.421,0.07,0.493,0.349
		c0.105,0.6-0.107,1.021-0.67,1.266c-2.843-1.336-5.689-2.599-8.293-4.497c-1.473-1.089-3.125-2.109-5.163-2.214
		c-1.019-0.069-1.933-0.668-2.741-1.372C31.526,120.788,31.701,120.262,32.019,119.945z"/>
	<path fill="#E794A1" d="M72.566,53.22c0,0.703,0,1.408,0,2.11c-0.035,1.124-0.316,1.685-1.687,1.231
		c-1.58-0.528-2.318,0.246-1.827,1.894c0.317,1.091,0.843,2.145,1.266,3.199c-1.722-1.122-1.933-2.916-2.108-4.708
		c-0.07-0.631,0-1.264,0.035-1.932c0.666-1.193,1.967-1.719,2.809-2.741c0.458-0.068,0.878-0.596,1.406-0.138
		C72.495,52.519,72.531,52.868,72.566,53.22z"/>
	<path fill="#E794A1" d="M33.425,88.182c-0.668,0.773-1.231,0.598-1.757-0.177c-0.142-1.791,1.019-2.878,2.143-4.005
		c0.493-0.491,0.948-0.982,1.439-1.508c0.668-0.282,0.878-1.232,1.757-1.198c0.105,0.598-0.281,0.986-0.491,1.443
		C35.533,84.635,34.127,86.215,33.425,88.182z"/>
	<path fill="#E794A1" d="M96.351,53.224c1.864,0.349,3.691,0.665,5.552,1.017c-0.491,0.456-1.228,0.631-1.368,1.405
		c-0.458,0.247-0.177,0.947-0.67,1.161c-0.807-0.563-1.613-1.126-2.39-1.722C96.881,54.629,96.178,54.169,96.351,53.224z"/>
	<path fill="#E794A1" d="M37.711,115.868c1.439,0.528,2.601,1.441,3.477,2.672C39.784,117.977,38.377,117.414,37.711,115.868z"/>
	<path fill="#E794A1" d="M63.677,68.331c0.738-0.039,1.019,0.417,1.056,1.054C64.134,69.278,63.747,68.963,63.677,68.331z"/>
	<path fill="#E794A1" d="M90.239,92.363c-0.491-0.14-0.982-0.246-1.473-0.701c0.701-0.21,1.192,0.173,1.65,0.491
		C90.38,92.222,90.308,92.294,90.239,92.363z"/>
	<path fill="#E794A1" d="M59.848,72.792c-0.284-0.386-0.493-0.81-0.424-1.299C59.741,71.877,60.267,72.195,59.848,72.792z"/>
	<path fill="#F5CFD6" d="M45.055,125.25c0.174,0.07,0.386,0.175,0.562,0.247c-0.035,0.068-0.105,0.142-0.141,0.212
		C45.336,125.565,45.196,125.392,45.055,125.25L45.055,125.25z"/>
	<path fill="#F5CFD6" d="M135.004,106.907c-0.389,0.072-0.773,0.072-1.091-0.242C134.299,106.628,134.687,106.56,135.004,106.907z"
		/>
	<path fill="#F5CFD6" d="M121.651,71.526c0.282-0.033,0.563,0,0.74,0.281C122.073,71.845,121.826,71.807,121.651,71.526z"/>
	<path fill="#FFFFFF" d="M109.318,67.556c-0.104,0.035-0.209,0.07-0.316,0.07C109.072,67.454,109.177,67.383,109.318,67.556z"/>
	<path fill="#F5CFD6" d="M100.921,107.754c0.14,0.105,0.246,0.177,0.386,0.28C101.167,107.931,101.061,107.823,100.921,107.754z"/>
	<path fill="#E794A1" d="M64.732,69.385c0.105,0.105,0.244,0.246,0.351,0.353C64.976,69.631,64.838,69.49,64.732,69.385z"/>
	<path fill="#FFFFFF" d="M99.129,140.008c1.054-2.427,2.355-2.81,4.428-1.334c0.843,0.598,1.65,1.299,2.354,2.074
		c1.687,1.896,3.935,2.599,6.29,2.985c1.897,0.317,2.809-0.526,2.809-2.46c0-1.37,0.353-2.599,1.091-3.76
		c1.124-0.878,2.071-2.423,3.688-0.738c1.196,1.512,2.32,3.058,3.551,4.533c0.524,0.633,1.054,1.475,2.178,1.091
		c0.105,1.017-0.493,1.966-0.246,2.986c-0.142,0.386-0.316,0.773-0.423,1.159c-2.355,8.994-4.778,17.955-7.449,26.842
		c-0.21,0.105-0.28,0.245-0.21,0.458c-0.035,0.07-0.105,0.175-0.105,0.281c-1.689,1.477-2.004,1.406-2.813-0.809
		c-0.104-0.314-0.279-0.629-0.421-0.949c-0.208-1.37-0.738-2.739-0.559-4.144c0.594-4.921,1.192-9.806,1.859-14.723
		c0.175-1.3,0-2.424-0.526-3.551c-0.175-0.384-0.105-1.052-0.738-1.052c-0.738,0.035-0.631,0.702-0.738,1.196
		c-1.054,4.177-1.58,8.466-2.353,12.719c-1.407,7.728-2.036,15.6-3.902,23.294c-1.578,2.287-1.861,2.318-4.531,0.351
		c-0.246-0.842-1.826-0.244-1.545-2.073c1.017-6.113,1.617-12.263,2.318-18.413c0.565-4.882,0.565-9.801,0.773-14.718
		c0.072-1.724,0.104-3.374-0.807-4.919c-0.495-0.812-0.668-2.216-1.827-2.041c-0.984,0.177-0.845,1.477-1.091,2.355
		c-0.526-0.668-0.246-1.441-0.28-2.143C99.76,142.959,99.727,141.446,99.129,140.008z"/>
	<path fill="#110D0E" d="M153.587,123.459c0.319,0.244,0.602,0.596,0.952,0.7c2.108,0.635,2.53,2.146,2.215,4.077
		c-0.248,1.688-1.021,2.213-2.778,2.039c-2.671-0.245-5.271-0.948-7.905-1.441c0.035,0.144,0.035,0.281,0.07,0.353
		c0.596,0.916,1.72,1.862,0.914,2.917c-0.844,1.161-2.178,0.351-3.197-0.072c-1.829-0.736-3.444-1.929-5.552-1.897
		c1.09-0.7,2.248,0.105,3.407-0.209c1.439-0.422,2.777-0.843,4.007-1.827c2.178-1.652,4.568-3.058,6.851-4.566
		C152.959,123.531,153.273,123.494,153.587,123.459z"/>
	<path fill="#110D0E" d="M138.201,130.134c-2.075,1.089-1.862,3.163-2.143,4.989c-0.177,1.161,0.21,2.85-0.915,3.341
		c-1.124,0.489-1.828-1.161-2.636-1.897c-1.334-1.266-3.092-1.722-4.531-2.778c0.949-0.14,1.934-0.423,2.881-0.423
		c1.897,0,3.725,0.248,4.849-1.929C136.126,130.591,137.145,130.102,138.201,130.134z"/>
	<path fill="#110D0E" d="M125.517,142.363c-1.089,0.419-1.654-0.458-2.178-1.091c-1.231-1.475-2.392-3.021-3.551-4.533
		c0.389-0.21,0.843-0.631,1.196-0.561c1.862,0.244,3.409-0.317,4.813-1.477c-0.489,0.916-0.387,1.864-0.28,2.848
		c0,0.807,0.035,1.617,0.035,2.424C125.586,140.783,125.866,141.59,125.517,142.363z"/>
	<path fill="#110D0E" d="M160.302,118.504c0.845,1.266,2.354,2.213,1.896,4.077c-2.669,0.878-5.339,0.105-8.045,0.212
		c0.037-0.107,0.105-0.212,0.14-0.317c1.968-1.159,3.9-2.39,5.657-3.863C160.09,118.575,160.197,118.542,160.302,118.504z"/>
	<path fill="#110D0E" d="M162.372,112.953c1.056,0.736,1.794,1.792,2.498,2.848c0.878,1.368,0.315,2.283-1.266,2.211
		c-0.984-0.035-1.935-0.351-2.881-0.528c-0.035-0.104-0.068-0.175-0.107-0.281C160.654,115.554,161.001,114.039,162.372,112.953z"/>
	<path fill="#F5CFD6" d="M160.584,117.204c0.032,0.105,0.07,0.177,0.104,0.281c-0.14,0.353-0.28,0.668-0.421,1.019
		c-0.107,0.039-0.212,0.072-0.317,0.108c-0.351-0.845-1.089-1.408-1.545-2.251C159.141,116.643,159.879,116.924,160.584,117.204z"/>
	<path fill="#F5CFD6" d="M114.836,137.581c-1.441,0.67-2.918,0.391-4.393,0.214C111.883,137.335,113.395,137.725,114.836,137.581z"
		/>
	<path fill="#F5CFD6" d="M153.587,123.459c-0.314,0.035-0.665,0.072-0.98,0.104c-0.105-0.456-0.845-0.386-0.808-1.052
		c0.631,0.104,1.231,0.212,1.825,0.314C153.624,123.036,153.624,123.247,153.587,123.459z"/>
	<path fill="#F7E3E5" d="M152.923,84.563c0-0.491,0.21-0.773,0.701-0.773C153.624,84.28,153.38,84.492,152.923,84.563z"/>
	<path fill="#F5CFD6" d="M154.327,122.44c-0.035,0.102-0.104,0.207-0.138,0.316c-0.177,0-0.351,0.037-0.565,0.037
		C153.838,122.686,154.081,122.581,154.327,122.44z"/>
	<path fill="#F7E3E5" d="M94.243,121.809c-0.105,0.137-0.246,0.175-0.351,0C93.998,121.809,94.138,121.809,94.243,121.809z"/>
	<path fill="#FFFFFF" d="M78.082,150.549c0-2.46,0-4.952,0-7.416c0-0.559,0-1.159-0.351-1.648c1.017-0.81,1.51-0.319,2.108,0.631
		c1.334,2.213,2.879,4.251,5.866,4.147c0.668,0.629,0.388,1.441,0.388,2.143c0.037,1.582-0.316,3.339,2.528,3.339
		c-2.353-0.246-2.248,0.808-1.931,2.246c0.316,1.408,0.248,2.883,0.421,4.324c0.878,7.308,1.757,14.651,2.883,21.924
		c0.07,0.456,0.175,0.808,0.702,0.843c0.456,2.108,0.282,4.356,1.477,6.325c-1.336,2.178-2.354,2.25-4.217,0.491
		c-0.807-0.775-1.159-2.075-2.458-2.318c-0.772-7.063-1.686-14.127-2.32-21.188c-0.386-4.181-1.58-8.083-3.407-11.807
		C79.419,151.813,79.101,150.829,78.082,150.549z"/>
	<path fill="#FFFFFF" d="M91.084,142.115c0.103-0.387,0.21-0.773,0.561-0.983c1.512,2.848,2.423,3.374,4.671,2.776
		c0.072,9.171,0.424,18.308,1.408,27.759c1.017-1.301,0.561-2.458,0.773-3.551c0.104,0,0.173,0,0.282,0
		c0.033,4.885-0.635,9.769-0.389,14.651c0.037,0.879-0.105,1.726-0.351,2.566c-1.229,1.79-3.094,2.109-5.06,2.109
		c0.209-11.104,0.702-22.206,0.526-33.312c-0.035-2.141-0.667-4.249-2.108-5.969C91.222,146.121,91.855,144.085,91.084,142.115z"/>
	<path fill="#5F5F5F" d="M98.075,185.333c0.281-0.84,0.423-1.687,0.353-2.566c-0.282-4.882,0.386-9.766,0.386-14.651
		c0.631-4.884,0.631-9.801,0.914-14.687c0.139-2.248,0.316-4.533,0.456-6.781c0.21-0.878,0.107-2.213,1.091-2.355
		c1.159-0.175,1.333,1.196,1.827,2.041c0.91,1.508,0.878,3.158,0.807,4.919c-0.247,4.917-0.208,9.836-0.773,14.718
		c-0.701,6.15-1.301,12.3-2.318,18.413c-0.317,1.792,1.299,1.231,1.545,2.073c-1.194-0.209-2.178-0.068-2.318,1.441
		c-0.035,0.21-0.177,0.456-0.456,0.386c-0.351-0.07-0.633-0.282-0.667-0.7C98.78,186.738,98.71,185.929,98.075,185.333z"/>
	<path fill="#5F5F5F" d="M106.857,186.072c1.829-7.66,2.46-15.532,3.902-23.298c0.773-4.251,1.299-8.535,2.353-12.717
		c0.105-0.491,0-1.159,0.738-1.192c0.633,0,0.563,0.667,0.737,1.052c0.529,1.124,0.742,2.246,0.529,3.549
		c-0.703,4.882-1.266,9.802-1.862,14.723c-0.177,1.403,0.353,2.774,0.561,4.147c-0.738,0.032-0.386-0.882-0.808-1.021
		c-1.017,4.074-1.089,8.293-2.282,12.296c-0.494,1.583-1.196,2.813-3.233,2.213C107.315,185.754,107.069,185.966,106.857,186.072z"
		/>
	<path fill="#5F5F5F" d="M91.399,148.123c1.441,1.722,2.073,3.83,2.108,5.973c0.175,11.104-0.281,22.206-0.526,33.311
		c-0.282,0-0.528,0-0.808,0.035c-1.194-1.933-1.021-4.182-1.477-6.325c0-6.29,0.421-12.614-0.281-18.867
		c-0.351-3.126-0.633-6.292-0.351-9.418C90.239,151.215,89.887,149.389,91.399,148.123z"/>
	<path fill="#110D0E" d="M130.646,172.897c2.496-9.945,6.85-19.221,10.857-28.568c1.371-3.16,2.741-6.324,4.463-9.31
		c0.245-0.422,0.458-1.161,1.124-0.81c0.528,0.282,0.07,0.88-0.107,1.266c-5.34,12.543-10.715,25.087-16.056,37.63
		C130.787,173.035,130.717,172.967,130.646,172.897z"/>
	<path fill="#110D0E" d="M134.406,142.081c-2.285,11.526-6.257,22.595-9.734,33.976C123.653,170.68,131.523,146.857,134.406,142.081
		z"/>
	<path fill="#110D0E" d="M117.363,173.352c2.672-8.889,5.131-17.848,7.451-26.846c0.103-0.386,0.28-0.771,0.42-1.157
		c0.528,3.583,0,7.026-1.089,10.469c-2.529,8.116-5.094,16.165-7.975,24.175c-0.07,0.175-0.177,0.317-0.493,0.842
		c0.282-2.599,1.511-4.568,1.371-6.779c0.035-0.107,0.07-0.176,0.105-0.284C117.4,173.703,117.437,173.563,117.363,173.352z"/>
	<path fill="#110D0E" d="M150.217,138.356c-1.933,4.815-3.865,9.629-5.868,14.406c-2.143,5.164-4.357,10.293-6.57,15.461
		c-0.21,0.526-0.491,1.054-0.879,1.86c-0.247-1.196,0.351-1.829,0.596-2.492c3.691-9.454,6.923-19.081,11.772-28.042
		c0.246-0.456,0.53-0.912,0.775-1.37C150.112,138.251,150.148,138.286,150.217,138.356z"/>
	<path fill="#BDBCBC" d="M125.552,139.973c0-0.807-0.035-1.617-0.035-2.424C126.008,138.356,126.078,139.166,125.552,139.973z"/>
	<path fill="#110D0E" d="M150.815,136.846c0.035,0.598-0.248,1.054-0.598,1.51c-0.033-0.035-0.105-0.105-0.14-0.14
		C150.183,137.688,150.287,137.125,150.815,136.846L150.815,136.846z"/>
	<path fill="#110D0E" d="M130.892,173.105c-0.138,0.319-0.28,0.635-0.458,0.951v0.035c0.07-0.387,0.107-0.81,0.177-1.194
		C130.717,172.967,130.787,173.035,130.892,173.105z"/>
	<path fill="#5F5F5F" d="M135.565,172.897c0,0.033,0.035,0.105,0.035,0.138c-0.072,0-0.14,0.037-0.21,0.037
		c0-0.037,0-0.105,0.035-0.142C135.46,172.897,135.529,172.897,135.565,172.897z"/>
	<path fill="#110D0E" d="M151.376,135.368c0,0.037,0.035,0.107,0.035,0.142c-0.035,0.177-0.068,0.177-0.141,0.037
		c0-0.037,0-0.109,0.035-0.142C151.305,135.405,151.343,135.405,151.376,135.368z"/>
	<path fill="#110D0E" d="M150.815,136.846c0.035-0.175,0.07-0.319,0.07-0.491c0.068,0.033,0.141,0.066,0.176,0.14
		C150.992,136.599,150.92,136.739,150.815,136.846L150.815,136.846z"/>
	<path fill="#110D0E" d="M136.689,170.576c-0.07,0.068-0.14,0.104-0.21,0.141c0-0.105-0.035-0.21-0.035-0.316
		c0-0.035,0.072-0.107,0.105-0.142C136.619,170.401,136.653,170.507,136.689,170.576z"/>
	<path fill="#5F5F5F" d="M136.021,172.086c-0.033,0.035-0.104,0.068-0.14,0.107c-0.035-0.107-0.068-0.177-0.107-0.283
		c0-0.033,0.072-0.07,0.144-0.105C135.953,171.878,135.988,171.983,136.021,172.086z"/>
	<path fill="#110D0E" d="M130.434,174.091c-0.033,0.034-0.033,0.068-0.07,0.105C130.401,174.159,130.434,174.124,130.434,174.091
		C130.469,174.091,130.434,174.091,130.434,174.091z"/>
	<path fill="#F7E3E5" d="M100.535,55.611c0.174-0.773,0.91-0.95,1.368-1.406c2.287,0.212,4.395,0.95,6.325,2.178
		c0.388,0.21,0.773,0.425,0.67,0.88c-0.14,0.667-0.635,0.21-0.985,0.21c-1.475,0.037-2.951-0.353-4.428,0.456
		C102.186,58.702,100.886,57.576,100.535,55.611z"/>
	<path fill="#F7E3E5" d="M113.254,46.827c-0.037,0-0.07-0.035-0.107-0.035c0.037-0.035,0.107-0.105,0.144-0.142
		c0.031,0.037,0.068,0.072,0.104,0.107C113.323,46.757,113.291,46.792,113.254,46.827z"/>
	<path fill="#E794A1" d="M32.019,119.945c-0.317,0.28-0.493,0.81-1.089,0.703c-1.229-0.246-2.355-0.74-3.407-1.406
		c-0.248-0.21-0.458-0.421-0.703-0.63c-0.035-0.072-0.072-0.108-0.107-0.142c0.177-0.947,0.915-0.493,1.443-0.598
		C29.418,118.612,30.93,118.926,32.019,119.945z"/>
	<path fill="#F7E3E5" d="M28.189,117.872c-0.528,0.14-1.265-0.349-1.442,0.598c-1.019,0-1.406-0.67-1.652-1.546
		c0.141,0.068,0.283,0.175,0.423,0.246c0.035-0.141,0.175-0.316,0.107-0.423c-0.177-0.351-0.424-0.668-0.668-0.982
		c0.458-0.667,1.159-0.247,1.897-0.423c-1.196,0.809-0.562,1.161,0.14,1.336C27.731,116.886,28.294,116.992,28.189,117.872z"/>
	<path fill="#E794A1" d="M20.845,111.268c0-0.248-0.035-0.53-0.035-0.773c0.738,0.561,1.722,0.945,1.406,2.178
		c-0.386,0-0.245,0.314-0.28,0.526C21.548,112.532,21.196,111.9,20.845,111.268z"/>
	<path fill="#110D0E" d="M24.324,115.061c0,0.246,0.39,0.456,0.035,0.703c-0.809-0.423-1.159-1.229-1.687-1.899
		c0.105-0.07,0.177-0.175,0.282-0.245c0.316,0.28,0.631,0.528,0.949,0.807l-0.035-0.032
		C24.042,114.64,24.184,114.851,24.324,115.061z"/>
	<path fill="#110D0E" d="M24.992,115.801c0.208,0.314,0.456,0.631,0.666,0.984c0.035,0.068-0.07,0.279-0.105,0.419
		c-0.139-0.072-0.281-0.175-0.421-0.245c-0.246-0.386-0.526-0.809-0.773-1.194C24.606,115.412,24.782,115.801,24.992,115.801z"/>
	<path fill="#F7E3E5" d="M54.542,131.575c0.807-0.21,1.439,0.035,1.932,0.703C55.736,132.35,55.031,132.245,54.542,131.575z"/>
	<path fill="#FFFFFF" d="M58.582,133.33c0.773-0.105,1.44,0.108,1.931,0.703C59.741,134.105,59.145,133.79,58.582,133.33z"/>
	<path fill="#F7E3E5" d="M26.855,118.612c0.245,0.209,0.456,0.419,0.701,0.63C27.135,119.277,26.784,119.172,26.855,118.612z"/>
	<path fill="#FFFFFF" d="M60.513,134.033c0.317,0,0.6,0,0.703,0.353C60.901,134.421,60.618,134.386,60.513,134.033z"/>
	<path fill="#F7E3E5" d="M56.474,132.278c0.419-0.07,0.772,0.033,1.054,0.353C57.143,132.664,56.755,132.594,56.474,132.278z"/>
	<path fill="#110D0E" d="M22.181,113.269c0.28-0.352,0.458,0.074,0.701,0.074c0,0.104,0.037,0.174,0.037,0.277
		c-0.107,0.07-0.176,0.175-0.281,0.245C22.495,113.69,22.355,113.481,22.181,113.269z"/>
	<path fill="#110D0E" d="M21.936,113.199c0.035-0.212-0.141-0.491,0.28-0.526c0,0.212,0.386,0.419,0.035,0.67
		C22.144,113.269,22.041,113.234,21.936,113.199z"/>
	<path fill="#BDBCBC" d="M91.399,148.123c-1.512,1.266-1.196,3.092-1.334,4.708c-0.282,3.127,0,6.292,0.351,9.418
		c0.737,6.289,0.317,12.577,0.281,18.867c-0.526-0.035-0.631-0.388-0.702-0.843c-1.125-7.308-2.004-14.618-2.883-21.927
		c-0.173-1.438-0.105-2.916-0.421-4.321c-0.317-1.441-0.456-2.494,1.931-2.248c-2.844,0-2.492-1.757-2.528-3.337
		c0-0.736,0.247-1.548-0.388-2.145c2.25-0.773,3.868-2.388,5.341-4.146C91.855,144.085,91.222,146.121,91.399,148.123z"/>
	<path fill="#BDBCBC" d="M100.146,146.649c-0.139,2.248-0.314,4.533-0.456,6.781c-0.315,0.105-0.491,0.282-0.491,0.596
		c-0.212,4.708-0.458,9.382-0.669,14.09c-0.209,1.054,0.25,2.214-0.77,3.551c-0.985-9.452-1.301-18.588-1.408-27.759
		c1.373-0.984,1.969-2.496,2.778-3.865c0.598,1.441,0.598,2.986,0.736,4.495C99.937,145.207,99.622,145.981,100.146,146.649z"/>
	<path fill="#F7E3E5" d="M22.954,113.62c0-0.104-0.035-0.174-0.035-0.277c0.07-0.25,0.035-0.635,0.456-0.458
		c0.773,0.277,0.598,0.947,0.528,1.543C23.586,114.184,23.27,113.904,22.954,113.62z"/>
	<path fill="#F7E3E5" d="M24.324,115.061c-0.14-0.21-0.282-0.421-0.421-0.633C24.324,114.428,24.887,114.395,24.324,115.061z"/>
	<path fill="#E794A1" d="M20.81,110.495c-0.526-0.107-0.563-0.565-0.631-0.986C20.599,109.685,20.81,110.037,20.81,110.495z"/>
	<path fill="#F7E3E5" d="M43.298,125.25c-0.107-0.104-0.248-0.21-0.351-0.316C43.051,125.004,43.191,125.146,43.298,125.25z"/>
	<path fill="#110D0E" d="M162.902,122.581c0.208-0.491,0.386-0.986,0.877-1.228c0.037,0.031,0.107,0.103,0.14,0.137
		c-0.244,0.456-0.491,0.915-0.738,1.371C163.111,122.756,163.008,122.686,162.902,122.581z"/>
	<path fill="#110D0E" d="M164.13,121.001c-0.07-0.353,0.037-0.563,0.353-0.703l0.07,0.07
		C164.552,120.681,164.482,120.93,164.13,121.001L164.13,121.001z"/>
	<path fill="#110D0E" d="M164.482,120.298c0.07-0.072,0.105-0.177,0.175-0.248c0.175,0.175,0.105,0.279-0.105,0.317
		C164.587,120.403,164.482,120.298,164.482,120.298z"/>
	<path fill="#110D0E" d="M163.779,121.353c0.07-0.177,0.107-0.39,0.387-0.319l0.034,0.035c-0.07,0.14-0.174,0.315-0.246,0.456
		C163.886,121.458,163.816,121.385,163.779,121.353z"/>
	<path fill="#F7E3E5" d="M33.425,88.182c0.702-2.002,2.143-3.584,3.055-5.445c0.247-0.458,0.633-0.845,0.493-1.443l0,0
		c0.107-0.105,0.21-0.175,0.315-0.28c0.845-0.916,1.477-0.279,2.004,0.351c1.019,1.127,1.968,2.287,2.917,3.444l0,0
		c-0.565-0.138-1.128-0.244-1.686-0.386c-0.319-0.07-0.915-0.247-0.95-0.175c-0.705,1.334-2.494,1.334-3.093,2.496
		c-0.562,1.089-0.386,2.494,0.107,3.725c0.456,1.194,0.983,2.352,1.301,3.616C35.358,92.89,33.388,91.275,33.425,88.182z"/>
	<path fill="#F5CFD6" d="M28.156,95.666c0.034-0.21,0.068-0.456,0.102-0.668c0.459,0.491,0.705,1.091,0.67,1.755l-0.035,0.037
		C28.156,96.754,28.189,96.191,28.156,95.666z"/>
	<path fill="#F5CFD6" d="M28.892,96.79c0.351,0.07,0.668,0.175,0.594,0.633c-0.031,0.105-0.244,0.279-0.314,0.246
		C28.752,97.529,28.892,97.143,28.892,96.79L28.892,96.79z"/>
	<path fill="#F7E3E5" d="M42.242,84.845c0.247,0.033,0.563,0.033,0.528,0.421c0,0.035-0.072,0.105-0.105,0.105
		C42.279,85.406,42.279,85.089,42.242,84.845L42.242,84.845z"/>
	<path fill="#E794A1" d="M37.288,81.049c-0.105,0.107-0.208,0.179-0.315,0.282C37.08,81.259,37.183,81.156,37.288,81.049z"/>
	<path fill="#F7E3E5" d="M133.247,79.293c0.456-0.035,0.912-0.07,1.405-0.07c0.877,1.124,2.283,0.949,3.444,1.333
		c0.878,0.284,1.648,0.809,2.563,1.022c0.316,0.068,0.668,0.314,0.563,0.737c-0.105,0.422-0.495,0.422-0.845,0.422
		c-2.494,0.139-4.987-0.175-7.482-0.493c-2.706-0.353-5.41-0.81-8.118-0.844c-2.246,0-4.354-0.633-6.569-0.845
		c-3.199-0.313-6.36-1.192-9.557-1.86c-0.388-0.07-0.738-0.317-1.091-0.493c0.458-0.07,0.985,0.142,1.372-0.317
		c6.078,0.882,12.228,1.338,18.377,1.653c1.86,0.107,3.723,0.035,5.55-0.21C133.002,79.47,133.142,79.433,133.247,79.293z"/>
	<path fill="#F7E3E5" d="M57.702,125.954c-0.701-0.245-1.404-0.529-2.106-0.775C56.51,124.901,57.349,124.829,57.702,125.954
		L57.702,125.954z"/>
	<path fill="#F7E3E5" d="M72.566,53.22c-0.035-0.353-0.07-0.701-0.105-1.054C72.918,52.484,72.883,52.837,72.566,53.22z"/>
	<path fill="#F5CFD6" d="M133.247,79.293c-0.105,0.14-0.245,0.177-0.352,0C133.002,79.293,133.142,79.293,133.247,79.293z"/>
	<path fill="#7A7A7A" d="M117.363,173.352c0.074,0.21,0,0.388-0.209,0.456C117.084,173.563,117.189,173.425,117.363,173.352z"/>
	<path fill="#F7E3E5" d="M98.53,168.116c0.212-4.708,0.458-9.382,0.669-14.09c0-0.351,0.21-0.526,0.491-0.596
		c-0.281,4.885-0.281,9.803-0.91,14.687C98.71,168.116,98.601,168.116,98.53,168.116z"/>
</g>
</svg>
