<?xml version="1.0" encoding="utf-8"?>
<!-- Generator: Adobe Illustrator 16.0.0, SVG Export Plug-In . SVG Version: 6.00 Build 0)  -->
<!DOCTYPE svg PUBLIC "-//W3C//DTD SVG 1.1//EN" "http://www.w3.org/Graphics/SVG/1.1/DTD/svg11.dtd">
<svg version="1.1" id="Layer_1" xmlns="http://www.w3.org/2000/svg" xmlns:xlink="http://www.w3.org/1999/xlink" x="0px" y="0px"
	 width="1271px" height="415px" viewBox="-660.583 -107.368 1271 415" enable-background="new -660.583 -107.368 1271 415"
	 xml:space="preserve">
<g opacity="0.2">
	<path fill="#FFFFFF" d="M-177.26,96.889c-1.391,2.496-1.61,5.563-1.022,9.223c6.659,17.491,24.589,45.085,35.499,73.407
		c10.83,27.963,13.758,42.084,23.49,55.478c9.729,13.397,43.696,22.178,43.696,22.178l43.329,8.706V119.794
		C-32.194,119.796-172.795,88.989-177.26,96.889z"/>
	<polygon fill="#FFFFFF" points="-2.191,-80.677 -6.139,-76.717 -10.383,-73.934 -51.81,-44.879 -25.828,-26.952 10.986,-26.067 
		-2.555,-53.372 -2.555,-66.837 	"/>
	<path fill="#FFFFFF" d="M-132.103,1.23L-132.103,1.23c-0.29,0.291-0.513,0.515-0.731,0.734l0,0c-0.586,0-1.091,0.145-1.467,0.734
		l0,0c-0.219,0.215-0.508,0.431-0.731,0.73c-1.904,0.22-2.854,1.757-3.952,2.998c-4.393,4.972-8.932,9.733-14.049,14.051
		c-7.614,6.442-13.905,14.201-20.127,21.817c-2.637,3.141-5.424,6.358-7.174,10.173c-2.928,0.433-4.688,2.854-6.955,4.384
		c-1.314,0.955-1.172,2.125-0.292,3.446c1.465,2.117,2.488,4.61,1.977,7.168c-0.585,2.788,0.219,4.907,2.048,6.885
		c0.294,0.215,0.658,0.511,0.954,0.73l0,0c0,0.66,0,1.248,0.732,1.461l0,0c0,0.667,0.077,1.25,0.731,1.469l0,0
		c0,0.654,0.146,1.171,0.735,1.461l0,0c0.219,0.29,0.517,0.583,0.727,0.803c1.25,1.908,2.491,3.81,3.664,5.705
		c0,1.982,0,3.959,0,5.936c-1.757,2.78-1.464,5.707-0.37,8.632c0.37,1.03,0.297,2.128,0.442,3.226
		c0.588,5.414,3.076,9.807,7.611,12.516c3.515,2.121,5.709,4.245,4.828,8.49c-0.149,0.582,0,1.24,0,1.828
		c-0.149,2.34,0.955,3.296,3.295,3.296c3.514,0,7.026,0,10.465-1.177c1.101-0.359,2.56-0.946,3.364,0.146
		c0.661,0.879-0.656,1.686-1.019,2.489c-1.322,2.414-0.519,4.615,1.096,6.372c1.683,1.83,3.733,0.877,5.269-0.297
		c2.126-1.609,3.001-0.438,3.805,1.323c2.565,5.413,5.491,6.29,10.688,3.436c1.9-1.026,3.587-2.709,5.929-3.075
		c0.433,1.464,0,2.56-0.296,3.805c-1.39,6.438,0.954,8.71,7.393,7.103c0.809-0.217,1.609-0.512,2.419-0.803
		c3.732-1.172,7.094-3.226,10.61-4.909c2.05-1.023,3.146-0.657,3.583,1.684c0.437,2.42,1.1,4.761,2.268,6.882
		c0.956,1.758,1.904,3.594,4.321,3.152c2.563-0.518,2.418-2.854,2.634-4.616c0.293-2.778-0.216-5.704,0.88-8.411
		c3.438,0.136,6.146,2.557,9.512,2.993c2.486,0.293,4.099,1.461,4.246,4.102c0.075,1.313,0.075,2.633,0.144,4.026
		c0.442,8.995,1.538,9.95,10.249,8.488c-1.392,1.174-1.392,2.41-0.95,4.17c2.046,8.853,4.605,17.565,7.316,26.202
		c2.265,7.171,3.877,14.495,6.806,21.441l0,0c0.218,0.518,0.516,0.951,0.73,1.469l0,0c0.219,1.241-0.586,2.851,1.392,3.297
		c0.95,7.318,2.128,14.638,2.858,21.95c0.361,3.961,2.557,7.686,1.46,11.787c-1.61,2.415-3.368,1.974-4.902,0.143
		c-1.831-2.192-3.439-4.538-5.123-6.879c-0.365-1.605-1.314-2.999-1.604-4.754c-1.688-11.417-2.42-22.98-5.055-34.253
		c-2.928-12.296-5.269-24.662-10.538-36.299c-0.292-0.586-0.073-1.612-1.024-1.691c-0.805-0.066-1.249,0.736-1.391,1.469
		c-0.736,3.878-2.346,7.689-1.246,11.857c1.907,7.538,3.733,15.075,4.464,22.832c0.805,8.273,4.906,15.81,5.86,24.008
		c0.73,6.146,2.775,11.777,5.338,17.346c0.583,1.32,1.607,2.487,1.314,4.027c-0.514,0.88-1.245,1.614-1.245,2.71
		c-3.728,4.393-5.704,4.246-8.927-0.665c-2.051-3.146-3.146-6.732-4.247-10.243c0.15-1.244,0-2.411-0.291-3.585
		c-4.609-18.446-9.077-36.961-14.783-55.187c-1.541-4.898-2.856-9.879-5.637-14.491c-1.463,1.391-1.686,2.642-1.392,4.244
		c2.048,13.538,5.637,26.792,9.003,40.038c1.754,7.023,4.245,13.903,5.342,21.154c-0.735,3.287,1.025,6.364,0.587,9.656
		c-0.223,1.463,0.073,3.226-1.322,3.878c-1.606,0.737-2.484-0.954-3.511-1.903c-0.657-0.654-1.242-1.389-1.899-2.198
		c0.581,5.785,5.047,11.93,9.801,12.737c5.492,0.954,10.62,3.001,15.959,4.468c1.391,0.437,2.708,0.949,4.174,1.313
		c5.486,1.385,10.682,4.76,16.242,4.535c13.907-0.51,27.228,3.004,40.765,4.835c13.104,1.758,25.985,1.318,38.867-0.441
		c13.688-1.826,27.226-4.757,41.207-4.315c7.316,0.215,14.855-0.809,21.884-3.075c9.219-3.08,18.078-7.248,27.079-11.05
		c4.614-1.904,5.417-7.325,1.101-9.957c-4.541-2.779-6.221-6.59-6.957-11.564c-0.513-3.876-2.408-7.541-6.731-7.975
		c-2.707-0.293-4.465-1.542-6.369-2.931c-2.559-1.828-5.049-3.729-7.534-5.713c-5.057-4.095-10.031-8.413-17.791-6.29
		c10.761-25.689,20.273-51.674,33.304-76.042c4.318-5.861,7.538-12.303,11.052-18.591c1.027-1.834,2.779-3.368,2.632-5.709
		c1.175-1.833,2.272-3.735,3.442-5.565c1.174-0.44,1.317-1.171,0.587-2.125c1.096-0.659,0.587-1.309,0-1.974
		c-1.537-1.753-3.002-3.591-4.537-5.347c-1.468-2.635-0.519-4.896,0.946-7.096c1.104-1.758,2.123-3.51,3.001-5.412
		c1.173-2.418,0.296-3.658-2.052-4.325c-3.287-0.95-6.509-1.9-9.801-2.85c-1.687-0.512-3.583-1.101-3.663-3.005
		c-0.143-3.074-1.827-5.192-3.441-7.465c-0.433-1.094-1.097-2.052-2.337-2.199c1.168-4.61-2.344-6.733-4.905-9.368
		c-1.753-1.828-1.242-4.096-0.88-6.22c0.438-2.633,1.323-5.125,2.051-7.759c0.732-1.24,1.754-2.411,0.143-4.688
		c-0.143,1.687-0.216,2.493-0.216,3.292c-0.22,0-0.517,0-0.737,0c0-1.016,0.367-2.116-0.58-2.997c0-0.296-0.077-0.514-0.077-0.799
		c-0.15-1.25,0.438-2.568-0.586-3.661l-0.073-0.15c-0.144-2.125,0.289-4.536-2.194-5.78c-0.29,0-0.512,0-0.804,0l0,0
		c-0.367-3.074-3.662-3.734-5.127-5.857c-0.365-5.271-4.463-7.612-8.265-10.024c-5.857-3.737-13.026-4.904-18.668-9.079
		c-0.947-1.023-1.903-2.118-2.999-3.149c-6.291-6.144-12.883-12.219-17.344-19.905c-3.151-5.413-8.056-6.809-13.54-7.763
		c-0.734-0.433-1.465-0.95-2.195-1.387c-0.807-1.685-2.417-2.342-3.956-3.072c-4.023-1.978-8.341-3.149-12.368-5.202
		c-7.023-3.655-13.025-9.361-21.148-10.899c-1.246-0.218-1.907-1.396-2.05-2.779c-0.954-3.145-1.249-6.374-0.076-9.589
		c0.367-7.029,0.367-14.057,4.979-19.983c0.285-0.367,0.437-0.878,0.659-1.317c0.287-0.588,0.434-1.249-0.149-1.609
		c-0.586-0.37-1.173,0.071-1.466,0.652c-0.878,1.542-2.266,2.86-2.562,4.765c-0.218,0.217-0.437,0.517-0.657,0.73l0,0
		c-1.026,0-1.388,0.805-1.834,1.538c-2.191,3.586-2.482,7.61-2.413,11.561c0.148,5.783-1.097,11.198-3.068,16.617
		c-0.521,1.464-1.474,1.684-2.78,1.829c-3.81,0.512-7.688,0.88-11.42,1.68c-4.542,0.956-6.077,4.097-4.318,8.419
		c0.511,1.387,0.807,3.438,2.706,3.517c1.903,0.141,3.363-1.615,3.731-3.01c1.395-5.12,4.836-6.077,9.444-5.56
		c1.101,0.15,2.197,0,3.292,0C0.289-45.834,4.019-41.96,4.31-34.709c0.073,2.484-0.587,3.511-3.219,3.365
		c-5.123-0.224-10.25-0.073-15.369,0c-1.173,0-2.488-0.364-3.443,0.726c-0.509,0-0.954,0-1.463,0
		c-8.344-0.659-14.564-6.798-22.466-8.778c-0.811-0.224-1.25-1.389-0.592-1.684c2.854-1.174,1.246-3.153,1.104-4.906
		c-0.077-1.174-0.219-2.195,1.24-3.072c4.904-3.073,10.032-5.706,14.273-10.026c4.318-4.249,9.879-7.25,14.049-11.861
		c0.811-0.873,2.347-1.532,1.323-3.359c-8.488,6.809-17.198,13.169-27.372,17.197c-3.001,0.509-5.786,1.609-8.123,3.73
		c-2.2,0-4.175,0.955-5.714,2.122c-6.148,4.687-12.88,7.983-20.05,10.621c-3.591,1.314-7.251,2.559-10.619,4.241
		c-5.706,2.856-9.368,7.976-13.32,12.664c-3.148,3.732-6.515,7.609-10.758,9.664c-5.49,2.555-10.98,5.121-16.396,7.828
		c-3.146,1.611-6.661,2.929-8.633,6.298C-131.662,0.649-131.885,0.935-132.103,1.23z"/>
	<path fill="#FFFFFF" d="M-115.268,190.063c-0.069-0.293-0.219-0.662-0.291-0.957c-0.074,0.078-0.293,0.148-0.293,0.222
		C-115.633,189.551-115.487,189.839-115.268,190.063c0.072,0.583,0.146,1.095,0.294,1.607c0.071-0.072,0.218-0.072,0.291-0.219
		C-114.462,190.866-114.756,190.349-115.268,190.063z"/>
	<path fill="#FFFFFF" d="M-113.583,159.538c-0.438,10.105,22.395,79.048,27.594,82.922
		C-94.698,214.578-99.676,185.816-113.583,159.538z"/>
	<path fill="#FFFFFF" d="M-112.337,198.626c1.755,7.536,4.609,14.854,5.491,22.47c0.731,6.075,2.701,11.494,5.339,16.829
		c0.517,1.027,0.735,2.86,2.194,2.347c1.542-0.518,0.88-2.347,0.656-3.587C-101.215,223.365-107.947,211.432-112.337,198.626z"/>
	<path fill="#FFFFFF" d="M-116.071,216.189c0.805,3.366-0.949,6.956,1.171,10.17c3.443,5.271,4.971,7.028,6.81,7.762
		C-111.392,228.336-112.775,221.894-116.071,216.189z"/>
	<path fill="#FFFFFF" d="M-117.17,185.229c0.072-0.224,0.072-0.364,0.15-0.513c-0.078,0-0.15,0.073-0.295,0.073
		C-117.244,184.94-117.244,185.005-117.17,185.229z"/>
	<path fill="#FFFFFF" d="M-116.437,187.35c0.289,0,0.364-0.142,0.15-0.367c0,0-0.15,0.073-0.297,0.073
		C-116.512,187.132-116.512,187.208-116.437,187.35z"/>
	<path fill="#FFFFFF" d="M-113.948,193.645c-0.073-0.073-0.146-0.15-0.219-0.214c-0.077,0.063-0.149,0.141-0.219,0.214
		c0.069,0.072,0.219,0.224,0.292,0.293C-114.021,193.868-114.021,193.717-113.948,193.645z"/>
	<path fill="#F7E3E5" d="M-37.754-56.659c10.169-4.032,18.879-10.397,27.371-17.206c1.022,1.831-0.51,2.492-1.318,3.365
		c-4.17,4.615-9.807,7.614-14.057,11.859c-4.313,4.319-9.366,6.951-14.27,10.024c-1.467,0.883-1.313,1.904-1.244,3.076
		c0.149,1.76,1.754,3.733-1.097,4.911c-0.661,0.286-0.223,1.46,0.586,1.68c7.907,1.979,14.129,8.125,22.472,8.784
		c-0.223,1.755,0.873,1.973,2.268,2.411c1.242,0.441,3.29-0.216,3.656,1.977c-0.368,1.978,1.023,2.86,2.27,3.81
		c1.609,1.241,3.29,2.414,4.979,3.586c-0.078,1.904-1.179,1.53-2.565,1.388c-1.388-0.15-2.855-1.542-4.905,0.143
		c5.782,1.757,11.127,3.369,16.47,4.904c12.661,3.66,25.622,5.997,38.428,8.857c4.389,1.023,5.562,2.488,5.93,7.17
		C35.944,3.795,24.745,2.476,13.47,4.007c-0.291-0.362-0.512-0.211-0.658,0.147C12.74,5.622,13.99,5.91,14.937,6.202
		c7.977,2.492,16.024,4.465,24.225,6.007c0.363,0.583,0.879,0.653,1.541,0.583h0.072c-4.102,1.243-8.565,0.806-12.52,2.706
		c0.807,0.365,0.956,0.514,0.659,1.095c-1.167-0.142-2.414-0.142-3.588-0.364c-9.51-1.973-18.879-4.17-28.467-5.632
		c-2.194-0.359-5.421-1.756-6.075,0.293c-0.518,1.607,3.291,2.118,5.341,2.634c11.784,3.071,23.86,4.028,35.787,6.076
		c1.026,3.878,5.274,2.195,7.322,4.246c-9.732,0.296-19.466,0.59-29.129,0.879c0.221-0.661,1.539-1.464-0.585-1.684
		c-3.804-0.369-7.684-0.95-11.416-1.904c-14.637-3.584-28.84-8.342-42.526-14.71c-8.42-3.879-16.977-7.612-23.199-14.856
		c-0.878-2.196-1.978-4.392-2.634-6.666c-1.022-3.441,0.514-5.045,3.804-3.95c2.86,0.95,3.441-0.218,3.515-2.563
		c1.101,0,2.195,0.082,3.145,0.662c4.758,2.925,9.521,5.779,14.278,8.635c5.409,3.149,10.683,6.44,16.974,7.828
		c11.199,2.418,22.4,5.279,33.596,7.611c1.908,0.365,4.021,1.833,6.664-0.068C5.204,0.354-1.164-1.337-7.238-3.896
		c-7.678-3.218-14.929-6.509-19.835-13.833c-1.683-2.492-4.245-4.535-7.684-5.71c-6.44-2.12-12.88-4.318-18.662-7.974
		c-3.806-2.418-7.244-2.199-10.902,0.512c-1.027,0.735-1.832,1.605-1.762,3.001c-1.749,2.046-4.459,3.22-5.849,5.709
		c-2.194-1.906-4.029-0.073-6.079,0.438c-3.222,0.95-5.194,3.804-8.2,5.12c0.223-1.172,0.438-2.342,1.104-3.44
		c1.754-3.002,1.754-3.583,0.878-7.394c-3.656,3.957-6.368,8.57-9.08,13.104c-0.948,1.542-1.682,3.37-1.315,5.198
		c1.25,5.779,0.146,11.862,2.048,17.572c-0.732,0.433-1.022,1.387-2.048,1.387c-3.071,0.064-2.564,1.391-1.1,3.067
		c0.735,0.807,1.245,1.764,2.056,2.565c7.093,7.099,16.175,11.273,24.659,16.39c1.176,0.665,2.414,1.326,3.875,0.954
		c-0.066-1.017-0.805-1.168-1.315-1.39c-6.367-2.924-11.927-6.948-17.197-11.561c-0.878-0.807-1.606-1.904-2.998-1.904
		c-2.053-0.073-2.563-1.607-3.001-3.148c0.879-1.245-0.219-1.909-0.877-2.709l0.068,0.073c-0.66-2.708-1.533-5.344-1.826-8.125
		c-0.441-4.245,0.437-8.193,3.877-11.784C-87.377-2.359-86.13,2.4-81.67,5.471l0,0c0.076,1.396,0.953,2.051,2.199,2.196l0,0
		c0.219,0.223,0.514,0.516,0.731,0.737c2.417,1.162,3.731,3.578,6.005,5.048c7.465,4.751,14.638,9.877,22.104,14.561
		c4.022,2.485,8.191,4.976,13.239,5.708c-0.068-1.683-2.19-1.387-2.19-3.147c3.218-0.726,6.736,0.364,9.95-0.657
		c1.983-0.583,3.736-0.143,5.64,0.657c6.955,3.147,13.173,7.616,20.425,10.248c4.318,1.539,8.266,3.958,13.021,4.241
		c-5.853-5.122-11.93-9.877-18.881-13.387c-6.146-3.148-11.857-7.243-18.22-9.807c-6.666-2.709-13.979-3.883-20.864-6.152
		c-5.051-1.684-8.559-5.481-12.077-9.515c1.61-0.804,2.268,0.073,3.145,0.437c4.765,2.053,9.151,5.2,14.353,6.007
		c16.976,2.56,32.86,9.073,49.329,13.318c0,1.027,0.654,1.542,1.537,1.831c4.465,1.539,8.779,3.516,13.537,4.022
		c7.978,0.885,15.516,4.251,23.645,4.617c0.293,0,0.509,0.73,0.804,1.099c-0.587,0.143-1.026,0.437-1.467,0.946
		c-3.731,4.759-5.195,4.833-10.174,1.247c-0.951-0.662-1.974-2.416-3.293-1.174c-1.094,1.104-0.072,2.492,0.438,3.659
		c1.903,4.102,5.269,7.171,7.978,10.684c-1.463,1.392-3.362,1.031-4.826,0.664c-5.489-1.538-11.196-1.978-16.694-3.145
		C2.654,47.193-12.792,45.875-27.8,42.075c-1.099-0.3-2.419-0.518-3.367,0.727c-5.85-2.191-11.71-4.392-17.566-6.586
		c1.828,2.195,4.317,3.145,6.736,4.173c24.444,10.385,49.699,18.368,75.679,23.857c1.242,0.289,3.656-0.291,3.656,1.46
		c0,1.978-2.414,2.051-3.951,2.493c-0.801,0.287-1.687,0.148-2.562,0.148c-7.761,0.509-15.226-0.956-22.76-2.709
		C-3.569,62.855-14.7,58.683-26.042,54.946c-1.027-0.657-1.978-1.46-3.441-1.02c0.949,0.95,2.052,1.17,3.075,1.463
		C-8.77,65.562,10.77,69.954,30.39,74.055c8.635,1.756,17.414,2.998,26.126,4.465c0.215,1.681,1.758,1.681,2.854,2.268
		c2.999,1.537,6.586,2.047,8.783,4.975c-0.515,0-0.951,0-1.465,0c-0.657-0.737-1.463-0.586-2.27-0.508
		c-4.462-0.295-8.927-0.592-13.395-0.883c0,0.226-0.069,0.437-0.069,0.654c8.632,1.982,17.345,4.035,25.984,6.008
		c-1.243,1.24-2.713,0.729-4.031,0.513c-4.021-0.81-7.756-0.074-11.347,1.757c-1.17-0.146-2.415-0.146-3.582-0.362
		c-10.393-1.615-20.786-3.298-31.176-4.829c-11.348-1.687-22.837-2.568-34.257-3.448c-1.02-0.066-2.196-0.438-3.002,0.88
		c1.982,0.951,3.956,1.904,6.151,1.979c0.292,0.219,0.512,0.362,0.805,0.589c0.437,0.067,0.879,0.067,1.389,0.143
		c0,1.24,0.519,1.749,1.828,2.191c3.079,1.026,6.08,2.341,8.57,4.616c2.12,1.974,1.974,3.219-0.73,4.389
		c-7.47,3.22-15.303,5.272-22.986,7.684c-3.004,0.954-5.856,2.929-9.368,2.268c-0.076-1.469,0.217-2.927-0.368-4.318
		c-0.731-1.683-1.755-2.633-3.658-1.977c-7.099,2.417-14.123,5.055-21.298,7.47c-9.884,3.294-19.835,5.494-30.451,4.608
		c0.37-0.291,0.516-0.515,0.732-0.515c11.42-0.434,21.448-5.191,31.613-9.587c2.126-0.946,3.449-2.119,1.982-4.978
		C-51.731,89.06-57.073,77.93-64.978,68.419c-5.124-6.144-9.738-12.666-15.302-18.445c-1.903-1.977-3.437-4.241-5.12-6.369
		c0.219-0.223,0.441-0.364,0.732-0.58c4.828,3.804,9.73,7.535,14.567,11.337c1.027,0.806,2.048,2.268,3.443,1.176
		c1.462-1.176,2.63-0.22,3.654,0.294c3.587,1.823,6.958,3.874,10.538,5.779c2.71,1.39,5.491,2.634,8.201,3.88
		c-5.637-5.708-13.029-8.713-18.666-14.276c14.928,8.418,29.793,16.761,46.475,21.153c-3.945-2.275-8.048-4.099-12.146-6.146
		c-9.147-4.547-18.372-8.861-27.158-14.203c-12.516-7.537-24.88-15.151-35.715-24.955c-5.712-5.195-11.491-10.54-12.884-18.813
		c-0.293-1.827-1.534-2.997-2.926-3.365c-2.854-0.66-5.271-2.342-7.979-3.218c-1.315-0.442-2.414-0.369-3.368,0.504
		c-1.096,1.031-0.069,2.053,0.294,3.011c2.855,6.44,5.27,13.021,8.711,19.173c4.828,8.786,9.511,17.717,16.833,24.734
		c3.884,3.732,7.174,7.837,10.1,12.302c5.86,8.928,10.249,18.66,15.813,27.733c0.29,0.515,0.585,1.172,0,1.686
		c-0.588,0.513-1.173,0-1.537-0.444c-6.37-6.729-13.906-12.438-18.006-21.219c-3.221-6.876-6.661-13.684-11.051-19.91
		c-1.541-2.194-2.2-4.826-4.246-6.73c-1.098-0.955-1.831-1.097-2.564,0.215c-0.438,0.806,0.076,2.271-1.386,2.2
		c-1.323-0.072-1.323-1.541-1.829-2.491c-3.888-7.388-7.539-14.925-12.884-21.444c-0.661-0.802-1.027-1.9-2.122-1.459
		c-6.156,2.19-14.13,1.537-16.472,10.022c-0.223,0.881-0.731,1.687-1.753,1.324c-0.955-0.374-1.757-1.1-1.684-2.201
		c0.073-0.66,0.583-1.314,0.877-1.904c0.66-1.25,0.512-2.337-0.438-3.369c-1.022-1.095-1.977-0.877-3.292-0.438
		c-3.878,1.469-6.22,4.902-9.588,7.027c-0.954,0.584-2.049,1.607-1.322,3.074c0.734,1.317,2.056,1.24,3.22,0.95
		c2.71-0.582,5.418-1.314,8.127-1.904c2.488-0.586,4.099,0.081,3.731,3.075c-1.022,1.028-1.972,2.124-3.001,3.15
		c-2.268,2.337-4.681,4.605-4.464,8.342c-3.218-0.95-6.44-2.05-8.854-4.538c0.294-1.173,0.517-2.348,0.805-3.515
		c0.372-1.39-0.22-2.411-1.313-3.146c-1.396-0.877-1.979,0.519-2.564,1.246c-3.806,4.314-5.788,9.44-6.439,15.148
		c-2.268,0.513-1.466,2.931-2.56,4.17c-2.422,2.782-1.685,5.63-0.292,8.781c2.707,6.078,6.509,11.42,10.534,16.471
		c3.295,4.175,7.102,8.046,11.78,11.196c3.883,2.568,8.055,4.832,11.273,8.414c1.246,1.397,1.758,2.419,0.296,3.884
		c1.389,3.218,4.318,4.392,7.241,5.565l0.082,0.07c2.636,3.147,6.149,5.125,9.511,7.176c1.318,3.659,2.196,8.052,6.372,9.146
		c5.414,1.465,10.392,3.952,15.952,4.902c5.854,1.025,11.788,1.469,17.57,2.63c1.973,0.442,4.314,1.396,7.536,0.147
		c-8.49-2.121-15.37-5.706-22.545-8.703l0,0c3.443-0.44,6.517,0.95,9.594,1.907c12.589,3.874,25.39,4.678,38.493,3.215
		c10.469-1.172,20.788-2.996,31.325-3.876c2.414-0.22,5.126-0.073,7.541-1.024c1.172-0.438,2.486-0.803,2.778-2.054
		c0.369-1.466-1.022-2.046-2.046-2.629c-2.856-1.462-5.782-2.931-8.637-4.322c0.654-0.657,1.532-0.588,2.415-0.657
		c6.806-0.95,13.61-2.05,20.494-2.711c8.56-0.804,16.904-2.926,25.544-3.072c5.412,2.557,9.585,6.587,12.363,11.785
		c2.053,3.805,0.291,6.076-3.951,6.582c-4.464,0.515-8.927,0.44-13.391,0.805c-9.517,0.809-18.955,1.978-28.47,2.71
		c-9.953,0.8-19.763,1.604-29.059,5.636c-3.44,1.463-7.027,2.489-10.61,3.517c-5.125,1.531-10.32,2.854-15.515,4.316
		c-1.176-0.295-2.2-0.809-3.44-1.031c-7.689-1.091-15.299-2.481-22.987-3.58c-5.709-0.811-10.978-2.859-16.462-4.542
		c-0.809-0.214-2.415-1.758-2.344,0.81c-5.71-0.516-11.053-1.834-15.447-5.788c1.172-0.507,1.614-1.391,1.396-2.636
		c-0.077-0.585-0.438-0.873-1.027-0.731c-3.952,1.319-5.709-1.537-7.689-3.949c0.957,0,1.982,0,2.934,0
		c0.293,0.292,0.584,0.657,0.877,0.95c0.072-0.147,0.219-0.293,0.293-0.438c-0.367-0.146-0.808-0.368-1.17-0.511
		c-0.734-0.812-1.32-1.758-2.124-2.495c-7.982-6.875-16.252-13.464-24.229-20.412c-10.534-9.146-21.442-17.862-32.202-26.722
		c-3.219-2.631-4.904-5.559-4.464-9.95c0.441-4.246,1.173-8.339,3.001-12.224c1.753-3.802,4.609-7.025,7.169-10.173
		c6.296-7.611,12.588-15.367,20.131-21.809c5.118-4.312,9.658-9.077,14.048-14.057c1.104-1.245,2.054-2.852,3.952-2.996
		c0.219-0.22,0.519-0.441,0.731-0.732l0,0c0.587,0,1.173-0.071,1.464-0.73l0,0c0.218-0.217,0.438-0.513,0.735-0.73l0,0
		c0.218-0.296,0.438-0.585,0.731-0.884c1.978-3.362,5.419-4.679,8.639-6.29c5.41-2.709,10.904-5.275,16.396-7.833
		c4.241-2.051,7.607-5.926,10.758-9.661c4.021-4.683,7.682-9.806,13.322-12.663c3.437-1.683,7.028-2.927,10.61-4.245
		c7.175-2.562,13.907-5.93,20.053-10.613c1.539-1.174,3.589-2.126,5.711-2.126c0.805,0,1.904,0.368,2.418,0
		C-41.564-54.245-38.196-53.291-37.754-56.659z"/>
	<path fill="#E794A1" d="M77.219,91.253c-8.637-1.973-17.352-4.028-25.98-5.997c0-0.225,0.077-0.445,0.077-0.657
		c4.459,0.289,8.929,0.58,13.394,0.876c0.659,0.654,1.392,0.654,2.271,0.503c0.513,0,0.95,0,1.465,0.078
		c7.981,0.15,16.023,1.171,23.93,0.073c7.979-1.098,14.125-5.633,18.809-11.852c1.76-2.344,1.171-5.566-1.173-7.251
		c-2.338-1.604-4.022,1.177-5.852,2.344c-0.657,0.441-1.023,1.318-1.462,2.047c-3.811,6.151-9.443,8.713-16.471,9.006
		c-9.886,0.443-19.616-1.101-29.422-1.537c-8.713-1.464-17.49-2.705-26.128-4.465c-19.613-4.028-39.153-8.489-56.801-18.666
		c0.149-0.144,0.297-0.291,0.363-0.513c11.275,3.733,22.477,7.906,34.108,10.69c7.47,1.753,15.01,3.214,22.765,2.704
		c0.88-0.067,1.758,0.073,2.564-0.146c1.537-0.509,3.948-0.584,3.948-2.488c0-1.753-2.411-1.24-3.656-1.464
		c-25.982-5.491-51.234-13.465-75.678-23.86c-2.42-1.019-4.906-1.969-6.732-4.167c5.851,2.198,11.706,4.39,17.562,6.585
		c10.028,4.542,20.494,7.465,31.031,10.323c12.156,3.364,24.452,6.218,36.962,8.046c0.956,0.152,1.908,0.813,2.344-0.73
		c0.809-2.561,2.051-5.052,0-7.54c-2.705-3.584-6.074-6.589-7.975-10.684c-0.521-1.172-1.61-2.637-0.446-3.667
		c1.323-1.31,2.347,0.444,3.299,1.179c4.978,3.582,6.44,3.508,10.171-1.246c0.443-0.514,0.881-0.805,1.461-0.954
		c1.324,0.222,2.711,0.222,3.885,0.73c9.727,3.591,19.54,7.179,29.199,10.98c9.517,3.66,20.716-0.585,25.544-9.877
		c0.877-0.15,1.465-0.662,1.465-1.611v0.072c1.899-0.588,2.044-2.265,2.12-3.81c0.073-1.684-0.221-3.432,0-5.047
		c0.225-2.118,1.029,0.146,1.534-0.07l0.073,0.143c0.078,1.241-0.511,2.563,0.587,3.656c0,0.294,0.076,0.51,0.076,0.809
		c0,1.023-0.367,2.12,0.583,3.003c0.22,0,0.517,0,0.736,0c0,0.433,0.072,0.95,0.072,1.388c-0.661,2.557-1.533,5.121-2.052,7.759
		c-0.364,2.12-0.873,4.392,0.879,6.221c2.565,2.637,6.076,4.756,4.904,9.366c0.439,1.174,1.096,2.051,2.339,2.195
		c1.54,2.268,3.295,4.468,3.44,7.465c0.081,1.981,1.978,2.561,3.663,3c3.292,0.957,6.514,1.904,9.801,2.855
		c2.349,0.66,3.227,1.9,2.053,4.321c-0.881,1.9-1.828,3.654-2.999,5.416c-1.467,2.199-2.418,4.537-0.949,7.102
		c-2.641,1.458-5.199,2.856-7.833,4.317c-0.294,0.218-0.657,0.512-0.953,0.735c-2.928,2.26-3.586,5.413-3.73,8.853
		c-1.539-0.588-3.001-1.176-4.54-1.763c1.023,1.682,2.492,2.931,3.22,4.688c-3.659,2.996-7.69,5.631-11.788,8.041
		c-0.507,0.228-0.95,0.515-1.458,0.736h0.067c-1.241-0.221-2.484-0.431-3.802-0.654c-0.146,1.389,1.391,1.246,1.684,2.194
		c-4.757,3.147-9.739,6.076-14.277,9.517c-2.557,1.977-5.342,2.856-8.338,3.804c-2.418,0.732-4.835-0.947-7.104,0.444l-0.144-0.149
		l-0.219,0.071c-2.271-0.071-4.395,0.954-5.196,2.638c-2.271,4.541-6.148,4.021-10.103,4.021c-1.977,0-4.023,0.588-6.001,0.884
		c-1.685,0.29-3.291,0.803-4.535,2.046c-2.928,2.416-6.152,3.586-10.027,3.076c-0.807-0.069-1.687,0.804-2.491,1.174
		c-3.366-3.516-5.413-0.295-7.682,1.531c-0.879-0.872-1.758,0.592-2.637,0.151c-3.001,0.292-6.148-0.438-9.147,0.44
		c-4.614-1.174-9.588,0.214-14.12-1.904c5.782-1.689,11.847-0.367,17.706-1.396c7.465-1.314,15.148-1.245,22.467-4.241
		c7.611-3.15,15.367-6.005,23.423-7.906c4.61-1.097,9.222-2.118,13.758-3.441c2.052-0.581,4.099-1.606,4.025-4.46
		c-0.073-2.637-1.903-3.586-3.952-4.179c-3.874-1.091-7.759-1.975-11.633-2.996c-3.66-0.953-7.397-1.975-11.055-3.003
		c7.174-1.391,14.343-1.824,21.371-2.925c7.541-1.176,15.153-1.831,22.471-4.248c0.876-0.293,2.12-0.434,2.12-1.606
		c0-1.101-0.951-1.687-1.826-2.05c-1.096-0.515-2.27-0.954-3.441-1.249c-7.023-1.536-14.272-1.39-21.444-1.459
		c-7.095-0.077-14.268,1.099-21.223,2.706c-7.025,1.603-14.125,3.001-21.224,4.462c-8.639,0.143-16.979,2.268-25.541,3.078
		c-6.885,0.66-13.689,1.83-20.494,2.701c-0.812,0.143-1.682,0-2.414,0.666c-0.954,0.063-1.904,0.144-2.856,0.216
		c-0.219,0-0.512,0-0.732,0c-6.734,0.736-13.538,1.392-20.271,2.194c-18.302,2.201-36.596,3.151-55.044,2.712
		c-8.557-0.15-16.977-1.097-24.954-4.47c-3.365-2.122-6.879-4.021-9.517-7.168c4.029,1.683,8.056,3.366,12.299,4.39
		c21.438,5.42,43.257,6.001,65.138,4.097c7.396,0,14.71-1.24,22.102-1.907c11.934-1.095,23.862-2.849,35.646-5.048
		c13.614-2.559,27.082-5.412,40.624-8.265c4.898-1.027,9.734-2.415,15.366-3.81c-11.343-1.9-21.737-3.583-32.128-5.419
		c-10.835-1.896-21.669-3.947-32.573-5.92c-0.438-0.075-0.879-0.075-1.387-0.148c-0.296-0.219-0.514-0.365-0.806-0.583
		c-2.268-0.081-4.172-1.031-6.148-1.983c0.73-1.31,1.908-0.949,3.004-0.872c11.49,0.872,22.903,1.754,34.247,3.438
		c10.393,1.536,20.785,3.222,31.182,4.826c1.167,0.224,2.412,0.224,3.583,0.37c0.294,0.217,0.591,0.513,0.88,0.576
		c9.223,1.547,18.52,2.647,27.595,4.619c10.612,2.274,20.42,0.656,30.08-3.664c3.146-1.385,4.32-4.021,5.418-6.873
		c0.513-1.24-0.15-1.904-1.391-1.831c-1.098,0-2.198,0.073-3.218,0.293C106.715,89.495,92.154,92.202,77.219,91.253z"/>
	<path fill="#7A7A7A" d="M47.801,143.95c1.243-1.24,2.856-1.755,4.538-2.046c2.996,2.194,6.658,3.145,9.436,5.777
		c1.686,1.61,3.151,4.979,5.494,3.952c2.268-0.946,1.537-4.464,1.904-6.95c0.584-3.805,0.141-8.126,4.466-10.39l0.218-0.078
		l0.145,0.146c4.321-0.067,7.76,2.419,11.566,3.95c2.195,0.883,4.902,2.57,6.66,0.15c1.683-2.194-0.659-4.249-1.904-6.075
		c-0.146-0.151-0.077-0.434-0.146-0.735c5.562,1.027,10.903,2.491,16.465,3.001c3.666,0.361,5.274-0.807,5.784-4.248
		c0.588-4.094-0.222-7.168-4.614-8.489c-0.73-0.219-1.313-0.951-1.971-1.46c0.066-0.44,0.066-0.88,0.144-1.39h-0.077
		c0.368,0,0.734-0.076,1.174-0.076c5.563-0.229,11.196,1.464,16.759-0.445c0.223,0.217,0.367,0.374,0.586,0.585
		c-1.753,3.227-3.731,6.302-5.27,9.589c-12.949,28.549-26.64,56.801-37.913,86.076c-2.346,6.002-5.925,10.17-12.002,12.878
		c-5.786,2.497-10.979,6.222-16.396,9.521c-6.514,4.021-12.224,9.068-19.541,11.998c-16.688,6.736-33.159,13.981-51.456,15.371
		c-5.925,0.441-11.783,2.268-17.712,0.809c-4.391-1.029-8.704-2.198-13.097-2.855c-0.953-0.146-1.683-0.363-1.828-1.461
		c-0.37-2.93-2.2-5.054-3.732-7.322c1.607-0.072,1.607-0.876,1.243-2.194c-0.438-1.684-1.031-3.514,0.364-5.124
		c1.687,2.268,3.296,4.682,5.125,6.874c1.536,1.832,3.363,2.271,4.903-0.139c1.172-0.806,1.467-0.224,1.977,0.881
		c0.514,1.166,1.532,2.406,3.075,1.529c1.242-0.729,2.707-1.681,2.27-3.653c-0.15-0.659-0.22-1.396-0.365-2.051
		c2.71,0.506,3.442,3.214,5.121,4.828c3.883,3.732,6.005,3.515,8.782-1.023c0.587,0,1.102,0,1.683-0.075
		c4.103,0,7.979-0.659,10.542-4.394c1.323,1.246,1.464,2.928,1.615,4.611c0.07,0.881,0.581,1.244,1.388,1.464
		c0.658,0.15,0.95-0.437,0.95-0.804c0.292-3.147,2.343-3.441,4.829-3.002c5.642,4.099,6.151,4.027,9.438-0.729
		c0.438-0.221,0.956-0.66,1.321-0.516c4.172,1.245,5.712-1.318,6.732-4.609c2.567-8.343,2.639-17.198,4.755-25.617
		c0.88,0.369,0.147,2.274,1.685,2.121c0.297,0.662,0.659,1.323,0.877,1.977c1.687,4.613,2.343,4.759,5.861,1.684
		c0.217,4.609-2.344,8.716-2.857,14.125c0.656-1.168,0.88-1.461,1.026-1.758c6.001-16.608,11.414-33.44,16.612-50.354
		c2.271-7.173,3.368-14.343,2.271-21.811c-0.518-2.122,0.803-4.093,0.513-6.219c0.727-1.685,0.14-3.364,0.073-4.975
		c1.097-1.685,0.95-3.368-0.073-5.052C46.995,147.827,46.849,145.784,47.801,143.95z M57.46,225.925
		c0.296-0.664,0.585-1.317,0.953-1.979c11.198-26.126,22.321-52.258,33.448-78.384c0.366-0.809,1.319-1.979,0.22-2.637
		c-1.392-0.807-1.835,0.81-2.345,1.687c-3.511,6.22-6.438,12.808-9.296,19.393c-8.34,19.542-17.419,38.792-22.61,59.505
		C57.756,224.31,57.606,225.118,57.46,225.925c0,0.072-0.07,0.143-0.147,0.219C57.39,226.068,57.39,225.995,57.46,225.925z
		 M99.914,148.343c-1.099,0.582-1.314,1.684-1.538,2.854c-0.513,0.955-1.099,1.904-1.608,2.858
		c-10.101,18.661-16.834,38.716-24.523,58.4c-0.509,1.392-1.753,2.709-1.24,5.199c0.81-1.756,1.389-2.779,1.828-3.884
		c4.539-10.754,9.152-21.439,13.692-32.195c4.169-9.957,8.121-19.98,12.218-30.015C99.396,150.538,99.987,149.587,99.914,148.343
		c0.22-0.225,0.37-0.516,0.587-0.73c-0.149-0.082-0.298-0.155-0.367-0.293C100.06,147.677,99.987,147.978,99.914,148.343z
		 M65.732,159.248c-6.004,10.022-22.398,59.571-20.274,70.771C52.699,206.314,60.902,183.255,65.732,159.248z M68.147,223.438
		c-0.077,0-0.22,0-0.22,0.069c-0.073,0.077-0.073,0.22-0.073,0.294c0.146,0,0.293-0.074,0.439-0.074
		C68.22,223.657,68.22,223.507,68.147,223.438z M101.081,145.266c-0.069,0-0.144,0-0.144,0.074c-0.073,0.069-0.073,0.22-0.073,0.297
		c0.147,0.29,0.217,0.218,0.294-0.077C101.154,145.487,101.154,145.409,101.081,145.266z M70.488,218.605
		c-0.077-0.22-0.145-0.438-0.221-0.589c-0.069,0.077-0.219,0.151-0.219,0.296c0,0.217,0.079,0.434,0.079,0.656
		C70.267,218.82,70.414,218.746,70.488,218.605z M69.097,221.75c-0.069-0.217-0.141-0.365-0.218-0.584
		c-0.077,0.073-0.299,0.15-0.299,0.219c0.08,0.218,0.149,0.438,0.222,0.588C68.884,221.893,69.028,221.823,69.097,221.75z"/>
	<path fill="#272424" d="M-54.661,253.737c1.531,2.268,3.36,4.466,3.728,7.322c0.149,1.098,0.877,1.313,1.831,1.463
		c4.463,0.654,8.783,1.824,13.098,2.853c5.933,1.393,11.86-0.363,17.711-0.807c18.303-1.392,34.768-8.635,51.454-15.37
		c7.247-2.93,13.029-7.979,19.543-12c5.424-3.298,10.614-7.024,16.394-9.52c6.074-2.631,9.659-6.879,12.003-12.88
		c11.345-29.273,24.959-57.527,37.917-86.076c1.533-3.287,3.505-6.362,5.271-9.587c0.289-0.214,0.582-0.37,0.872-0.588
		c0.218,0.218,0.442,0.374,0.588,0.588c-1.685,4.688-5.053,8.715-6.074,13.688c-13.031,24.372-22.545,50.354-33.302,76.043
		c7.756-2.122,12.734,2.193,17.785,6.294c2.415,1.974,4.979,3.879,7.536,5.714c1.901,1.393,3.738,2.63,6.369,2.926
		c4.318,0.508,6.149,4.099,6.738,7.974c0.654,4.98,2.339,8.784,6.95,11.566c4.32,2.564,3.51,7.977-1.101,9.949
		c-9,3.812-17.853,7.983-27.079,11.055c-6.955,2.272-14.494,3.366-21.884,3.08c-13.979-0.442-27.524,2.41-41.201,4.314
		c-12.885,1.76-25.77,2.268-38.866,0.437c-13.545-1.824-26.861-5.339-40.769-4.829c-5.56,0.225-10.757-3.145-16.25-4.536
		c-1.388-0.364-2.782-0.881-4.172-1.318c0.295-2.703,2.493-5.052,1.39-7.978c-0.067-1.101,0.732-1.9,1.246-2.706
		C-55.617,251.396-55.835,253.154-54.661,253.737z"/>
	<path fill="#F5CFD6" d="M-13.538-25.845c-0.289-2.201-2.411-1.546-3.655-1.979c-1.315-0.512-2.491-0.657-2.269-2.418
		c0.513,0,0.953,0,1.465,0c4.1,0.732,8.196,1.686,12.364,2.127c11.053,1.318,22.18,2.118,32.792,5.928
		c0.954-2.418-1.096-3.729-1.756-5.338c-3.295-7.765-8.125-14.207-16.839-16.471c-4.605-1.176-8.337-4.321-13.318-5.492
		c3.154,0.077,4.245-0.873,2.932-3.733c-0.369-0.802-0.295-1.974,0.655-2.634c0.146,1.324,0.804,2.488,2.05,2.783
		c8.13,1.611,14.127,7.248,21.154,10.907c4.026,2.117,8.347,3.218,12.37,5.198c1.536,0.722,3.149,1.385,3.95,3.067
		c-5.049-1.167-9.517-4.241-14.929-4.609c12.15,8.633,23.861,17.712,34.908,27.667c-2.485-6.587-6.512-12.006-11.854-16.467
		c-2.05-1.684-3.95-3.513-5.931-5.195c5.495,0.876,10.396,2.341,13.539,7.756c4.47,7.684,11.058,13.686,17.347,19.906
		c1.027,1.028,1.981,2.124,3.004,3.149c-3.809-0.583-7.103-2.632-9.954-4.978c-4.62-3.582-10.101-1.685-15.003-3
		c-0.44-0.148-1.027,0-1.171,0.585c-0.147,0.586,0.144,0.95,0.586,1.17c3.949,1.971,7.758,4.536,12.369,4.687
		c6.878,0.215,10.973,4.463,14.486,9.51c-6.658-0.734-13.023-3-19.829-2.854c8.196,2.854,16.539,5.488,24.809,7.978
		c1.757,0.51,3.368,1.174,1.534,3.075c-0.951,1.022-2.559,1.833-4.315,0.95c-2.927-1.534-5.855-2.928-8.78-4.392
		c-6.952-3.441-14.057-6.511-22.032-6.955c-0.361-4.683-1.537-6.147-5.927-7.17C28.402-6.011,15.451-8.357,2.79-11.943
		c-5.347-1.536-10.687-3.149-16.472-4.905c2.052-1.684,3.442-0.217,4.903-0.142c1.32,0.077,2.492,0.437,2.562-1.387
		c1.101-0.446,0.519-1.904,1.396-2.419c0.73,4.103,3.436,6.44,6.22,4.905c3.073-1.687,6.15-0.881,9.218-0.955
		c0.735,0,1.756,0.955,2.051-0.433c0.218-0.955-0.585-1.39-1.392-1.828c-4.094-2.492-8.416-4.104-13.171-4.54
		C-5.774-24.46-9.653-25.119-13.538-25.845z M21.673-39.17c0.077-0.073,0.14-0.146,0.219-0.146
		c-0.079-0.074-0.142-0.147-0.219-0.224c-0.077,0.077-0.224,0.224-0.297,0.297C21.45-39.242,21.596-39.242,21.673-39.17z"/>
	<path fill="#BDBCBC" d="M-116.071,131.508c4.391,4.022,9.732,5.27,15.446,5.782l0,0c1.019,1.392,2.414,1.605,4.024,1.469l0,0
		c0.585,0.652,1.313,0.804,2.195,0.727c1.092,0,1.899,0.293,2.196,1.466c1.172,0.948,2.487,1.684,4.022,1.465l0,0
		c0.219,0.727,0.807,0.876,1.463,0.727l0,0c-1.018,2.714-0.51,5.644-0.876,8.418c-0.219,1.837-0.073,4.175-2.633,4.616
		c-2.418,0.437-3.369-1.392-4.318-3.149c-1.175-2.191-1.828-4.536-2.271-6.882c-0.434-2.41-1.539-2.705-3.588-1.679
		c-3.515,1.679-6.804,3.803-10.611,4.897c-0.804,0.225-1.609,0.591-2.414,0.811c-6.368,1.534-8.782-0.658-7.391-7.102
		c0.219-1.172,0.73-2.342,0.289-3.803c-2.341,0.294-4.027,1.977-5.928,3.075c-5.267,2.856-8.193,1.974-10.685-3.446
		c-0.799-1.753-1.689-2.922-3.807-1.314c-1.606,1.179-3.583,2.124-5.266,0.297c-1.61-1.757-2.346-3.952-1.096-6.37
		c0.435-0.804,1.754-1.606,1.023-2.487c-0.804-1.091-2.273-0.514-3.373-0.15c-3.433,1.1-6.95,1.1-10.46,1.175
		c-2.268,0-3.441-0.957-3.297-3.295c0.077-0.584-0.07-1.241,0-1.831c0.813-4.248-1.311-6.438-4.828-8.492
		c-4.538-2.708-7.024-7.168-7.608-12.515c-0.145-1.095-0.072-2.273-0.437-3.223c-1.1-2.995-1.39-5.852,0.365-8.638
		c2.049,0.368,2.926,2.858,5.12,3.008c0.73,1.314,1.541,2.705,2.272,4.025c0.219,0.07,0.433,0.144,0.656,0.298l-0.073-0.081
		c0.29,0.441,0.659,0.803,0.95,1.249c1.101,1.385,1.83,3.069,3.514,3.952l-0.071-0.077c0.511,0.805,1.099,1.688,1.605,2.488
		c0.441,1.751,1.318,3.217,3.441,3.217c0.077,0.078,0.15,0.225,0.223,0.297c-0.146,1.095,0.51,1.313,1.46,1.313
		c2.195,1.462,4.54,2.491,7.101,2.928c1.684,1.464,3.588,2.782,5.71,2.858c4.246,0.219,7.684,2.414,10.755,4.611
		C-127.931,126.094-122.003,128.802-116.071,131.508z"/>
	<path fill="#110D0E" d="M1.689,148.416c4.541,2.122,9.44,0.725,14.128,1.904c3.074,0.291,6.149,0.948,9.152-0.446
		c0.874,0.446,1.68-0.949,2.632-0.066c-1.537,2.411-2.201,4.975-2.274,7.827c0,4.097-1.897,5.785-5.851,5.124
		c-4.905-0.804-9.587-2.271-13.101-6.215c-1.468-1.615-3.146-3.081-4.903-4.325c-4.319-3.141-7.028-2.268-9.225,2.784
		c-1.686,2.854-2.926,6.076-5.787,8.051c-4.678,1.312-6.654,0.148-9.729-5.783c-0.731,0.511-0.955,1.313-1.173,2.047
		c-3.072,3.657-6.442,7.028-11.124,8.639c-6.221,0.151-9.441-4.027-12.223-8.639c-1.245-2.047-2.27-3.001-4.391-1.314
		c-3.439,1.611-6.882,3.219-10.321,4.829c-8.706,1.464-9.807,0.517-10.243-8.485c-0.077-1.322-0.15-2.636-0.15-4.029
		c-0.146-3.148,2.195-2.93,4.028-2.491c3,0.808,6.365,1.533,8.781,3.295c5.638,4.175,11.639,3.002,17.563,1.903
		c5.782-1.1,11.272-3.663,17.42-3.295c1.541,0.078,3.072-0.589,4.467-1.39C-13.314,147.613-5.774,147.17,1.689,148.416z"/>
	<path fill="#F7E3E5" d="M-1.09-55.86c-0.953,0.736-1.026,1.833-0.659,2.634c1.319,2.863,0.219,3.88-2.925,3.733
		C0.228-48.24,4.033-45.177,8.646-44c8.709,2.264,13.463,8.708,16.831,16.471c0.736,1.683,2.706,2.99,1.761,5.338
		c-10.613-3.81-21.738-4.61-32.791-5.928c-4.174-0.517-8.27-1.396-12.371-2.128c0.957-1.094,2.277-0.732,3.442-0.732
		c5.123-0.073,10.25-0.144,15.368,0c2.634,0.077,3.298-0.95,3.222-3.362C3.89-41.665,0.083-45.544-7.09-45.615
		c-1.092,0-2.195,0.071-3.291,0c-4.533-0.515-8.055,0.435-9.446,5.56c-0.36,1.391-1.827,3.148-3.728,2.998
		c-1.908-0.142-2.195-2.119-2.714-3.511c-1.681-4.39-0.144-7.466,4.32-8.411c3.733-0.81,7.609-1.247,11.42-1.687
		c1.319-0.15,2.264-0.368,2.777-1.833c1.978-5.344,3.15-10.757,3.077-16.616c-0.077-3.95,0.218-7.974,2.412-11.57
		c0.44-0.723,0.807-1.526,1.832-1.526c-1.542,4.313-2.195,8.778-2.195,13.388c0,1.324-0.15,2.714,1.389,3.444
		C-2.332-62.227-1.972-59.078-1.09-55.86z"/>
	<path fill="#F5CFD6" d="M-180.405,52.468c-1.904,3.874-2.637,7.896-3.001,12.22c-0.438,4.392,1.245,7.388,4.464,9.953
		c10.76,8.856,21.742,17.492,32.201,26.717c7.978,6.947,16.249,13.538,24.23,20.417c0.804,0.728,1.459,1.607,2.123,2.484l0,0
		c-0.954,0-1.977,0-2.934,0c-0.215,0-0.431,0-0.727-0.073c-0.224-0.218-0.517-0.438-0.732-0.66
		c-7.613-3.436-15.148-6.877-22.764-10.323c-2.269-2.19-5.418-2.777-7.979-4.385c0.219-1.834-0.954-2.056-2.341-2.347
		c-1.467-0.361-2.858-1.095-0.294-2.778c-1.537,0.364-2.997-0.509-3.956,0.881c-0.436-0.07-0.873-0.881-1.389-0.146l0.069,0.077
		c0.737-0.515-0.069-0.955-0.069-1.465c1.172-1.464,0-1.318-0.877-1.318l0.073,0.07c0.141-1.247,0.511-2.635-1.097-3.219
		c-0.885-0.365-0.885,0.434-0.954,0.949c-0.511,0-0.954-0.882-1.463-0.14l0.066,0.067c0.669-0.509-0.066-0.877-0.066-1.389
		c0.655-2.562-1.39-3.37-2.927-4.544l0,0c0.071-1.025-0.368-1.686-1.323-2.044c-0.656-2.197-1.387-4.396-3.802-5.348
		c-1.246-1.904-2.491-3.802-3.659-5.706c-0.219-0.291-0.513-0.582-0.731-0.804l0,0c0-0.587-0.073-1.171-0.735-1.468l0,0
		c0-0.653-0.069-1.169-0.735-1.467l0,0c0-0.65-0.142-1.167-0.731-1.454l0,0c-0.292-0.22-0.658-0.519-0.95-0.737
		c-1.827-1.98-2.632-4.101-2.045-6.878c0.582-2.564-0.512-5.051-1.979-7.179c-0.95-1.314-1.028-2.553,0.292-3.435
		C-185.091,55.32-183.333,52.901-180.405,52.468z"/>
	<path fill="#E794A1" d="M47.217,4.155c7.901,0.438,15.006,3.514,22.028,6.956c2.926,1.464,5.856,2.853,8.783,4.389
		c1.756,0.879,3.369,0.077,4.313-0.954c1.835-1.897,0.224-2.486-1.53-3.067c-8.343-2.492-16.614-5.125-24.814-7.984
		c6.813-0.218,13.253,2.051,19.836,2.86c8.568,1.687,17.203,3.364,23.718,9.957c0.51,0.509,1.24,0.726,1.903,1.091
		c1.531,2.123,4.758,2.715,5.119,5.856c-2.414-1.537-4.241-3.952-7.319-4.392c-5.708-3.147-12-1.027-18.006-1.609
		c-6.076-0.59-12.441-0.15-18.662-1.027c-7.246-1.023-14.564-2.194-21.807-3.287h-0.073c-0.37-0.591-0.88-0.665-1.542-0.591
		c-8.202-1.533-16.247-3.587-24.226-5.998c-0.945-0.294-2.195-0.584-2.122-2.052c0.222,0,0.439-0.071,0.657-0.144
		C24.745,2.544,35.946,3.863,47.217,4.155z"/>
	<path fill="#5F5F5F" d="M-54.661,253.737c-1.175-0.583-0.956-2.341-2.274-2.781c0.292-1.609-0.735-2.788-1.313-4.024
		c-2.564-5.564-4.61-11.196-5.341-17.345c-0.953-8.199-4.979-15.735-5.859-24.007c-0.804-7.759-2.557-15.298-4.462-22.832
		c-1.029-4.101,0.511-7.907,1.244-11.859c0.142-0.737,0.585-1.464,1.392-1.464c0.949,0.074,0.731,1.097,1.022,1.685
		c5.27,11.56,7.611,24.007,10.539,36.3c2.638,11.271,3.367,22.835,5.055,34.25c0.29,1.759,1.24,3.148,1.604,4.76
		c-1.389,1.611-0.803,3.441-0.363,5.124C-53.056,252.861-53.056,253.662-54.661,253.737z"/>
	<path fill="#5F5F5F" d="M-36.071,249.859c0.142,0.654,0.211,1.391,0.357,2.05c0.442,1.974-1.022,2.851-2.26,3.654
		c-1.542,0.877-2.567-0.365-3.08-1.53c-0.441-1.105-0.806-1.686-1.979-0.881c1.173-4.1-1.099-7.832-1.458-11.789
		c-0.731-7.315-1.91-14.639-2.859-21.957c0.146-1.023,0.366-2.048-0.365-2.997c-1.096-8.713-2.194-17.493-3.291-26.204
		c-0.219-4.467-1.1-8.856-0.586-13.322c2.122,0.66,2.781,2.635,3.583,4.319c3.809,7.759,6.296,15.884,7.101,24.594
		C-39.589,220.504-37.688,235.145-36.071,249.859z"/>
	<path fill="#BDBCBC" d="M-79.18,234.997c-1.026-7.241-3.518-14.118-5.345-21.146c-3.364-13.25-6.955-26.495-9-40.044
		c-0.224-1.605,0-2.843,1.39-4.243c2.782,4.609,4.099,9.594,5.631,14.494c5.71,18.153,10.105,36.668,14.788,55.188
		c0.291,1.17,0.441,2.411,0.291,3.582c-3.145,3.737-3.222,3.663-5.051-0.801C-77.355,239.681-78.228,237.335-79.18,234.997z"/>
	<path fill="#BDBCBC" d="M-51.591,176.887c-0.514,4.463,0.367,8.855,0.586,13.322c-0.949,1.022-0.659,2.341-0.513,3.511
		c0.513,4.463,1.391,8.857,1.755,13.241c0.223,2.498,1.755,5.061,0.294,7.62c-2.931-6.952-4.541-14.271-6.805-21.45
		c-2.711-8.635-5.201-17.342-7.316-26.197c-0.442-1.754-0.442-2.998,0.949-4.172c3.434-1.61,6.875-3.222,10.32-4.838
		c0.73,1.03,0.73,2.273,0.73,3.45C-51.591,166.57-51.591,171.692-51.591,176.887z"/>
	<path fill="#BDBCBC" d="M-113.583,159.538c13.976,26.277,18.886,55.04,27.594,82.922
		C-91.189,238.662-114.021,169.714-113.583,159.538z"/>
	<path fill="#E794A1" d="M-20.78,148.343c-1.387,0.798-2.929,1.465-4.459,1.389c-6.079-0.367-11.566,2.195-17.421,3.296
		c-6.006,1.101-11.93,2.271-17.563-1.903c-2.419-1.829-5.719-2.489-8.788-3.297c-1.754-0.437-4.1-0.657-4.026,2.493
		c-0.146-2.639-1.757-3.811-4.245-4.102c-3.296-0.434-6.074-2.778-9.512-2.999l0,0c-0.223-0.805-0.882-0.805-1.469-0.735l0,0
		c-1.091-1.242-2.415-1.687-4.021-1.466c-0.297-1.095-1.096-1.458-2.199-1.458c-0.582-0.665-1.315-0.88-2.192-0.736l0,0
		c-1.027-1.392-2.345-1.904-4.03-1.463l0,0c-0.069-2.638,1.542-1.101,2.342-0.805c5.417,1.685,10.76,3.655,16.47,4.538
		c7.684,1.098,15.294,2.485,22.979,3.586c1.242,0.218,2.346,0.726,3.443,1.028c1.461,4.389,4.686,6.072,9.514,5.335
		C-37.54,149.73-29.268,147.682-20.78,148.343z"/>
	<path fill="#5F5F5F" d="M-79.18,234.997c0.954,2.34,1.825,4.684,2.779,7.029c1.752,4.464,1.899,4.464,5.048,0.801
		c1.099,3.517,2.194,7.105,4.243,10.245c3.297,4.908,5.201,5.055,8.929,0.663c1.027,2.923-1.095,5.26-1.39,7.974
		c-5.342-1.465-10.463-3.508-15.953-4.463c-4.828-0.807-9.22-6.951-9.808-12.739c0.656,0.736,1.168,1.54,1.904,2.2
		c1.022,0.95,1.9,2.708,3.514,1.899c1.392-0.656,1.169-2.414,1.315-3.875C-78.159,241.365-79.916,238.294-79.18,234.997z"/>
	<path fill="#F7E3E5" d="M101.374,17.404c-0.654-0.364-1.387-0.581-1.899-1.09C92.96,9.721,84.401,8.041,75.755,6.356
		c-3.584-5.124-7.608-9.292-14.486-9.515C56.723-3.304,52.922-5.869,48.9-7.84c-0.442-0.22-0.735-0.586-0.586-1.178
		c0.144-0.583,0.73-0.726,1.171-0.583c4.902,1.391,10.383-0.576,15.003,3.001c2.927,2.272,6.146,4.321,9.954,4.978
		c5.634,4.166,12.809,5.34,18.66,9.075C96.841,9.796,100.934,12.06,101.374,17.404z"/>
	<path fill="#7A7A7A" d="M125.09,118.629c-0.295,0.217-0.587,0.363-0.879,0.582c-0.222-0.219-0.367-0.365-0.589-0.582
		c0.881-3.883-2.269-5.856-3.949-8.494c0.292-0.731,0.587-1.389,0.877-2.123c1.972,0.37,4.026,0.954,6.001,1.101
		c3.368,0.15,4.469-1.755,2.638-4.605c-1.395-2.199-3.004-4.398-5.202-5.932c0.298-0.22,0.66-0.514,0.951-0.737
		c4.097,1.024,8.275,2.055,12.373,3.074c0.654,0.957,0.581,1.688-0.589,2.128c-1.466,0.437-2.121,1.83-2.858,2.995
		c-0.437,0.732-2.48,1.322-0.512,2.636c0.154,2.415-1.605,3.962-2.633,5.71c-3.515,6.292-6.736,12.81-11.05,18.592
		c1.021-4.976,4.391-9,6.075-13.691c0.513-0.946,1.02-1.896,1.533-2.851c0.15-0.294,0.366-0.657,0.513-0.951
		c0.661-0.218,0.805-0.733,0.883-1.389c0.361-0.154,0.582-0.368,0.218-0.66c-0.147,0.146-0.218,0.365-0.365,0.509
		c-0.658,0.3-0.882,0.808-0.735,1.468c-0.586-0.067-0.655,0.297-0.8,0.664C125.894,116.574,125.527,117.605,125.09,118.629z"/>
	<path fill="#F7E3E5" d="M40.628-32.508c1.978,1.758,3.877,3.584,5.932,5.196c5.411,4.393,9.37,9.879,11.854,16.467
		C47.362-20.8,35.653-29.946,23.5-38.512c5.418,0.368,9.81,3.441,14.932,4.61C39.164-33.466,39.892-32.95,40.628-32.508z"/>
	<path fill="#BDBCBC" d="M-112.337,198.626c4.314,12.804,11.12,24.737,13.683,38.129c0.224,1.242,0.884,2.997-0.656,3.587
		c-1.461,0.513-1.757-1.392-2.193-2.344c-2.639-5.335-4.684-10.76-5.34-16.832C-107.728,213.404-110.583,206.162-112.337,198.626z"
		/>
	<path fill="#F7E3E5" d="M99.177,18.791c3.074,0.442,4.979,2.86,7.321,4.392l0,0c0.294,0.662,0.514,0.593,0.804,0
		c2.487,1.253,2.05,3.591,2.196,5.786c-0.513,0.222-1.313-2.048-1.537,0.069c-0.146,1.693,0.077,3.368,0,5.054
		c-0.072,1.539-0.216,3.219-2.12,3.809c-0.222-2.341,0.731-4.542,1.101-6.813c0.36-2.557-1.761-7.025-3.884-7.025
		C98.886,24.139,99.037,21.652,99.177,18.791z"/>
	<path fill="#110D0E" d="M137.314,100.836c-4.098-1.016-8.274-2.041-12.372-3.067c2.64-1.463,5.2-2.857,7.841-4.315
		c1.524,1.75,2.994,3.582,4.531,5.341C137.896,99.523,138.409,100.18,137.314,100.836z"/>
	<path fill="#BDBCBC" d="M-116.071,216.189c3.296,5.705,4.681,12.147,7.901,17.932c-1.825-0.733-3.363-2.491-6.805-7.762
		C-117.02,223.145-115.268,219.482-116.071,216.189z"/>
	<path fill="#F5CFD6" d="M-1.164-65.447c-1.537-0.655-1.392-2.043-1.392-3.438c-0.07-4.609,0.583-9.074,2.195-13.393l0,0
		c0.224-0.22,0.442-0.509,0.664-0.727c0.219-1.904,1.682-3.23,2.559-4.764c0.291-0.508,0.878-1.023,1.465-0.659
		c0.584,0.362,0.437,1.023,0.145,1.615c-0.222,0.431-0.366,0.954-0.661,1.31C-0.799-79.5-0.799-72.472-1.164-65.447z"/>
	<path fill="#F7E3E5" d="M-49.469,214.578c1.461-2.559-0.069-5.122-0.294-7.62c-0.364-4.458-1.242-8.85-1.755-13.241
		c-0.146-1.169-0.434-2.414,0.513-3.511c1.097,8.71,2.195,17.49,3.291,26.203c-0.294-0.077-0.659-0.218-0.954-0.295l0,0
		C-48.88,215.532-49.177,215.087-49.469,214.578L-49.469,214.578z"/>
	<path fill="#F7E3E5" d="M-176.014,86.129c2.414,0.953,3.073,3.153,3.806,5.348c0.141,0.877,0.219,1.753,1.314,2.044l0,0
		c0,0.514,0.073,1.1,0.073,1.61c-2.195-0.146-3.073-2.635-5.121-3C-176.014,90.085-176.014,88.112-176.014,86.129z"/>
	<path fill="#F5CFD6" d="M-37.754-56.659c-0.441,3.369-3.81,2.415-5.641,3.655c-0.583,0.364-1.61,0.07-2.42,0
		C-43.536-55.052-40.759-56.151-37.754-56.659z"/>
	<path fill="#110D0E" d="M133.287,108.6c-1.978-1.245,0.07-1.904,0.514-2.632c0.728-1.174,1.391-2.491,2.855-3.003
		C135.553,104.87,134.457,106.696,133.287,108.6z"/>
	<path fill="#BDBCBC" d="M-48.666,216.039c0.292,0.072,0.657,0.224,0.953,0.291c0.806,0.951,0.588,1.981,0.366,3.005
		C-49.25,218.897-48.519,217.282-48.666,216.039z"/>
	<path fill="#F7E3E5" d="M111.693,37.824c0-0.441-0.072-0.955-0.072-1.39c0.072-0.805,0.148-1.611,0.221-3.295
		C113.449,35.409,112.354,36.576,111.693,37.824z"/>
	<path fill="#7A7A7A" d="M117.772,63.368c-1.32-0.22-1.978-1.097-2.341-2.2C116.745,61.319,117.333,62.271,117.772,63.368z"/>
	<path fill="#F7E3E5" d="M110.16,32.626c-1.101-1.023-0.513-2.411-0.583-3.656C110.601,30.068,110.007,31.457,110.16,32.626z"/>
	<path fill="#F7E3E5" d="M110.817,36.436c-0.952-0.876-0.588-1.98-0.588-2.998C111.18,34.309,110.817,35.409,110.817,36.436z"/>
	<path fill="#F7E3E5" d="M-115.268,190.063c0.512,0.361,0.804,0.804,0.585,1.456c0,0.082-0.146,0.151-0.291,0.225
		C-115.043,191.157-115.194,190.646-115.268,190.063L-115.268,190.063z"/>
	<path fill="#F7E3E5" d="M-117.17,185.229c-0.073-0.224-0.073-0.289-0.141-0.438c0.069,0,0.141-0.073,0.293-0.073
		C-117.02,184.865-117.098,185.005-117.17,185.229z"/>
	<path fill="#BDBCBC" d="M-181.138,78.076c0.661,0.293,0.736,0.879,0.736,1.469C-180.993,79.25-181.211,78.733-181.138,78.076z"/>
	<path fill="#BDBCBC" d="M-181.87,76.616c0.658,0.286,0.731,0.88,0.731,1.46C-181.87,77.855-181.942,77.269-181.87,76.616z"/>
	<path fill="#BDBCBC" d="M-182.598,75.156c0.583,0.29,0.73,0.876,0.73,1.46C-182.598,76.392-182.598,75.812-182.598,75.156z"/>
	<path fill="#F7E3E5" d="M-116.437,187.35c0-0.07-0.077-0.218-0.077-0.294c0.077,0,0.225-0.073,0.296-0.073
		C-116.071,187.208-116.148,187.35-116.437,187.35z"/>
	<path fill="#F7E3E5" d="M-115.268,190.063c-0.146-0.293-0.365-0.512-0.511-0.809c0,0,0.146-0.148,0.292-0.215
		C-115.413,189.4-115.337,189.694-115.268,190.063L-115.268,190.063z"/>
	<path fill="#F7E3E5" d="M-113.948,193.645c0,0.072-0.073,0.224-0.073,0.293c-0.072-0.066-0.223-0.218-0.295-0.293
		c0.072-0.073,0.149-0.15,0.223-0.214C-114.095,193.494-114.021,193.572-113.948,193.645z"/>
	<path fill="#F5CFD6" d="M-132.833,1.965c-0.294,0.583-0.805,0.734-1.466,0.734C-134.003,2.109-133.49,1.891-132.833,1.965z"/>
	<path fill="#BDBCBC" d="M-180.405,79.546c0.219,0.293,0.517,0.584,0.727,0.805C-179.965,80.13-180.184,79.839-180.405,79.546z"/>
	<path fill="#F5CFD6" d="M-134.299,2.699c-0.219,0.215-0.509,0.431-0.731,0.73C-134.806,3.13-134.584,2.912-134.299,2.699z"/>
	<path fill="#E794A1" d="M107.302,23.183c-0.29,0.593-0.51,0.662-0.804,0C106.715,23.183,107.012,23.183,107.302,23.183z"/>
	<path fill="#BDBCBC" d="M-183.552,74.421c0.293,0.22,0.658,0.513,0.954,0.737C-182.895,74.932-183.261,74.641-183.552,74.421z"/>
	<path fill="#F5CFD6" d="M-132.103,1.23c-0.219,0.22-0.438,0.515-0.731,0.734C-132.613,1.672-132.391,1.45-132.103,1.23z"/>
	<path fill="#BDBCBC" d="M-49.392,214.578c0.218,0.509,0.512,0.954,0.727,1.461C-48.88,215.532-49.177,215.087-49.392,214.578z"/>
	<path fill="#F5CFD6" d="M-131.441,0.354c-0.219,0.295-0.441,0.582-0.732,0.876C-131.885,0.935-131.662,0.649-131.441,0.354z"/>
	<path fill="#F7E3E5" d="M0.304-83.009c-0.222,0.22-0.44,0.509-0.664,0.729C-0.139-82.5,0.083-82.718,0.304-83.009z"/>
	<path fill="#FFFFFF" d="M-50.933,118.846c-21.958,1.827-43.697,1.247-65.14-4.1c-4.247-1.093-8.269-2.777-12.294-4.384
		l-0.077-0.076c-1.825-2.638-4.245-4.465-7.243-5.562c1.469-1.395,0.95-2.417-0.293-3.886c-3.225-3.581-7.396-5.854-11.272-8.417
		c-4.683-3.078-8.489-7.024-11.785-11.199c-4.026-5.044-7.828-10.384-10.542-16.462c-1.385-3.145-2.194-6.001,0.3-8.786
		c1.096-1.314,0.291-3.656,2.558-4.17c0,4.904,0.59,9.659,2.272,14.268c2.269,6.079,6.733,10.403,11.196,14.571
		c5.71,5.337,11.566,10.537,17.859,16.248c-0.22-1.978-1.173-2.423-1.829-3.077c-6.293-6.436-12.293-13.098-18.002-20.053
		c-8.203-9.95-9.004-12.957-6.151-25.174c1.095,5.563,3.077,9.953,5.706,13.978c0.081,1.092,0,2.196,1.464,2.342
		c0.081,0.657-0.142,1.469,0.659,1.754c0.153,0.077,0.586-0.285,0.664-0.509c0.146-0.95-0.513-1.167-1.244-1.321
		c0.071-1.386-0.373-2.636-1.394-3.656c-2.123-6.225-3.217-12.521-1.831-19.097c2.491,2.481,5.633,3.582,8.857,4.529
		c1.099,1.613,2.268,1.98,3.66,0.369c0,6.442,4.022,9.807,9.292,12.447c-0.66-2.638-1.683-5.058-2.71-7.542
		c-1.022-2.561-1.385-5.485-0.217-7.765c1.242-2.407,5.047-2.407,6.443-5.191c0.068-0.217,1.31,0.22,1.973,0.366
		c1.168,0.218,2.342,0.507,3.514,0.804c0.068,0.518,0.068,1.171,0.877,1.101c0.073,0,0.222-0.15,0.222-0.22
		c0.069-0.8-0.586-0.8-1.099-0.881c-2.049-2.415-4.027-4.825-6.078-7.175c-1.169-1.238-2.415-2.63-4.17-0.723
		c-0.217,0.212-0.438,0.358-0.658,0.579l0,0c-1.83-0.07-2.269,1.905-3.661,2.494c0.37-3.004-1.241-3.586-3.73-3.072
		c-2.71,0.579-5.418,1.306-8.128,1.896c-1.167,0.296-2.561,0.364-3.22-0.947c-0.727-1.464,0.368-2.415,1.322-3.078
		c3.369-2.126,5.709-5.565,9.588-7.029c1.314-0.513,2.269-0.657,3.292,0.438c0.95,1.023,1.1,2.12,0.438,3.37
		c-0.365,0.66-0.877,1.246-0.877,1.904c-0.073,1.101,0.731,1.828,1.684,2.194c1.099,0.368,1.531-0.442,1.753-1.319
		c2.341-8.488,10.247-7.831,16.471-10.024c1.096-0.367,1.46,0.733,2.123,1.469c5.345,6.51,8.996,14.053,12.882,21.442
		c0.51,0.955,0.51,2.341,1.83,2.487c1.462,0.071,0.947-1.391,1.385-2.195c0.733-1.39,1.469-1.246,2.564-0.218
		c2.048,1.831,2.706,4.537,4.247,6.731c4.388,6.225,7.829,13.03,11.051,19.907c4.1,8.788,11.634,14.487,18.007,21.223
		c0.437,0.446,0.949,0.954,1.535,0.446c0.587-0.446,0.365-1.1,0-1.686c-5.563-9.076-10.029-18.813-15.812-27.743
		c-2.926-4.46-6.216-8.56-10.101-12.293c-7.318-7.026-12.001-16.024-16.833-24.734c-3.441-6.149-5.855-12.736-8.711-19.178
		c-0.437-0.957-1.389-1.982-0.294-3.004c0.954-0.873,2.054-1.024,3.369-0.509c2.708,0.954,5.124,2.557,7.977,3.218
		c1.463,0.362,2.634,1.532,2.928,3.368c1.392,8.265,7.17,13.54,12.884,18.813c10.833,9.807,23.198,17.416,35.714,24.954
		c8.785,5.345,18.011,9.66,27.157,14.198c4.022,1.976,8.201,3.877,12.147,6.148c-16.682-4.392-31.614-12.738-46.477-21.153
		c5.639,5.559,13.031,8.563,18.668,14.271c-2.784-1.313-5.563-2.485-8.201-3.881c-3.512-1.823-6.952-3.947-10.539-5.775
		c-1.022-0.514-2.191-1.464-3.653-0.294c-1.396,1.021-2.417-0.367-3.443-1.17c-4.905-3.733-9.738-7.538-14.568-11.347
		c-0.219,0.22-0.433,0.37-0.73,0.585c1.685,2.124,3.218,4.393,5.12,6.371c5.564,5.785,10.178,12.296,15.302,18.438
		c7.903,9.589,13.246,20.717,18.735,31.69c1.465,2.927,0.142,4.1-1.983,4.979c-10.165,4.396-20.193,9.221-31.615,9.588
		c-0.141,0-0.362,0.221-0.729,0.515c10.614,0.876,20.565-1.324,30.449-4.611c7.097-2.418,14.198-5.044,21.297-7.463
		c1.907-0.661,3.001,0.29,3.659,1.972c0.584,1.396,0.291,2.854,0.369,4.323c-7.393,2.997-15.079,5.191-22.763,7.382
		C-48.666,117.304-50.345,117.161-50.933,118.846z"/>
	<path fill="#F5CFD6" d="M-20.78,148.343c-8.488-0.661-16.758,1.389-25.032,2.636c-4.823,0.732-8.123-0.878-9.508-5.342
		c5.194-1.396,10.388-2.787,15.514-4.321c3.583-1.023,7.17-2.05,10.611-3.512c9.296-3.951,19.179-4.831,29.059-5.634
		c9.515-0.731,19.027-1.904,28.471-2.712c4.462-0.367,8.926-0.29,13.388-0.807c4.248-0.513,6.008-2.773,3.954-6.582
		c-2.854-5.206-7.025-9.15-12.367-11.783c7.099-1.465,14.198-2.858,21.224-4.469c7.023-1.607,14.128-2.711,21.223-2.711
		c7.103,0.083,14.348-0.066,21.444,1.471c1.172,0.294,2.346,0.727,3.441,1.24c0.875,0.363,1.905,0.95,1.826,2.048
		c0,1.172-1.244,1.319-2.12,1.613c-7.317,2.338-14.93,3.074-22.471,4.241c-7.028,1.104-14.197,1.538-21.371,2.932
		c3.655,1.023,7.393,2.044,11.055,2.996c3.874,1.024,7.759,1.904,11.633,3.001c2.051,0.588,3.879,1.465,3.952,4.169
		c0.071,2.856-1.974,3.884-4.025,4.47c-4.538,1.318-9.147,2.34-13.758,3.437c-8.056,1.904-15.812,4.761-23.423,7.907
		c-7.246,3.002-14.928,2.853-22.467,4.245c-5.929,1.023-11.927-0.292-17.708,1.392C-5.774,147.17-13.314,147.613-20.78,148.343z"/>
	<path fill="#F5CFD6" d="M99.177,18.791c-0.141,2.86-0.291,5.348,3.881,5.271c2.119,0,4.244,4.469,3.881,7.025
		c-0.367,2.271-1.321,4.396-1.098,6.813v-0.077c-1.104,0-1.537,0.586-1.464,1.609c-4.761,9.297-15.962,13.538-25.549,9.88
		c-9.734-3.733-19.47-7.319-29.205-10.977c-1.24-0.437-2.633-0.514-3.874-0.737c-0.297-0.364-0.513-1.096-0.803-1.096
		c-8.126-0.368-15.668-3.736-23.644-4.609c-4.756-0.513-9.075-2.49-13.539-4.031c-0.804-0.29-1.539-0.803-1.539-1.828
		c1.247,0,2.417,0,3.661,0c0.73,0.368,1.466,0.881,2.27,1.028c6.586,1.391,13.171,3.221,19.904,3.875
		c4.545,0.446,9.004,1.761,13.689,1.761c5.639,0,11.272,1.022,16.905,1.754c5.199,0.666,10.317,1.319,15.591,1.027
		c0.729-0.074,1.535,0,1.757-0.877c0.222-0.882-0.513-1.389-1.174-1.538c-1.9-0.441-3.51-1.538-5.336-2.128
		c-2.419-0.807-5.348-0.437-7.179-2.778c1.101-1.095,3.88-0.95,3.223-3.146c-0.583-1.978-2.932-1.096-4.536-1.096
		c-8.567-0.076-17.204-0.076-25.769-0.076c-2.045-2.05-6.293-0.437-7.322-4.245c3.666,0.368,7.398,0.654,11.06,1.027
		c0-0.151,0.069-0.295,0.069-0.509c-4.684-1.178-9.368-2.345-14.121-3.522c0.291-0.583,0.218-0.73-0.662-1.097
		c3.951-1.904,8.418-1.39,12.52-2.705c7.243,1.101,14.487,2.268,21.807,3.295c6.221,0.876,12.518,0.507,18.663,1.019
		C87.175,17.774,93.468,15.647,99.177,18.791z"/>
	<path fill="#FFFFFF" d="M9.889,26.113c-1.247,0-2.415,0-3.659,0c-16.468-4.242-32.354-10.684-49.329-13.32
		c-5.202-0.8-9.52-3.951-14.353-6.005c-0.8-0.362-1.535-1.314-3.146-0.436c3.593,3.95,7.103,7.832,12.079,9.512
		c6.884,2.273,14.198,3.437,20.863,6.151c6.363,2.56,12.074,6.659,18.219,9.799c6.952,3.592,12.953,8.275,18.881,13.4
		c-4.754-0.297-8.78-2.706-13.021-4.247c-7.174-2.634-13.468-7.1-20.423-10.242c-1.828-0.809-3.656-1.322-5.642-0.661
		c-3.214,1.02-6.655-0.073-9.95,0.661c0.073,1.753,2.122,1.467,2.191,3.142c-5.047-0.73-9.219-3.22-13.241-5.711
		c-7.465-4.682-14.642-9.876-22.102-14.562c-2.273-1.466-3.587-3.876-6.006-5.048c-0.217-0.222-0.513-0.515-0.732-0.734l0,0
		c-0.071-1.391-0.658-2.274-2.198-2.195l0,0c0.441-1.395-0.73-2.197-1.242-3.224c-3.217-5.932-6.075-11.929-3.441-18.877
		c2.929-1.324,4.975-4.251,8.201-5.132c1.973-0.582,3.88-2.337,6.077-0.433c0,1.314-0.143,2.705-0.073,4.022
		c0.29,3.736,0.731,7.469,4.39,9.806C-61.475-0.973-52.91,2.76-44.563,6.635c13.683,6.302,27.885,11.131,42.52,14.713
		c3.732,0.954,7.543,1.538,11.422,1.904c2.121,0.218,0.804,0.95,0.581,1.684c0.733,0.873,1.834,0.439,2.71,0.737
		C11.937,26.481,10.839,25.967,9.889,26.113z"/>
	<path fill="#FFFFFF" d="M-17.927,117.02c0.956-0.078,1.907-0.156,2.856-0.222c2.856,1.463,5.784,2.851,8.638,4.317
		c1.102,0.585,2.417,1.174,2.047,2.635c-0.288,1.25-1.606,1.606-2.778,2.047c-2.411,1.023-5.049,0.881-7.539,1.023
		c-10.465,0.88-20.857,2.714-31.32,3.884c-13.106,1.465-25.909,0.654-38.501-3.223c-3.076-0.951-6.152-2.415-9.584-1.904
		c-0.736-2.341-2.491-2.268-4.396-1.606c1.466,0.513,2.931,1.096,4.396,1.606c7.17,2.926,14.048,6.592,22.534,8.705
		c-3.219,1.248-5.56,0.304-7.535-0.139c-5.854-1.241-11.712-1.608-17.563-2.636c-5.567-0.949-10.54-3.511-15.957-4.903
		c-4.173-1.097-5.05-5.492-6.368-9.151c7.978,3.364,16.397,4.32,24.954,4.462c18.375,0.374,36.745-0.51,55.044-2.707
		c6.733-0.804,13.537-1.464,20.271-2.19C-18.438,117.384-18.147,117.304-17.927,117.02z"/>
	<path fill="#F5CFD6" d="M-50.933,118.846c0.663-1.685,2.268-1.604,3.659-1.982c7.685-2.19,15.371-4.383,22.766-7.382
		c3.438,0.735,6.293-1.318,9.369-2.273c7.683-2.414,15.588-4.389,22.977-7.683c2.708-1.172,2.858-2.413,0.731-4.392
		c-2.483-2.268-5.415-3.66-8.559-4.61c-1.317-0.438-1.828-0.951-1.828-2.195c10.834,1.971,21.664,4.027,32.563,5.924
		c10.399,1.831,20.789,3.515,32.133,5.419c-5.705,1.391-10.537,2.779-15.367,3.805c-13.539,2.857-27.008,5.711-40.624,8.27
		c-11.78,2.192-23.634,3.957-35.642,5.054C-36.223,117.605-43.536,118.846-50.933,118.846z"/>
	<path fill="#FFFFFF" d="M-66.231-27.751c-0.069-1.391,0.734-2.195,1.76-3.001c3.587-2.711,7.022-2.931,10.899-0.516
		c5.785,3.659,12.3,5.858,18.666,7.981c3.442,1.099,6.002,3.218,7.685,5.704C-22.314-10.258-15.07-6.97-7.381-3.747
		c6.069,2.49,12.438,4.178,18.953,6.955C8.935,5.04,6.815,3.649,4.908,3.276C-6.288,0.864-17.487-1.919-28.685-4.329
		c-6.292-1.396-11.564-4.614-16.979-7.835c-4.76-2.85-9.515-5.706-14.27-8.638c-1.025-0.588-2.051-0.655-3.151-0.655
		c0-1.462,0-2.931,0-4.396c0.66-0.8,0.736-1.534-0.218-2.195C-64.325-29.069-65.201-27.971-66.231-27.751z"/>
	<path fill="#F5CFD6" d="M77.219,91.253c14.935,0.95,29.496-1.758,44.061-4.76c1.024-0.217,2.197-0.287,3.224-0.287
		c1.244,0,1.83,0.584,1.391,1.824c-1.099,2.86-2.271,5.491-5.418,6.882c-9.659,4.318-19.542,5.924-30.079,3.662
		c-9.076-1.978-18.371-3.073-27.592-4.616c-0.294-0.066-0.584-0.361-0.879-0.586c3.58-1.825,7.319-2.558,11.345-1.755
		C74.587,91.984,75.979,92.499,77.219,91.253z"/>
	<path fill="#F5CFD6" d="M39.237,53.125c2.051,2.483,0.735,5.047,0,7.532c-0.438,1.47-1.389,0.879-2.343,0.733
		c-12.512-1.824-24.811-4.683-36.961-8.052c-10.538-2.925-21.08-5.855-31.032-10.313c0.877-1.25,2.268-0.95,3.368-0.733
		c15.008,3.724,30.377,5.118,45.525,8.335c5.486,1.174,11.198,1.611,16.686,3.155C35.873,54.222,37.774,54.584,39.237,53.125z"/>
	<path fill="#F5CFD6" d="M56.727,78.813c9.809,0.437,19.545,1.977,29.423,1.538c7.104-0.297,12.665-2.854,16.469-9.004
		c0.439-0.737,0.81-1.607,1.465-2.051c1.827-1.169,3.511-4.027,5.854-2.342c2.347,1.616,2.929,4.83,1.173,7.246
		c-4.687,6.297-10.827,10.762-18.81,11.856c-7.979,1.101-15.961,0.073-23.935-0.078c-2.197-2.852-5.781-3.427-8.783-4.976
		C58.487,80.496,56.949,80.496,56.727,78.813z"/>
	<path fill="#E794A1" d="M-157.2,42.075c-1.396,6.577-0.295,12.873,1.823,19.098c-0.071,0.441-0.142,0.954-0.213,1.391
		c-2.709-4.025-4.689-8.415-5.709-13.979c-2.861,12.219-2.052,15.224,6.145,25.176c5.706,6.956,11.71,13.618,18.004,20.053
		c0.662,0.653,1.539,1.098,1.834,3.075c-6.297-5.709-12.156-10.911-17.862-16.247c-4.536-4.25-8.932-8.493-11.196-14.571
		c-1.756-4.677-2.268-9.439-2.268-14.268c0.654-5.707,2.633-10.832,6.439-15.15c0.653-0.734,1.245-2.121,2.559-1.244
		c1.023,0.73,1.611,1.754,1.314,3.145C-156.69,39.728-156.909,40.9-157.2,42.075z"/>
	<path fill="#E794A1" d="M12.743,25.526c-0.879-0.29-1.977,0.154-2.704-0.723c9.73-0.301,19.47-0.593,29.125-0.883
		c8.566,0,17.206,0,25.763,0.073c1.609,0,3.88-0.88,4.544,1.097c0.658,2.19-2.201,2.054-3.225,3.145
		c-0.95,0.077-1.9,0.15-2.928,0.15c-0.218,0-0.509,0-0.732,0c-3.878,0.513-7.759,0.656-11.566,0.442
		C38.213,28.235,25.404,27.28,12.743,25.526z"/>
	<path fill="#E794A1" d="M-86.212-16.476c-2.701,6.947,0.223,12.946,3.446,18.88c0.581,1.025,1.683,1.827,1.237,3.221
		c-4.461-3.078-5.706-7.835-6.733-13.248c-3.432,3.582-4.318,7.541-3.873,11.78c0.29,2.713,1.172,5.413,1.828,8.122
		c-1.61-0.651-2.273-1.973-2.273-3.656c-1.972-5.71-0.799-11.783-2.047-17.565c-0.365-1.827,0.368-3.586,1.314-5.195
		c2.714-4.536,5.424-9.15,9.08-13.107c0.877,3.737,0.877,4.393-0.877,7.401C-85.775-18.827-85.99-17.654-86.212-16.476z"/>
	<path fill="#E794A1" d="M28.844,16.67c4.687,1.178,9.369,2.345,14.129,3.517c0,0.147-0.077,0.291-0.077,0.512
		c-3.659-0.365-7.389-0.659-11.046-1.025C19.912,17.695,7.837,16.673-3.944,13.6c-2.05-0.512-5.787-1.024-5.343-2.634
		c0.582-2.052,3.877-0.659,6.073-0.294c9.589,1.464,19.03,3.663,28.474,5.643C26.425,16.523,27.674,16.523,28.844,16.67z"/>
	<path fill="#FFFFFF" d="M-92.652,8.622c0,1.683,0.659,2.926,2.268,3.656l-0.073-0.067c-0.142,1.017,0.292,1.905,0.883,2.705
		c0.438,1.536,0.951,3.071,2.996,3.149c1.392,0.073,2.127,1.168,3.006,1.9c5.268,4.537,10.83,8.638,17.197,11.565
		c0.512,0.224,1.173,0.368,1.315,1.389c-1.463,0.3-2.777-0.293-3.88-0.946c-8.489-5.05-17.566-9.3-24.663-16.396
		c-0.734-0.732-1.318-1.682-2.049-2.565c-1.465-1.683-2.051-2.997,1.1-3.078C-93.671,10.014-93.379,8.989-92.652,8.622z"/>
	<path fill="#FFFFFF" d="M-147.542,113.136c7.614,3.438,15.151,6.884,22.764,10.324c0.215,0.217,0.509,0.433,0.732,0.656
		c0.218,0,0.438,0,0.728,0.072c1.981,2.489,3.736,5.27,7.688,3.954c0.591-0.215,0.879,0.146,1.027,0.729
		c0.219,1.248-0.223,2.125-1.396,2.637c-5.922-2.783-11.85-5.414-17.274-9.368c-3.069-2.268-6.51-4.393-10.755-4.611
		c-2.124-0.145-4.027-1.392-5.71-2.858C-148.57,114.894-148.205,113.797-147.542,113.136z"/>
	<path fill="#E794A1" d="M-63.083-25.853c0,1.464,0,2.934,0,4.396c-0.073,2.342-0.657,3.509-3.513,2.564
		c-3.291-1.099-4.829,0.512-3.805,3.946c0.66,2.272,1.756,4.467,2.636,6.662c-3.586-2.337-4.026-6.074-4.391-9.807
		c-0.146-1.314,0-2.632,0.073-4.024c1.387-2.486,4.097-3.581,5.852-5.71c0.954-0.141,1.828-1.241,2.929-0.287
		C-63.229-27.314-63.157-26.586-63.083-25.853z"/>
	<path fill="#E794A1" d="M-144.615,46.973c-1.391,1.611-2.564,1.246-3.66-0.368c-0.295-3.731,2.123-5.995,4.464-8.342
		c1.027-1.024,1.975-2.047,2.998-3.141c1.391-0.588,1.829-2.568,3.66-2.497c0.218,1.245-0.585,2.053-1.022,3.004
		C-140.222,39.585-143.151,42.877-144.615,46.973z"/>
	<path fill="#E794A1" d="M-13.538-25.845c3.883,0.727,7.689,1.386,11.565,2.118c-1.022,0.95-2.558,1.315-2.849,2.927
		c-0.954,0.514-0.369,1.973-1.396,2.418c-1.68-1.172-3.36-2.345-4.979-3.586C-12.433-22.918-13.897-23.876-13.538-25.845z"/>
	<path fill="#E794A1" d="M-135.687,104.647c2.999,1.098,5.418,2.999,7.243,5.564C-131.368,109.037-134.299,107.865-135.687,104.647z
		"/>
	<path fill="#E794A1" d="M-81.597,5.624c1.536-0.081,2.121,0.869,2.199,2.195C-80.647,7.596-81.452,6.94-81.597,5.624z"/>
	<path fill="#E794A1" d="M-26.269,55.682c-1.022-0.291-2.045-0.511-3.067-1.459c1.459-0.437,2.482,0.361,3.437,1.022
		C-25.975,55.389-26.125,55.539-26.269,55.682z"/>
	<path fill="#E794A1" d="M-89.575,14.916c-0.591-0.806-1.026-1.688-0.883-2.705C-89.796,13.01-88.702,13.672-89.575,14.916z"/>
	<path fill="#F5CFD6" d="M-120.388,124.189c0.362,0.144,0.804,0.364,1.171,0.514c-0.073,0.142-0.219,0.295-0.294,0.442
		C-119.803,124.844-120.096,124.484-120.388,124.189L-120.388,124.189z"/>
	<path fill="#F5CFD6" d="M66.98,85.978c-0.812,0.151-1.611,0.151-2.275-0.503C65.51,85.398,66.319,85.256,66.98,85.978z"/>
	<path fill="#F5CFD6" d="M39.164,12.279c0.588-0.067,1.172,0,1.542,0.585C40.042,12.943,39.531,12.864,39.164,12.279z"/>
	<path fill="#FFFFFF" d="M13.473,4.01c-0.218,0.073-0.436,0.146-0.657,0.146C12.96,3.797,13.18,3.649,13.473,4.01z"/>
	<path fill="#F5CFD6" d="M-4.017,87.742c0.292,0.219,0.513,0.37,0.804,0.584C-3.504,88.112-3.725,87.885-4.017,87.742z"/>
	<path fill="#E794A1" d="M-79.401,7.819c0.219,0.217,0.509,0.512,0.731,0.735C-78.892,8.331-79.18,8.036-79.401,7.819z"/>
	<path fill="#FFFFFF" d="M-7.751,154.929c2.196-5.055,4.906-5.854,9.225-2.777c1.757,1.244,3.438,2.704,4.902,4.319
		c3.517,3.949,8.198,5.413,13.104,6.217c3.95,0.661,5.851-1.093,5.851-5.124c0-2.854,0.734-5.412,2.273-7.832
		c2.341-1.828,4.314-5.047,7.683-1.537c2.49,3.15,4.831,6.371,7.396,9.442c1.091,1.317,2.194,3.073,4.538,2.272
		c0.218,2.119-1.028,4.096-0.514,6.221c-0.297,0.804-0.659,1.61-0.881,2.414c-4.904,18.735-9.953,37.401-15.518,55.913
		c-0.437,0.22-0.584,0.51-0.437,0.953c-0.073,0.147-0.22,0.364-0.22,0.587c-3.518,3.075-4.175,2.927-5.858-1.688
		c-0.216-0.652-0.583-1.31-0.877-1.974c-0.434-2.854-1.538-5.708-1.166-8.635c1.239-10.25,2.483-20.425,3.874-30.667
		c0.366-2.708,0-5.049-1.095-7.396c-0.366-0.803-0.22-2.192-1.537-2.192c-1.54,0.073-1.315,1.462-1.54,2.49
		c-2.194,8.701-3.291,17.636-4.901,26.494c-2.929,16.099-4.239,32.497-8.126,48.522c-3.288,4.765-3.875,4.829-9.439,0.733
		c-0.512-1.757-3.803-0.51-3.218-4.319c2.118-12.734,3.368-25.543,4.829-38.354c1.177-10.169,1.177-20.416,1.609-30.658
		c0.15-3.592,0.217-7.029-1.681-10.246c-1.031-1.692-1.393-4.615-3.807-4.252c-2.049,0.367-1.759,3.075-2.272,4.904
		c-1.095-1.392-0.513-3-0.583-4.464C-6.436,161.077-6.505,157.924-7.751,154.929z"/>
	<path fill="#110D0E" d="M105.687,120.458c0.664,0.508,1.255,1.24,1.985,1.458c4.389,1.322,5.268,4.469,4.612,8.491
		c-0.516,3.517-2.128,4.608-5.786,4.247c-5.564-0.511-10.979-1.973-16.468-3.001c0.073,0.3,0.073,0.585,0.146,0.734
		c1.24,1.909,3.583,3.88,1.904,6.076c-1.758,2.419-4.536,0.733-6.659-0.15c-3.812-1.532-7.173-4.017-11.565-3.95
		c2.27-1.458,4.684,0.217,7.098-0.436c2.997-0.879,5.784-1.755,8.346-3.806c4.537-3.441,9.515-6.369,14.271-9.51
		C104.38,120.606,105.035,120.531,105.687,120.458z"/>
	<path fill="#110D0E" d="M73.639,134.362c-4.325,2.268-3.882,6.588-4.466,10.393c-0.367,2.419,0.438,5.936-1.904,6.958
		c-2.343,1.021-3.809-2.417-5.494-3.951c-2.777-2.637-6.439-3.587-9.436-5.785c1.976-0.293,4.03-0.881,6.001-0.881
		c3.952,0,7.761,0.515,10.1-4.021C69.314,135.314,71.438,134.294,73.639,134.362z"/>
	<path fill="#110D0E" d="M47.217,159.834c-2.269,0.874-3.445-0.954-4.538-2.273c-2.563-3.071-4.982-6.292-7.396-9.442
		c0.811-0.437,1.757-1.314,2.491-1.167c3.879,0.509,7.103-0.661,10.027-3.076c-1.021,1.909-0.807,3.882-0.584,5.933
		c0,1.68,0.073,3.368,0.073,5.048C47.362,156.544,47.944,158.224,47.217,159.834z"/>
	<path fill="#110D0E" d="M119.675,110.135c1.761,2.638,4.902,4.611,3.948,8.494c-5.559,1.829-11.12,0.217-16.758,0.44
		c0.077-0.224,0.22-0.44,0.294-0.661c4.098-2.414,8.122-4.978,11.782-8.046C119.235,110.285,119.457,110.216,119.675,110.135z"/>
	<path fill="#110D0E" d="M123.987,98.573c2.2,1.532,3.738,3.733,5.202,5.932c1.831,2.85,0.657,4.757-2.635,4.606
		c-2.051-0.074-4.032-0.73-6.002-1.101c-0.073-0.217-0.143-0.365-0.223-0.585C120.409,103.99,121.13,100.836,123.987,98.573z"/>
	<path fill="#F5CFD6" d="M120.263,107.428c0.066,0.218,0.146,0.368,0.216,0.584c-0.292,0.737-0.582,1.392-0.876,2.123
		c-0.223,0.082-0.441,0.151-0.661,0.225c-0.73-1.76-2.269-2.932-3.218-4.688C117.258,106.259,118.795,106.845,120.263,107.428z"/>
	<path fill="#F5CFD6" d="M24.969,149.874c-3.003,1.395-6.078,0.813-9.152,0.446C18.818,149.362,21.966,150.174,24.969,149.874z"/>
	<path fill="#F5CFD6" d="M105.687,120.458c-0.652,0.073-1.383,0.147-2.04,0.215c-0.219-0.95-1.76-0.804-1.683-2.191
		c1.313,0.217,2.563,0.442,3.801,0.656C105.765,119.575,105.765,120.016,105.687,120.458z"/>
	<path fill="#F7E3E5" d="M104.304,39.434c0-1.023,0.438-1.608,1.461-1.608C105.765,38.844,105.254,39.288,104.304,39.434z"/>
	<path fill="#F5CFD6" d="M107.229,118.334c-0.074,0.213-0.217,0.431-0.287,0.658c-0.369,0-0.73,0.077-1.177,0.077
		C106.211,118.846,106.715,118.629,107.229,118.334z"/>
	<path fill="#F7E3E5" d="M-17.927,117.02c-0.22,0.284-0.514,0.364-0.732,0C-18.438,117.02-18.147,117.02-17.927,117.02z"/>
	<path fill="#FFFFFF" d="M-51.591,176.887c0-5.125,0-10.316,0-15.449c0-1.164,0-2.414-0.732-3.433
		c2.119-1.686,3.146-0.663,4.391,1.316c2.779,4.61,5.998,8.855,12.22,8.638c1.393,1.31,0.808,3.002,0.808,4.462
		c0.078,3.296-0.657,6.956,5.268,6.956c-4.902-0.511-4.683,1.685-4.023,4.681c0.658,2.932,0.517,6.005,0.877,9.004
		c1.828,15.225,3.66,30.52,6.007,45.67c0.145,0.949,0.363,1.684,1.46,1.757c0.95,4.389,0.589,9.073,3.078,13.175
		c-2.783,4.538-4.903,4.688-8.784,1.022c-1.682-1.613-2.415-4.324-5.12-4.827c-1.608-14.714-3.512-29.427-4.832-44.137
		c-0.805-8.709-3.292-16.838-7.099-24.594C-48.807,179.519-49.469,177.47-51.591,176.887z"/>
	<path fill="#FFFFFF" d="M-24.508,159.318c0.215-0.807,0.438-1.609,1.168-2.047c3.15,5.932,5.047,7.028,9.73,5.783
		c0.151,19.104,0.883,38.136,2.933,57.823c2.119-2.71,1.169-5.122,1.61-7.396c0.217,0,0.36,0,0.587,0
		c0.069,10.174-1.321,20.347-0.81,30.517c0.077,1.831-0.219,3.597-0.732,5.346c-2.559,3.729-6.443,4.393-10.539,4.393
		c0.435-23.129,1.462-46.256,1.096-69.39c-0.072-4.461-1.39-8.851-4.391-12.434C-24.221,167.664-22.902,163.423-24.508,159.318z"/>
	<path fill="#5F5F5F" d="M-9.946,249.343c0.585-1.749,0.881-3.515,0.736-5.346c-0.588-10.17,0.803-20.343,0.803-30.517
		c1.313-10.176,1.313-20.419,1.904-30.596c0.291-4.682,0.658-9.442,0.949-14.125c0.438-1.829,0.224-4.609,2.272-4.904
		c2.414-0.363,2.777,2.49,3.807,4.252c1.896,3.141,1.828,6.578,1.681,10.246c-0.514,10.242-0.433,20.489-1.609,30.658
		c-1.461,12.812-2.711,25.62-4.829,38.354c-0.661,3.732,2.706,2.563,3.218,4.319c-2.486-0.437-4.537-0.144-4.828,3
		c-0.074,0.438-0.369,0.948-0.951,0.805c-0.73-0.146-1.318-0.588-1.389-1.458C-8.477,252.269-8.625,250.585-9.946,249.343z"/>
	<path fill="#5F5F5F" d="M8.347,250.882c3.81-15.955,5.123-32.354,8.127-48.531c1.61-8.855,2.708-17.778,4.902-26.488
		c0.22-1.024,0-2.415,1.537-2.484c1.319,0,1.173,1.391,1.534,2.191c1.103,2.343,1.547,4.68,1.103,7.393
		c-1.464,10.169-2.637,20.419-3.877,30.669c-0.37,2.923,0.734,5.779,1.167,8.639c-1.537,0.067-0.803-1.837-1.685-2.128
		c-2.116,8.487-2.265,17.275-4.751,25.612c-1.03,3.298-2.491,5.862-6.733,4.612C9.301,250.219,8.789,250.661,8.347,250.882z"/>
	<path fill="#5F5F5F" d="M-23.852,171.834c3,3.586,4.318,7.977,4.391,12.441c0.365,23.13-0.585,46.256-1.096,69.388
		c-0.586,0-1.099,0-1.683,0.072c-2.487-4.026-2.128-8.711-3.078-13.173c0-13.104,0.879-26.278-0.583-39.303
		c-0.732-6.512-1.32-13.106-0.732-19.616C-26.269,178.274-27.001,174.47-23.852,171.834z"/>
	<path fill="#110D0E" d="M57.901,223.438c5.199-20.714,14.271-40.037,22.613-59.506c2.856-6.584,5.712-13.175,9.296-19.396
		c0.514-0.878,0.957-2.418,2.344-1.687c1.1,0.589,0.147,1.834-0.223,2.637c-11.123,26.128-22.319,52.257-33.447,78.384
		C58.196,223.727,58.049,223.584,57.901,223.438z"/>
	<path fill="#110D0E" d="M65.732,159.248c-4.758,24.007-13.033,47.065-20.274,70.771C43.333,218.82,59.728,169.196,65.732,159.248z"
		/>
	<path fill="#110D0E" d="M30.232,224.385c5.567-18.515,10.689-37.177,15.521-55.921c0.214-0.802,0.584-1.606,0.874-2.409
		c1.101,7.464,0,14.636-2.268,21.807c-5.268,16.906-10.609,33.672-16.611,50.359c-0.146,0.363-0.37,0.658-1.027,1.752
		c0.588-5.415,3.147-9.515,2.854-14.12c0.073-0.222,0.146-0.366,0.22-0.592C30.308,225.118,30.385,224.824,30.232,224.385z"/>
	<path fill="#110D0E" d="M98.668,151.488c-4.027,10.031-8.052,20.058-12.224,30.009c-4.464,10.757-9.074,21.44-13.687,32.205
		c-0.437,1.097-1.023,2.196-1.83,3.876c-0.515-2.493,0.729-3.81,1.243-5.191c7.686-19.694,14.418-39.747,24.521-58.413
		c0.512-0.949,1.102-1.9,1.614-2.854C98.45,151.269,98.523,151.342,98.668,151.488z"/>
	<path fill="#BDBCBC" d="M47.291,154.856c0-1.68-0.073-3.368-0.073-5.048C48.241,151.488,48.387,153.176,47.291,154.856z"/>
	<path fill="#110D0E" d="M99.914,148.343c0.073,1.244-0.518,2.195-1.245,3.145c-0.069-0.073-0.219-0.219-0.293-0.291
		C98.596,150.096,98.815,148.925,99.914,148.343L99.914,148.343z"/>
	<path fill="#110D0E" d="M58.414,223.87c-0.286,0.667-0.583,1.324-0.953,1.982v0.072c0.146-0.805,0.223-1.688,0.367-2.487
		C58.049,223.584,58.196,223.727,58.414,223.87z"/>
	<path fill="#5F5F5F" d="M68.147,223.438c0,0.069,0.073,0.22,0.073,0.289c-0.15,0-0.293,0.074-0.437,0.074
		c0-0.074,0-0.217,0.07-0.294C67.927,223.438,68.072,223.438,68.147,223.438z"/>
	<path fill="#110D0E" d="M101.081,145.266c0,0.074,0.073,0.221,0.073,0.294c-0.073,0.367-0.141,0.367-0.293,0.077
		c0-0.077,0-0.228,0.073-0.297C100.934,145.34,101.011,145.34,101.081,145.266z"/>
	<path fill="#110D0E" d="M99.914,148.343c0.073-0.365,0.146-0.666,0.146-1.023c0.143,0.068,0.293,0.138,0.366,0.293
		C100.284,147.827,100.133,148.118,99.914,148.343L99.914,148.343z"/>
	<path fill="#110D0E" d="M70.488,218.605c-0.145,0.141-0.29,0.215-0.437,0.292c0-0.219-0.074-0.438-0.074-0.658
		c0-0.071,0.151-0.223,0.221-0.296C70.343,218.239,70.414,218.459,70.488,218.605z"/>
	<path fill="#5F5F5F" d="M69.097,221.75c-0.069,0.073-0.218,0.14-0.291,0.22c-0.073-0.22-0.143-0.367-0.224-0.587
		c0-0.069,0.15-0.146,0.302-0.22C68.957,221.317,69.028,221.533,69.097,221.75z"/>
	<path fill="#110D0E" d="M57.46,225.925c-0.07,0.072-0.07,0.143-0.147,0.219C57.39,226.068,57.46,225.995,57.46,225.925
		C57.533,225.925,57.46,225.925,57.46,225.925z"/>
	<path fill="#F7E3E5" d="M-4.821-20.873c0.361-1.61,1.895-1.977,2.849-2.927c4.764,0.441,9.154,1.977,13.175,4.536
		c0.808,0.438,1.609,0.885,1.396,1.833c-0.292,1.39-1.323,0.438-2.054,0.438c-3.071,0.078-6.146-0.734-9.223,0.95
		C-1.382-14.433-4.089-16.779-4.821-20.873z"/>
	<path fill="#F7E3E5" d="M21.673-39.17c-0.077,0-0.147-0.073-0.224-0.073c0.076-0.073,0.224-0.22,0.301-0.297
		c0.063,0.077,0.142,0.15,0.216,0.224C21.816-39.315,21.75-39.242,21.673-39.17z"/>
	<path fill="#E794A1" d="M-147.542,113.136c-0.661,0.584-1.027,1.688-2.269,1.465c-2.559-0.513-4.905-1.54-7.097-2.927
		c-0.517-0.438-0.954-0.879-1.464-1.314c-0.073-0.148-0.149-0.225-0.223-0.295c0.37-1.973,1.906-1.027,3.006-1.245
		C-152.961,110.36-149.812,111.016-147.542,113.136z"/>
	<path fill="#F7E3E5" d="M-155.521,108.82c-1.099,0.292-2.635-0.728-3.003,1.245c-2.122,0-2.929-1.396-3.441-3.22
		c0.293,0.143,0.589,0.363,0.881,0.513c0.074-0.295,0.365-0.659,0.223-0.88c-0.369-0.733-0.883-1.394-1.392-2.048
		c0.955-1.39,2.415-0.514,3.951-0.88c-2.49,1.685-1.17,2.418,0.292,2.782C-156.475,106.765-155.302,106.988-155.521,108.82z"/>
	<path fill="#E794A1" d="M-170.818,95.062c0-0.516-0.073-1.104-0.073-1.608c1.537,1.167,3.588,1.967,2.928,4.536
		c-0.803,0-0.509,0.652-0.582,1.097C-169.354,97.695-170.088,96.379-170.818,95.062z"/>
	<path fill="#110D0E" d="M-163.571,102.964c0,0.513,0.812,0.949,0.072,1.464c-1.685-0.881-2.414-2.559-3.514-3.956
		c0.219-0.146,0.37-0.365,0.588-0.509c0.658,0.582,1.314,1.1,1.976,1.68l-0.072-0.066
		C-164.16,102.086-163.864,102.526-163.571,102.964z"/>
	<path fill="#110D0E" d="M-162.18,104.505c0.434,0.653,0.949,1.314,1.388,2.05c0.072,0.141-0.146,0.58-0.219,0.873
		c-0.291-0.149-0.586-0.365-0.877-0.51c-0.512-0.807-1.096-1.687-1.611-2.488C-162.984,103.696-162.617,104.505-162.18,104.505z"/>
	<path fill="#F7E3E5" d="M-100.626,137.364c1.681-0.439,2.997,0.071,4.024,1.464C-98.14,138.978-99.608,138.759-100.626,137.364z"/>
	<path fill="#FFFFFF" d="M-92.21,141.019c1.609-0.22,2.999,0.224,4.022,1.466C-89.796,142.632-91.039,141.978-92.21,141.019z"/>
	<path fill="#F7E3E5" d="M-158.299,110.36c0.51,0.436,0.95,0.873,1.46,1.314C-157.717,111.745-158.447,111.527-158.299,110.36z"/>
	<path fill="#FFFFFF" d="M-88.188,142.485c0.659,0,1.249,0,1.463,0.734C-87.38,143.292-87.969,143.219-88.188,142.485z"/>
	<path fill="#F7E3E5" d="M-96.602,138.827c0.873-0.146,1.608,0.068,2.195,0.735C-95.208,139.632-96.017,139.486-96.602,138.827z"/>
	<path fill="#110D0E" d="M-168.036,99.232c0.583-0.733,0.954,0.153,1.46,0.153c0,0.215,0.077,0.362,0.077,0.578
		c-0.223,0.144-0.367,0.363-0.585,0.509C-167.382,100.107-167.673,99.672-168.036,99.232z"/>
	<path fill="#110D0E" d="M-168.546,99.086c0.073-0.444-0.294-1.023,0.582-1.097c0,0.442,0.805,0.873,0.074,1.396
		C-168.113,99.232-168.328,99.157-168.546,99.086z"/>
	<path fill="#BDBCBC" d="M-23.852,171.834c-3.149,2.636-2.491,6.439-2.779,9.807c-0.587,6.513,0,13.106,0.731,19.617
		c1.534,13.101,0.661,26.199,0.585,39.302c-1.096-0.073-1.314-0.811-1.462-1.758c-2.343-15.222-4.174-30.449-6.006-45.674
		c-0.36-2.995-0.219-6.075-0.878-9.002c-0.658-3-0.948-5.195,4.025-4.683c-5.926,0-5.192-3.659-5.267-6.951
		c0-1.531,0.513-3.224-0.809-4.467c4.687-1.61,8.057-4.976,11.124-8.638C-22.902,163.423-24.221,167.664-23.852,171.834z"/>
	<path fill="#BDBCBC" d="M-5.632,168.763c-0.289,4.683-0.654,9.441-0.95,14.125c-0.655,0.22-1.021,0.588-1.021,1.24
		c-0.442,9.807-0.954,19.545-1.394,29.353c-0.437,2.194,0.521,4.611-1.604,7.396c-2.053-19.69-2.711-38.72-2.935-57.823
		c2.861-2.05,4.102-5.2,5.787-8.051c1.246,3,1.246,6.219,1.534,9.362C-6.067,165.76-6.724,167.37-5.632,168.763z"/>
	<path fill="#F7E3E5" d="M-166.425,99.963c0-0.218-0.073-0.364-0.073-0.578c0.146-0.52,0.073-1.322,0.95-0.953
		c1.61,0.577,1.246,1.972,1.099,3.214C-165.109,101.136-165.768,100.553-166.425,99.963z"/>
	<path fill="#F7E3E5" d="M-163.571,102.964c-0.292-0.438-0.588-0.878-0.878-1.318C-163.571,101.646-162.399,101.576-163.571,102.964
		z"/>
	<path fill="#E794A1" d="M-170.892,93.454c-1.095-0.224-1.173-1.177-1.314-2.055C-171.331,91.764-170.892,92.499-170.892,93.454z"/>
	<path fill="#F7E3E5" d="M-124.048,124.189c-0.224-0.218-0.517-0.438-0.732-0.659C-124.563,123.676-124.272,123.971-124.048,124.189
		z"/>
	<path fill="#110D0E" d="M125.09,118.629c0.434-1.024,0.804-2.055,1.827-2.559c0.077,0.063,0.225,0.215,0.291,0.284
		c-0.508,0.949-1.021,1.906-1.536,2.856C125.527,118.992,125.312,118.846,125.09,118.629z"/>
	<path fill="#110D0E" d="M127.648,115.337c-0.145-0.736,0.077-1.174,0.737-1.464l0.146,0.146
		C128.529,114.67,128.382,115.189,127.648,115.337L127.648,115.337z"/>
	<path fill="#110D0E" d="M128.382,113.873c0.146-0.15,0.218-0.369,0.363-0.517c0.367,0.363,0.22,0.58-0.217,0.661
		C128.6,114.091,128.382,113.873,128.382,113.873z"/>
	<path fill="#110D0E" d="M126.917,116.071c0.146-0.369,0.225-0.813,0.808-0.664l0.069,0.07c-0.146,0.294-0.363,0.657-0.513,0.951
		C127.142,116.289,126.995,116.137,126.917,116.071z"/>
	<path fill="#F7E3E5" d="M-144.615,46.973c1.463-4.169,4.464-7.465,6.364-11.343c0.514-0.955,1.318-1.759,1.028-3.004l0,0
		c0.222-0.22,0.437-0.364,0.655-0.584c1.76-1.908,3.077-0.581,4.174,0.73c2.123,2.351,4.099,4.765,6.076,7.175l0,0
		c-1.176-0.287-2.349-0.509-3.512-0.804c-0.664-0.146-1.906-0.514-1.979-0.364c-1.468,2.778-5.194,2.778-6.442,5.199
		c-1.171,2.268-0.803,5.194,0.223,7.758c0.95,2.488,2.047,4.898,2.711,7.533C-140.587,56.78-144.691,53.415-144.615,46.973z"/>
	<path fill="#F5CFD6" d="M-155.59,62.564c0.071-0.437,0.142-0.95,0.213-1.391c0.956,1.021,1.468,2.271,1.396,3.655l-0.073,0.077
		C-155.59,64.831-155.521,63.657-155.59,62.564z"/>
	<path fill="#F5CFD6" d="M-154.056,64.905c0.731,0.144,1.392,0.364,1.237,1.318c-0.064,0.218-0.508,0.582-0.654,0.513
		C-154.348,66.443-154.056,65.639-154.056,64.905L-154.056,64.905z"/>
	<path fill="#F7E3E5" d="M-126.248,40.024c0.514,0.068,1.172,0.068,1.1,0.876c0,0.072-0.151,0.218-0.219,0.218
		C-126.171,41.191-126.171,40.531-126.248,40.024L-126.248,40.024z"/>
	<path fill="#E794A1" d="M-136.567,32.115c-0.219,0.223-0.433,0.373-0.655,0.588C-137,32.552-136.786,32.338-136.567,32.115z"/>
	<path fill="#F7E3E5" d="M63.318,28.458c0.952-0.073,1.9-0.146,2.928-0.146c1.826,2.343,4.756,1.978,7.174,2.777
		c1.829,0.593,3.434,1.684,5.337,2.131c0.66,0.14,1.394,0.652,1.175,1.533c-0.218,0.878-1.031,0.878-1.76,0.878
		c-5.196,0.292-10.388-0.364-15.586-1.025c-5.637-0.736-11.27-1.688-16.909-1.76c-4.681,0-9.071-1.318-13.685-1.759
		c-6.665-0.652-13.247-2.484-19.908-3.876c-0.808-0.144-1.538-0.658-2.271-1.025c0.954-0.146,2.052,0.295,2.857-0.66
		c12.661,1.836,25.473,2.786,38.279,3.443c3.874,0.222,7.755,0.072,11.563-0.438C62.809,28.827,63.1,28.748,63.318,28.458z"/>
	<path fill="#F7E3E5" d="M-94.044,125.655c-1.461-0.51-2.925-1.102-4.387-1.614C-96.528,123.46-94.779,123.313-94.044,125.655
		L-94.044,125.655z"/>
	<path fill="#F7E3E5" d="M-63.083-25.853c-0.073-0.735-0.144-1.46-0.218-2.195C-62.348-27.387-62.422-26.651-63.083-25.853z"/>
	<path fill="#F5CFD6" d="M63.318,28.458c-0.218,0.291-0.509,0.369-0.732,0C62.809,28.458,63.1,28.458,63.318,28.458z"/>
	<path fill="#7A7A7A" d="M30.232,224.385c0.153,0.438,0,0.81-0.436,0.95C29.652,224.824,29.869,224.538,30.232,224.385z"/>
	<path fill="#F7E3E5" d="M-8.998,213.481c0.442-9.808,0.954-19.546,1.394-29.353c0-0.729,0.437-1.094,1.021-1.24
		c-0.585,10.174-0.585,20.419-1.895,30.594C-8.625,213.481-8.85,213.481-8.998,213.481z"/>
</g>
</svg>
