<?xml version="1.0" encoding="utf-8"?>
<!-- Generator: Adobe Illustrator 21.0.0, SVG Export Plug-In . SVG Version: 6.00 Build 0)  -->
<svg version="1.1" id="Layer_1" xmlns="http://www.w3.org/2000/svg" xmlns:xlink="http://www.w3.org/1999/xlink" x="0px" y="0px"
	 viewBox="0 0 336 316" style="enable-background:new 0 0 336 316;" xml:space="preserve">
<style type="text/css">
	.st0{fill:#3FA9F5;}
</style>
<path class="st0" d="M168.5,308c-3.2-4.7-6.4-9.4-9.7-14c-29.8-42.8-59.6-85.5-89.4-128.3C50.3,138.4,31.2,111,12.1,83.7
	c-0.3-0.4-0.6-0.7-0.9-1.1c0-0.1,0-0.2,0-0.3c4.6-4.9,9.2-9.8,13.8-14.8c15.3-16.5,30.6-33.1,45.9-49.6c0.8-0.9,1.7-1.2,2.9-1.2
	c30.2,0,60.4,0,90.6,0c31.6,0,63.2,0,94.7,0c0.9,0,1.6,0.1,2.3,0.8c21.3,21.3,42.6,42.7,63.9,64c0.3,0.3,0.5,0.6,0.8,0.9
	c-1.5,2.1-2.9,4.2-4.4,6.3c-31.6,45.3-63.2,90.7-94.8,136c-19.2,27.5-38.3,55-57.5,82.4c-0.2,0.3-0.5,0.6-0.7,0.9
	C168.7,308,168.6,308,168.5,308z M168.7,293.1c0.3-0.8,0.5-1.3,0.6-1.7c10.7-31.8,21.4-63.7,32.1-95.5c5.3-15.8,10.6-31.6,15.9-47.4
	c0.4-1.2,0.2-2-0.6-2.9c-15.8-19.5-31.5-39-47.3-58.6c-0.3-0.3-0.4-0.7-0.7-1.1c-0.4,0.6-0.6,0.7-0.7,0.9
	c-15.7,19.8-31.3,39.7-47,59.5c-0.5,0.7-0.5,1.2-0.3,2c2,6.2,4,12.3,6.1,18.5c11.5,34.7,22.9,69.4,34.4,104.1
	C163.7,278.1,166.1,285.4,168.7,293.1z M164.5,294.7c0.1,0,0.1-0.1,0.2-0.1c-0.1-0.3-0.2-0.6-0.3-0.9c-8.2-25-16.5-49.9-24.7-74.9
	c-7.7-23.2-15.3-46.5-23-69.7c-0.2-0.7-0.7-1.5-1.3-2c-5.2-4.6-10.4-9.2-15.6-13.8c-16.9-15-33.8-29.9-50.7-44.9
	c-0.4-0.3-0.8-0.6-1.3-1.1c0,0.5,0,0.8,0,1c0,12.6,0,25.2,0,37.9c0,0.7,0.3,1.4,0.7,1.9c37,53,73.9,106.1,110.9,159.1
	C161,289.8,162.7,292.3,164.5,294.7z M290.4,87.6c-0.7,0.6-1.1,0.9-1.6,1.3c-3.6,3.2-7.2,6.4-10.8,9.5
	c-18.3,16.1-36.6,32.3-54.9,48.4c-0.6,0.5-1.2,1.3-1.4,2.1c-5.9,17.4-11.8,34.9-17.6,52.3c-9.6,28.7-19.3,57.3-28.9,86
	c-0.8,2.4-1.6,4.8-2.4,7.2c0.5-0.3,0.8-0.7,1.1-1.1c2.7-3.9,5.4-7.8,8.2-11.7c34.7-49.7,69.4-99.5,104.1-149.2
	c1.1-1.6,1.6-3.2,1.7-5.1c0.5-8.2,1-16.4,1.6-24.6C289.8,97.8,290.1,92.8,290.4,87.6z M118.4,46.4c0.3,0.3,0.5,0.4,0.6,0.5
	c16.1,10.7,32.1,21.4,48.2,32.1c1.1,0.7,2,0.6,3-0.1c12.8-9,25.5-17.9,38.3-26.9c2.6-1.8,5.2-3.6,7.9-5.6c-0.6-0.4-1.1-0.6-1.5-0.9
	c-15.8-8-31.6-15.9-47.4-23.9c-0.9-0.5-1.6-0.4-2.5,0.1c-12.3,6.5-24.6,13-36.9,19.5C124.9,42.9,121.7,44.6,118.4,46.4z M18.7,80.5
	c0.8,0,1.2,0,1.6,0c7.8,0,15.5,0,23.3,0c0.9,0,1.8-0.2,2.6-0.6c17.3-9.1,34.6-18.3,51.9-27.4c3.9-2.1,7.9-4.2,12-6.3
	c-12.4-8.2-24.6-16.4-36.8-24.5C55.1,41.1,37,60.7,18.7,80.5z M259.2,21.6c-11.4,8-22.8,16-34.5,24.2c0.4,0.3,0.7,0.4,1,0.6
	c22.2,11.2,44.4,22.4,66.6,33.5c0.7,0.4,1.6,0.5,2.3,0.5c7.4,0,14.8,0,22.3,0c0.3,0,0.7-0.1,1-0.1C298.4,60.8,278.8,41.2,259.2,21.6
	z M219.6,142.3c7-19.3,14-38.4,21-57.6c-22.5,0-44.8,0-67.4,0C188.6,103.9,204,123,219.6,142.3z M119,142.2
	c15.2-19.3,30.2-38.3,45.3-57.5c-20.7,0-41.1,0-61.7,0C108.1,103.8,113.5,122.8,119,142.2z M283.7,80.4c-0.6-0.4-0.8-0.5-1.1-0.7
	c-20.2-10.2-40.5-20.4-60.7-30.6c-0.9-0.5-1.6-0.3-2.3,0.2c-13.7,9.6-27.4,19.3-41.1,28.9c-0.9,0.6-1.8,1.3-3,2.2
	C211.7,80.4,247.5,80.4,283.7,80.4z M161.6,80.4c-0.5-0.4-0.7-0.6-1-0.7c-15.2-10.1-30.4-20.3-45.6-30.4c-0.8-0.5-1.4-0.3-2.1,0
	C93.8,59.4,74.7,69.5,55.5,79.7c-0.3,0.2-0.6,0.4-1.2,0.8C90.2,80.4,125.7,80.4,161.6,80.4z M51,84.6c21.1,18.6,41.9,37,62.9,55.6
	c-0.2-0.7-0.2-1-0.3-1.4c-5-17.6-10.1-35.3-15.1-52.9c-0.3-1-0.7-1.3-1.8-1.3c-9.1,0-18.1,0-27.2,0C63.6,84.6,57.6,84.6,51,84.6z
	 M287.3,84.7c-0.6,0-0.8-0.1-1.1-0.1c-13.3,0-26.7,0-40,0c-1.1,0-1.3,0.6-1.6,1.4c-5.3,14.5-10.6,29.1-15.9,43.6
	c-1.1,3.1-2.2,6.1-3.3,9.2c0.1,0.1,0.2,0.1,0.3,0.2C246.1,121,266.5,103,287.3,84.7z M80.1,20.9c0.7,0.5,1.1,0.8,1.4,1
	c10.5,7,21,14,31.4,21c1,0.7,1.7,0.7,2.8,0.1c11.7-6.2,23.4-12.4,35-18.6c2.1-1.1,4.2-2.2,6.3-3.3c0-0.1-0.1-0.2-0.1-0.2
	C131.5,20.9,106,20.9,80.1,20.9z M176,20.9c0,0.1,0,0.2-0.1,0.3c0.5,0.3,1,0.6,1.5,0.8c13.9,7,27.8,14,41.7,21
	c0.9,0.5,1.6,0.4,2.5-0.2c9.9-7,19.9-14,29.9-21c0.3-0.2,0.6-0.5,1.2-0.9C226.9,20.9,201.4,20.9,176,20.9z M292.3,122.8
	c0.1,0,0.2,0.1,0.4,0.1c8.9-12.7,17.7-25.4,26.7-38.2c-8.3,0-16.4,0-24.5,0C294,97.5,293.2,110.2,292.3,122.8z M18,84.7
	c8.5,12.2,16.8,24.1,25.3,36.3c0-12.4,0-24.3,0-36.3C34.9,84.7,26.6,84.7,18,84.7z"/>
</svg>
