<?xml version="1.0" encoding="utf-8"?>
<!-- Generator: Adobe Illustrator 21.0.0, SVG Export Plug-In . SVG Version: 6.00 Build 0)  -->
<svg version="1.1" id="Layer_1" xmlns="http://www.w3.org/2000/svg" xmlns:xlink="http://www.w3.org/1999/xlink" x="0px" y="0px"
	 viewBox="0 0 138 95" style="enable-background:new 0 0 138 95;" xml:space="preserve">
<style type="text/css">
	.st0{fill:#FFA08B;}
	.st1{fill:#00172F;}
	.st2{fill:#232524;}
	.st3{fill:#FEFEFE;}
</style>
<path class="st0" d="M54.1,40.3c0.7-0.2,1.5-0.4,2.2-0.5c0.4-0.1,0.6-0.3,0.6-0.7c0.1-1.1,0.2-2.1,0.4-3.2c0.1-0.5-0.1-0.7-0.5-0.9
	c-0.5-0.3-1-0.6-1.6-0.9c-0.6-0.3-0.8-0.6-0.6-1.3c0.2-0.7,0.5-1.5,0.6-2.3c0.1-0.4,0.3-0.6,0.7-0.6c0.7,0,1.4,0,2.2,0
	c0.4,0,0.6-0.1,0.8-0.5c0.4-1,0.8-2,1.3-3c0.2-0.4,0.1-0.7-0.2-1c0,0-0.1-0.1-0.1-0.1c-0.6-0.6-1.8-1.1-1.6-1.8c0.2-1,1-2,1.6-3
	c0.2-0.3,0.4-0.2,0.7-0.1c0.7,0.2,1.4,0.3,2,0.6c0.5,0.2,0.7,0.1,1-0.3c0.6-0.9,1.3-1.8,2-2.6c0.3-0.3,0.3-0.6,0-0.9
	c-0.1-0.1-0.1-0.1-0.1-0.2c-0.4-0.7-1.3-1.5-1.1-2.1c0.5-1,1.5-1.7,2.3-2.5c0.2-0.3,0.5-0.1,0.7,0.1c0.6,0.4,1.2,0.7,1.8,1.1
	c0.4,0.2,0.6,0.2,0.9-0.1c0.9-0.7,1.8-1.4,2.7-2.1c0.3-0.2,0.4-0.5,0.3-0.9c0,0,0-0.1,0-0.1c-0.2-0.8-0.9-1.8-0.5-2.4
	c0.6-0.8,1.8-1.2,2.8-1.8c0.2-0.1,0.4-0.1,0.5,0.1c0.1,0.1,0.1,0.1,0.2,0.2c0.6,0.6,1.1,1.6,1.8,1.6c0.7,0.1,1.5-0.6,2.2-0.9
	c1.9-0.8,2-0.8,1.9-2.9c0-0.7,0.2-1,0.8-1.1c0.7-0.1,1.5-0.3,2.2-0.6c0.5-0.2,0.8-0.1,1,0.4c0.6,1.9,1.7,2.3,3.5,1.6
	c0.4-0.2,1-0.2,1.5-0.2c0.8,0.1,1-0.4,1.2-1.1c0.4-1.9,0.5-1.9,2.4-1.9c2,0,1.5-0.3,2,1.6c0.4,1.6,0.2,1.3,1.8,1.4
	c1,0.1,1.9,0.2,2.8,0.4c0.4,0.1,0.7,0,0.9-0.4c0.4-0.6,0.5-1.6,1.2-1.8c0.6-0.2,1.4,0.3,2.1,0.4c1.4,0.4,1.5,0.4,1.4,1.9
	c0,0.9,0.1,1.4,1.1,1.6c1,0.2,1.9,0.7,2.8,1.1c0.4,0.2,0.7,0.2,1.1-0.2c1.5-1.5,1.5-1.5,3.3-0.4c1.6,1,1.5,0.5,0.9,2.4
	c-0.2,0.7-0.1,1.1,0.6,1.6c0.9,0.6,1.8,1.3,2.6,2c0.4,0.3,0.6,0.4,1,0.1c1.7-1,1.7-1,3.1,0.4c1.2,1.2,1.3,1.3,0.3,2.8
	c-0.3,0.5-0.3,0.8,0.1,1.3c0.8,0.9,1.5,1.8,2.2,2.8c0.3,0.4,0.6,0.5,1.1,0.4c1.8-0.5,1.8-0.5,2.7,1.1c0,0,0,0.1,0,0.1
	c0.9,1.6,0.9,1.6-0.4,2.9c-0.3,0.3-0.4,0.6-0.2,1c0.5,1.1,1,2.2,1.4,3.4c0.2,0.6,0.5,0.7,1.1,0.7c1.7-0.1,1.7,0,2.1,1.6
	c0,0.1,0,0.1,0,0.2c0.5,1.8,0.5,1.8-1.1,2.7c-0.4,0.2-0.6,0.5-0.5,1c0.3,1.2,0.5,2.5,0.5,3.8c0,0.5,0.2,0.6,0.6,0.8
	c1.8,0.5,1.8,0.5,1.8,2.4c0,0,0,0.1,0,0.1c0,1.8,0,1.8-1.7,2.2c-0.5,0.1-0.7,0.4-0.7,0.9c0,1.2-0.2,2.4-0.5,3.6
	c-0.1,0.5,0,0.8,0.5,1c1.5,0.9,1.5,0.9,1.1,2.7c0,0.1,0,0.1,0,0.2c-0.4,1.7-0.4,1.7-2.2,1.7c-0.6,0-0.8,0.2-1,0.7
	c-0.4,1.1-0.9,2.3-1.4,3.4c-0.2,0.5-0.2,0.7,0.2,1c1.3,1.3,1.3,1.3,0.4,3c-0.9,1.6-0.9,1.6-2.7,1.1c-0.5-0.1-0.8-0.1-1.1,0.4
	c-0.7,1-1.5,2-2.4,3c-0.3,0.3-0.2,0.6,0,0.9c1,1.7,1,1.7-0.4,3.1c-1.2,1.2-1.3,1.3-2.7,0.3c-0.6-0.4-0.9-0.3-1.4,0.1
	c-0.8,0.7-1.7,1.4-2.6,2c-0.4,0.3-0.6,0.6-0.4,1.1c0.5,1.9,0.5,1.9-1.2,2.8c-1.8,1-1.3,1.2-2.8-0.5c-0.4-0.4-0.7-0.5-1.2-0.3
	c-1,0.5-2.1,0.9-3.2,1.3c-0.4,0.2-0.6,0.4-0.6,0.9c0,0.7,0.4,1.6-0.2,2.1c-0.5,0.4-1.3,0.4-2,0.6c-1.7,0.4-1.4,0.7-2.2-0.9
	c-0.5-0.9-1-1.2-2-0.9c-0.9,0.2-1.9,0.2-2.9,0.3c-0.5,0-0.7,0.2-0.8,0.7c-0.2,0.7-0.1,1.6-0.6,2c-0.6,0.4-1.5,0.1-2.2,0.1
	c-1.3,0-1.3,0-1.6-1.3c-0.4-1.5-0.4-1.5-1.9-1.7c-0.9-0.1-1.8-0.3-2.7-0.4c-0.4-0.1-0.7,0-0.8,0.4c0,0,0,0.1,0,0.1
	c-0.5,0.6-0.6,1.8-1.3,1.9c-1.1,0.1-2.2-0.5-3.3-0.8c-0.3-0.1-0.3-0.4-0.3-0.6c0.5-2-0.4-3-2.3-3.4c-0.7-0.2-1.3-0.8-1.9-0.7
	c-0.6,0.1-1,0.9-1.5,1.4c-0.5,0.6-0.9,0.7-1.5,0.2c-0.6-0.4-1.3-0.8-2-1.1c-0.4-0.2-0.5-0.4-0.4-0.8c0.2-0.8,0.9-1.7,0.5-2.5
	c-0.3-0.7-1.3-1.1-2-1.6c-1.5-1.1-1.5-1.1-3-0.2c-0.2,0.1-0.5,0.3-0.7,0.5c-0.3,0.2-0.5,0.1-0.7-0.1c-0.7-0.9-1.6-1.6-2.3-2.4
	c-0.1-0.1-0.1-0.2,0-0.2c0.5-0.8,1.3-1.6,1.4-2.5c0.1-0.9-1-1.5-1.5-2.2c-1-1.5-1.1-1.5-2.8-1c-1.4,0.4-1.4,0.4-2.1-0.8
	c-0.4-0.7-1.2-1.4-1-2c0.2-0.7,1-1.2,1.6-1.7c0.6-0.5,0.6-0.9,0.3-1.5c-0.4-0.8-0.8-1.8-1.1-2.7c-0.2-0.4-0.4-0.6-0.8-0.6
	c-0.7,0-1.4,0-2.2,0c-0.4,0-0.6-0.1-0.7-0.6c-0.2-1-0.9-2-0.7-2.9c0.2-0.9,1.5-1.1,2.3-1.6c0.3-0.2,0.4-0.4,0.3-0.8
	c-0.2-1.1-0.3-2.2-0.4-3.4c0-0.2,0-0.5-0.2-0.5c-0.8-0.2-1.6-0.6-2.4-0.5c-0.3,0-0.4-0.3-0.4-0.5c-0.1-1.1-0.1-2.2,0-3.4
	C53.9,40.5,54,40.4,54.1,40.3z"/>
<path class="st1" d="M54.1,40.3c0.1,1.4-0.2,2.9,0.1,4.3c0.7,0.3,1.3,0.6,2,0.9c0.4,0.2,0.6,0.4,0.5,0.9c-0.2,0.8-0.4,1.7-0.5,2.6
	c-0.1,0.5-0.3,0.7-0.7,0.6c-1.8-0.3-2.6,0.6-3.2,2.3c-0.6,1.6-0.6,2.5,0.7,3.5c0.4,0.3,0.4,0.7,0.1,1c-0.1,0.2-0.2,0.3-0.3,0.5
	c-0.5,0.7-0.8,1.6-1.4,1.9c-0.6,0.3-1.4-0.4-2.2-0.6c-0.3-0.1-0.5-0.1-0.7,0.2c-0.9,1-1.8,2-2.8,2.8c-0.2,0.2-0.3,0.4-0.2,0.7
	c0,0,0,0.1,0.1,0.2c0.2,0.7,1,1.6,0.6,2.1c-0.7,0.9-1.8,1.4-2.8,2c-0.3,0.2-0.5-0.1-0.6-0.2c-1.1-1.5-2.3-1.6-3.8-0.5
	c0,0-0.1,0-0.1,0c-1.7,0.3-2.8,1.1-2.4,3.1c0.1,0.4-0.2,0.6-0.5,0.6c-0.9,0.2-1.8,0.3-2.6,0.5c-0.4,0.1-0.8,0-0.9-0.5
	c-0.4-1.7-1.5-2.3-3.1-1.9c0,0-0.1,0-0.1,0c-1.6-0.3-2.7,0.2-3,1.9c-0.1,0.6-0.5,0.7-1.1,0.5c-0.8-0.2-1.5-0.3-2.3-0.5
	c-0.5-0.1-0.8-0.3-0.7-0.8c0.3-1.8-0.7-2.4-2.2-3.1c-1.6-0.7-2.6-0.7-3.6,0.7c-0.3,0.4-0.6,0.4-1,0.1c-0.7-0.5-1.4-0.9-2.1-1.4
	c-0.4-0.3-0.6-0.6-0.3-1c0.9-1.5,0.6-2.7-0.9-3.6c-0.2-0.1-0.4-0.4-0.6-0.5c-1.3-1.4-1.3-1.4-3-0.7c-0.7,0.3-1.1,0.2-1.5-0.5
	c-0.3-0.6-0.7-1.2-1.2-1.7c-0.4-0.5-0.3-0.8,0.1-1.2c1.3-1,1.6-2.1,0.6-3.5c-0.4-0.5-0.5-1.3-0.7-1.9c-0.1-0.4-0.4-0.6-0.9-0.7
	c-0.7,0-1.7,0.3-2.2-0.2c-0.4-0.5-0.4-1.4-0.5-2.1c-0.3-1.5-0.3-1.5,1.1-2.2c1.6-0.8,1.3-0.3,1.2-2.1c0-0.7,0-1.5,0.1-2.3
	c0-0.5-0.1-0.7-0.6-0.9c-1.9-0.9-1.9-0.9-1.5-2.9c0.3-1.7,0.3-1.8,2.1-1.8c0.7,0,1.1-0.2,1.3-0.9c0.3-0.9,0.7-1.8,1.1-2.6
	c0.2-0.5,0.1-0.7-0.2-1c-0.5-0.5-1.4-1-1.4-1.7c0-0.6,0.7-1.3,1.1-1.9C7,25.7,7,25.7,8.4,26.1c1.4,0.5,1.4,0.5,2.3-0.6
	c0.6-0.7,1.2-1.3,1.9-1.9c0.4-0.3,0.4-0.6,0.3-1c-0.2-0.7-0.9-1.5-0.6-2.2c0.3-0.6,1.2-0.9,1.8-1.3c1.2-0.8,1.2-0.8,2.2,0.2
	c0,0,0,0,0.1,0.1c0.6,0.9,1.4,0.9,2.3,0.3c0.8-0.5,1.7-0.8,2.6-1.1c0.4-0.1,0.6-0.4,0.6-0.8c0.1-2.3,0.1-2.3,2.3-2.7
	c1.5-0.3,1.6-0.3,2.1,1.1c0.4,1,0.9,1.4,2,1.2c0.8-0.2,1.6,0,2.4,0c0.5,0,0.7-0.1,0.8-0.5c0.3-0.7,0.4-1.6,1.1-1.9
	c0.6-0.3,1.4,0.2,2.2,0.3c0.2,0,0.5,0.1,0.7,0.1c0.6,0,0.8,0.4,0.8,1c0.1,2,0.1,2,2,2.7c0.2,0.1,0.4,0.1,0.6,0.2
	c1.2,1,2.2,0.5,3-0.6c0.5-0.6,0.9-0.6,1.5-0.1c0.6,0.5,1.2,0.8,1.9,1.2c0.4,0.2,0.5,0.5,0.3,0.8c-1,1.6-0.2,2.6,1,3.8
	c1.3,1.3,2.4,2,4,0.9c0.3-0.2,0.5,0,0.6,0.2c0.5,0.8,1.1,1.6,1.6,2.4c0.2,0.3,0.2,0.6-0.1,0.8c-1.4,1.1-1.7,2.3-0.6,3.7
	c0.1,0.1,0.1,0.3,0.2,0.4c0.3,1.6,1.1,2.5,2.9,2.2c0.5-0.1,0.8,0.2,0.9,0.7c0.1,0.8,0.3,1.6,0.5,2.4c0.1,0.5-0.1,0.8-0.5,1
	C55.3,39.5,54.6,39.6,54.1,40.3z"/>
<path class="st2" d="M64.2,69.6c0.9,0.7,1.7,1.5,2.4,2.4c0.2,0.2,0.3,0.4,0.6,0.3c0.7-0.1,1.3-0.2,2-0.3c0.5-0.1,0.8,0,0.9,0.5
	c0.3,0.8,0.6,1.6,1,2.4c0.2,0.4,0.1,0.7-0.2,0.9c-1.7,0.8-2,2.1-1.9,3.9c0,1.3,0.3,2.1,1.4,2.7c0.9,0.4,1.1,1,0.6,1.9
	c-0.2,0.3-0.2,0.6-0.4,0.9c-0.6,1.6-0.6,1.6-2.3,1.3c-0.9-0.2-1.6-0.2-2.1,0.8c-0.2,0.4-0.6,0.8-1,1c-1,0.6-1.1,1.4-0.8,2.3
	c0,0.1,0.1,0.2,0.1,0.3c0.1,1.6,0.5,1.1-1,1.8c-0.7,0.3-1.5,1-2.2,0.8c-0.7-0.2-1.1-1.2-1.5-1.8c-0.3-0.4-0.6-0.5-1.1-0.5
	c-0.8,0.1-1.7,0.1-2.5,0c-0.5,0-0.8,0.1-1.1,0.6c-1.5,2-1.5,2-3.8,1.1c-1.2-0.5-1.2-0.5-1-1.8c0,0,0-0.1,0-0.1
	c0.3-1.1,0.3-2.1-0.9-2.8c-0.2-0.1-0.3-0.2-0.4-0.4c-0.8-1.4-2-1.5-3.3-1c-0.6,0.2-1,0-1.2-0.6c-0.1-0.4-0.3-0.8-0.5-1.2
	c-0.6-1.5-0.7-1.6,0.7-2.5c0.8-0.5,1.1-1.1,0.9-2c-0.2-0.7-0.1-1.4,0-2.1c0.1-0.6-0.1-0.9-0.6-1.3c-1.8-1.2-1.7-1.3-0.9-3.2
	c0.6-1.6,0.7-1.7,2.3-1.3c0.9,0.2,1.4,0,1.9-0.7c0.3-0.5,0.7-1,1.2-1.2c1-0.6,1-1.4,0.8-2.4c-0.3-1.3-0.3-1.3,0.9-1.8
	c0.6-0.2,1.1-0.4,1.7-0.7c0.5-0.3,0.9-0.2,1.1,0.3c0,0,0,0,0,0.1c0.7,1.3,1.6,1.9,3.1,1.4c0.3-0.1,0.6,0,0.9,0.1
	c1.1,0.2,1.9-0.1,2.3-1.1c0.4-0.9,1-1.1,1.9-0.6c0.5,0.3,1,0.5,1.6,0.7c0.7,0.2,0.7,0.6,0.7,1.2C64.3,68.2,63.9,68.9,64.2,69.6z"/>
<path class="st3" d="M113.4,42.4c0.1,10.3-8.6,18.8-19,18.6C84.3,60.9,76,52.5,76,42.2c0-10.4,8.4-18.7,19-18.7
	C105.2,23.6,113.5,32.1,113.4,42.4z"/>
<path class="st3" d="M29.1,30.1c6.7,0,12.2,5.4,12.3,12.1c0,6.8-5.4,12.3-12.1,12.3c-6.8,0-12.3-5.4-12.3-12.1
	C17,35.5,22.4,30.1,29.1,30.1z"/>
<path class="st3" d="M57.1,84.9c-3.2-0.1-5.7-2.6-5.6-5.7c0.1-3.2,2.7-5.7,5.8-5.6c3,0.1,5.6,2.7,5.6,5.6
	C62.9,82.4,60.3,84.9,57.1,84.9z"/>
</svg>
