<svg id="Layer_1" data-name="Layer 1" xmlns="http://www.w3.org/2000/svg" viewBox="0 0 372.74 213.95"><defs><style>.cls-1{fill:#575654;}.cls-2{fill:#353535;}.cls-3{fill:#e6e6e8;}.cls-4{fill:#a7aaab;}.cls-5{fill:#5ab3ac;}.cls-6{fill:#5bb0a9;}.cls-7{fill:#fefefe;}.cls-8{fill:#d1d0ce;}.cls-9{fill:#fdfdfd;}.cls-10{fill:#a7a7a7;}</style></defs><title>laptop</title><path class="cls-1" d="M62.94,226q0-87.94,0-175.89c0-9,4.55-13.06,14.45-13.06H335.17c4.07,0,8,.23,10.56,4.12a6.09,6.09,0,0,1-3.8,5.44c-2.5,1.17-3,3.1-2.95,5.71.55,51.83.15,103.66.25,155.49,0,1.33-.07,2.66-.12,4-.16,4-2.17,6.12-6.2,6.34-3,.16-6,.14-9,.14-75.16,0-150.33.17-225.49-.16-12-.05-23.14.66-32.78,8.5A2.68,2.68,0,0,1,62.94,226Z" transform="translate(-21.36 -37.02)"/><path class="cls-2" d="M65,226c6.58-6,13.18-10.21,23.14-10.15,80.62.45,161.24.25,241.85.25,7.09,0,7.09,0,7.09-7.1q0-76.45,0-152.91c0-2.49,1-5.59-3.11-6.43,3.22-4.05,8.3-5.15,11.75-8.47,2,1.4,2.84,3.54,3.48,5.78A19.76,19.76,0,0,1,351,56.09q-.08,81.59,0,163.17c0,2.48.26,5-1.39,7.2-1.82,1.94-4.26,1.72-6.55,1.73-33.65.13-67.31.59-101-.14-21.65-.47-43.3-.85-64.93-.28-35.15.93-70.29.21-105.43.42C69.34,228.2,66.62,228.61,65,226Z" transform="translate(-21.36 -37.02)"/><path class="cls-3" d="M65,226q52.16.08,104.33.16,86.86,0,173.73,0c2,0,4-.12,6-.18a2.76,2.76,0,0,1,3.92,0l30.33.07c7,0,7,0,6.74,6.79,0,1.32-.16,2.65-.24,4-1.4,2.09-3.7,2-5.79,2.33a37.69,37.69,0,0,1-5.49.16q-172.48,0-345,0c-3.62,0-7.41.56-10.52-2.12C19.46,230.47,21.73,226,28.7,226l34.24,0Z" transform="translate(-21.36 -37.02)"/><path class="cls-4" d="M23,237.13q84.95-.05,169.9-.1,95.94,0,191.89,0c1.66,0,3.32-.15,5-.24l.17.42c-.33,4.69-4.72,9-10.15,9.78a33.18,33.18,0,0,1-5,.25q-167.17.08-334.33,0c-5.47,0-10.67-.68-14.5-5.21C25.2,240.27,23.21,239.25,23,237.13Z" transform="translate(-21.36 -37.02)"/><path class="cls-5" d="M26,242c6.71,3,13.8,2.9,20.95,2.9q163.12-.06,326.24.08c7.2,0,12.54-2.3,16.79-7.81.25-.43.53-.84.75-1.28.57-1.18-.28-3.63,2-3.22,1.87.33,1.22,2.46,1.29,3.86.41,8.19-4.37,13.61-12.62,14.33-1.49.13-3,.07-4.49.07q-166.84,0-333.68,0C35.91,251,29.26,249.79,26,242Z" transform="translate(-21.36 -37.02)"/><path class="cls-6" d="M353,225.95H349q0-87,.07-174c0-1.66.07-3.32.1-5,2.94,1.93,3.82,4.69,3.82,8.13Q352.93,140.5,353,225.95Z" transform="translate(-21.36 -37.02)"/><path class="cls-7" d="M205.63,215.11c-42,0-84,0-126,.1-3.35,0-3.8-1.11-3.8-4Q76,133,75.82,54.81c0-3.47,1.25-4,4.33-4q125,.13,249.91,0c4.88,0,6.29,1.14,6.27,6.27q-.34,76.47,0,152.94c0,4.17-1.07,5.23-5.2,5.21C289.27,215,247.45,215.11,205.63,215.11Z" transform="translate(-21.36 -37.02)"/><path class="cls-8" d="M205.94,46.74a1.71,1.71,0,0,1-1.65-2A1.59,1.59,0,0,1,206,43.3a1.63,1.63,0,0,1,1.72,1.93A1.66,1.66,0,0,1,205.94,46.74Z" transform="translate(-21.36 -37.02)"/><path class="cls-9" d="M183,232c-2.62-.89-7.31.23-7-3.65.22-2.53,4.6-1.19,7.08-1.21,16.27-.12,32.55-.08,48.82,0,1.5,0,4.12-.87,4.23,1.21.13,2.45-2.49,2.67-4.53,2.67-14.28,0-28.56,0-42.84,0-2,0-4-.44-5.76.94Z" transform="translate(-21.36 -37.02)"/><path class="cls-10" d="M183,232h45.37a6.29,6.29,0,0,1-4.89,1.67c-11.48.06-23,.1-34.43-.09-2,0-4.41.31-6.08-1.57Z" transform="translate(-21.36 -37.02)"/></svg>