<svg id="Layer_1" data-name="Layer 1" xmlns="http://www.w3.org/2000/svg" viewBox="0 0 179.63 190.66"><defs><style>.cls-1,.cls-2{fill:none;stroke:#fff;stroke-miterlimit:10;}.cls-1{stroke-width:8px;}.cls-2{stroke-width:4px;}</style></defs><title>logo</title><path class="cls-1" d="M182.23,108.37c.17-1.39-.5-1.9-2.22-3.87a2.88,2.88,0,0,1-.37-1.24,4.55,4.55,0,0,1,.89-2.23c2.37-3.6,1-5.07-2.43-6.48-4.39-1.78-5.3-3.69-7.15-8.2-.73-1.77-3.21-3.6-3.35-5.37a9.45,9.45,0,0,1,.18-1.53c.27-1.39.74-2.75,1.08-4.1.28-1.07-.79-4.31-1.45-5.83-3.22-7.45-8.23-10.29-15-13.75-5.56-2.83-10.84-8.53-14-13.91-1.75-3-4.91-3.34-7.76-4.81l-11.49-5.9c-2.71-1.39-8-2.9-9.85-5.31s-1.18-5.92-.57-8.47c.23-1-5.53-.15-10.22,2.76-5.63,3.49-11.87,5.85-17.62,9-5.18,2.79-11.19,4.33-16.05,7.67-4.33,3-6.46,8.7-11.31,11-15,7-25.53,18.48-36.27,30.85-1.54,1.77-5.46,4.65-6.37,6.42-1.11,2.17,1.46,3.41.65,5.85a3.82,3.82,0,0,0,1.08,3.64c.15.11,4.89,5.53,4,9.28-.36,1.51-1.51,5.58-1.2,7.51,3.52,9.25,13,23.84,18.77,38.82,5.73,14.79,7.28,22.25,12.42,29.34,3.66,5,10.53,7.3,16.11,9.36A171,171,0,0,0,84,195.07c15,3.39,31.82,5.88,47.14,3.79,7.24-1,14.4-2.52,21.79-2.28a33.36,33.36,0,0,0,11.57-1.63c4.88-1.63,9.56-3.83,14.32-5.85a3.56,3.56,0,0,0,1.67-1.41c1.87-3.12-3.5-5.38-4.32-8.21-.51-1.75-.47-3.83-1.82-5.06A9,9,0,0,0,171.1,173c-2.84-1-5-3.28-7.36-5.13a12.26,12.26,0,0,0-7.92-2.74,13,13,0,0,1,1.06-3.15c4-9.61,8.24-19.64,12.83-29.18,2.47-5.13,5.06-10.21,7.8-15.19,1.28-2.33,3.47-4.95,4.27-7.46A10.45,10.45,0,0,0,182.23,108.37Z" transform="translate(-6.62 -12.97)"/><path class="cls-2" d="M14.5,106c6.5,8.5,39,27.5,91,26.5,44.49-.86,61-3,76.73-24.13" transform="translate(-6.62 -12.97)"/></svg>