<svg id="Layer_1" data-name="Layer 1" xmlns="http://www.w3.org/2000/svg" xmlns:xlink="http://www.w3.org/1999/xlink" viewBox="0 0 627.71 527.12"><defs><style>.cls-1{fill:none;}.cls-2{fill:#636363;}.cls-3{fill:#666565;}.cls-4{fill:#fff;}.cls-5{clip-path:url(#clip-path);}.cls-6{fill:#020202;}</style><clipPath id="clip-path" transform="translate(-14.24 3.07)"><path class="cls-1" d="M472.52,261.13c-4-13-11.24-22.47-23.16-28.95-2.83-1.54-5.06-5.22-6.35-8.4a139.4,139.4,0,0,0-42.67-57,135.16,135.16,0,0,0-36.64-21.5c-2.19-.84-4.13-4-5-6.45-7.48-22.45-30.82-37.65-54.45-35.06a12.23,12.23,0,0,0-2.47.46l-.37.13c-.79.31-1.51.78-2.27,1.17-3.73,1.87-8,2.27-11.78,4.17a44.79,44.79,0,0,0-9.57,6.42c-5.83,5.13-10.27,11.64-13.88,18.48a7.77,7.77,0,0,0-.9,2.83c-.65,7.16-6.77,8.55-11.73,10.72a136.86,136.86,0,0,0-43.91,31.06c-12.75,13.25-22.87,28.22-29.33,45.56-1.56,4.18-4.71,6.56-8.69,8.89-10.18,6-17.32,14.71-20.18,26.57-5.18,21.49.3,37.54,18.41,50.18,5,3.48,11.27,10.24,17.18,12.13l244.73-.33c12.95-2.69,30.11-13.36,37.16-24.66S476.63,274.54,472.52,261.13Z"/></clipPath></defs><title>logo</title><circle class="cls-2" cx="296.87" cy="285.17" r="241.94"/><path class="cls-3" d="M419.55,429.21" transform="translate(-14.24 3.07)"/><path class="cls-3" d="M246.21,450.21" transform="translate(-14.24 3.07)"/><path class="cls-4" d="M303.28,104.2c23.62-2.58,47,12.61,54.45,35.06.83,2.48,2.77,5.62,5,6.45a135.17,135.17,0,0,1,36.64,21.5,139.4,139.4,0,0,1,42.67,57c1.29,3.19,3.52,6.86,6.35,8.4,11.92,6.48,19.19,16,23.16,28.95,4.1,13.42,1.18,25.2-5.82,36.42S448,315.57,435.1,318.25a5.16,5.16,0,0,0-3.28,3.29c-1.26,6.62-2.22,13.57-3.61,20.16-2.58,12.27-5,24.32-8,36.48L205.69,402.55c-2.32-8.94-4.75-17.85-7-26.81-2.12-8.49-3.85-17.08-6.11-25.53-2.44-9.1-2-17.68-5-27.67-.85-2.86-1.09-3.71-3.8-4.58-5.9-1.89-12.2-3.66-17.18-7.13-18.11-12.65-23.59-28.7-18.41-50.18,2.86-11.86,10-20.6,20.18-26.57,4-2.33,7.13-4.7,8.69-8.89,6.46-17.34,16.58-32.31,29.33-45.56a136.87,136.87,0,0,1,43.91-31.06c5-2.17,11.08-3.56,11.73-10.72A7.77,7.77,0,0,1,263,135c3.6-6.83,8-13.35,13.88-18.48a44.78,44.78,0,0,1,9.57-6.42c3.78-1.89,8.06-2.3,11.78-4.17.76-.38,1.48-.85,2.27-1.17l.37-.13a12.23,12.23,0,0,1,2.47-.46" transform="translate(-14.24 3.07)"/><path class="cls-3" d="M410,421.2" transform="translate(-14.24 3.07)"/><path class="cls-3" d="M236.65,442.2" transform="translate(-14.24 3.07)"/><g class="cls-5"><path class="cls-6" d="M55.4-3A12.05,12.05,0,0,0,46,.43L17.53,29a11.14,11.14,0,0,0,.39,16.17,12.21,12.21,0,0,0,16.8-.29L63.19,16.31A11.14,11.14,0,0,0,62.8.14,12.12,12.12,0,0,0,55.4-3Z" transform="translate(-14.24 3.07)"/><path class="cls-6" d="M55.4,106.71a12.05,12.05,0,0,0-9.4,3.46L17.53,138.75a11.14,11.14,0,0,0,.39,16.17,12.21,12.21,0,0,0,16.8-.29l28.48-28.57a11.14,11.14,0,0,0-.39-16.17A12.12,12.12,0,0,0,55.4,106.71Z" transform="translate(-14.24 3.07)"/><path class="cls-6" d="M55.4,216.46a12.05,12.05,0,0,0-9.4,3.46L17.53,248.49a11.14,11.14,0,0,0,.39,16.17,12.21,12.21,0,0,0,16.8-.29l28.48-28.57a11.14,11.14,0,0,0-.39-16.17A12.12,12.12,0,0,0,55.4,216.46Z" transform="translate(-14.24 3.07)"/><path class="cls-6" d="M55.4,326.21a12.05,12.05,0,0,0-9.4,3.46L17.53,358.24a11.14,11.14,0,0,0,.39,16.17,12.21,12.21,0,0,0,16.8-.29l28.48-28.57a11.14,11.14,0,0,0-.39-16.17A12.12,12.12,0,0,0,55.4,326.21Z" transform="translate(-14.24 3.07)"/><path class="cls-6" d="M107.52,60a12.05,12.05,0,0,1,9.4,3.46L145.4,92a11.14,11.14,0,0,1-.39,16.17,12.21,12.21,0,0,1-16.8-.29L99.74,79.36a11.14,11.14,0,0,1,.39-16.17A12.12,12.12,0,0,1,107.52,60Z" transform="translate(-14.24 3.07)"/><path class="cls-6" d="M107.52,169.75a12.05,12.05,0,0,1,9.4,3.46l28.48,28.57A11.14,11.14,0,0,1,145,218a12.21,12.21,0,0,1-16.8-.29L99.74,189.1a11.14,11.14,0,0,1,.39-16.17A12.12,12.12,0,0,1,107.52,169.75Z" transform="translate(-14.24 3.07)"/><path class="cls-6" d="M107.52,279.5a12.05,12.05,0,0,1,9.4,3.46l28.48,28.57a11.14,11.14,0,0,1-.39,16.17,12.21,12.21,0,0,1-16.8-.29L99.74,298.85a11.14,11.14,0,0,1,.39-16.17A12.12,12.12,0,0,1,107.52,279.5Z" transform="translate(-14.24 3.07)"/><path class="cls-6" d="M107.52,389.25a12.05,12.05,0,0,1,9.4,3.46l28.48,28.57a11.14,11.14,0,0,1-.39,16.17,12.21,12.21,0,0,1-16.8-.29L99.74,408.6a11.14,11.14,0,0,1,.39-16.17A12.12,12.12,0,0,1,107.52,389.25Z" transform="translate(-14.24 3.07)"/><path class="cls-6" d="M219.83-3a12.05,12.05,0,0,0-9.4,3.46L182,29a11.14,11.14,0,0,0,.39,16.17,12.21,12.21,0,0,0,16.8-.29l28.48-28.57A11.14,11.14,0,0,0,227.22.14,12.12,12.12,0,0,0,219.83-3Z" transform="translate(-14.24 3.07)"/><path class="cls-6" d="M219.83,106.71a12.05,12.05,0,0,0-9.4,3.46L182,138.75a11.14,11.14,0,0,0,.39,16.17,12.21,12.21,0,0,0,16.8-.29l28.48-28.57a11.14,11.14,0,0,0-.39-16.17A12.12,12.12,0,0,0,219.83,106.71Z" transform="translate(-14.24 3.07)"/><path class="cls-6" d="M219.83,216.46a12.05,12.05,0,0,0-9.4,3.46L182,248.49a11.14,11.14,0,0,0,.39,16.17,12.21,12.21,0,0,0,16.8-.29l28.48-28.57a11.14,11.14,0,0,0-.39-16.17A12.12,12.12,0,0,0,219.83,216.46Z" transform="translate(-14.24 3.07)"/><path class="cls-6" d="M271.95,60a12.05,12.05,0,0,1,9.4,3.46L309.82,92a11.14,11.14,0,0,1-.39,16.17,12.21,12.21,0,0,1-16.8-.29L264.16,79.36a11.14,11.14,0,0,1,.39-16.17A12.12,12.12,0,0,1,271.95,60Z" transform="translate(-14.24 3.07)"/><path class="cls-6" d="M271.95,169.75a12.05,12.05,0,0,1,9.4,3.46l28.48,28.57a11.14,11.14,0,0,1-.39,16.17,12.21,12.21,0,0,1-16.8-.29L264.16,189.1a11.14,11.14,0,0,1,.39-16.17A12.12,12.12,0,0,1,271.95,169.75Z" transform="translate(-14.24 3.07)"/><path class="cls-6" d="M271.95,279.5a12.05,12.05,0,0,1,9.4,3.46l28.48,28.57a11.14,11.14,0,0,1-.39,16.17,12.21,12.21,0,0,1-16.8-.29l-28.48-28.57a11.14,11.14,0,0,1,.39-16.17A12.12,12.12,0,0,1,271.95,279.5Z" transform="translate(-14.24 3.07)"/><path class="cls-6" d="M271.95,389.25a12.05,12.05,0,0,1,9.4,3.46l28.48,28.57a11.14,11.14,0,0,1-.39,16.17,12.21,12.21,0,0,1-16.8-.29L264.16,408.6a11.14,11.14,0,0,1,.39-16.17A12.12,12.12,0,0,1,271.95,389.25Z" transform="translate(-14.24 3.07)"/><path class="cls-6" d="M384.25-3a12.05,12.05,0,0,0-9.4,3.46L346.37,29a11.14,11.14,0,0,0,.39,16.17,12.21,12.21,0,0,0,16.8-.29L392,16.31A11.14,11.14,0,0,0,391.64.14,12.12,12.12,0,0,0,384.25-3Z" transform="translate(-14.24 3.07)"/><path class="cls-6" d="M384.25,106.71a12.05,12.05,0,0,0-9.4,3.46l-28.48,28.57a11.14,11.14,0,0,0,.39,16.17,12.21,12.21,0,0,0,16.8-.29L392,126.06a11.14,11.14,0,0,0-.39-16.17A12.12,12.12,0,0,0,384.25,106.71Z" transform="translate(-14.24 3.07)"/><path class="cls-6" d="M384.25,216.46a12.05,12.05,0,0,0-9.4,3.46l-28.48,28.57a11.14,11.14,0,0,0,.39,16.17,12.21,12.21,0,0,0,16.8-.29L392,235.81a11.14,11.14,0,0,0-.39-16.17A12.12,12.12,0,0,0,384.25,216.46Z" transform="translate(-14.24 3.07)"/><path class="cls-6" d="M436.37,60a12.05,12.05,0,0,1,9.4,3.46L474.24,92a11.14,11.14,0,0,1-.39,16.17,12.21,12.21,0,0,1-16.8-.29L428.58,79.36A11.14,11.14,0,0,1,429,63.18,12.12,12.12,0,0,1,436.37,60Z" transform="translate(-14.24 3.07)"/><path class="cls-6" d="M436.37,169.75a12.05,12.05,0,0,1,9.4,3.46l28.48,28.57a11.14,11.14,0,0,1-.39,16.17,12.21,12.21,0,0,1-16.8-.29L428.58,189.1a11.14,11.14,0,0,1,.39-16.17A12.12,12.12,0,0,1,436.37,169.75Z" transform="translate(-14.24 3.07)"/><path class="cls-6" d="M436.37,279.5a12.05,12.05,0,0,1,9.4,3.46l28.48,28.57a11.14,11.14,0,0,1-.39,16.17,12.21,12.21,0,0,1-16.8-.29l-28.48-28.57a11.14,11.14,0,0,1,.39-16.17A12.12,12.12,0,0,1,436.37,279.5Z" transform="translate(-14.24 3.07)"/><path class="cls-6" d="M436.37,389.25a12.05,12.05,0,0,1,9.4,3.46l28.48,28.57a11.14,11.14,0,0,1-.39,16.17,12.21,12.21,0,0,1-16.8-.29L428.58,408.6a11.14,11.14,0,0,1,.39-16.17A12.12,12.12,0,0,1,436.37,389.25Z" transform="translate(-14.24 3.07)"/><path class="cls-6" d="M548.67-3a12.05,12.05,0,0,0-9.4,3.46L510.79,29a11.14,11.14,0,0,0,.39,16.17,12.21,12.21,0,0,0,16.8-.29l28.48-28.57A11.14,11.14,0,0,0,556.07.14,12.12,12.12,0,0,0,548.67-3Z" transform="translate(-14.24 3.07)"/><path class="cls-6" d="M548.67,106.71a12.05,12.05,0,0,0-9.4,3.46l-28.48,28.57a11.14,11.14,0,0,0,.39,16.17,12.21,12.21,0,0,0,16.8-.29l28.48-28.57a11.14,11.14,0,0,0-.39-16.17A12.12,12.12,0,0,0,548.67,106.71Z" transform="translate(-14.24 3.07)"/><path class="cls-6" d="M548.67,216.46a12.05,12.05,0,0,0-9.4,3.46l-28.48,28.57a11.14,11.14,0,0,0,.39,16.17,12.21,12.21,0,0,0,16.8-.29l28.48-28.57a11.14,11.14,0,0,0-.39-16.17A12.12,12.12,0,0,0,548.67,216.46Z" transform="translate(-14.24 3.07)"/><path class="cls-6" d="M548.67,326.21a12.05,12.05,0,0,0-9.4,3.46l-28.48,28.57a11.14,11.14,0,0,0,.39,16.17,12.21,12.21,0,0,0,16.8-.29l28.48-28.57a11.14,11.14,0,0,0-.39-16.17A12.12,12.12,0,0,0,548.67,326.21Z" transform="translate(-14.24 3.07)"/><path class="cls-6" d="M600.79,60a12.05,12.05,0,0,1,9.4,3.46L638.67,92a11.14,11.14,0,0,1-.39,16.17,12.21,12.21,0,0,1-16.8-.29L593,79.36a11.14,11.14,0,0,1,.39-16.17A12.12,12.12,0,0,1,600.79,60Z" transform="translate(-14.24 3.07)"/><path class="cls-6" d="M600.79,169.75a12.05,12.05,0,0,1,9.4,3.46l28.48,28.57a11.14,11.14,0,0,1-.39,16.17,12.21,12.21,0,0,1-16.8-.29L593,189.1a11.14,11.14,0,0,1,.39-16.17A12.12,12.12,0,0,1,600.79,169.75Z" transform="translate(-14.24 3.07)"/><path class="cls-6" d="M600.79,279.5a12.05,12.05,0,0,1,9.4,3.46l28.48,28.57a11.14,11.14,0,0,1-.39,16.17,12.21,12.21,0,0,1-16.8-.29L593,298.85a11.14,11.14,0,0,1,.39-16.17A12.12,12.12,0,0,1,600.79,279.5Z" transform="translate(-14.24 3.07)"/><path class="cls-6" d="M600.79,389.25a12.05,12.05,0,0,1,9.4,3.46l28.48,28.57a11.14,11.14,0,0,1-.39,16.17,12.21,12.21,0,0,1-16.8-.29L593,408.6a11.14,11.14,0,0,1,.39-16.17A12.12,12.12,0,0,1,600.79,389.25Z" transform="translate(-14.24 3.07)"/></g><path class="cls-6" d="M186.95,321c1.26,6.62,1.76,13.4,3.14,20q3.87,18.4,8.46,36.65c3.12,12.48,4.68,32.68,7.73,45.18,2.41,9.86,6.84,13.54,15.33,18.5,3.18,1.86,10.86,1.69,14.17,3.33H383.95c3.3-1.64,11-1.48,14.17-3.33,8.49-5,12.93-8.64,15.33-18.5,3.05-12.5,4.61-32.7,7.73-45.18,3-12.16,4.88-24.38,7.46-36.65,1.39-6.59,2.89-13.37,4.14-20" transform="translate(-14.24 3.07)"/></svg>