<?xml version="1.0" encoding="utf-8"?>
<!-- Generator: Adobe Illustrator 21.0.0, SVG Export Plug-In . SVG Version: 6.00 Build 0)  -->
<svg version="1.1" id="Layer_1" xmlns="http://www.w3.org/2000/svg" xmlns:xlink="http://www.w3.org/1999/xlink" x="0px" y="0px"
	 viewBox="0 0 417 594" style="enable-background:new 0 0 417 594;" xml:space="preserve">
<style type="text/css">
	.st0{fill:#FFFFFF;}
</style>
<path d="M394,564c-123.3,0-246.7,0-370,0c0-181.3,0-362.7,0-544c123.3,0,246.7,0,370,0c0,1.7,0.1,3.3,0.1,5c0,178,0,356,0,534
	C394.1,560.7,394,562.3,394,564z M28.5,24.4c0,178.8,0,357.3,0,535.8c120.6,0,240.8,0,361.1,0c0-178.8,0-357.2,0-535.8
	C269.2,24.4,149.1,24.4,28.5,24.4z"/>
<path class="st0" d="M394,564c0-1.7,0.1-3.3,0.1-5c0-178,0-356,0-534c0-1.7-0.1-3.3-0.1-5c0.3,0.2,0.9,0.3,1,0.5c0.1,1.3,0,2.7,0,4
	c0,178.3,0,356.7,0,535C395,561,394.3,562.5,394,564z"/>
<path d="M316.1,158.6c0,17.5-0.1,34.3,0.1,51.1c0.1,5.4-1,9.7-4.1,14.4c-15.1,22.7-29.5,45.9-44.5,68.7c-3,4.5-4.4,9.1-4.5,14.4
	c-0.2,8.3-0.3,16.7-5.4,24c-0.8,1.2-0.6,3.2-0.6,4.8c0,12.8,0,25.7,0,38.5c0,1.3-0.1,2.6-0.2,4.1c-34.2,0-68.1,0-102.4,0
	c0-56.8,0-113.5,0-170.7c10.8,0,21.4-0.6,32,0.2c9.4,0.7,16.8-1.5,22.9-8.8c2.1-2.5,4.9-4.5,7.5-6.8c-2.7-5.4-5.4-10.6-8-15.9
	c-0.3,0.1-0.6,0.2-0.9,0.2c0,5.7,0,11.5,0,17.6c-1.7,0.2-3.1,0.3-4.8,0.5c0-10.4,0-20.5,0-30.8c3.3-1.3,5.3-0.3,6.8,3.1
	c2.2,5.2,4.9,10.1,8.6,15.1c0-5.1-0.2-10.3,0.1-15.4c0.1-1.3,1.7-2.6,2.6-3.8c0.6,0.3,1.1,0.6,1.7,0.8c0,7.1,0,14.2,0,22.3
	c1.7-1.2,2.8-1.8,3.7-2.5c7.5-6.6,15.9-12.4,22.1-20.1c4.5-5.7,9.3-5.1,14.7-5.1C280.8,158.6,298.1,158.6,316.1,158.6z"/>
<path d="M251.7,168.3c-1.2,0.8-1.9,1.1-2.5,1.6c-22.3,19.8-44.6,39.6-66.7,59.5c-1.3,1.2-2.2,3.7-2.2,5.6
	c-0.1,36.1-0.1,72.3-0.1,108.4c0,1,0.3,2,0.6,3.9c6-6.9,11.8-12.9,16.8-19.5c5.2-6.9,7.1-15.3,6-23.7c-0.5-3.6,0.3-6,1.9-8.7
	c15.3-25.5,30.7-51,45.9-76.5c1.1-1.8,2.1-4,2-5.9C253,198.4,252.3,183.8,251.7,168.3z"/>
<path d="M209.6,297.6c16.6,0,32,0.1,47.5-0.1c1.5,0,3.5-1.8,4.4-3.2c15.2-23.5,30.2-47,45.3-70.5c0.7-1,1.1-2.2,1.9-3.7
	c-17,0-33.5-0.1-50,0.1c-1.5,0-3.5,1.6-4.4,3c-5,8-9.8,16.2-14.7,24.3C229.9,263.9,220.1,280.3,209.6,297.6z"/>
<path d="M240.8,362.7c-23.6,0-46.8,0-70.2,0c0-46,0-91.7,0-138.2c11.4,3.4,16.1-5.6,23.9-11.7c-12.6,0-23.9,0-35.4,0
	c0,54.1,0,107.8,0,161.7c31.3,0,62.4,0,93.4,0c0-12.2,0-24.1,0-36.3C243,347,242.2,348.7,240.8,362.7z"/>
<path d="M311.5,215c0-17.7,0-34.7,0-51.6c-18.6,0-36.8,0-55.4,0c0.6,17.4,1.2,34.4,1.8,51.6C276.1,215,293.7,215,311.5,215z"/>
<path d="M208.2,302.2c3.6,22.7-13.4,35.1-24.9,50.4c16.6,0,32.4,0.1,48.2-0.1c1.5,0,3.4-1.2,4.5-2.5c5.1-5.7,9.6-11.9,15-17.4
	c8.5-8.7,7.8-19.5,8.1-30.4C242,302.2,225.5,302.2,208.2,302.2z"/>
<path d="M180.6,525.3c-0.1-14.7,11.2-26.2,25.6-26.3c14.7-0.1,26.1,11.3,26.2,26.1c0.1,14.5-11.2,25.9-25.8,26
	C192,551.2,180.7,540,180.6,525.3z M195,543.4c11,6,22.5,3.4,29.1-5.6c6.3-8.7,4.6-22.4-2.1-26.8C213,521.7,204.1,532.4,195,543.4z
	 M217.1,506.6c-10-5.6-21.3-3.1-28,5.6c-6.2,8.1-5.7,19.7,1.3,26.4C199.2,528.1,208,517.5,217.1,506.6z"/>
<path d="M234.4,66.5c0,14.7-11.3,25.9-26,25.9c-14.6,0-25.9-11.4-25.8-26.1c0.1-14.5,11.8-26.1,26.1-26
	C223.3,40.4,234.4,51.7,234.4,66.5z M197.2,84.4c8.8,6.1,20.4,4.4,27.6-3.7c7.3-8.3,7.3-20.2-0.5-28.7
	C215.2,62.8,206.2,73.6,197.2,84.4z M192.4,80.1c9.1-10.9,17.9-21.6,26.9-32.3c-10.8-5.3-21.3-2.9-27.9,5.5
	C185.1,61.1,185.7,74.3,192.4,80.1z"/>
<path d="M228,407.5c0,10.7-5.8,17-14.6,15.7c-6.7-0.9-10.8-7.7-10.4-16.9c0.4-9.1,5-14.8,12.1-15C222.9,391.1,228,397.6,228,407.5z
	 M222.7,406.3c-0.2-0.9,0-3.1-1-4.4c-1.6-2-4-4.8-6-4.7c-2.3,0.1-4.7,2.7-6.4,4.8c-1,1.2-0.9,3.5-1,5.3c-0.1,6.4,2.8,10.7,7.2,10.8
	C219.8,418,222.7,413.7,222.7,406.3z"/>
<path class="st0" d="M251.7,168.3c0.6,15.5,1.3,30.1,1.8,44.7c0.1,2-1,4.2-2,5.9c-15.2,25.6-30.6,51.1-45.9,76.5
	c-1.6,2.7-2.4,5-1.9,8.7c1.1,8.4-0.8,16.8-6,23.7c-5,6.6-10.8,12.6-16.8,19.5c-0.3-1.9-0.6-2.9-0.6-3.9c0-36.1-0.1-72.3,0.1-108.4
	c0-1.9,0.9-4.3,2.2-5.6c22.2-19.9,44.4-39.7,66.7-59.5C249.7,169.4,250.5,169.1,251.7,168.3z"/>
<path class="st0" d="M209.6,297.6c10.4-17.3,20.2-33.7,30.1-50.1c4.9-8.1,9.7-16.3,14.7-24.3c0.9-1.4,2.9-3,4.4-3
	c16.5-0.2,32.9-0.1,50-0.1c-0.8,1.5-1.2,2.7-1.9,3.7c-15.1,23.5-30.1,47.1-45.3,70.5c-0.9,1.5-2.9,3.2-4.4,3.2
	C241.7,297.7,226.2,297.6,209.6,297.6z"/>
<path class="st0" d="M240.8,362.7c1.4-14,2.2-15.7,11.7-24.5c0,12.2,0,24,0,36.3c-31,0-62.1,0-93.4,0c0-53.9,0-107.6,0-161.7
	c11.4,0,22.8,0,35.4,0c-7.8,6.1-12.5,15.1-23.9,11.7c0,46.5,0,92.2,0,138.2C193.9,362.7,217.2,362.7,240.8,362.7z"/>
<path class="st0" d="M311.5,215c-17.8,0-35.3,0-53.6,0c-0.6-17.1-1.2-34.2-1.8-51.6c18.6,0,36.8,0,55.4,0
	C311.5,180.3,311.5,197.3,311.5,215z"/>
<path class="st0" d="M208.2,302.2c17.4,0,33.8,0,50.7,0c-0.3,10.9,0.4,21.7-8.1,30.4c-5.3,5.5-9.9,11.7-15,17.4
	c-1.1,1.2-2.9,2.4-4.5,2.5c-15.8,0.2-31.6,0.1-48.2,0.1C194.8,337.3,211.7,324.9,208.2,302.2z"/>
<path class="st0" d="M195,543.4c9.1-11,18.1-21.7,27-32.3c6.7,4.4,8.5,18.1,2.1,26.8C217.5,546.8,205.9,549.3,195,543.4z"/>
<path class="st0" d="M217.1,506.6c-9.1,10.9-17.9,21.5-26.7,32c-7-6.7-7.4-18.3-1.3-26.4C195.8,503.5,207.1,501,217.1,506.6z"/>
<path class="st0" d="M197.2,84.4c9-10.8,18-21.6,27.1-32.5c7.7,8.5,7.8,20.4,0.5,28.7C217.6,88.8,206,90.5,197.2,84.4z"/>
<path class="st0" d="M192.4,80.1c-6.7-5.8-7.2-19-1-26.8c6.7-8.4,17.1-10.8,27.9-5.5C210.3,58.5,201.4,69.2,192.4,80.1z"/>
<path class="st0" d="M193.7,178.1c0.1,7.4-2.7,11.8-7,11.9c-4.5,0.1-7.6-4.5-7.3-11.1c0.1-1.8,0.1-4,1.1-5.3c1.6-2,4.1-4.5,6.2-4.5
	c2.1,0,4.5,2.6,6.1,4.6C193.7,175,193.5,177.2,193.7,178.1z"/>
<path class="st0" d="M222.7,406.3c0,7.4-2.8,11.7-7.1,11.7c-4.3,0-7.3-4.3-7.2-10.8c0-1.8,0-4.1,1-5.3c1.7-2.1,4.2-4.7,6.4-4.8
	c1.9-0.1,4.4,2.7,6,4.7C222.7,403.2,222.5,405.4,222.7,406.3z"/>
<path d="M194,165c1-1,4,0,4,0v30l-4,1V165z"/>
<polygon points="189,194 186,163 182,163 178,171 173,163 166,163 165,194 170,194 171,174 175,179 179,179 182,174 184,194 "/>
<path d="M171,409c5,0,5-18-3-18h-11l1,40h6v-21L171,409z"/>
<path class="st0" d="M151.3,398.9c0,3.9-2,6.1-4.9,6.1c-3,0-5.1-2.3-5-5.6c0-0.9,0-2.1,0.7-2.7c1.2-1.1,2.4-1.6,4-1.6
	c1.3-0.1,2.9,0.9,4,2C150.7,397.7,151.2,398.4,151.3,398.9z"/>
<path d="M194,410c5,0,5-18-3-18h-11l1,40h6v-21l10,21h5L194,410z"/>
<path class="st0" d="M171.3,399.9c0,3.9-2,6.1-4.9,6.1c-3,0-5.1-2.3-5-5.6c0-0.9,0-2.1,0.7-2.7c1.2-1.1,2.4-1.6,4-1.6
	c1.3-0.1,2.9,0.9,4,2C170.7,398.7,171.2,399.4,171.3,399.9z"/>
<path d="M257,411.8c0,12.9-7,20.2-16,20.2c-8,0-9-1-9-1l2-38c0,0,6.8-0.6,10.1-0.7C251.9,392,257,399.8,257,411.8z M251.7,410.4
	c-0.2-1.1,0-3.7-1-5.3c-1.6-2.4-4-5.8-6-5.7c-2.3,0.1-4.7,3.3-6.4,5.8c-1,1.5-0.9,4.2-1,6.4c-0.1,7.7,2.8,12.9,7.2,13
	C248.8,424.5,251.7,419.3,251.7,410.4z"/>
<path class="st0" d="M251.7,410.4c0,8.9-2.8,14.2-7.1,14.1c-4.3,0-7.3-5.2-7.2-13c0-2.2,0-4.9,1-6.4c1.7-2.5,4.2-5.6,6.4-5.8
	c1.9-0.1,4.4,3.3,6,5.7C251.7,406.6,251.5,409.3,251.7,410.4z"/>
<path class="st0" d="M194.3,400.9c0,3.9-2,6.1-4.9,6.1c-3,0-5.1-2.3-5-5.6c0-0.9,0-2.1,0.7-2.7c1.2-1.1,2.4-1.6,4-1.6
	c1.3-0.1,2.9,0.9,4,2C193.7,399.7,194.2,400.4,194.3,400.9z"/>
</svg>
