<?xml version="1.0" encoding="utf-8"?>
<!-- Generator: Adobe Illustrator 21.0.0, SVG Export Plug-In . SVG Version: 6.00 Build 0)  -->
<svg version="1.1" id="Layer_1" xmlns="http://www.w3.org/2000/svg" xmlns:xlink="http://www.w3.org/1999/xlink" x="0px" y="0px"
	 viewBox="0 0 382 588" style="enable-background:new 0 0 382 588;" xml:space="preserve">
<style type="text/css">
	.st0{fill:#232323;}
</style>
<path class="st0" d="M41.9,586.8c6.1-14.2,11.9-28.5,17-43.1c5.1-14.6,11.7-28.6,19-42.3c1.2-2.2,1.1-3.8-0.6-5.8
	c-11.6-13.6-10.1-11.5-0.1-24.1c13.3-16.9,29.8-30.4,47.3-42.6c3-2.1,5.7-4.6,7.6-7.7c0.6-1,1.8-1.8,1.3-3.1c-0.6-1.4-2-0.9-3.1-0.9
	c-4.8,0.3-9.6-0.2-14.4,0.7c-4.4,0.8-6.3-1.2-5.5-5.7c2.4-13.9,5.1-27.8,7.4-41.7c0.9-5.4,3.6-8.5,8.9-10c11.2-3,22.4-6.4,33.6-9.7
	c3.4-1,8.2-0.5,8.7-5.8c0.4-3.9-3.5-10.3-7.6-12.1c-6.3-2.8-9.8-7.3-9.4-14.4c0.3-4.2,2-7.9,5.6-10.1c4.7-2.9,3.8-6.7,2.3-10.5
	c-1.6-4.1-3.1-8.5-9.2-8.2c-11.1,0.6-21.9-0.7-32-5.9c-5.1-2.6-9.6-5.9-13.4-10.2c-4.9-5.5-6.4-11.4-2.4-17.3
	c4.6-6.9,8.4-14.3,12.9-21.3c3.3-5.2,7.9-9.4,13.1-12.9c2.2-1.4,2.4-2.7,1-4.9c-3.8-5.7-4.9-11.9-2.9-18.6c0.7-2.4-0.4-4.2-1.7-6
	c-10.3-14.3-10.7-31.9-0.9-46.2c1.4-2.1,1.3-3.9,0.9-6c-1.1-5.7-0.6-11.7,4.2-15.1c6.9-4.9,8.2-12.2,10.7-19.1
	c5.6-15.5,12.7-30.2,23-43c6.9-8.6,14.6-16.3,24.5-21.6c1.2-0.6,2.3-1.5,3.5-1.7c4.5-0.6,7.3-3.5,9.6-7.1
	c8.4-12.8,19.9-21.4,35.1-24.3c9.8-1.8,19.2,0,28.3,4c2,0.9,4,1.5,6.2,1.3c25.4-2,43,15,45.1,39.8c0.8,9.1,3.2,16.9,7.5,24.8
	c8.7,15.9,10.3,33.2,8.3,50.9c-1.9,17-9.6,32.1-15.6,47.8c-2.3,6-4.5,12-7.2,19.1c5.1-2.4,7.4-6.4,11.2-8.4c1.7-0.9,3.3-2.9,5.4-1.6
	c2.1,1.3,1.7,3.8,1.5,6c-1.1,12.5-4.8,24.4-8.6,36.3c-0.8,2.5-2.9,2.9-3.9,2.6c-1.9-0.5-0.9-2.5-0.4-3.9c3.2-9.5,5.9-19.1,7.5-29
	c0.2-1.3,0.8-2.9-0.4-3.7c-1.5-1-2.3,0.7-3.3,1.5c-7,6.2-14.1,12.2-17.6,21.4c-1.1,3-1.1,5,1.9,7.2c13.8,10.7,11,34.5-4.8,41.8
	c-3.8,1.7-5.2,3.9-5.5,7.8c-1.2,20.7-0.4,41.3,0.9,61.9c0.2,3.2,1.8,4.3,4.7,4.5c3.6,0.2,7.3,0.7,10.9,1c6,0.4,8.7,4,9.9,9
	c3.4,14.1,6.5,28.2,9.6,42.3c0.2,0.9,0.4,2,0.2,2.9c-0.4,2.1-3.6,3.7-1.2,6.2c4,4.1,5.4,10.9,11.8,12.2c15.9,3.1,29.1,11,40.8,21.8
	c0.6,0.5,1.4,0.9,2.1,1.3c0.5,2.3,0.6,4.6-0.1,7.7c-6.1-5.8-12.1-11.1-18.8-15.6c-22.9-15.5-53.3-14.6-72.9,2.4
	c-8,6.9-7.9,6.8,0.4,12.9c12.8,9.4,21.3,22.3,27.4,36.7c1.5,3.6,2.8,4.4,6.5,2.7c17.4-7.7,35.7-10.2,54.6-8.5c4.3,0.4,3,2.9,2.7,5.3
	c-18.6-2.4-36.5-0.1-53.9,6.8c-5.3,2.1-5,2.4-1.7,6.8c6.7,8.9,15.6,15.3,23.3,23c10.2,10.1,20.3,20.3,25.3,34.2
	c0.6,1.7,1.8,3.8-0.6,4.7c-2.5,1-2.9-1.5-3.6-3.1c-4-9.9-10.3-18.3-17.6-25.9c-8.6-8.8-17.2-17.5-26.2-25.8
	c-7.7-7.2-11.4-16.6-16.4-25.4c-6.2-11.1-12.8-22.3-24.2-28.6c-10.5-5.7-15.8-14.8-20.3-24.9c-2.1-4.9-3.8-9.9-7.5-14
	c-4.6-5.1-8.9-5.6-14.4-1.4c-4.6,3.5-5.2,8.7-5.4,13.9c-0.4,10.2,4.4,18.6,9.5,26.9c1.7,2.7,3.3,4.6,6.7,2.4
	c1.2-0.8,2.7-0.6,3.4,0.9c0.6,1.4-0.6,2.2-1.6,2.7c-1.7,1-3.6,1.8-5.3,2.8c-7.2,3.9-13.8,8.7-18.8,15.3c-6.4,8.5-6.4,16.3-0.7,25.4
	c2.2,3.4,3.9,2.9,5.4,0.2c2.8-5,7.3-8.4,11.4-12.1c4.3-4,9.8-6.2,15.6-7.5c1.3-0.3,3-0.3,3.4,1.2c0.6,1.9-1.2,2-2.4,2.4
	c-5.9,1.9-11.3,4.7-16.1,8.5c-5.7,4.5-10.3,10.2-11.3,17.6c-0.8,5.7,0.9,11.2,6.3,14.2c6.7,3.8,13.8,4.8,20.9,0.8
	c1.8-1,5.7-1.3,4.6-4.1c-1.1-2.8-3.6,0.6-5.5,0.7c-1.8,0.1-3.7,0.2-3.9-1.9c-0.3-2,1.7-2.2,3.1-2.4c3.8-0.6,6.7-2.6,9.5-5.1
	c1.3-1.2,2.5-4.1,4.8-2.2c1.9,1.7-0.9,3.1-1.3,4.8c-0.2,0.8-0.6,1.6-0.8,2.4c-2.7,9.8-7.9,13.9-18,14.5c-6,0.3-5.9,0.3-3.4,5.9
	c7.7,17.3,15.3,34.7,24.3,51.4c-3.9,1.1-5.8-0.9-7.5-4.3c-6-12.3-11.7-24.7-17-37.2c-4.2-9.8-10.5-18-18.2-25.3
	c-1.4-1.3-2.7-0.9-4.2-0.7c-11.3,1.5-17.5-2.9-20.2-14.1c-0.7-3.1-1.4-6.2-2.1-9.3c-2.6-11.6,1.7-20.9,12.8-24.9
	c6.2-2.3,10.9-6,15.7-10.1c2.6-2.3,6.7-4,7.6-6.8c1.1-3.1-3.3-5.7-4.5-9c-1-2.5-2.4-4.8-3.2-7.3c-1-3.1-2.8-3.8-6-3.4
	c-10.7,1.6-10.8,1.5-11.6-9.5c-0.9-12.3-1.5-24.6-5-36.5c-1.1-3.7-1.8-5-5.3-1.5c-10.5,10.5-20.1,21.7-31.6,31.3
	c-4.1,3.4-8.5,6.5-13,9.2c-5.6,3.4-6.4,3.2-10-2.1c-2.4-3.6-4.6-7.3-6.7-11.1c-1.4-2.8-2.3-3.7-4.6-0.6
	c-21.3,29.7-36.8,62-43.3,98.2c-0.5,2.9-2.6,4.6-4.3,6.5c-15.7,16.9-30,34.8-41.8,54.6c-1.8,3-3.6,6.1-4.6,9.4
	C47.9,586.4,45.8,587.8,41.9,586.8z M297.8,206.1c0.4,0.1,0.9,0.2,1.3,0.3c0.7-1.4,1.5-2.8,2.1-4.3c3-7.6,6.1-15.1,9-22.8
	c6.3-16.9,14.9-33.1,16.5-51.6c2.7-31.9-6.9-58-34-76.5c-1.2-0.8-2.3-2.5-3.9-1.7c-1.7,0.9-0.5,2.7-0.7,4.1
	c-0.2,1.9,0.4,4.7-2.1,4.9c-2.9,0.2-2.4-2.8-2.3-4.6c0.3-6.6-2.8-9.6-9-11.7c-17-5.7-34.4-7.9-52.2-6.6
	c-22.2,1.6-40.5,10.4-54.3,28.6c-12.7,16.7-21.9,34.9-27.6,55c-0.9,3.1-1.8,5.8-5.5,7c-3.3,1.1-6.5,8.7-5.8,12
	c0.4,1.7,1.4,2.3,2.9,1.4c7.7-5.2,15.7-3.1,23.5-0.6c9.8,3.1,19.5,6.8,29.2,10.2c3.7,1.3,6.7,1.1,9.9-2.1c5.4-5.5,11.9-9.8,20-10.3
	c13.3-0.8,25.3,3.9,36.4,10.4c21.2,12.4,24.5,43.1,6.8,60.3c-8.7,8.5-19.6,11-31.3,10.2c-16.6-1.2-30.6-7.1-38.8-22.7
	c-1.4-2.7-3.6-3.2-6.2-3.1c-9.7,0.5-19.3-0.6-28.8-2.6c-2.6-0.5-5.3-0.5-8-0.3c-8.5,0.8-13.9,6.8-14.1,15.3
	c-0.3,9.7,6.2,16.5,17.8,18.8c9.3,1.9,18.6,1.6,27.9,0.3c20.7-2.9,40.1,1.2,57,13.3c19.1,13.6,30.6,32.2,32.3,56.1
	c1.1,15-1.7,29.1-10.3,41.7c-17,25.2-60.7,27.6-78.1,14.9c-3.6-2.6-4.3-1.3-4.6,2.4c-0.8,9.3-1.8,18.6-2.9,27.8
	c-1.3,10.5-3.1,20.5-12.1,27.9c-6.4,5.2-5.7,5.6-1.5,12.6c2.6,4.3,4.9,4.1,8.8,1.8c9.1-5.5,16.1-13.5,24-20.5
	c6.2-5.5,11.7-11.9,17.4-17.9c3.9-4.1,8.4-6.7,14-8c12.5-2.9,25.1-5.2,37.7-7.7c9.1-1.8,18.1-4.3,27.2-6.3c3.6-0.8,4.7-2.6,4.3-6.4
	c-1-8.3-1.4-16.6-2-24.9c-1.2-18.3-2-36.6-0.6-54.9c0.3-4.5,0.1-7.8-5.4-8.3c-1.5-0.2-3.7-0.8-2.9-3.1c0.6-1.9,2.5-1,3.9-0.8
	c1,0.1,2,0.3,3,0.5c6.4,1.3,11.4-1.1,15.4-6c3.6-4.4,4.7-9.4,4.7-14.9c-0.2-12.6-7.4-18.3-19.4-15.3c-0.6,0.2-1.3,0.3-1.9,0.5
	c-1.5,0.4-3.2,0.7-3.8-1.1c-0.6-1.8,1.4-1.9,2.4-2.7c0.6-0.5,1.5-0.7,2.2-1.1c2.8-1.6,7,0.3,8.7-2.7c1.7-2.9-0.8-6.3-0.6-9.6
	c0.4-8,0.2-16,0.2-24c0-0.9,0.2-2.2-1-2.6c-1.5-0.5-2,0.7-2.5,1.8c-3.5,6.4-7.1,12.8-10,19.6c-1.5,3.5-3,7.1-4.6,10.5
	c-0.6,1.2-1.7,2.4-3.2,1.5c-1.4-0.8-0.6-2-0.1-3.1c4.6-11.6,9.2-23.3,16.6-33.5c1.7-2.3,3-6.5,6.3-5.4c3.3,1.1,2.8,5.3,2.9,8.4
	C297.9,191.4,297.8,198.8,297.8,206.1z M191.8,283.1c6-0.1,12.5-0.1,18.9,0.9c13,2,24.6,6.5,32.8,17.8c6.3,8.8,0.5,24.3-9.7,25.5
	c-5.6,0.7-11.1,1.5-16.9,0.9c-8.8-0.9-17.4-3.1-26-4.8c-4.9-1-9.8-1.8-14.7-2.6c-1.2-0.2-2.4-0.5-2.7-1.8c-0.4-1.5,0.6-2.2,1.8-2.5
	c2.6-0.8,2.9-2.9,3.2-5.1c0.8-5.8-0.3-11.3-2.6-16.6c-2.7-6.1-4.1-6.7-10.8-5.5c-2.7,0.5-3.4,1.1-2.1,3.8c3.8,7.7,4.4,14.6-3.6,20.7
	c-5,3.8-3.6,10.7,2.1,13.6c1.9,1,4.1,1.4,6.1,2.1c1.6,0.6,3.5,1.2,3.4,3.2c-0.3,6.4,4.2,9.5,8.6,12.3c10.4,6.6,21.8,8.5,34,6.7
	c19.2-3,35.7-10.2,43.3-29.8c14.5-37.5-6.9-76.1-41.1-90.1c-14.1-5.7-28.7-4.7-43.4-3.5c-11.4,0.9-22.7,1.1-33.3-3.8
	c-2.5-1.1-4.3-0.7-6.5,0.8c-8.5,5.6-14.7,13-18.4,22.4c-0.7,1.9-1.4,3.7-2.9,5.2c-9.2,8.7-6.1,17,3.1,23.4
	c9.9,6.9,21.1,8.6,32.7,8.9C161.8,285.8,176.5,282.9,191.8,283.1z M228.7,213.3c13.7,0.4,24.7-4.7,30.4-14.5c8.9-15.4,9.5-38-14-50
	c-8.8-4.5-18.4-9.5-27.9-8.1c-26.6,3.9-38.1,31.1-25.5,53C199.8,207.8,213.2,212.8,228.7,213.3z M233.2,425.1
	c0.1-5.7,0.4-10.1,2.1-14.1c4.1-9.6,17-17.1,26.8-3.6c2.2,3.1,4.3,6.4,5.8,9.9c1.2,2.9,2.7,3.2,5.3,2.2c5.3-2,10.8-3.5,16-5.6
	c10.4-4.1,20.5-8.7,29.4-15.6c2.1-1.6,3.9-3.3,3-6.7c-2.5-9.3-4.5-18.8-6.8-28.2c-0.7-2.9-0.6-7.3-2.4-8.3c-2.8-1.5-5.1,2.6-7.7,4.1
	c-10.8,6.2-22.9,8-34.7,10.8c-16.2,3.8-32.6,7-48.9,10.4c-2.2,0.5-4.5,0.9-3.3,4.1c4.6,13.2,4.5,27.2,6,40.9c0.7,6.4,0.8,6.2,7,4.8
	C235.3,428.9,233.1,426,233.2,425.1z M174.7,187.7c1.4,0.1,2.1,0.2,2.7,0.2c6,0,6.1,0,5-6.1c-1.2-6.5-0.3-12.9,1.3-19.3
	c0.7-2.7,3.8-5.3,2.7-7.7c-1.3-2.7-5.4-1.8-8.1-2.8c-8.9-3.3-17.7-6.7-26.8-9.4c-5.3-1.6-11-3.1-16.4,0.2
	c-14,8.5-17.7,33.8-6.8,46.2c1.5,1.7,2.6,2.2,4.5,0.6c5-4.3,11-5.1,17.3-4.6C158.6,185.7,166.9,187.7,174.7,187.7z M167.1,361.8
	c0.1-1.5,0.1-3,0.3-4.5c0.2-2.3-0.3-3.6-3-2.8c-11.2,3.2-22.6,5.7-33.5,9.6c-2.6,0.9-3.6,1.8-1.4,4.5c3.4,4.1,6,8.8,8.3,13.6
	c3.5,7.4,6.9,14.8,10.4,22.1c0.7,1.5,1.6,4.5,3.6,2.4c3.9-4.1,9.2-6.9,10.7-13.3C164.8,382.9,166.5,372.5,167.1,361.8z M121.9,439.2
	c-0.1-0.3-0.3-0.9-0.6-1c-0.6-0.2-1.4-0.2-1.9,0.1c-1.5,1-2.8,2.3-4.2,3.4c-13.9,11.7-28,23.1-38.5,38.2c-1.9,2.8-2.1,4.8,0.1,7.5
	c4.2,5.3,9,9.8,14.3,13.9c5,3.8,5.1,3.8,6.7-2.4c4.2-16.5,10.1-32.4,17.6-47.6C117.4,447.2,118.5,442.7,121.9,439.2z M127.4,412
	c1.5,0,3,0,4.5,0c1.5,0,3,0,4.5-0.1c3.9-0.4,7.8-5.6,6.3-8.8c-4.9-10.7-9.5-21.6-16.5-31.2c-0.7-0.9-1-2.3-2.4-2.1
	c-1.6,0.2-1.2,1.8-1.4,2.8c-2,9.4-3.9,18.9-5,28.4C115.9,412.4,115.8,412.4,127.4,412z M310.7,59.2c0.8-3.8-0.1-6.6-0.4-9.3
	c-1.9-15.4-17.1-30.2-31.5-30.8c-1.1,0-2.4-0.8-3.1,0.6c-0.6,1.1,0.5,1.8,1.1,2.5c4.8,4.9,7.6,10.8,9.5,17.3
	c0.4,1.3,0.7,2.7,1.9,3.4C296,47.3,303.1,52.9,310.7,59.2z M208,33.2c9.7-2.4,19-2.5,28.2-2.4c1.7,0,2.6-1.1,3.7-2.2
	c4.6-4.1,8.5-9.3,15-10.9c0.9-0.2,2-0.8,1.8-2c-0.3-1.4-1.6-1.5-2.7-1.7c-14.1-3.2-26.7,0.1-37.7,9.3
	C213.2,25.8,209.7,28.2,208,33.2z M61.7,551.4c1.3,0.2,1.9-0.7,2.4-1.5c7-10.7,15.8-20.1,24.3-29.6c8.4-9.5,8.6-9.2-1.6-16.8
	c-2.5-1.9-3.6-1.8-5.2,1.1c-7.2,13.4-13,27.3-18.7,41.3C62.1,547.6,60.5,549.3,61.7,551.4z M222.2,323.8c2.8,0.2,5.9-0.1,9-0.8
	c5.8-1.3,9.6-5.5,9.8-10.4c0.1-2.6-0.9-4.2-3.6-4.3c-13.4-0.5-26,2.3-37.6,9.2c-0.5,0.3-1.2,0.9-1.3,1.4c-0.1,1,0.9,1.3,1.7,1.4
	C207.5,321.4,214.4,324,222.2,323.8z M226.7,515.3c1.8-0.4,4.8,0.8,5.5-1.8c0.7-2.7,1.6-6-0.7-8.5c-7.4-8-10.9-17-7.2-27.8
	c0.6-1.7,0-2.5-2-2.1c-4.2,1-10.3,8.4-10,12.7c0.4,5.5,1,10.9,2.1,16.3C215.8,511.1,220.6,515.3,226.7,515.3z M328.1,413.4
	c-2.2-2.6-3.7-4.3-5-6.2c-2.1-2.9-3.9-3.4-7.3-1.2c-11.3,7.1-23.6,12.2-36.3,16.4c-9.2,3-9,2.9-3.5,10.8c2,2.8,3,2.7,5.1,0.3
	c5.9-6.7,13.3-11.4,21.5-15C310.5,415.1,318.8,414,328.1,413.4z M277.4,38.5c1.5,0.4,3.2,0.2,2.4-1.7c-2.8-6.9-7.2-12.7-13.4-16.9
	c-0.5-0.3-1.3-0.3-1.9-0.1c-6.1,1.9-11.8,4.5-16.6,8.8c-1.7,1.6-1.5,3.1,1,3.3C258.7,32.9,268.2,35,277.4,38.5z M299.9,345.9
	c-6.8-0.5-6.8-0.5-6.1,5.1c1.1,8.3,1.4,8.5,8.6,3.9c2.7-1.7,7.4-3.4,6.8-6.4c-0.7-3.2-5.6-2.2-8.7-2.6
	C300.2,345.9,299.9,345.9,299.9,345.9z"/>
<path class="st0" d="M148,541.3c-9.8-2.9-19.5-6.6-29.1-10.9c-2-0.9-3.9-1.8-5.9-2.7c-1.5-0.7-2.6-1.8-1.8-3.6
	c0.9-1.8,2.4-1.2,3.9-0.6c8.9,3.7,17.8,7.4,26.8,11c2.5,1,5.1,1.6,7.6,2.5c1.2,0.5,2.7,1.1,2.2,2.8
	C151.2,541.6,149.7,541.4,148,541.3z"/>
<path class="st0" d="M291.6,236.4c4.1-0.4,6.1,1.3,8.2,2.6c1.1,0.7,1.6,2.6,0.5,2.8c-4,0.8-2.9,3.6-3,6.1c0,1.1-0.5,2.3-0.9,3.3
	c-0.6,1.5-1.5,3.5-3.4,2.7c-2.2-0.8-1.9-2.8-0.9-4.6c1.4-2.4,1-4.5-1.2-6.1c-2.4-1.7-4.4-0.5-6.3,1c-0.6,0.5-1.1,1.3-1.7,1.8
	c-0.9,0.9-2.1,1.3-3.1,0.5c-1.3-1-0.9-2.4,0-3.5C283,238.4,288.1,237.4,291.6,236.4z"/>
<path class="st0" d="M238.8,179.9c-0.2,3.1-3.2,4.6-6.9,4.8c-3.8,0.2-7.1-3.1-7.1-6.7c0-3.9,3.2-7,7-6.7
	C236,171.5,239,174.5,238.8,179.9z"/>
<path class="st0" d="M152.2,168.3c0,3.3-3,6.1-6.6,5.8c-3.6-0.3-6.2-2.4-6-6c0.1-3.6,2.3-6.1,6.4-6
	C149.7,162.2,152.2,164.7,152.2,168.3z"/>
</svg>
