<?xml version="1.0" encoding="utf-8"?>
<!-- Generator: Adobe Illustrator 21.0.0, SVG Export Plug-In . SVG Version: 6.00 Build 0)  -->
<svg version="1.1" id="Layer_1" xmlns="http://www.w3.org/2000/svg" xmlns:xlink="http://www.w3.org/1999/xlink" x="0px" y="0px"
	 viewBox="0 0 1085.9 1085.9" style="enable-background:new 0 0 1085.9 1085.9;" xml:space="preserve">
<style type="text/css">
	.st0{display:none;}
	.st1{display:inline;}
	.st2{fill:none;stroke:#1E1E1E;stroke-width:3;stroke-miterlimit:10;}
	.st3{fill:none;stroke:#000000;stroke-miterlimit:10;}
</style>
<g id="Layer_1_1_" class="st0">
	<g id="zQUe01_1_" class="st1">
		
			<image style="overflow:visible;enable-background:new    ;" width="700" height="642" id="zQUe01" xlink:href="3464EBA93D445501.png"  transform="matrix(1 0 0 1 214.8806 227.3822)">
		</image>
	</g>
</g>
<g id="Low_Poly">
	<polygon class="st2" points="337.9,304.4 389.9,312.4 389.9,387.4 441.9,396.4 441.9,473.9 498.4,485.9 499.4,526.9 505.4,524.9 
		503.9,474.4 566.4,450.9 611.4,460.9 611.4,433.9 665.4,413.9 681.4,416.9 681.4,361.9 731.4,343.9 755.4,347.9 754.4,285.9 
		800.4,270.9 888.4,278.9 893.4,728.9 847.4,767.9 646.4,703.9 646.4,747.9 585.4,787.9 447.1,733.9 315.1,804.9 244.4,773.9 
		241.4,672.9 254.4,667.9 252.4,534.9 271.4,528.9 271.4,314.9 	"/>
	<polygon class="st2" points="279.4,325.9 321.4,332.9 322.4,398.9 279.4,388.9 	"/>
	<polygon class="st2" points="295.4,318.9 332.4,312.9 358.4,316.9 327.4,323.9 	"/>
	<polygon class="st2" points="333.4,331.9 382.4,321.9 382.4,385.9 333.4,400.9 	"/>
	<path class="st2" d="M378.4,322.9"/>
	<polygon class="st2" points="333.4,410.9 375.4,417.9 376.4,483.9 333.4,473.9 	"/>
	<polygon class="st2" points="349.4,403.9 386.4,397.9 412.4,401.9 381.4,408.9 	"/>
	<polygon class="st2" points="387.4,416.9 436.4,406.9 436.4,470.9 387.4,485.9 	"/>
	<polygon class="st2" points="386.4,504.9 431.4,515.9 432.4,587.9 386.4,573.9 	"/>
	<polygon class="st2" points="401.4,495.9 436.4,482.9 474.4,491.9 436.4,505.9 	"/>
	<polygon class="st2" points="446.4,514.9 492.4,497.9 493.4,563.9 445.4,586.9 	"/>
	<polygon class="st2" points="804.4,275.9 772.4,285.9 840.4,291.9 870.4,281.9 	"/>
	<polygon class="st2" points="882.4,290.9 883.4,368.9 848.4,385.9 848.4,303.9 	"/>
	<g>
		<polygon class="st2" points="882.4,379.9 883.4,457.9 848.4,477.9 848.4,396.9 		"/>
		<polygon class="st2" points="883.7,467.9 884.7,546.2 849.4,569.6 849.1,487.9 		"/>
		<polygon class="st2" points="885.1,555.9 886.1,634.6 850.4,661.2 849.7,578.9 		"/>
		<polygon class="st2" points="886.4,643.9 887.4,722.9 851.4,752.9 850.4,669.9 		"/>
	</g>
	<polygon class="st2" points="836.4,385.9 767.4,372.9 767.4,295.9 836.4,303.9 	"/>
	<polygon class="st2" points="836.7,477.9 767.1,462.4 766.9,384.9 836.7,395.9 	"/>
	<polygon class="st2" points="836.9,569.9 766.9,551.9 766.4,473.9 836.9,487.9 	"/>
	<polygon class="st2" points="837.1,661.9 766.7,641.4 765.9,562.9 837.1,579.9 	"/>
	<polygon class="st2" points="837.4,753.9 766.4,730.9 765.4,651.9 837.4,671.9 	"/>
	<polygon class="st2" points="382.4,751.9 322.4,785.9 320.4,706.9 380.4,676.9 	"/>
	<polygon class="st2" points="441.4,722.9 390.4,751.9 389.4,672.9 439.4,647.9 	"/>
	<polygon class="st2" points="512.5,485.8 577.5,501 577.3,584 512.3,566.8 	"/>
	<polygon class="st2" points="590.4,500.9 639.4,479.9 639.4,559.9 590.4,583.9 	"/>
	<polygon class="st2" points="445.4,644.9 504.4,664.9 505.4,745.9 446.4,723.9 	"/>
	<polygon class="st2" points="512.4,666.9 577.4,688.9 577.4,773.9 512.4,749.9 	"/>
	<polygon class="st2" points="590.4,688.9 639.4,660.9 641.4,739.9 591.4,771.9 	"/>
</g>
<circle class="st3" cx="543.6" cy="543.3" r="530.8"/>
</svg>
