<?xml version="1.0" encoding="utf-8"?>
<!-- Generator: Adobe Illustrator 21.0.0, SVG Export Plug-In . SVG Version: 6.00 Build 0)  -->
<svg version="1.1" xmlns="http://www.w3.org/2000/svg" xmlns:xlink="http://www.w3.org/1999/xlink" x="0px" y="0px"
	 viewBox="0 0 1326.1 1317.1" style="enable-background:new 0 0 1326.1 1317.1;" xml:space="preserve">
<style type="text/css">
	.st0{fill:#FFFFFF;stroke:#000000;stroke-width:6;stroke-miterlimit:10;}
	.st1{fill:#EDEDED;}
	.st2{fill:#E2E2E2;}
	.st3{fill:#F9F9F9;}
	.st4{fill:none;stroke:#000000;stroke-width:6;stroke-miterlimit:10;}
	.st5{fill:none;stroke:#000000;stroke-width:6;stroke-linecap:round;stroke-linejoin:bevel;stroke-miterlimit:10;}
	.st6{fill:#F9F9F9;stroke:#000000;stroke-width:6;stroke-miterlimit:10;}
	.st7{fill:#E2E2E2;stroke:#000000;stroke-width:6;stroke-miterlimit:10;}
	.st8{clip-path:url(#SVGID_2_);}
	.st9{fill:#EDEDED;stroke:#000000;stroke-width:6;stroke-miterlimit:10;}
</style>
<g id="Layer_1">
</g>
<g id="Layer_2">
	<circle class="st0" cx="664.6" cy="657.6" r="640.6"/>
	<path class="st1" d="M1152,528.9v-17.5c0.2-0.7,0.3-1.4,0.3-2.1c0-8.8-15.7-15.9-35.1-15.9c-13.8,0-15.3-2.5-21,2.8l-44.4-23.8
		l0.7-8.1c0.2-0.7,0.3-1.4,0.3-2.1c0-8.8-15.7-15.9-35.1-15.9c-19.4,0-35.1,7.1-35.1,15.9v19.2L687.6,648.3l-63.4,8.6l-3.6,160.2
		l197.6,97.9l399.5-196.9V555.3L1152,528.9z"/>
	<path class="st2" d="M622.5,656.1L557,623.5v-7.2c0.2-0.7,0.3-1.4,0.3-2.1c0-8.8-15.7-15.9-35.1-15.9c-2.6,0-5.1,0.1-7.6,0.4
		l-56.3-33c0.2-0.7,0.3-1.4,0.3-2.1c0-8.8-15.7-15.9-35.1-15.9c-19.4,0-35.1,7.1-35.1,15.9v16.5l-42.8,20.3
		c-5.4-1.6-11.9-2.5-18.8-2.5c-19.4,0-35.1,7.1-35.1,15.9v12.1l-67.1,31.8v163.9l193.9,97l201.7-98.4L622.5,656.1z"/>
	<path class="st3" d="M948.6,457.3v-9.4c0.2-0.7,0.3-1.4,0.3-2.1c0-8.8-15.7-15.9-35.1-15.9c-6.4,0-12.4,0.8-17.5,2.1l-46.2-22.3
		v-11.2c0.2-0.7,0.3-1.4,0.3-2.1c0-8.8-15.7-15.9-35.1-15.9c-7.4,0-14.3,1-19.9,2.8l-43.6-21.1v-11.5c0.2-0.7,0.3-1.4,0.3-2.1
		c0-8.8-15.7-15.9-35.1-15.9c-7.5,0-14.5,1.1-20.2,2.9l-43-20.8v-15.5c0.2-0.7,0.3-1.4,0.3-2.1c0-8.8-15.7-15.9-35.1-15.9
		c-19.4,0-35.1,7.1-35.1,15.9v15.9l-43.4,20.7c-5.3-1.5-11.5-2.3-18.2-2.3c-19.4,0-35.1,7.1-35.1,15.9v11.7l-61.9,29.5v169.7
		l388.9,191l198.8-96l-0.7-165.1L948.6,457.3z"/>
	<line class="st4" x1="1216.9" y1="556.8" x2="1051.8" y2="472.4"/>
	<polygon class="st5" points="620.5,297.1 428.5,388.5 819.8,588.5 1015.5,488.2 	"/>
	<polyline class="st4" points="428.5,388.5 428.5,558.2 817.4,749.3 819.8,588.5 	"/>
	<polyline class="st4" points="1013.8,487.9 1015.5,654 817.4,749.3 	"/>
	<polyline class="st4" points="224.9,654.7 224.9,818.6 418.8,915.6 418.8,751.8 	"/>
	<polyline class="st4" points="418.8,915.6 620.5,817.2 624.2,656.9 416.9,751.8 414.4,750.4 224.9,654.7 428.5,558.2 	"/>
	<polyline class="st4" points="620.5,817.2 817.4,916.6 817.4,746.9 	"/>
	<polyline class="st4" points="1015.5,654 1216.9,556.8 1216.9,719.7 817.4,916.6 	"/>
	<g>
		<path class="st6" d="M587.1,297.1V343c0,0,1.4,13.1,34.9,13.1c33.5,0,34.9-13.1,34.9-13.1v-45.8"/>
		<ellipse class="st6" cx="622.2" cy="297.1" rx="35.1" ry="15.9"/>
	</g>
	<g>
		<path class="st6" d="M490.4,347.3v45.8c0,0,1.4,13.1,34.9,13.1s34.9-13.1,34.9-13.1v-45.8"/>
		<ellipse class="st6" cx="525.5" cy="347.3" rx="35.1" ry="15.9"/>
	</g>
	<g>
		<path class="st6" d="M685,348.5v45.8c0,0,1.4,13.1,34.9,13.1c33.5,0,34.9-13.1,34.9-13.1v-45.8"/>
		<ellipse class="st6" cx="720.1" cy="348.5" rx="35.1" ry="15.9"/>
	</g>
	<g>
		<path class="st6" d="M588.4,398.7v45.8c0,0,1.4,13.1,34.9,13.1c33.5,0,34.9-13.1,34.9-13.1v-45.8"/>
		<ellipse class="st6" cx="623.5" cy="398.7" rx="35.1" ry="15.9"/>
	</g>
	<g>
		<path class="st6" d="M783.3,396.3v45.8c0,0,1.4,13.1,34.9,13.1c33.5,0,34.9-13.1,34.9-13.1v-45.8"/>
		<ellipse class="st6" cx="818.4" cy="396.3" rx="35.1" ry="15.9"/>
	</g>
	<g>
		<path class="st6" d="M686.7,446.5v45.8c0,0,1.4,13.1,34.9,13.1c33.5,0,34.9-13.1,34.9-13.1v-45.8"/>
		<ellipse class="st6" cx="721.7" cy="446.5" rx="35.1" ry="15.9"/>
	</g>
	<g>
		<path class="st6" d="M881.7,445.7v45.8c0,0,1.4,13.1,34.9,13.1s34.9-13.1,34.9-13.1v-45.8"/>
		<ellipse class="st6" cx="916.8" cy="445.7" rx="35.1" ry="15.9"/>
	</g>
	<g>
		<path class="st6" d="M785.1,495.9v45.8c0,0,1.4,13.1,34.9,13.1c33.5,0,34.9-13.1,34.9-13.1v-45.8"/>
		<ellipse class="st6" cx="820.1" cy="495.9" rx="35.1" ry="15.9"/>
	</g>
	<g>
		<g>
			<path class="st7" d="M388.6,560.7v45.8c0,0,1.4,13.1,34.9,13.1s34.9-13.1,34.9-13.1v-45.8"/>
			<ellipse class="st7" cx="423.7" cy="560.7" rx="35.1" ry="15.9"/>
		</g>
		<g>
			<path class="st7" d="M292,610.9v45.8c0,0,1.4,13.1,34.9,13.1s34.9-13.1,34.9-13.1v-45.8"/>
			<ellipse class="st7" cx="327" cy="610.9" rx="35.1" ry="15.9"/>
		</g>
	</g>
	<g>
		<g>
			<path class="st7" d="M487.2,611.3v45.8c0,0,1.4,13.1,34.9,13.1c33.5,0,34.9-13.1,34.9-13.1v-45.8"/>
			<ellipse class="st7" cx="522.3" cy="611.3" rx="35.1" ry="15.9"/>
		</g>
		<g>
			<path class="st7" d="M390.6,661.5v45.8c0,0,1.4,13.1,34.9,13.1s34.9-13.1,34.9-13.1v-45.8"/>
			<ellipse class="st7" cx="425.6" cy="661.5" rx="35.1" ry="15.9"/>
		</g>
	</g>
	<g>
		<defs>
			<polygon id="SVGID_1_" points="1081.2,454.5 1144.7,467.6 1204.3,573.8 1018.6,651.8 1017.2,485.5 969.6,462.2 972.6,440.4 
				1056.4,429.3 			"/>
		</defs>
		<clipPath id="SVGID_2_">
			<use xlink:href="#SVGID_1_"  style="overflow:visible;"/>
		</clipPath>
		<g class="st8">
			<path class="st4" d="M982,463.7v45.8c0,0,1.4,13.1,34.9,13.1s34.9-13.1,34.9-13.1v-45.8"/>
			<ellipse class="st4" cx="1017.1" cy="463.7" rx="35.1" ry="15.9"/>
		</g>
		<g class="st8">
			<g>
				<path class="st9" d="M1081.4,510.7v45.8c0,0,1.4,13.1,34.9,13.1c33.5,0,34.9-13.1,34.9-13.1v-45.8"/>
				<ellipse class="st9" cx="1116.5" cy="510.7" rx="35.1" ry="15.9"/>
			</g>
			<g>
				<path class="st9" d="M984.8,560.9v45.8c0,0,1.4,13.1,34.9,13.1c33.5,0,34.9-13.1,34.9-13.1v-45.8"/>
				<ellipse class="st9" cx="1019.8" cy="560.9" rx="35.1" ry="15.9"/>
			</g>
		</g>
	</g>
</g>
</svg>
