<?xml version="1.0" encoding="utf-8"?>
<!-- Generator: Adobe Illustrator 21.0.0, SVG Export Plug-In . SVG Version: 6.00 Build 0)  -->
<svg version="1.1" xmlns="http://www.w3.org/2000/svg" xmlns:xlink="http://www.w3.org/1999/xlink" x="0px" y="0px"
	 viewBox="0 0 1332 1220" style="enable-background:new 0 0 1332 1220;" xml:space="preserve">
<style type="text/css">
	.st0{display:none;}
	.st1{display:inline;}
	.st2{fill:#FFFFFF;stroke:#000000;stroke-width:4;stroke-miterlimit:10;}
	.st3{fill:#EFEFEF;}
</style>
<g id="Layer_2" class="st0">
	<g id="qdpAgX_3_" class="st1">
		
			<image style="overflow:visible;" width="1770" height="1067" id="qdpAgX_4_" xlink:href="1059CD2305568FFB.png"  transform="matrix(0.4089 0 0 0.4089 297.3292 331.4822)">
		</image>
	</g>
</g>
<g id="Layer_1">
	<circle class="st2" cx="659.1" cy="605.2" r="529.8"/>
	<path d="M1018.5,440.8c-0.6,4.4-3.3,7.9-5.5,11.5c-3.3,5.6-8.3,9.9-13.2,14.2c-3.9,3.5-8.2,6.5-13,8.7c-5.6,2.6-11.4,4.3-17.5,5.3
		c-6.6,1.1-13.3,1.4-19.9,1.1c-3.9-0.1-7.8-0.9-11.6-1.5c-4.3-0.7-8.6-1.5-12.9-2.2c-8.3-1.2-15.5,1.8-22.8,4.6
		c-7.2,2.8-14.3,6.2-21,9.9c-11.2,6.2-22.6,12.1-33.7,18.6c-7.1,4.2-14.4,8.2-21.6,12.3c-7.8,4.5-15.6,9-23.4,13.5
		c-7,4-14.1,7.7-21,11.7c-8.7,5.2-17.7,9.9-26.3,15.1c-5.8,3.5-11.9,6.6-17.9,10c-6,3.4-12,6.9-17.9,10.3c-5.1,3-10.3,5.9-15.4,8.8
		c-6.9,3.9-13.8,7.9-20.7,11.8c-6.4,3.6-12.9,7.1-19.3,10.8c-7.2,4.1-14.3,8.3-21.5,12.4c-5.4,3.1-10.8,6.1-16.1,9.1
		c-7.6,4.3-15.3,8.5-22.8,13c-5.3,3.2-10.9,6.1-16.3,9.2c-5.1,2.9-10.1,5.9-15.3,8.5c-3.9,2-7.6,4-11.4,6.1
		c-7.2,4-14.5,8.1-21.4,12.6c-6.2,4-12.4,7.9-17.9,12.7c-3.7,3.2-7.3,6.8-10.4,10.6c-3.8,4.6-7,9.4-9.7,14.7
		c-1.4,2.7-2.1,5.7-3.2,8.5c-2.2,5.7-4,11.6-5.9,17.5c-2.8,8.6-7.3,16.4-12.9,23.3c-5,6.1-10.5,11.7-17.6,15.7
		c-7.5,4.2-15.4,6.6-23.7,8.1c-5.4,1-10.9,1.5-16.3,1.4c-5.4-0.1-10.9,0.3-16.3-0.6c-2.4-0.4-4.8-0.2-7.3-0.4
		c-5.4-0.3-10.7-0.9-16-1.4c-5-0.5-10-1.6-15-1.9c-8.1-0.5-15.8-2.7-23.7-4.1c-2.9-0.5-5.8-1.2-8.5-2.2c-1.2-0.4-2-1.6-2.4-2.8
		c-1.6-4.9-1.9-10-2.2-15.2c-0.2-3.7,0-7.4-0.5-11c-0.7-4.6,1.7-9,6.8-10.6c5.6-1.7,11-3.9,16.6-5.5c9.8-2.9,19.7-5.7,29.6-8.3
		c6.9-1.9,13.5-4.6,19.2-8.8c4.1-3,7.2-6.9,9.2-11.5c0.2-0.5,0.4-1.1,0.2-1.5c-1.3-2.3-1.8-5-3.5-7.2c-2.7-3.4-5-7.2-8.3-10
		c-4.4-3.8-9.3-6.7-15-8.6c-5-1.6-9.9-1.6-14.9-1.5c-3.9,0.1-7.6,1.6-11.3,2.8c-11.2,3.7-22.6,6.9-33.9,10.2
		c-5.3,1.5-10.5,3.3-15.8,4.7c-2,0.5-4-0.2-6.1-1c-5.2-2.1-5.2-6.9-6-11.2c-0.9-4.7-1.3-9.4-1.3-14.2c0-3.5,0.9-6.3,3.6-8.9
		c6-5.7,12.5-10.9,18.6-16.5c5.1-4.7,10.6-9,16-13.4c11.4-9.2,24-16,38.4-19.4c3.6-0.8,7.1-1,10.7-1.3c4.3-0.3,8.7-0.4,13-0.3
		c4.8,0,9.4,1,14.1,1.5c5,0.6,9.9,1.6,14.9,1.9c8.2,0.5,16.4,0.8,24.5,0.6c8.7-0.2,17.2-2,25.3-5.3c6.7-2.7,12.9-6.1,19.3-9.4
		c6.4-3.3,12.8-6.4,19.2-9.7c11.4-5.8,22.9-11.5,34.2-17.5c6.2-3.3,12.6-6.3,18.8-9.6c9.7-5,19.4-10,29.1-15
		c9.9-5.1,19.8-10.2,29.7-15.3c6.1-3.2,12.3-6.4,18.4-9.5c5.4-2.8,11-5.3,16.4-8.3c6.3-3.5,12.8-6.4,19.1-9.9
		c8.1-4.4,16.5-8.4,24.7-12.6c12.6-6.4,25.2-12.9,37.8-19.3c10.6-5.4,21.2-10.8,31.7-16.2c6.5-3.3,12.9-6.8,19.4-10.1
		c9.1-4.7,18.3-9.1,27.4-14c7.2-3.8,14.4-7.6,21.8-11c4.2-1.9,8-4.4,11.4-7.2c3.2-2.7,6-6,8.1-9.9c2.7-5,4.5-10.3,6-15.8
		c1.2-4.4,2.5-8.9,4.4-13.1c2.1-4.4,5.6-7.4,9.5-10c6.1-4.1,13.2-5.6,20.3-7c6.9-1.3,13.8-2.2,20.8-2.6c2.6-0.1,5.1-0.2,7.7-0.3
		c0.4,0,0.8,0.2,1-0.4c11.2,0,22.4,0,33.5,0c0.8,0.3,1.6,0.3,2.5,0c0.5,0,1.1,0,1.6,0c3.7,0.6,5.1,2.3,5.1,6.2c0,7,0.1,14-0.4,21
		c-0.1,1.9-1,3.3-2.5,4.4c-3.5,2.7-7.9,3.6-11.9,5.2c-7.9,3.1-16,5.7-23.9,8.9c-0.6,0.2-1.3,0.4-1.9,1c2.3,1.6,4.9,2.6,7.4,3.6
		c7.8,3,15.9,4.9,24.3,4.7c5.7-0.1,10.9-2.2,16.1-4.2c8.4-3.2,16.9-6,25.8-7.8c3-0.6,5.8-0.3,8.5,1.3c1.7,1,2.5,2.5,2.8,4.5
		c1.1,6.3,1.1,12.6,1.2,18.9c0,0.2,0.1,0.4,0.2,0.6c0,0.3,0,0.5,0,0.8c-0.3,1.8-0.3,3.5,0,5.3
		C1018.5,438.3,1018.5,439.6,1018.5,440.8z"/>
	<path class="st3" d="M1018.5,437.1c-0.7-1.8-0.7-3.5,0-5.3C1018.5,433.6,1018.5,435.3,1018.5,437.1z"/>
	<path class="st3" d="M966.1,362.7c-0.8,0.6-1.6,0.6-2.5,0C964.5,362.7,965.3,362.7,966.1,362.7z"/>
	<path class="st3" d="M962.7,365.6c-3.5,1.4-7.2,1.8-10.8,2.7c-6.8,1.7-13.7,3.3-20.5,4.9c-8.3,1.9-16.5,3.8-24.8,5.7
		c-2.2,0.5-4.6,0.7-6.7,1.7c-2,1-3.7,2.7-5,4.7c-1.5,2.3-2.8,4.6-3.3,7.3c-0.5,2.8-0.2,5.7,1,8.3c0.2,0.4,0.4,0.8,0.9,0.7
		c0.5-0.2,0.3-0.6,0.2-1c-0.7-2.5-0.7-5.1-0.6-7.8c0.7,1.6,1.3,3.3,1.8,5c0.5,1.6,1,2.6,3.1,2.5c-2-2.6-2.9-5.6-2.9-8.6
		c0-2.8,1-5.4,3.4-7.4c3-2.5,6.6-3.1,10.2-4c9.1-2.2,18.3-4.4,27.5-6.5c8.5-1.9,17.1-3.9,25.7-5.4c1.2-0.2,2.2-1.2,2.1-2.2
		c-0.1-1.1,0.3-1.1,1.1-1c3.8,0.2,4.3,0.5,4.3,4.2c0,5.7,0,11.4,0,17.1c0,1.2-0.3,2.2-0.6,3.3c-0.1,0.7-0.5,1.7-1.7,1.1
		c-0.4-0.2-0.7,0-1.1,0.2c-6,2.8-12.5,4.3-18.7,6.7c-5.7,2.2-11.5,3.9-17.2,6.3c-1.1,0.5-2.3,0.8-3,1.8c-0.5,0.7-0.9,0.5-1.5,0.1
		c-3.9-2.7-7.4-5.7-9.7-9.9c-2.5-4.7-0.1-8.3,3.8-9.6c7.4-2.5,14.6-5.4,21.9-8.1c7.1-2.7,14.3-5.3,21.4-7.8c0.7-0.3,1.7-0.3,1.4-1.3
		c-0.3-0.9-1.3-0.5-1.9-0.3c-3.6,1.3-7.1,2.6-10.6,4.1c-6.4,2.6-12.9,4.8-19.3,7.2c-2.2,0.8-4.4,1.8-6.6,2.4
		c-3.3,0.9-6.3,2.4-9.5,3.7c-3.7,1.5-4.8,3.7-4,7.6c1,4.7,4,7.7,7.4,10.7c4.7,4.1,10,7.2,15.6,9.7c5.4,2.4,11.1,4.2,17.1,5.2
		c3.6,0.6,7.1,1.3,10.7,1.1c4.6-0.2,9.2-0.9,13.6-2.6c4.9-1.9,10.1-3.4,15.1-5.1c3.6-1.2,7.2-2.8,10.9-3.8c2.3-0.6,4.7-1.2,7.1-0.4
		c2.3,0.8,2.8,1.4,2.3,4.6c-0.7,4.8-1.8,9.5-4.2,13.7c-2.8,4.8-6.3,9.1-10.7,12.6c-1.2,0.9-2.3,1.9-3.3,2.9c-0.3,0.2-0.8,0.5-0.4,1
		c0.3,0.3,0.7,0.2,1.1-0.1c0.8-0.6,1.6-1.2,2.4-1.8c6.4-5.4,12.1-11.3,14.5-19.7c0.6-2.1,1-4.4,2.2-6.5c0.2,1.1,0.6,2.3,0.6,3.4
		c-0.1,5.5,0.6,11,0.5,16.5c0,2.2,0.6,4.3-0.5,6.4c-2.1,3.9-4.4,7.7-7,11.2c-3.9,5.2-8.3,9.9-13.8,13.4c-6.4,4-13.2,6.9-20.6,8.6
		c-8,1.7-16,2.2-24,1.9c-4.3-0.1-8.6-1.2-12.9-1.4c-5.7-0.3-11.1-2.5-16.9-1.8c-5.2,0.7-10.4,1.9-15.3,3.8c-7.6,2.8-15,6-22.1,9.8
		c-5.9,3.1-11.5,6.6-17.5,9.5c-8.9,4.3-17.3,9.5-25.8,14.4c-6.5,3.7-12.9,7.3-19.4,10.9c-6.7,3.7-13.2,7.6-19.7,11.5
		c-5,3-10.2,5.8-15.2,8.7c-6.1,3.5-12.1,7.1-18.3,10.5c-6.1,3.3-12.1,6.9-18.1,10.4c-7.6,4.3-15.2,8.7-22.8,13
		c-6.9,3.9-13.7,7.7-20.6,11.7c-7.2,4.1-14.3,8.3-21.5,12.4c-4.4,2.6-9,5-13.4,7.5c-6.6,3.7-13.1,7.5-19.7,11.3
		c-6,3.4-12,6.8-18,10.2c-10.6,6-21.1,12.1-31.7,18.1c-6.4,3.7-12.8,7.5-19.4,10.8c-16.4,8.3-32.4,17.1-47.6,27.6
		c-6.1,4.2-12.1,8.4-17.6,13.4c-8.1,7.3-14.6,15.7-19,25.6c-2.2,4.8-3.7,9.9-5.4,14.9c-2.3,6.6-4.7,13-8.3,19.1
		c-3.8,6.3-8,12.3-13.4,17.3c-3.6,3.4-7.6,6.3-12,8.8c-4.4,2.4-9,4.2-13.8,5.6c-4,1.2-8.2,2-12.4,2.5c-7.5,1-15,0.8-22.5,0.7
		c-7-0.2-13.9-0.5-20.9-1.5c-4.3-0.6-8.7-0.7-13-1.3c-5.1-0.7-10.2-1.4-15.3-2.3c-5.9-0.9-11.7-2.2-17.6-3c-4.5-0.7-7.3-2.6-8.2-7.5
		c-1.1-6.4-1.9-12.9-1.6-19.4c0.2-6.1,1.3-6.4,5.6-8c14.8-5.3,29.9-9.8,45.1-13.8c3.5-0.9,6.8-2.6,10.2-3.9
		c4.3-1.5,8.3-3.4,11.9-6.3c3-2.3,5.1-5.4,7.1-8.5c2.7-4.2,3.6-8.9,4.2-13.8c0.8-6.9-0.7-13.3-3-19.6c-1.1-3-2.3-6-5.3-8
		c3.7,9.5,7.7,18.8,5.3,29.1c-3-5.5-6.8-10.4-11.9-14.4c-4.6-3.6-9.5-6.4-15-8.2c-4.9-1.6-9.9-2.8-15.1-2.3
		c-5.1,0.6-10.2,1.5-15.1,3c-8.9,2.7-17.9,5.3-26.8,8c-6.7,2.1-13.3,4.3-20,6.5c-1.4,0.5-2.8-0.4-4.2,0.3c-0.1,0.1-0.9-0.3-0.9-1.4
		c0-2.8-0.7-5.6-1.5-8.3c-0.2,2.7-0.5,5.4,0,8.3c-2.5-1.3-3.6-3.3-4-5.9c-0.7-5.5-1.4-11.1-1.2-16.7c0-1,0.5-1.5,1.1-2.3
		c3.2-3.9,8.1-4.8,12.3-6.8c7.1-3.3,14.4-6.2,21.7-9.3c5.2-2.2,10.3-4.5,15.5-6.7c7.5-3.2,14.9-6.8,22.6-9.5
		c5.6-2,11.6-2.2,17.6-1.4c6,0.8,11.8,2.4,17.1,5.1c4.3,2.2,8.3,4.9,12,8c5.6,4.8,10,10.5,13.7,16.8c2.5,4.2,4.3,8.6,5.7,13.3
		c1.5,5,1.8,10.2,2.5,15.3c0.6,3.9-0.8,7.6,0.1,11.6c0.9-2.5,1-5,1.4-7.5c1.3-8.3-0.8-16.2-3.4-24c-2.6-7.9-6.9-14.7-12.3-21
		c-6.1-7.1-13.4-12.5-21.9-16.2c-5.5-2.3-11.1-3.9-17.2-4.2c-6.6-0.4-12.8,0.3-18.9,2.6c-4.3,1.6-8.5,3.5-12.7,5.4
		c-8.4,3.8-16.8,7.4-25.2,11c-7,3-13.9,6-21,8.8c-0.4-0.5,0.1-0.7,0.4-1c4.7-4.3,9.4-8.5,14.4-12.5c2.8-2.3,5.3-4.9,8.2-7.2
		c6.1-4.8,12.2-9.6,19.2-13.3c6.6-3.4,13.4-6,20.5-7.9c2.5-0.7,5.3-0.8,7.9-0.9c2.6-0.1,5.1-0.8,7.8-0.2c1.3,0.3,3-1,4.6-0.7
		c4.4,0.8,8.9,0.1,13.3,1.5c2.7,0.8,5.7,0.6,8.5,1c6.6,1,13.3,1.3,20,1.8c2.6,0.2,5.4,0.6,8,0.5c3.2-0.2,6.5,0,9.8-0.5
		c4.5-0.6,9.1-1.1,13.5-2.2c4.1-1,8.3-1.9,12-4.1c3.2-1.9,6.8-3,10.1-4.6c4.3-2.1,8.4-4.6,12.7-6.7c4.6-2.2,9.2-4.4,13.7-6.8
		c8-4.2,16.1-8,24-12.3c11.1-6,22.4-11.6,33.7-17.4c10.3-5.3,20.6-10.5,30.9-15.8c10.5-5.5,21.1-10.8,31.6-16.2
		c11.5-5.9,23.1-11.8,34.6-17.8c7.4-3.8,14.8-7.4,22.2-11.2c12.3-6.5,24.8-12.6,37.1-19c6.6-3.4,13.2-6.8,19.8-10.2
		c16.2-8.4,32.6-16.5,48.9-24.7c8.4-4.3,16.7-8.6,25.1-13c5.4-2.8,10.8-5.8,16.3-8.5c4.3-2,8.6-3.9,12.5-6.5
		c3.6-2.4,6.9-5.3,9.7-8.7c5.5-6.6,7.4-14.7,10.1-22.5c1.6-4.7,2.4-9.8,5.2-13.9c2.5-3.8,6-6.8,10.2-8.7c5.3-2.5,10.9-4.2,16.7-5.1
		c3.4-0.5,6.8-1.1,10.3-1.5c6.4-0.8,12.8-0.8,19.2-1.6c0.2,0,0.4,0,0.6,0c6.4,0.2,12.9-0.7,19.3-0.4
		C955,365.3,958.8,365.8,962.7,365.6z"/>
	<path d="M841.1,445.3c4.8-2.7,9.3-2.4,13.8-1.5c3.1,0.6,6,1.7,8.5,3.9c2.6,2.3,3.3,5.1,2.1,8.2c-1,2.6-2.9,4.4-5.4,5.7
		c-6.7,3.6-13.5,7.1-20.2,10.7c-11.9,6.5-23.9,13.1-35.8,19.6c-6.7,3.7-13.5,7.4-20.2,11.1c-10.8,5.9-21.5,11.9-32.3,17.8
		c-5.4,2.9-10.8,5.7-16.2,8.7c-9,5-18,10.1-27.1,15c-4.9,2.6-9.7,5.3-14.5,7.9c-8.6,4.6-17,9.5-25.5,14.2c-6,3.3-12.1,6.6-18.2,9.9
		c-7.7,4.3-15.4,8.6-23,12.9c-4.4,2.5-8.9,4.8-13.3,7.3c-8.2,4.5-16.3,9.2-24.4,13.7c-5.5,3.1-11.1,6-16.6,9.1
		c-9.7,5.4-19.3,11-29.1,16.2c-6.6,3.6-13,7.7-20,10.5c-1.7,0.7-3.3,1.7-5.2,2.3c-5.5,1.8-10.8,1.2-16.1-0.8
		c-3.3-1.2-6.1-3.2-8.6-5.5c-3.3-3-3.8-10.1-1.5-14c1.8-3,4.2-5.2,7.5-6.4c0.8-0.3,1.5-0.3,2.8-0.1c-6.6,2.9-11.3,6.7-10.3,14.2
		c1.1-2.9,2.4-5.6,4.8-7.7c1.9-1.7,4.2-2.7,6.4-3.9c8.1-4.2,16.3-8.4,24.4-12.6c7.9-4.1,15.9-8.2,23.8-12.4
		c9.1-4.8,18.3-9.4,27.3-14.2c9.7-5.1,19.6-9.9,29.3-14.9c10-5.1,20-10.3,30-15.5c4.8-2.5,9.5-5,14.3-7.5c0.2-0.1,0.4-0.5,0.7,0.1
		c-0.7,0.5-1.4,1-2.2,1.4c-5.6,2.9-11.1,5.7-16.7,8.6c-10.8,5.6-21.6,11.2-32.4,16.8c-7.2,3.7-14.4,7.4-21.6,11.2
		c-8.8,4.6-17.6,9.2-26.4,13.9c-5.7,3-11.4,6-17.1,9c-10.7,5.6-21.3,11.1-31.9,16.9c-3.1,1.6-6.5,2.7-8.9,5.5
		c-2.3,2.9-4.1,7.8-1.3,10.8c1.5,1.6,3.3,2.9,5.2,3.9c2.9,1.5,6,2.4,9.4,2.7c4.3,0.3,8.3-0.5,12.2-2.4c10.1-4.9,19.8-10.5,29.7-15.9
		c8.7-4.7,17.2-9.6,25.9-14.4c9.2-5.1,18.4-10.2,27.6-15.3c5.8-3.2,11.6-6.3,17.3-9.4c10-5.5,20-11.1,30-16.6
		c5.6-3.1,11.3-6.1,17-9.3c8.2-4.5,16.3-9.2,24.4-13.7c4.9-2.7,9.9-5.2,14.7-8c8.7-5,17.6-9.5,26.2-14.5c5-2.9,10.2-5.5,15.3-8.2
		c9.3-5.1,18.6-10.3,28-15.5c6-3.3,12.1-6.6,18.2-9.9c8.4-4.6,16.7-9.4,25.2-13.9c4.6-2.4,9.1-4.9,13.7-7.4
		c7.1-3.9,14.2-8.1,21.3-12c1.7-0.9,3.3-1.9,4.8-3c4.6-3.2,4.3-8.7-0.6-11.5c-5.2-2.9-10.6-3.6-16.3-2.2
		C843.3,445.4,842.5,445.3,841.1,445.3z"/>
	<path d="M941.6,456c-5.8-1.6-11.9-1.2-18-1.3c-6-0.1-11.8,1.3-17.5,2.6c-8.7,2.1-16.8,5.6-24.7,9.7c-9.4,4.9-18.7,10.3-28,15.4
		c-5.2,2.8-10.4,5.5-15.6,8.4c-7.1,3.9-14.1,8-21.3,11.7c-4.3,2.2-8.5,4.5-12.7,6.8c-9.3,5-18.5,10.3-27.8,15.4
		c-6.3,3.5-12.8,6.8-19.1,10.3c-10.3,5.6-20.4,11.5-30.7,17c-5.7,3.1-11.4,6.3-17.1,9.4c-8.3,4.6-16.6,9.3-25,13.9
		c-6.3,3.5-12.7,6.9-19.1,10.3c-6.9,3.8-13.8,7.7-20.7,11.5c-4.9,2.7-9.9,5.4-14.9,8.1c-8.8,4.9-17.6,9.8-26.4,14.6
		c-5.6,3.1-11.3,6-16.8,9.2c-5.5,3.1-11.2,5.8-16.9,8.6c-2.5,1.2-5.1,2.2-7.5,3.4c-2.9,1.5-5.6,3.5-8.4,5.1
		c-6.7,3.7-13.2,7.6-19.6,11.8c-6.6,4.4-13,9.1-19.4,13.8c-0.5,0.4-1.1,0.9-1.5,0.3c-0.3-0.5,0.5-0.7,0.9-1.1
		c4-3.5,8.3-6.6,12.7-9.7c9.5-6.6,19.5-12.5,29.7-17.9c6.5-3.4,12.9-6.9,19.5-10.1c10.7-5.1,20.7-11.4,31.1-17
		c6.4-3.4,12.7-6.9,19-10.4c9.7-5.4,19.6-10.5,29.2-16.2c6.4-3.8,13.1-7.1,19.6-10.7c8.9-4.9,17.7-9.8,26.6-14.7
		c5.6-3.1,11.2-6.1,16.8-9.1c8.5-4.7,16.8-9.5,25.3-14.1c5.1-2.7,10.2-5.5,15.3-8.3c8.4-4.7,16.9-9.4,25.4-14
		c5.7-3.1,11.4-6.2,17.1-9.3c9.9-5.4,19.8-10.9,29.7-16.3c5.5-3,11.1-6,16.6-9.1c5.9-3.3,11.9-6.6,17.8-9.8c6.1-3.4,12-7,18.3-10
		c3.4-1.6,6.6-3.5,10.2-4.7c5-1.7,10-3.3,15.1-4.4c6.7-1.5,13.6-2.5,20.5-2.1c4.2,0.2,8.3,0.9,12.5,1.7c0.5,0.1,1,0.4,0.8,0.9
		C942.6,456.1,942.1,455.8,941.6,456z"/>
	<path d="M436.7,715.5c-1.1,5.1-3.9,9.2-6.8,13.1c-6.8,9.5-16.7,14-27.6,16.3c-5,1-10.1,1.3-15.2,2.1c-5.1,0.8-10.2,1.5-15.3,2.3
		c-4.1,0.6-8.2,1.2-12.2,1.8c-5.8,0.9-11.7,1.5-17.5,2.8c-1.2,0.2-2.4,0.4-3.5,0.5c-0.6,0.1-1.1-0.2-1.1-0.9c0-0.5,0.5-0.7,1-0.8
		c5.2-0.7,10.4-1.2,15.6-2.1c6.7-1.2,13.4-1.9,20-3.2c4.9-1,10-1.3,15-2.2c6.4-1.2,13.1-1.2,19.4-3.3c8-2.7,15-6.9,20.3-13.7
		c3-3.8,5.5-7.9,7.4-12.3C436.1,715.8,436.3,715.8,436.7,715.5z"/>
	<path d="M965,433.4c-11.1-0.8-22.1-2.3-32.4-6.8c-7.2-3.1-14.3-6.3-20.7-10.8c-0.4-0.3-1.1-0.5-0.7-1.1c0.3-0.4,0.8-0.1,1.2,0.2
		c3.6,2.1,7.2,4.3,11,6.2c8.4,4.3,17.1,7.8,26.4,9.3c6.1,1,12.3,1.9,18.5,1.2c5.7-0.6,10.9-2.4,15.6-6c6.9-5.3,14.1-10,21.2-14.9
		c0.5-0.3,1.2-1.3,1.8-0.3c0.7,1-0.5,1.5-1,1.8c-3.7,2.1-7.1,4.7-10.7,7.1c-5.2,3.5-10.3,7.1-15.5,10.6c-2.1,1.4-4.6,1.9-7,2.4
		C970.1,432.9,967.6,433.8,965,433.4z"/>
	<path d="M433.2,727.2c-1.3,4.4-4.4,7.7-7.7,10.6c-3.9,3.5-8.4,6.1-13.2,8.1c-3.4,1.4-6.9,2.4-10.6,2.9c-3.9,0.5-7.9,1.2-11.8,1.8
		c-3.5,0.5-7,0.9-10.5,1.4c-3.8,0.5-7.5,1-11.3,1.5c-3.5,0.5-7,0.9-10.5,1.3c-4.7,0.6-9.3,1.3-14,1.9c-1.5,0.2-2.9,0.4-4.4,0.5
		c-0.4,0-1.2,0.4-1.2-0.6c0-0.6,0.4-1,1-1c2.6-0.3,5.2-0.5,7.8-0.8c3.8-0.5,7.7-0.8,11.5-1.5c2.4-0.5,4.9-0.6,7.3-0.9
		c3.9-0.4,7.8-1.1,11.7-1.6c4.4-0.5,8.7-1,13.1-1.8c6.6-1.2,13.3-1.1,19.7-3.6c7.5-3,14-7.1,19.1-13.5
		C430.4,730.3,431.9,728.8,433.2,727.2z"/>
	<path d="M405.5,673.1c-1.3-0.2-2-1-2.7-1.7c-3.6-3.8-7.6-7.2-12.2-9.6c-4.8-2.5-9.9-4-15.4-4.7c-8-1.1-15.4,0.8-22.8,3.1
		c-11.6,3.6-23.3,7.2-34.9,10.7c-4.7,1.4-9.4,2.8-14.1,4.2c-0.5,0.2-1.2,0.8-1.5-0.1c-0.2-0.6,0.3-1,1.1-1.2
		c6.3-1.8,12.6-3.7,18.8-5.7c12.1-3.8,24.4-7.2,36.6-10.7c4.9-1.4,9.9-2.3,15-1.9c6.9,0.5,13.2,2.6,19.2,6.1
		c3.4,1.9,6.3,4.4,9.2,6.9C403.2,669.7,404.7,671,405.5,673.1z"/>
	<path d="M909.9,418.3c5.7,3.7,11.9,6.3,18.1,9c4.7,2.1,9.6,3.9,14.6,5.3c5.7,1.6,11.5,2.4,17.4,2.9c3.1,0.3,6.2,0.1,9.3,0.3
		c1.4,0.1,2.7-0.6,4-0.9c3.2-0.9,6.5-1.5,9.5-3.5c6.7-4.5,12.8-9.8,19.5-14.3c0.9-0.6,1.9-1.2,2.9-1.7c0.3-0.2,0.5-0.4,0.8,0
		c0.4,0.5-0.1,0.6-0.3,0.8c-1,1.3-2.4,1.9-3.6,2.8c-6.1,4.6-12.1,9.2-18.3,13.6c-3.8,2.7-8.3,3.9-12.9,4.5c-3.9,0.5-7.8,0-11.7-0.3
		c-5.2-0.4-10.4-1.4-15.5-2.5c-3.9-0.8-7.7-2.3-11.4-3.8c-6.8-2.8-13.6-5.5-19.7-9.8C911.6,420,910.5,419.5,909.9,418.3z"/>
	<path d="M442.7,762c-5.4,2.2-10.9,3.8-16.6,4.8c-3.3,0.6-6.7,1.3-10.1,1.4c-3.1,0.1-6.2,0.7-9.3,0.5c-6.9-0.4-13.9-0.7-20.8-1.3
		c-6.8-0.6-13.7-1.3-20.4-2.5c-5.8-1-11.6-1.9-17.4-3c-3.4-0.7-6.9-1.3-10.4-1.8c-0.7-0.1-1.3-0.2-1.2-1c0.1-0.8,0.8-0.4,1.3-0.3
		c3.8,0.7,7.5,1.4,11.3,2.1c3.7,0.7,7.4,1.5,11.1,2c5.6,0.8,11.1,1.5,16.7,2.2c3.5,0.5,7,0.8,10.5,1.1c8.1,0.7,16.1,1.4,24.2,1.1
		c4-0.1,8.1-0.8,12.1-1.4c3.3-0.5,6.7-1.1,9.9-1.9c2.2-0.6,4.5-0.9,6.5-2.2C440.7,761.6,441.8,760.7,442.7,762z"/>
	<path d="M861.1,450.7c-2.4-0.9-4.7-1.7-7.2-2.2c-4.3-0.8-8.2,0.1-12.2,1.6c-3.8,1.3-6.7,4.1-10.4,5.7c-6.4,2.9-12.5,6.3-18.8,9.6
		c-8.9,4.6-17.9,9.2-26.8,13.8c-5.4,2.8-10.8,5.8-16.2,8.4c-4.4,2.2-8.8,4.4-13.1,6.8c-0.7,0.4-1.4,0.6-2.2,0.9
		c-0.1-0.6,0.3-0.7,0.6-0.9c7.4-3.8,14.7-7.6,22.1-11.4c11.4-6,22.8-12,34.2-18c6.8-3.6,13.6-7.1,20.4-10.7c2.9-1.5,5.8-3.2,8.6-4.8
		c6.2-3.5,12.7-3.2,19.2-0.8C859.9,448.9,860.9,449.3,861.1,450.7z"/>
	<path d="M508.6,675.7c-3.8,4.9-8.2,9.2-11.7,14.4c-3.3,5-6,10.5-9.3,15.8C486.9,700.7,502.4,678.4,508.6,675.7z"/>
	<path d="M951.6,455.2c4.9-0.1,9.5-0.6,14.1-1.3c4.5-0.8,8.7-2.5,13.5-3C975.1,454.3,954.5,457.6,951.6,455.2z"/>
	<path d="M967,376.9c-0.2,3.1-0.3,7,0.8,10.8c0.2,0.7-0.4,1.3-0.9,1.4c-0.7,0.2-0.8-0.5-0.7-1.1c0.2-2.4-1-4.7-0.7-6.9
		c0.3-2.4,0.1-4.7,0.3-7.1c0.1-1.6-0.3-3.2-0.6-4.7c-0.1-0.5-0.4-1,0.1-1.2c0.5-0.2,0.7,0.4,0.9,0.8
		C967.2,371.2,966.9,373.6,967,376.9z"/>
	<path d="M483,714.4c-0.1,3.7-6.1,15.6-8.6,16.7C476.9,725.1,479.9,719.7,483,714.4z"/>
	<path d="M449.8,758.2c0-0.5-0.4-0.9,0.3-1.4c3.2-1.9,6.1-4.4,9.3-6.7c0.2,1.5-0.9,1.9-1.6,2.5c-2.2,1.8-4.5,3.4-6.7,5.2
		C450.7,758.1,450.2,758,449.8,758.2L449.8,758.2z"/>
	<path d="M301.8,684.1c-0.4-2-0.8-4.1-1.1-6.1c-0.1-0.5,0.1-1,0.5-1.1c0.4-0.2,0.9,0.3,0.9,0.6C301.9,679.6,303,681.8,301.8,684.1z"
		/>
	<path d="M896.5,407.2c-1.7-0.7-2.5-2.3-3.5-3.8c-0.2-0.3-0.1-0.6,0.2-0.6c0.3,0,0.8,0,0.9,0.2C895,404.3,896.1,405.5,896.5,407.2z"
		/>
	<path d="M448.4,758.8c-0.9,1.4-2.8,1.4-4,2.5c-0.1,0.1-0.6,0-0.7-0.2c-0.2-0.2-0.1-0.6,0.2-0.7
		C445.4,759.9,446.6,758.5,448.4,758.8L448.4,758.8z"/>
	<path d="M467.2,742.7c0.5-2.3,2.5-3.1,3.5-4.6C470,739.8,468.9,741.3,467.2,742.7z"/>
	<path d="M752.1,496.2c-1.7,1.1-3.4,2.2-5.4,2.6C748.4,497.5,750.3,496.9,752.1,496.2z"/>
	<path d="M741.1,501.9c-1.1,0.9-2.3,1.7-4.1,1.9C738.5,502.8,739.5,501.8,741.1,501.9z"/>
	<path d="M729.7,507.8c-1.5,1.2-2.8,1.8-4.6,2.3C726.5,508.8,727.8,508.1,729.7,507.8z"/>
	<path d="M449.8,758.1c-0.3,0.5-0.7,1-1.4,0.6c0,0,0.1,0.1,0.1,0.1C448.5,757.8,449.2,758.1,449.8,758.1
		C449.8,758.2,449.8,758.1,449.8,758.1z"/>
</g>
</svg>
