<?xml version="1.0" encoding="utf-8"?>
<!-- Generator: Adobe Illustrator 21.0.2, SVG Export Plug-In . SVG Version: 6.00 Build 0)  -->
<svg version="1.1" id="Layer_1" xmlns="http://www.w3.org/2000/svg" xmlns:xlink="http://www.w3.org/1999/xlink" x="0px" y="0px"
	 viewBox="0 0 372.7 213.9" style="enable-background:new 0 0 372.7 213.9;" xml:space="preserve">
<style type="text/css">
	.st0{fill:#575654;}
	.st1{fill:#353535;}
	.st2{fill:#E6E6E8;}
	.st3{fill:#A7AAAB;}
	.st4{fill:#5AB3AC;}
	.st5{fill:#5BB0A9;}
	.st6{fill:#FEFEFE;}
	.st7{fill:#D1D0CE;}
	.st8{fill:#FDFDFD;}
</style>
<title>laptop</title>
<g id="Layer_1_1_">
	<path class="st0" d="M41.6,189c0-58.6,0-117.3,0-175.9C41.6,4.1,46.1,0,56,0h257.8c4.1,0,8,0.2,10.6,4.1c-0.1,2.4-1.6,4.5-3.8,5.4
		c-2.5,1.2-3,3.1-3,5.7c0.5,51.8,0.2,103.7,0.2,155.5c0,1.3-0.1,2.7-0.1,4c-0.2,4-2.2,6.1-6.2,6.3c-3,0.2-6,0.1-9,0.1
		c-75.2,0-150.3,0.2-225.5-0.2c-12-0.1-23.1,0.7-32.8,8.5C43.3,189.9,42.3,189.7,41.6,189z"/>
	<path class="st1" d="M43.6,189c6.6-6,13.2-10.2,23.1-10.1c80.6,0.4,161.2,0.2,241.9,0.2c7.1,0,7.1,0,7.1-7.1c0-51,0-101.9,0-152.9
		c0-2.5,1-5.6-3.1-6.4c3.2-4,8.3-5.2,11.8-8.5c2,1.4,2.8,3.5,3.5,5.8c1.3,2.9,1.9,6,1.8,9.1c-0.1,54.4-0.1,108.8,0,163.2
		c0,2.5,0.3,5-1.4,7.2c-1.8,1.9-4.3,1.7-6.5,1.7c-33.7,0.1-67.3,0.6-101-0.1c-21.6-0.5-43.3-0.9-64.9-0.3
		c-35.1,0.9-70.3,0.2-105.4,0.4C48,191.2,45.3,191.6,43.6,189z"/>
	<path class="st2" d="M43.6,189c34.8,0.1,69.6,0.1,104.3,0.2c57.9,0,115.8,0,173.7,0c2,0,4-0.1,6-0.2c1.1-1.1,2.8-1.1,3.9,0l0,0H362
		c7,0,7,0,6.7,6.8c0,1.3-0.2,2.6-0.2,4c-1.4,2.1-3.7,2-5.8,2.3c-1.8,0.2-3.7,0.2-5.5,0.2c-115,0-230,0-345,0
		c-3.6,0-7.4,0.6-10.5-2.1c-3.5-6.7-1.3-11.2,5.7-11.2h34.2H43.6z"/>
	<path class="st3" d="M1.6,200.1c56.6,0,113.3-0.1,169.9-0.1c64,0,127.9,0,191.9,0c1.7,0,3.3-0.1,5-0.2l0.2,0.4
		c-0.3,4.7-4.7,9-10.1,9.8c-1.7,0.2-3.3,0.3-5,0.2c-111.4,0.1-222.9,0.1-334.3,0c-5.5,0-10.7-0.7-14.5-5.2
		C3.8,203.2,1.8,202.2,1.6,200.1z"/>
	<path class="st4" d="M4.6,205c6.7,3,13.8,2.9,21,2.9c108.7,0,217.5,0,326.2,0.1c7.2,0,12.5-2.3,16.8-7.8c0.2-0.4,0.5-0.8,0.8-1.3
		c0.6-1.2-0.3-3.6,2-3.2c1.9,0.3,1.2,2.5,1.3,3.9c0.4,8.2-4.4,13.6-12.6,14.3c-1.5,0.1-3,0.1-4.5,0.1c-111.2,0-222.5,0-333.7,0
		C14.5,214,7.9,212.8,4.6,205z"/>
	<path class="st5" d="M331.6,188.9h-4c0-58,0-116,0.1-174c0-1.7,0.1-3.3,0.1-5c2.9,1.9,3.8,4.7,3.8,8.1
		C331.6,75,331.6,132,331.6,188.9z"/>
	<path class="st6" d="M184.3,178.1c-42,0-84,0-126,0.1c-3.3,0-3.8-1.1-3.8-4c0.1-52.1,0.1-104.3,0-156.4c0-3.5,1.2-4,4.3-4
		c83.3,0.1,166.6,0.1,249.9,0c4.9,0,6.3,1.1,6.3,6.3c-0.2,51-0.2,102,0,152.9c0,4.2-1.1,5.2-5.2,5.2
		C267.9,178,226.1,178.1,184.3,178.1z"/>
	<path class="st7" d="M184.6,9.7c-0.9,0-1.7-0.8-1.7-1.7c0-0.1,0-0.2,0-0.3c0.1-0.9,0.8-1.5,1.7-1.4c0.9-0.1,1.7,0.6,1.7,1.5
		c0,0.1,0,0.3,0,0.4C186.3,9.1,185.5,9.8,184.6,9.7z"/>
	<path class="st8" d="M161.6,195c-2.6-0.9-7.3,0.2-7-3.6c0.2-2.5,4.6-1.2,7.1-1.2c16.3-0.1,32.6-0.1,48.8,0c1.5,0,4.1-0.9,4.2,1.2
		c0.1,2.4-2.5,2.7-4.5,2.7c-14.3,0-28.6,0-42.8,0C165.4,194,163.4,193.6,161.6,195L161.6,195z"/>
</g>
</svg>
