<?xml version="1.0" encoding="utf-8"?>
<!-- Generator: Adobe Illustrator 21.0.2, SVG Export Plug-In . SVG Version: 6.00 Build 0)  -->
<svg version="1.1" id="Layer_1" xmlns="http://www.w3.org/2000/svg" xmlns:xlink="http://www.w3.org/1999/xlink" x="0px" y="0px"
	 viewBox="0 0 432 288" style="enable-background:new 0 0 432 288;" xml:space="preserve">
<style type="text/css">
	@import url(https://fonts.googleapis.com/css?family=Source+Sans+Pro:400,600);
	text { font-family:Source Sans Pro; }
	.st0{fill:#575755;}
	.st1{fill:#353635;}
	.st2{fill:#E7E6E8;}
	.st3{fill:#A8ABAC;}
	.st4{fill:#5AB3AC;}
	.st5{fill:#5AB0A9;}
	.st6{fill:#FFFFFF;}
	.st7{fill:#D1D1CF;}
	.st8{clip-path:url(#SVGID_2_);fill:#EDF0F5;}
	.st9{clip-path:url(#SVGID_4_);}
	.st10{fill:#DD4B38;}
	.st11{font-family:'Source Sans Pro';}
	.st12{font-size:4px;}
	.st13{fill:#D63A27;}
	.st14{font-size:5.0628px;}
	.st15{fill:#FEFFFF;}
	.st16{fill:#C6C5C5;}
	.st17{fill:none;stroke:#FFFFFF;stroke-width:0.75;stroke-miterlimit:10;}
	.st18{fill:#222D32;}
	.st19{font-size:3.5503px;}
	.st20{fill:#1A2226;}
	.st21{fill:#FBFCFC;}
	.st22{fill:#ECECEC;}
	.st23{clip-path:url(#SVGID_6_);}
	.st24{font-size:6px;}
	.st25{clip-path:url(#SVGID_8_);}
	.st26{fill:#545353;}
	.st27{clip-path:url(#SVGID_10_);fill:#FFFFFF;}
	.st28{clip-path:url(#SVGID_12_);fill:none;stroke:#3C8DBC;stroke-width:0.75;stroke-linecap:round;stroke-miterlimit:10;}
	.st29{clip-path:url(#SVGID_14_);}
	.st30{clip-path:url(#SVGID_16_);}
	.st31{fill:#444445;}
	.st32{clip-path:url(#SVGID_18_);}
	.st33{fill:#EBEEF4;}
	.st34{fill:none;stroke:#5A5D5C;stroke-width:0.5;stroke-linecap:round;stroke-miterlimit:10;}
	.st35{fill:#5A5D5C;}
	.st36{clip-path:url(#SVGID_20_);fill:#DD4B38;}
	.st37{clip-path:url(#SVGID_22_);}
	.st38{fill:#EEEDEE;}
	.st39{fill:#2D2D2D;}
	.st40{font-family:'Source Sans Pro Semibold';}
	.st41{font-size:3.8548px;}
	.st42{fill:#FFFFFF;stroke:#C9C9C9;stroke-width:0.25;stroke-miterlimit:10;}
	.st43{fill:none;stroke:#FFFFFF;stroke-width:0.5;stroke-miterlimit:10;}
	.st44{clip-path:url(#SVGID_24_);}
	.st45{fill:#F8F9FA;}
	.st46{fill:#DDDDDD;}
	.st47{fill:#595959;}
	.st48{fill:#3C8DBC;}
	.st49{font-family:'Source Sans ProIt';}
	.st50{fill:#3C8DBC;stroke:#2B73BA;stroke-width:0.25;stroke-miterlimit:10;}
	.st51{clip-path:url(#SVGID_26_);}
	.st52{clip-path:url(#SVGID_28_);}
	.st53{clip-path:url(#SVGID_30_);}
	.st54{clip-path:url(#SVGID_32_);}
	.st55{fill:#00A659;stroke:#098241;stroke-width:0.25;stroke-miterlimit:10;}
	.st56{fill:#FCFAFC;}
	.st57{fill:none;stroke:#00A659;stroke-width:0.25;stroke-miterlimit:10;}
</style>
<g id="Layer_2">
	<g>
		<path class="st0" d="M66.8,223.6V45.2c0-9.1,4.6-13.3,14.6-13.3H343c4.2,0,8.1,0.2,10.8,4.2c-0.1,2.4-1.6,4.6-3.9,5.5
			c-2.5,1.2-3,3.1-3,5.8c0.5,52.6,0.2,105.2,0.2,157.8c0,1.3-0.1,2.7-0.1,4.1c-0.2,4.1-2.2,6.2-6.3,6.4c-3,0.2-6.1,0.1-9.1,0.1
			c-76.3,0-152.5,0.2-228.8-0.2c-12.2-0.1-23.4,0.7-33.3,8.6C68.6,224.6,67.5,224.4,66.8,223.6"/>
		<path class="st1" d="M68.9,223.6c6.7-6.1,13.4-10.3,23.4-10.2c81.8,0.4,163.6,0.2,245.5,0.2c7.2,0,7.2,0,7.2-7.2V51.2
			c0-2.5,1-5.7-3.1-6.5c3.2-4.1,8.4-5.3,12-8.6c2,1.4,2.8,3.6,3.6,5.9c1.3,2.9,1.9,6.1,1.8,9.2c-0.1,55.2-0.1,110.4,0,165.6
			c0,2.5,0.3,5.1-1.4,7.3c-1.8,1.9-4.4,1.7-6.6,1.7c-34.2,0.1-68.3,0.6-102.5-0.1c-21.9-0.5-43.9-0.9-65.9-0.3
			c-35.6,0.9-71.3,0.2-107,0.4C73.3,225.9,70.6,226.3,68.9,223.6"/>
		<path class="st2" d="M68.9,223.6c35.3,0.1,70.6,0.1,105.8,0.2H351c2,0,4.1-0.1,6.1-0.2c1.1-1.1,2.8-1.1,4,0H392
			c7.1,0,7.1,0,6.8,6.9c0,1.3-0.2,2.6-0.2,4.1c-1.4,2.1-3.8,2-5.9,2.3c-1.8,0.2-3.8,0.2-5.6,0.2H37c-3.7,0-7.5,0.6-10.7-2.1
			c-3.6-6.8-1.3-11.4,5.8-11.4h34.7H68.9z"/>
		<path class="st3" d="M26.2,234.9c57.4,0,115-0.1,172.4-0.1h194.7c1.7,0,3.3-0.1,5.1-0.2l0.2,0.4c-0.3,4.8-4.8,9.1-10.2,9.9
			c-1.7,0.2-3.3,0.3-5.1,0.2c-113,0.1-226.2,0.1-339.2,0c-5.6,0-10.9-0.7-14.7-5.3C28.5,238.1,26.4,237,26.2,234.9"/>
		<path class="st4" d="M29.3,239.9c6.8,3,14,2.9,21.3,2.9c110.3,0,220.7,0,331,0.1c7.3,0,12.7-2.3,17-7.9c0.2-0.4,0.5-0.8,0.8-1.3
			c0.6-1.2-0.3-3.7,2-3.2c1.9,0.3,1.2,2.5,1.3,4c0.4,8.3-4.5,13.8-12.8,14.5c-1.5,0.1-3,0.1-4.6,0.1H46.8
			C39.3,249,32.6,247.8,29.3,239.9"/>
		<path class="st5" d="M361.1,223.5H357c0-58.9,0-117.7,0.1-176.6c0-1.7,0.1-3.3,0.1-5.1c2.9,1.9,3.9,4.8,3.9,8.2V223.5z"/>
		<path class="st6" d="M211.6,212.6c-42.6,0-85.2,0-127.9,0.1c-3.3,0-3.9-1.1-3.9-4.1c0.1-52.9,0.1-105.8,0-158.7
			c0-3.6,1.2-4.1,4.4-4.1c84.5,0.1,169.1,0.1,253.6,0c5,0,6.4,1.1,6.4,6.4c-0.2,51.8-0.2,103.5,0,155.1c0,4.3-1.1,5.3-5.3,5.3
			C296.5,212.5,254,212.6,211.6,212.6"/>
		<path class="st7" d="M211.9,41.7c-0.9,0-1.7-0.8-1.7-1.7v-0.3c0.1-0.9,0.8-1.5,1.7-1.4c0.9-0.1,1.7,0.6,1.7,1.5v0.4
			C213.7,41.1,212.8,41.8,211.9,41.7"/>
		<path class="st6" d="M240.9,228.8h-58c-1.2,0-2.1-0.9-2.1-2.1c0-1.2,0.9-2.1,2.1-2.1h58c1.2,0,2.1,0.9,2.1,2.1
			C243,227.9,242,228.8,240.9,228.8"/>
	</g>
</g>
<g>
	<g>
		<defs>
			<path id="SVGID_1_" d="M211.6,213.2c-42.9,0-85.8,0-128.7,0.1c-3.4,0-3.9-1.1-3.9-4.1c0.1-53.7,0.1-107.6,0-161.3
				c0-3.6,1.2-4.1,4.4-4.1c85.1,0.1,170.2,0.1,255.3,0c5,0,6.4,1.1,6.4,6.5c-0.2,52.6-0.2,105.2,0,157.7c0,4.3-1.1,5.4-5.3,5.4
				C297,213.1,254.3,213.2,211.6,213.2"/>
		</defs>
		<clipPath id="SVGID_2_">
			<use xlink:href="#SVGID_1_"  style="overflow:visible;"/>
		</clipPath>
		<rect x="134.7" y="58.3" class="st8" width="209.8" height="155.5"/>
	</g>
	<g>
		<defs>
			<path id="SVGID_3_" d="M211.6,213.2c-42.9,0-85.8,0-128.7,0.1c-3.4,0-3.9-1.1-3.9-4.1c0.1-53.7,0.1-107.6,0-161.3
				c0-3.6,1.2-4.1,4.4-4.1c85.1,0.1,170.2,0.1,255.3,0c5,0,6.4,1.1,6.4,6.5c-0.2,52.6-0.2,105.2,0,157.7c0,4.3-1.1,5.4-5.3,5.4
				C297,213.1,254.3,213.2,211.6,213.2"/>
		</defs>
		<clipPath id="SVGID_4_">
			<use xlink:href="#SVGID_3_"  style="overflow:visible;"/>
		</clipPath>
		<g class="st9">
			<g>
				<rect x="134.5" y="45.4" class="st10" width="210" height="13.3"/>
				<text transform="matrix(0.9853 0 0 1 315.8701 53.8131)" class="st6 st11 st12">Super User</text>
				<g>
					<rect x="79.6" y="45.4" class="st13" width="55.3" height="13.3"/>
					<text transform="matrix(1.0096 0 0 1 93.3355 54.6343)" class="st6 st11 st14">My Application</text>
					<g>
						<path class="st15" d="M85.4,53.8c0-0.3,0-0.5,0-0.8c0-0.1,0-0.1,0.1-0.2c0.3-0.2,0.6-0.5,0.9-0.7c0.3-0.2,0.5-0.4,0.8-0.6
							c0.1-0.1,0.3-0.2,0.4-0.3c0.1-0.1,0.1-0.1,0.2,0c0.4,0.3,0.8,0.7,1.2,1c0.3,0.2,0.6,0.5,0.8,0.7l0.1,0.1c0,0.5,0,1,0,1.5
							c0,0.2-0.1,0.3-0.3,0.3c-0.4,0-0.8,0-1.2,0c-0.1,0-0.2,0-0.2-0.2c0-0.4,0-0.8,0-1.1c0-0.2,0-0.2-0.2-0.2s-0.5,0-0.7,0
							c-0.1,0-0.2,0-0.2,0.2c0,0.4,0,0.8,0,1.2c0,0.1,0,0.2-0.2,0.2c-0.4,0-0.8,0-1.2,0c-0.2,0-0.3-0.1-0.3-0.3
							C85.4,54.3,85.4,54.1,85.4,53.8z"/>
						<path class="st15" d="M89,50.8c0-0.3,0-0.5,0-0.8c0-0.1,0-0.2,0.2-0.2s0.4,0,0.5,0c0.1,0,0.2,0.1,0.2,0.2c0,0.5,0,0.9,0,1.4
							c0,0.1,0,0.1,0.1,0.1c0.3,0.2,0.6,0.5,0.8,0.7c0.1,0.1,0.1,0.1,0,0.3c-0.1,0.1-0.2,0.2-0.2,0.3c-0.1,0.1-0.1,0.1-0.2,0
							c-0.4-0.3-0.8-0.7-1.2-1c-0.4-0.4-0.9-0.7-1.3-1.1c0,0,0,0-0.1-0.1c-0.1-0.1-0.1-0.1-0.2,0c-0.3,0.2-0.5,0.4-0.8,0.6
							c-0.4,0.4-0.9,0.7-1.3,1.1c-0.2,0.1-0.3,0.3-0.5,0.4c-0.1,0.1-0.1,0.1-0.2,0c-0.1-0.1-0.2-0.2-0.3-0.3c0-0.1,0-0.1,0-0.2
							c0.3-0.2,0.6-0.5,0.8-0.7c0.3-0.3,0.7-0.5,1-0.8c0.3-0.3,0.7-0.5,1-0.8c0.2-0.1,0.5-0.1,0.7,0C88.3,50.2,88.6,50.6,89,50.8
							C89,50.8,89,50.8,89,50.8z"/>
					</g>
				</g>
				<g>
					<ellipse class="st16" cx="311.4" cy="52.8" rx="3.1" ry="3.1"/>
					<g>
						<path class="st6" d="M311.3,55.9c-0.5,0-1.8-0.3-2-1c0-0.1-0.1-0.2-0.1-0.3s0-0.3,0-0.4c0.1-0.3,0.3-0.6,0.6-0.7
							c0.2-0.1,0.4-0.1,0.6-0.1h0.1c0.2,0.1,0.4,0.2,0.7,0.3c0.4,0.1,0.8,0,1.1-0.3h0.1c0.2,0,0.4,0.1,0.6,0.1
							c0.3,0.1,0.5,0.4,0.6,0.7c0,0.2,0,0.3,0,0.5C313.5,55.5,311.9,55.9,311.3,55.9z"/>
						<path class="st6" d="M311.4,50.7c0.7,0,1.3,0.6,1.3,1.4c0,0.7-0.6,1.3-1.3,1.3c-0.7,0-1.3-0.6-1.3-1.4
							C310.1,51.3,310.6,50.7,311.4,50.7z"/>
					</g>
				</g>
				<polyline class="st17" points="335.5,51.9 336.7,53.4 338,51.9 				"/>
				<text transform="matrix(0.9853 0 0 1 241.916 53.8131)" class="st6 st11 st12">YOU ARE SIGNED IN AS THE ROOT USER</text>
			</g>
			<g>
				<rect x="79.4" y="58.3" class="st18" width="55.4" height="157.4"/>
				<text transform="matrix(1.0124 0 0 1 98.3765 66.0083)" class="st6 st11 st19">Super User</text>
				<text transform="matrix(1.0124 0 0 1 101.9727 71.3364)" class="st6 st11 st19">Terran</text>
				<text transform="matrix(1.0124 0 0 1 91.8076 89.3667)" class="st6 st11 st19">Dashboard</text>
				<rect x="79.9" y="93" class="st20" width="54.6" height="10.3"/>
				<text transform="matrix(1.0124 0 0 1 92.9307 99.1382)" class="st6 st11 st19">Users</text>
				<text transform="matrix(1.0124 0 0 1 92.9307 109.2788)" class="st6 st11 st19">Activities</text>
				<text transform="matrix(1.0124 0 0 1 92.9307 119.9399)" class="st6 st11 st19">Roles</text>
				<text transform="matrix(1.0124 0 0 1 92.9307 129.5542)" class="st6 st11 st19">Permissions</text>
				<text transform="matrix(1.0124 0 0 1 92.9307 141.103)" class="st6 st11 st19">Groups</text>
				<g>
					<ellipse class="st16" cx="89.3" cy="67.1" rx="5.2" ry="5.2"/>
					<g>
						<path class="st6" d="M89.3,72.3c-0.8,0-3-0.4-3.5-1.6c-0.1-0.2-0.1-0.3-0.1-0.5s0-0.4,0-0.7c0.1-0.6,0.4-0.9,1-1.1
							c0.3-0.1,0.6-0.2,0.9-0.2c0.1,0,0.1,0,0.2,0c0.3,0.2,0.7,0.4,1.1,0.4c0.7,0.1,1.3,0,1.8-0.4c0.1,0,0.1-0.1,0.2,0
							c0.3,0.1,0.6,0.2,0.9,0.2c0.5,0.1,0.9,0.6,1,1.1c0,0.2,0,0.5,0,0.7C92.9,71.7,90.2,72.3,89.3,72.3z"/>
						<path class="st6" d="M89.3,63.8c1.2,0,2.2,1,2.2,2.2s-1,2.2-2.2,2.2s-2.3-1-2.2-2.3C87.1,64.8,88,63.8,89.3,63.8z"/>
					</g>
				</g>
				<g>
					<path class="st6" d="M100.6,70.6c0.1,0.2,0.2,0.4,0.3,0.6c0,0.1,0,0.1,0.1,0.2l0,0c-0.1-0.1-0.3-0.1-0.5-0.1l0,0
						c0-0.1-0.1-0.2-0.1-0.3l0,0c0,0.1-0.1,0.2-0.1,0.3l0,0c-0.2-0.1-0.3,0-0.5,0.1l0,0c0.1-0.3,0.2-0.5,0.4-0.8c0,0,0,0.1-0.1,0
						l0,0c0,0.1,0,0.1-0.1,0.1l0,0c0,0,0-0.1-0.1-0.1s-0.1,0-0.1,0.1c0,0,0,0,0,0.1l-0.1-0.1c0-0.1,0-0.1,0.1-0.1h0.1
						c0.1,0,0.1,0,0.1,0l0,0c0,0,0,0,0-0.1c0,0,0.1-0.1,0.1-0.2v-0.1H100c-0.1,0-0.1,0.1-0.1,0.2c0,0,0,0,0,0.1
						c-0.1-0.1-0.1-0.1-0.2-0.2l0,0l0.1-0.1c0,0,0,0,0-0.1S99.7,70,99.7,70c-0.1,0-0.2,0.1-0.2,0.2l0,0l0,0c0-0.1,0-0.2,0-0.2l0,0
						l0,0c0,0,0.1,0,0.1-0.1c0,0,0.1-0.1,0-0.2c0-0.1-0.1-0.1-0.1-0.1c-0.1,0-0.1,0-0.2,0.1l0,0l0,0c0-0.1,0.1-0.2,0.1-0.3l0,0
						c0.3,0,0.5,0,0.8,0l0,0l0,0c-0.1,0.1-0.2,0.1-0.2,0.2l0,0l0,0l0,0l0.1-0.1c0,0,0,0,0,0.1c0,0,0,0,0.1,0l0,0v0.1h0.1
						c0,0,0.1,0,0.1-0.1l0,0l0,0l0,0c0-0.1,0-0.1,0.1-0.1c0,0,0.1,0,0.1-0.1c0.1-0.1,0.2,0,0.2,0.1v0.1c0,0,0,0.1,0.1,0.1h0.1v-0.1
						l0,0l0,0c0,0,0,0-0.1-0.1c0.1,0,0.1,0.1,0.2,0.1v-0.1c0-0.1-0.1-0.1-0.2-0.2l0,0l0,0c0.3,0,0.5,0,0.8,0l0,0
						c0,0.1,0.1,0.2,0.1,0.3l0,0c-0.1,0-0.1-0.1-0.2-0.1s-0.1,0-0.1,0.1v0.1c0.1,0.1,0.1,0.1,0.2,0.1c0,0.1,0,0.3,0,0.4l0,0
						c0-0.1-0.1-0.1-0.2-0.2c0,0,0,0-0.1,0h-0.1v0.1c0,0.1,0.1,0.1,0.1,0.2l0,0c-0.1,0-0.1,0.1-0.2,0.2c0-0.1,0-0.1-0.1-0.2
						l-0.1-0.1c-0.1,0-0.1,0-0.1,0.1s0,0.1,0.1,0.1c0,0,0,0,0,0.1l0,0h0.1c0.1,0,0.2,0.1,0.1,0.2c0,0,0,0.1-0.1,0.1v-0.1
						c0-0.1-0.1-0.1-0.1-0.1s0,0,0,0.1l0,0C100.7,70.7,100.7,70.7,100.6,70.6C100.7,70.6,100.7,70.5,100.6,70.6
						C100.6,70.6,100.6,70.5,100.6,70.6C100.6,70.5,100.6,70.5,100.6,70.6z"/>
					<path class="st6" d="M101.8,71.4c-0.2,0-0.3,0-0.5,0h-0.1c0,0,0,0-0.1,0c0-0.1,0-0.1-0.1-0.1l0,0c0.1,0,0.2,0,0.3,0l0,0
						c0-0.1-0.1-0.1-0.1-0.2c-0.1-0.2-0.2-0.4-0.3-0.5l0,0c0,0,0.1,0,0.1-0.1c0,0,0,0,0.1,0c0.1,0.1,0.1,0.2,0.2,0.3
						C101.5,70.9,101.7,71.1,101.8,71.4L101.8,71.4z"/>
					<path class="st6" d="M98.8,71.4c0.1-0.2,0.2-0.5,0.4-0.7c0.1-0.1,0.1-0.2,0.2-0.4c0,0,0,0,0.1,0c0,0,0.1,0,0.1,0.1
						c0,0,0,0,0,0.1c-0.1,0.2-0.2,0.4-0.3,0.7l0,0c0.1,0,0.2,0,0.3,0l0,0c0,0.1-0.1,0.1-0.1,0.2l0,0C99.2,71.4,99,71.4,98.8,71.4z"
						/>
					<path class="st6" d="M100,69.1c0.1-0.2,0.2-0.4,0.3-0.6c0.1,0.2,0.2,0.4,0.3,0.6c-0.1,0-0.2,0-0.2,0l0,0c0,0,0,0,0-0.1l0,0
						c0,0.1-0.1,0.1-0.1,0.1C100.1,69.1,100.1,69.1,100,69.1z"/>
					<path class="st6" d="M99.3,69.7C99.2,69.7,99.2,69.8,99.3,69.7c0,0.2-0.1,0.2-0.1,0.3l0,0l0,0l0,0C99.2,70,99.2,69.9,99.3,69.7
						C99.2,69.8,99.2,69.8,99.3,69.7c-0.1,0.1-0.1,0.2-0.1,0.4l0,0C99.2,70,99.2,69.9,99.3,69.7C99.2,69.7,99.2,69.7,99.3,69.7
						L99.3,69.7z"/>
					<path class="st21" d="M99.2,69.2c0.3,0,0.5,0,0.8,0l0,0C99.8,69.2,99.5,69.2,99.2,69.2L99.2,69.2z"/>
					<path class="st21" d="M100.5,69.2c0.3,0,0.5,0,0.8,0l0,0C101.1,69.2,100.8,69.2,100.5,69.2L100.5,69.2z"/>
					<path class="st6" d="M99.2,70.1L99.2,70.1c0-0.1,0-0.2,0-0.4C99.2,69.8,99.2,69.9,99.2,70.1C99.2,70,99.2,70.1,99.2,70.1
						L99.2,70.1z"/>
					<path class="st22" d="M100.6,70.6C100.6,70.5,100.6,70.5,100.6,70.6C100.6,70.5,100.6,70.5,100.6,70.6
						C100.6,70.5,100.6,70.6,100.6,70.6z"/>
					<path class="st6" d="M100.6,69.5C100.6,69.5,100.7,69.5,100.6,69.5L100.6,69.5L100.6,69.5z"/>
				</g>
				<g>
					<path class="st6" d="M89.5,89.3c-0.4,0-0.8,0-1.2,0c-0.1,0-0.2-0.1-0.3-0.2c-0.1-0.2-0.1-0.4-0.2-0.6c0-0.4,0.1-0.8,0.4-1.1
						c0.2-0.3,0.6-0.5,0.9-0.6c0.4-0.1,0.7,0,1.1,0.2c0.3,0.2,0.6,0.5,0.7,0.8C91,88,91,88.1,91,88.3c0,0.3,0,0.6-0.2,0.8
						c-0.1,0.1-0.1,0.2-0.3,0.2C90.3,89.3,89.9,89.3,89.5,89.3z M89.1,88.8L89.1,88.8c0,0.2,0.2,0.3,0.3,0.4c0.1,0,0.3-0.1,0.4-0.2
						s0-0.3-0.1-0.4c0,0,0,0,0-0.1s0.1-0.3,0.1-0.4s0.1-0.2,0.1-0.3c0-0.1,0-0.1-0.1-0.2c-0.1,0-0.2,0-0.2,0.1
						c-0.1,0.2-0.2,0.5-0.2,0.7l0,0C89.2,88.5,89.1,88.6,89.1,88.8z M88.6,87.7c0.1,0,0.2-0.1,0.2-0.2s-0.1-0.2-0.2-0.2
						s-0.2,0.1-0.2,0.2C88.4,87.7,88.5,87.7,88.6,87.7z M90.4,87.7c0.1,0,0.2-0.1,0.2-0.2s-0.1-0.2-0.2-0.2s-0.2,0.1-0.2,0.2
						C90.2,87.7,90.3,87.7,90.4,87.7z M89.3,87.2c0,0.1,0.1,0.2,0.2,0.2s0.2-0.1,0.2-0.2S89.6,87,89.5,87S89.3,87.1,89.3,87.2z
						 M88,88.4c0,0.1,0.1,0.2,0.2,0.2s0.2-0.1,0.2-0.2s-0.1-0.2-0.2-0.2C88.1,88.3,88,88.3,88,88.4z M90.7,88.6
						c0.1,0,0.2-0.1,0.2-0.2s-0.1-0.2-0.2-0.2s-0.2,0.1-0.2,0.2S90.6,88.6,90.7,88.6z"/>
				</g>
				<g>
					<path class="st6" d="M89.1,99.6c-0.3,0-1-0.1-1.2-0.5c0-0.1,0-0.1,0-0.2s0-0.1,0-0.2c0-0.2,0.1-0.3,0.3-0.4
						c0.1,0,0.2-0.1,0.3-0.1c0,0,0,0,0.1,0c0.1,0.1,0.2,0.1,0.4,0.1c0.2,0,0.4,0,0.6-0.1c0,0,0,0,0.1,0s0.2,0.1,0.3,0.1
						c0.2,0,0.3,0.2,0.3,0.4c0,0.1,0,0.2,0,0.3C90.3,99.4,89.4,99.6,89.1,99.6z"/>
					<path class="st6" d="M89.1,96.7c0.4,0,0.8,0.3,0.8,0.8c0,0.4-0.3,0.7-0.8,0.7c-0.4,0-0.8-0.3-0.8-0.8
						C88.3,97,88.7,96.7,89.1,96.7z"/>
				</g>
				<g>
					<path class="st6" d="M89.7,107.3c-0.3,0-0.6,0-0.9,0c-0.1,0-0.1,0-0.1-0.1s0-0.2,0-0.2c0-0.1,0-0.1,0.1-0.1c0.6,0,1.3,0,1.9,0
						c0.1,0,0.1,0,0.1,0.1s0,0.2,0,0.2c0,0.1,0,0.1-0.1,0.1C90.3,107.3,90,107.3,89.7,107.3z"/>
					<path class="st6" d="M89.7,107.8c0.3,0,0.6,0,0.9,0c0.1,0,0.1,0,0.1,0.1s0,0.2,0,0.2c0,0.1,0,0.1-0.1,0.1c-0.6,0-1.3,0-1.9,0
						c-0.1,0-0.1,0-0.1-0.1s0-0.2,0-0.2c0-0.1,0-0.1,0.1-0.1C89,107.8,89.3,107.8,89.7,107.8z"/>
					<path class="st6" d="M89.7,109.4c-0.3,0-0.6,0-0.9,0c-0.1,0-0.1,0-0.1-0.1s0-0.2,0-0.2c0-0.1,0-0.1,0.1-0.1c0.6,0,1.3,0,1.9,0
						c0.1,0,0.1,0,0.1,0.1s0,0.2,0,0.2c0,0.1,0,0.1-0.1,0.1C90.3,109.4,90,109.4,89.7,109.4z"/>
					<path class="st6" d="M87.7,108.5L87.7,108.5c-0.2-0.1-0.3-0.2-0.4-0.3v-0.1l0.1-0.1h0.1l0.1,0.1c0,0,0,0,0.1,0
						c0.1-0.1,0.2-0.2,0.4-0.4c0.1-0.1,0.1-0.1,0.2,0l0.1,0.1c0.1,0.1,0.1,0.1,0,0.1c-0.2,0.2-0.3,0.3-0.5,0.5
						C87.9,108.4,87.8,108.4,87.7,108.5C87.8,108.5,87.8,108.5,87.7,108.5z"/>
					<path class="st6" d="M87.7,107.4L87.7,107.4c-0.2-0.1-0.3-0.2-0.4-0.3V107l0.1-0.1h0.1l0.1,0.1c0,0,0,0,0.1,0
						c0.1-0.1,0.3-0.2,0.4-0.4c0.1-0.1,0.1-0.1,0.1,0l0.1,0.1v0.1l0,0C88.2,107.1,88,107.2,87.7,107.4
						C87.8,107.4,87.8,107.5,87.7,107.4z"/>
					<path class="st6" d="M87.7,109.4c-0.2,0-0.3-0.1-0.3-0.3c0-0.2,0.1-0.3,0.3-0.3c0.2,0,0.3,0.1,0.3,0.3
						C88.1,109.3,87.9,109.4,87.7,109.4z"/>
				</g>
				<path class="st6" d="M89.4,120.1c-0.6,0-1.1,0-1.7,0c-0.2,0-0.3-0.1-0.4-0.3v-0.1c0-0.8,0-1.5,0-2.3c0-0.2,0.2-0.4,0.4-0.4
					c0.2,0,0.5,0,0.7,0c0.9,0,1.7,0,2.6,0c0.2,0,0.4,0.2,0.4,0.4c0,0.8,0,1.5,0,2.3c0,0.2-0.2,0.4-0.4,0.4
					C90.5,120.1,89.9,120.1,89.4,120.1z M89.4,117.5c0.6,0,1.1,0,1.7,0l0,0c0,0,0.1,0,0.1-0.1s0-0.2-0.1-0.2c-1.1,0-2.2,0-3.3,0l0,0
					c0,0-0.1,0-0.1,0.1c-0.1,0.1,0,0.2,0.1,0.2C88.3,117.5,88.8,117.5,89.4,117.5z M88.6,119.5c0.2,0,0.4,0,0.6,0
					c0.1,0,0.2-0.1,0.2-0.2c0,0,0,0,0-0.1c0-0.2-0.1-0.3-0.2-0.3s-0.1,0-0.2,0h-0.1c-0.2,0.1-0.3,0.1-0.5,0c-0.1,0-0.2-0.1-0.3,0H88
					c-0.1,0-0.1,0.1-0.2,0.1c0,0.1,0,0.1,0,0.2s0.1,0.2,0.2,0.2C88.2,119.5,88.4,119.5,88.6,119.5z M88.1,118.4
					c0,0.3,0.2,0.5,0.5,0.5s0.5-0.2,0.5-0.5s-0.2-0.5-0.5-0.5C88.3,117.9,88.1,118.1,88.1,118.4z M90.3,118.3c0.2,0,0.4,0,0.5,0
					s0.1,0,0.1-0.1s0-0.1-0.1-0.1c-0.4,0-0.7,0-1.1,0c-0.1,0-0.1,0-0.1,0.1s0,0.1,0.1,0.1C89.9,118.3,90.1,118.3,90.3,118.3z
					 M90.3,118.6c-0.2,0-0.4,0-0.5,0s-0.1,0-0.1,0.1s0,0.1,0.1,0.1c0.4,0,0.7,0,1.1,0c0.1,0,0.1,0,0.1-0.1s0-0.1-0.1-0.1
					C90.6,118.6,90.5,118.6,90.3,118.6z M90.3,119.1c-0.2,0-0.4,0-0.5,0s-0.1,0-0.1,0.1s0,0.1,0.1,0.1c0.4,0,0.7,0,1.1,0
					c0.1,0,0.1,0,0.1-0.1s0-0.1-0.1-0.1C90.6,119.1,90.5,119.1,90.3,119.1z"/>
				<path class="st6" d="M88.5,129.5c-0.1,0-0.2,0-0.3,0c-0.1,0-0.1-0.1-0.1-0.1c0-0.1,0-0.3,0-0.4c0-0.1,0-0.1,0.1-0.1
					c0.3-0.3,0.6-0.6,0.9-0.8c0,0,0,0,0-0.1c-0.1-0.2-0.1-0.5,0.1-0.7c0.2-0.3,0.4-0.5,0.7-0.5c0.5-0.1,1,0.2,1.1,0.7
					c0.1,0.4,0,0.7-0.3,1c-0.2,0.1-0.3,0.2-0.6,0.2c-0.1,0-0.2,0-0.2,0l0,0l-0.1,0.1l-0.1,0.1c-0.1,0-0.1,0-0.2,0l0,0
					c0,0.1,0,0.1,0,0.2c0,0.1-0.1,0.1-0.1,0.1c-0.1,0-0.1,0-0.2,0l0,0c0,0.1,0,0.1,0,0.2c0,0.1-0.1,0.1-0.1,0.1
					C88.7,129.5,88.6,129.5,88.5,129.5z M90,127.3c0,0.2,0.1,0.3,0.3,0.3c0.1,0,0.3-0.1,0.3-0.3c0-0.1-0.1-0.3-0.3-0.3
					C90.1,127.1,90,127.2,90,127.3z"/>
				<g>
					<path class="st6" d="M89.6,141.2c-0.3,0-0.6,0-0.9,0c-0.2,0-0.3-0.1-0.3-0.3c0-0.1,0-0.3,0-0.4c0-0.2,0.2-0.4,0.4-0.5
						c0.1,0,0.2,0,0.2-0.1c0,0,0,0,0.1,0c0.3,0.2,0.6,0.2,0.8,0.1l0,0c0.1-0.1,0.2-0.1,0.2,0c0.1,0,0.2,0,0.3,0.1
						c0.1,0.1,0.2,0.2,0.2,0.4c0,0.1,0,0.3,0,0.4c0,0.1-0.1,0.2-0.2,0.2C90.2,141.2,89.9,141.2,89.6,141.2z"/>
					<path class="st6" d="M89.6,138.6c0.4,0,0.7,0.3,0.7,0.7S90,140,89.6,140c-0.4,0-0.7-0.3-0.7-0.7
						C88.9,139,89.2,138.6,89.6,138.6z"/>
					<path class="st6" d="M87.7,139.8c0-0.2,0.2-0.5,0.5-0.5s0.5,0.2,0.5,0.5c0,0.2-0.2,0.5-0.5,0.5C87.9,140.2,87.7,140,87.7,139.8
						z"/>
					<path class="st6" d="M90.6,139.8c0-0.2,0.2-0.5,0.5-0.5s0.5,0.2,0.5,0.5c0,0.2-0.2,0.5-0.5,0.5C90.8,140.2,90.6,140,90.6,139.8
						z"/>
					<path class="st6" d="M88.5,140.3c-0.1,0.1-0.1,0.2-0.1,0.4c0,0.1,0,0.2,0,0.3l0,0c-0.2,0-0.5,0-0.7,0c-0.1,0-0.2-0.1-0.2-0.2
						c0-0.1,0-0.2,0-0.3s0.1-0.3,0.2-0.3l0,0c0.1,0,0.2,0,0.3,0C88.1,140.4,88.3,140.4,88.5,140.3C88.4,140.3,88.4,140.3,88.5,140.3
						C88.4,140.3,88.4,140.3,88.5,140.3z"/>
					<path class="st6" d="M90.8,140.3c0.1,0.1,0.3,0.1,0.4,0c0,0,0.1,0,0.1-0.1c0,0,0,0,0.1,0s0.1,0,0.2,0.1s0.2,0.2,0.2,0.3
						s0,0.2,0,0.3s-0.1,0.2-0.2,0.2c-0.2,0-0.5,0-0.7,0l0,0c0-0.1,0-0.2,0-0.4C90.9,140.5,90.9,140.4,90.8,140.3L90.8,140.3z"/>
				</g>
			</g>
		</g>
	</g>
	<g>
		<defs>
			<path id="SVGID_5_" d="M211.6,213.2c-42.9,0-85.8,0-128.7,0.1c-3.4,0-3.9-1.1-3.9-4.1c0.1-53.7,0.1-107.6,0-161.3
				c0-3.6,1.2-4.1,4.4-4.1c85.1,0.1,170.2,0.1,255.3,0c5,0,6.4,1.1,6.4,6.5c-0.2,52.6-0.2,105.2,0,157.7c0,4.3-1.1,5.4-5.3,5.4
				C297,213.1,254.3,213.2,211.6,213.2"/>
		</defs>
		<clipPath id="SVGID_6_">
			<use xlink:href="#SVGID_5_"  style="overflow:visible;"/>
		</clipPath>
		<g class="st23">
			<text transform="matrix(1 0 0 1 141.988 66.3325)" class="st11 st24">Users</text>
		</g>
	</g>
	<g>
		<defs>
			<path id="SVGID_7_" d="M211.6,213.2c-42.9,0-85.8,0-128.7,0.1c-3.4,0-3.9-1.1-3.9-4.1c0.1-53.7,0.1-107.6,0-161.3
				c0-3.6,1.2-4.1,4.4-4.1c85.1,0.1,170.2,0.1,255.3,0c5,0,6.4,1.1,6.4,6.5c-0.2,52.6-0.2,105.2,0,157.7c0,4.3-1.1,5.4-5.3,5.4
				C297,213.1,254.3,213.2,211.6,213.2"/>
		</defs>
		<clipPath id="SVGID_8_">
			<use xlink:href="#SVGID_7_"  style="overflow:visible;"/>
		</clipPath>
		<g class="st25">
			<text transform="matrix(1 0 0 1 142.3215 71.499)" class="st26 st11 st12">A listing of the users for you site. Provides management tools including the  ability to edit user details, manually </text>
			<text transform="matrix(1 0 0 1 142.3215 76.299)" class="st26 st11 st12">activate users, enable/disable users, and more.</text>
		</g>
	</g>
	<g>
		<defs>
			<path id="SVGID_9_" d="M211.6,213.2c-42.9,0-85.8,0-128.7,0.1c-3.4,0-3.9-1.1-3.9-4.1c0.1-53.7,0.1-107.6,0-161.3
				c0-3.6,1.2-4.1,4.4-4.1c85.1,0.1,170.2,0.1,255.3,0c5,0,6.4,1.1,6.4,6.5c-0.2,52.6-0.2,105.2,0,157.7c0,4.3-1.1,5.4-5.3,5.4
				C297,213.1,254.3,213.2,211.6,213.2"/>
		</defs>
		<clipPath id="SVGID_10_">
			<use xlink:href="#SVGID_9_"  style="overflow:visible;"/>
		</clipPath>
		<path class="st27" d="M336.6,207.9H143.3c-0.6,0-1-0.4-1-1V80.7c0-0.6,0.4-1,1-1h193.3c0.6,0,1,0.4,1,1v126.2
			C337.6,207.5,337.2,207.9,336.6,207.9z"/>
	</g>
	<g>
		<defs>
			<path id="SVGID_11_" d="M211.6,213.2c-42.9,0-85.8,0-128.7,0.1c-3.4,0-3.9-1.1-3.9-4.1c0.1-53.7,0.1-107.6,0-161.3
				c0-3.6,1.2-4.1,4.4-4.1c85.1,0.1,170.2,0.1,255.3,0c5,0,6.4,1.1,6.4,6.5c-0.2,52.6-0.2,105.2,0,157.7c0,4.3-1.1,5.4-5.3,5.4
				C297,213.1,254.3,213.2,211.6,213.2"/>
		</defs>
		<clipPath id="SVGID_12_">
			<use xlink:href="#SVGID_11_"  style="overflow:visible;"/>
		</clipPath>
		<line class="st28" x1="142.7" y1="80.2" x2="337.1" y2="80.2"/>
	</g>
	<g>
		<defs>
			<path id="SVGID_13_" d="M211.6,213.2c-42.9,0-85.8,0-128.7,0.1c-3.4,0-3.9-1.1-3.9-4.1c0.1-53.7,0.1-107.6,0-161.3
				c0-3.6,1.2-4.1,4.4-4.1c85.1,0.1,170.2,0.1,255.3,0c5,0,6.4,1.1,6.4,6.5c-0.2,52.6-0.2,105.2,0,157.7c0,4.3-1.1,5.4-5.3,5.4
				C297,213.1,254.3,213.2,211.6,213.2"/>
		</defs>
		<clipPath id="SVGID_14_">
			<use xlink:href="#SVGID_13_"  style="overflow:visible;"/>
		</clipPath>
		<g class="st29">
			<text transform="matrix(1 0 0 1 151.9959 86.52)" class="st11 st12">Users</text>
		</g>
	</g>
	<g>
		<defs>
			<path id="SVGID_15_" d="M211.6,213.2c-42.9,0-85.8,0-128.7,0.1c-3.4,0-3.9-1.1-3.9-4.1c0.1-53.7,0.1-107.6,0-161.3
				c0-3.6,1.2-4.1,4.4-4.1c85.1,0.1,170.2,0.1,255.3,0c5,0,6.4,1.1,6.4,6.5c-0.2,52.6-0.2,105.2,0,157.7c0,4.3-1.1,5.4-5.3,5.4
				C297,213.1,254.3,213.2,211.6,213.2"/>
		</defs>
		<clipPath id="SVGID_16_">
			<use xlink:href="#SVGID_15_"  style="overflow:visible;"/>
		</clipPath>
		<g class="st30">
			<path class="st31" d="M148.5,87.2c-0.4,0-1.5-0.2-1.8-0.8c0-0.1-0.1-0.2-0.1-0.3c0-0.1,0-0.2,0-0.3c0.1-0.3,0.2-0.5,0.5-0.6
				c0.2,0,0.3-0.1,0.5-0.1h0.1c0.2,0.1,0.4,0.2,0.6,0.2c0.3,0,0.7,0,0.9-0.2h0.1c0.2,0,0.3,0.1,0.5,0.1c0.3,0.1,0.5,0.3,0.5,0.6
				c0,0.1,0,0.3,0,0.4C150.3,86.9,149,87.2,148.5,87.2z"/>
			<path class="st31" d="M148.5,82.8c0.6,0,1.2,0.5,1.2,1.2c0,0.6-0.5,1.1-1.2,1.1c-0.6,0-1.2-0.5-1.1-1.2
				C147.3,83.4,147.8,82.8,148.5,82.8z"/>
		</g>
	</g>
	<g>
		<defs>
			<path id="SVGID_17_" d="M211.6,213.2c-42.9,0-85.8,0-128.7,0.1c-3.4,0-3.9-1.1-3.9-4.1c0.1-53.7,0.1-107.6,0-161.3
				c0-3.6,1.2-4.1,4.4-4.1c85.1,0.1,170.2,0.1,255.3,0c5,0,6.4,1.1,6.4,6.5c-0.2,52.6-0.2,105.2,0,157.7c0,4.3-1.1,5.4-5.3,5.4
				C297,213.1,254.3,213.2,211.6,213.2"/>
		</defs>
		<clipPath id="SVGID_18_">
			<use xlink:href="#SVGID_17_"  style="overflow:visible;"/>
		</clipPath>
		<g class="st32">
			<path class="st33" d="M332.5,89.6h-7.9c-0.5,0-1-0.5-1-1v-4.8c0-0.6,0.5-1,1-1h7.9c0.5,0,1,0.4,1,1v4.8
				C333.5,89.1,333,89.6,332.5,89.6z"/>
			<line class="st34" x1="326.3" y1="85.4" x2="328.3" y2="85.4"/>
			<line class="st34" x1="326.3" y1="86.3" x2="328.3" y2="86.3"/>
			<line class="st34" x1="326.3" y1="87.2" x2="328.3" y2="87.2"/>
			<polygon class="st35" points="329.4,86 331.5,86 330.4,87.2 			"/>
		</g>
	</g>
	<g>
		<defs>
			<path id="SVGID_19_" d="M211.6,213.2c-42.9,0-85.8,0-128.7,0.1c-3.4,0-3.9-1.1-3.9-4.1c0.1-53.7,0.1-107.6,0-161.3
				c0-3.6,1.2-4.1,4.4-4.1c85.1,0.1,170.2,0.1,255.3,0c5,0,6.4,1.1,6.4,6.5c-0.2,52.6-0.2,105.2,0,157.7c0,4.3-1.1,5.4-5.3,5.4
				C297,213.1,254.3,213.2,211.6,213.2"/>
		</defs>
		<clipPath id="SVGID_20_">
			<use xlink:href="#SVGID_19_"  style="overflow:visible;"/>
		</clipPath>
		<rect x="79.4" y="91" class="st36" width="0.8" height="10.2"/>
	</g>
	<g>
		<defs>
			<path id="SVGID_21_" d="M211.6,213.2c-42.9,0-85.8,0-128.7,0.1c-3.4,0-3.9-1.1-3.9-4.1c0.1-53.7,0.1-107.6,0-161.3
				c0-3.6,1.2-4.1,4.4-4.1c85.1,0.1,170.2,0.1,255.3,0c5,0,6.4,1.1,6.4,6.5c-0.2,52.6-0.2,105.2,0,157.7c0,4.3-1.1,5.4-5.3,5.4
				C297,213.1,254.3,213.2,211.6,213.2"/>
		</defs>
		<clipPath id="SVGID_22_">
			<use xlink:href="#SVGID_21_"  style="overflow:visible;"/>
		</clipPath>
		<g class="st37">
			<rect x="147.3" y="92" class="st38" width="187.5" height="25.8"/>
			<g>
				<text transform="matrix(1 0 0 1 150.6406 99.6312)" class="st39 st40 st41">User</text>
				<g>
					<polygon class="st39" points="159.9,98.6 161,98.6 160.5,99.2 159.9,99.8 159.4,99.2 158.9,98.6 					"/>
					<polygon class="st39" points="159.9,97.9 161,97.9 160.5,97.3 159.9,96.7 159.4,97.3 158.9,97.9 					"/>
				</g>
			</g>
			<g>
				<text transform="matrix(1 0 0 1 212.6387 98.8279)" class="st39 st40 st41">Last Activity</text>
				<g>
					<polygon class="st39" points="235.4,97.8 236.5,97.8 235.9,98.4 235.4,99 234.9,98.4 234.4,97.8 					"/>
					<polygon class="st39" points="235.4,97.1 236.5,97.1 235.9,96.5 235.4,95.9 234.9,96.5 234.4,97.1 					"/>
				</g>
			</g>
			<g>
				<text transform="matrix(1 0 0 1 275.6807 99.6312)" class="st39 st40 st41">Status</text>
				<g>
					<polygon class="st39" points="288.8,98.6 289.9,98.6 289.3,99.2 288.8,99.8 288.3,99.2 287.8,98.6 					"/>
					<polygon class="st39" points="288.8,97.9 289.9,97.9 289.3,97.3 288.8,96.7 288.3,97.3 287.8,97.9 					"/>
					<polygon class="st39" points="305,106.9 304.1,106.9 304.6,107.9 305,108.9 305.4,107.9 305.8,106.9 					"/>
				</g>
			</g>
			<g>
				<text transform="matrix(1 0 0 1 313.2656 99.39)" class="st39 st40 st41">Actions</text>
			</g>
			<rect x="149.1" y="105.6" class="st42" width="57.7" height="8.2"/>
			<rect x="211.1" y="105.6" class="st42" width="57.7" height="8.2"/>
			<rect x="274.5" y="105.6" class="st42" width="32.8" height="8.2"/>
			<line class="st43" x1="147.2" y1="103.5" x2="334.5" y2="103.5"/>
		</g>
	</g>
	<g>
		<defs>
			<path id="SVGID_23_" d="M211.6,213.2c-42.9,0-85.8,0-128.7,0.1c-3.4,0-3.9-1.1-3.9-4.1c0.1-53.7,0.1-107.6,0-161.3
				c0-3.6,1.2-4.1,4.4-4.1c85.1,0.1,170.2,0.1,255.3,0c5,0,6.4,1.1,6.4,6.5c-0.2,52.6-0.2,105.2,0,157.7c0,4.3-1.1,5.4-5.3,5.4
				C297,213.1,254.3,213.2,211.6,213.2"/>
		</defs>
		<clipPath id="SVGID_24_">
			<use xlink:href="#SVGID_23_"  style="overflow:visible;"/>
		</clipPath>
		<g class="st44">
			<rect x="147.4" y="114" class="st45" width="185.4" height="21.4"/>
			<g>
				<g>
					<path class="st46" d="M189.8,126.8h-4.2c-0.5,0-1-0.5-1-1v-3.7c0-0.5,0.5-1,1-1h4.2c0.6,0,1,0.5,1,1v3.7
						C190.8,126.4,190.4,126.8,189.8,126.8z"/>
					<g>
						<path class="st47" d="M186.2,124.3c0-0.4,0-0.8,0-1.2c0-0.2,0.2-0.4,0.4-0.4s0.4,0,0.6,0l0,0c0-0.1,0-0.2,0-0.3
							c0-0.2,0.2-0.4,0.3-0.4c0.4,0,0.9,0,1.3,0c0.1,0,0.2,0,0.3,0.1s0.3,0.3,0.4,0.4c0.1,0.1,0.1,0.2,0.1,0.2c0,0.7,0,1.4,0,2
							c0,0.2-0.2,0.3-0.4,0.4c-0.2,0-0.4,0-0.6,0c0,0-0.1,0-0.1,0.1s0,0.2,0,0.3c0,0.2-0.2,0.4-0.4,0.4c-0.6,0-1.1,0-1.7,0
							c-0.2,0-0.4-0.2-0.4-0.4C186.2,125.1,186.2,124.7,186.2,124.3z M187.6,123.6c0,0.4,0,0.8,0,1.1c0,0.1,0,0.1,0.1,0.1
							c0.5,0,1,0,1.6,0c0.1,0,0.1,0,0.1-0.1c0-0.5,0-1,0-1.5l0,0c-0.2,0-0.4,0-0.6,0c-0.1,0-0.2-0.1-0.2-0.2c0-0.2,0-0.4,0-0.6
							c0,0,0-0.1-0.1-0.1c-0.2,0-0.5,0-0.7,0c-0.1,0-0.1,0-0.1,0.1C187.6,122.9,187.6,123.2,187.6,123.6z M186.6,124.3
							c0,0.4,0,0.8,0,1.1c0,0.1,0,0.1,0.1,0.1c0.5,0,1,0,1.6,0c0,0,0.1,0,0.1-0.1s0-0.2,0-0.2s0-0.1-0.1-0.1c-0.2,0-0.4,0-0.7,0
							h-0.1c-0.2-0.1-0.2-0.2-0.2-0.3c0-0.5,0-1.1,0-1.6c0,0,0-0.1-0.1-0.1c-0.2,0-0.3,0-0.5,0c-0.1,0-0.1,0-0.1,0.1
							C186.6,123.6,186.6,124,186.6,124.3z M189,122.9c0.1,0,0.1,0,0.2,0h0.1v-0.1l0,0c-0.1-0.1-0.2-0.2-0.3-0.3l0,0h-0.1
							c0,0.1,0,0.3,0,0.4l0,0H189z"/>
					</g>
				</g>
				<text transform="matrix(1 0 0 1 149.7979 120.237)" class="st48 st40 st12">Super User (Admin)</text>
				<text transform="matrix(1 0 0 1 149.7979 125.037)" class="st39 st11 st12">admin@myapp.com</text>
			</g>
			<text transform="matrix(1 0 0 1 211.4968 120.2368)" class="st11 st12">Friday</text>
			<text transform="matrix(1 0 0 1 211.4968 125.0368)" class="st11 st12">Nov 16, 2018 4:06 pm</text>
			<text transform="matrix(1 0 0 1 211.4968 129.8368)" class="st49 st12">User Admin signed in.</text>
			<text transform="matrix(1 0 0 1 275.548 120.2368)" class="st11 st12">Active</text>
			<g>
				<path class="st50" d="M329.4,125.7h-17.9c-0.6,0-1-0.4-1-1V118c0-0.6,0.4-1,1-1h17.9c0.6,0,1,0.4,1,1v6.7
					C330.4,125.3,330,125.7,329.4,125.7z"/>
				<text transform="matrix(1 0 0 1 313.084 122.3425)" class="st6 st40 st41">Actions</text>
				<polygon class="st6" points="327.2,121 328.2,121 327.7,121.6 327.2,122.1 326.7,121.6 326.1,121 				"/>
			</g>
		</g>
	</g>
	<g>
		<defs>
			<path id="SVGID_25_" d="M211.6,213.2c-42.9,0-85.8,0-128.7,0.1c-3.4,0-3.9-1.1-3.9-4.1c0.1-53.7,0.1-107.6,0-161.3
				c0-3.6,1.2-4.1,4.4-4.1c85.1,0.1,170.2,0.1,255.3,0c5,0,6.4,1.1,6.4,6.5c-0.2,52.6-0.2,105.2,0,157.7c0,4.3-1.1,5.4-5.3,5.4
				C297,213.1,254.3,213.2,211.6,213.2"/>
		</defs>
		<clipPath id="SVGID_26_">
			<use xlink:href="#SVGID_25_"  style="overflow:visible;"/>
		</clipPath>
		<g class="st51">
			<rect x="147.4" y="134" class="st6" width="185.4" height="21.4"/>
			<g>
				<g>
					<path class="st46" d="M189.8,146.8h-4.2c-0.5,0-1-0.4-1-1v-3.7c0-0.6,0.5-1,1-1h4.2c0.6,0,1,0.4,1,1v3.7
						C190.8,146.4,190.4,146.8,189.8,146.8z"/>
					<g>
						<path class="st47" d="M186.2,144.4c0-0.4,0-0.8,0-1.2c0-0.2,0.2-0.4,0.4-0.4s0.4,0,0.6,0l0,0c0-0.1,0-0.2,0-0.3
							c0-0.2,0.2-0.4,0.3-0.4c0.4,0,0.9,0,1.3,0c0.1,0,0.2,0,0.3,0.1s0.3,0.3,0.4,0.4c0.1,0.1,0.1,0.2,0.1,0.2c0,0.7,0,1.4,0,2
							c0,0.2-0.2,0.3-0.4,0.4c-0.2,0-0.4,0-0.6,0c0,0-0.1,0-0.1,0.1s0,0.2,0,0.3c0,0.2-0.2,0.4-0.4,0.4c-0.6,0-1.1,0-1.7,0
							c-0.2,0-0.4-0.2-0.4-0.4C186.2,145.2,186.2,144.8,186.2,144.4z M187.6,143.6c0,0.4,0,0.8,0,1.1c0,0.1,0,0.1,0.1,0.1
							c0.5,0,1,0,1.6,0c0.1,0,0.1,0,0.1-0.1c0-0.5,0-1,0-1.5l0,0c-0.2,0-0.4,0-0.6,0c-0.1,0-0.2-0.1-0.2-0.2c0-0.2,0-0.4,0-0.6
							c0,0,0-0.1-0.1-0.1c-0.2,0-0.5,0-0.7,0c-0.1,0-0.1,0-0.1,0.1C187.6,142.9,187.6,143.2,187.6,143.6z M186.6,144.4
							c0,0.4,0,0.8,0,1.1c0,0.1,0,0.1,0.1,0.1c0.5,0,1,0,1.6,0c0,0,0.1,0,0.1-0.1s0-0.2,0-0.2s0-0.1-0.1-0.1c-0.2,0-0.4,0-0.7,0
							h-0.1c-0.2-0.1-0.2-0.2-0.2-0.3c0-0.5,0-1.1,0-1.6c0,0,0-0.1-0.1-0.1c-0.2,0-0.3,0-0.5,0c-0.1,0-0.1,0-0.1,0.1
							C186.6,143.6,186.6,144,186.6,144.4z M189,142.9c0.1,0,0.1,0,0.2,0h0.1v-0.1l0,0c-0.1-0.1-0.2-0.2-0.3-0.3l0,0h-0.1
							c0,0.1,0,0.3,0,0.4l0,0C188.9,142.9,189,142.9,189,142.9z"/>
					</g>
				</g>
				<text transform="matrix(1 0 0 1 149.7979 140.2531)" class="st48 st40 st12">Allan Kramer (User)</text>
				<text transform="matrix(1 0 0 1 149.7979 145.0531)" class="st39 st11 st12">allan@myapp.com</text>
			</g>
			<text transform="matrix(1 0 0 1 211.4968 140.2528)" class="st11 st12">Thursday</text>
			<text transform="matrix(1 0 0 1 211.4968 145.0528)" class="st11 st12">Nov 15, 2018 2:28 pm</text>
			<text transform="matrix(1 0 0 1 211.4968 149.8528)" class="st49 st12">User Allan Kramer signed in.</text>
			<text transform="matrix(1 0 0 1 275.548 140.2528)" class="st11 st12">Active</text>
			<g>
				<path class="st50" d="M329.4,145.7h-17.9c-0.6,0-1-0.5-1-1V138c0-0.6,0.4-1,1-1h17.9c0.6,0,1,0.4,1,1v6.7
					C330.4,145.3,330,145.7,329.4,145.7z"/>
				<text transform="matrix(1 0 0 1 313.084 142.3585)" class="st6 st40 st41">Actions</text>
				<polygon class="st6" points="327.2,141 328.2,141 327.7,141.6 327.2,142.1 326.7,141.6 326.1,141 				"/>
			</g>
		</g>
	</g>
	<g>
		<defs>
			<path id="SVGID_27_" d="M211.6,213.2c-42.9,0-85.8,0-128.7,0.1c-3.4,0-3.9-1.1-3.9-4.1c0.1-53.7,0.1-107.6,0-161.3
				c0-3.6,1.2-4.1,4.4-4.1c85.1,0.1,170.2,0.1,255.3,0c5,0,6.4,1.1,6.4,6.5c-0.2,52.6-0.2,105.2,0,157.7c0,4.3-1.1,5.4-5.3,5.4
				C297,213.1,254.3,213.2,211.6,213.2"/>
		</defs>
		<clipPath id="SVGID_28_">
			<use xlink:href="#SVGID_27_"  style="overflow:visible;"/>
		</clipPath>
		<g class="st52">
			<rect x="147.4" y="155" class="st45" width="185.4" height="21.4"/>
			<g>
				<g>
					<path class="st46" d="M189.8,167.9h-4.2c-0.5,0-1-0.4-1-1v-3.7c0-0.6,0.5-1,1-1h4.2c0.6,0,1,0.4,1,1v3.7
						C190.8,167.4,190.4,167.9,189.8,167.9z"/>
					<g>
						<path class="st47" d="M186.2,165.4c0-0.4,0-0.8,0-1.2c0-0.2,0.2-0.4,0.4-0.4s0.4,0,0.6,0l0,0c0-0.1,0-0.2,0-0.3
							c0-0.2,0.2-0.4,0.3-0.4c0.4,0,0.9,0,1.3,0c0.1,0,0.2,0,0.3,0.1s0.3,0.3,0.4,0.4c0.1,0.1,0.1,0.2,0.1,0.2c0,0.7,0,1.4,0,2
							c0,0.2-0.2,0.3-0.4,0.4c-0.2,0-0.4,0-0.6,0c0,0-0.1,0-0.1,0.1s0,0.2,0,0.3c0,0.2-0.2,0.4-0.4,0.4c-0.6,0-1.1,0-1.7,0
							c-0.2,0-0.4-0.2-0.4-0.4C186.2,166.2,186.2,165.8,186.2,165.4z M187.6,164.6c0,0.4,0,0.8,0,1.1c0,0.1,0,0.1,0.1,0.1
							c0.5,0,1,0,1.6,0c0.1,0,0.1,0,0.1-0.1c0-0.5,0-1,0-1.5l0,0c-0.2,0-0.4,0-0.6,0c-0.1,0-0.2-0.1-0.2-0.2c0-0.2,0-0.4,0-0.6
							c0,0,0-0.1-0.1-0.1c-0.2,0-0.5,0-0.7,0c-0.1,0-0.1,0-0.1,0.1C187.6,163.9,187.6,164.3,187.6,164.6z M186.6,165.4
							c0,0.4,0,0.8,0,1.1c0,0.1,0,0.1,0.1,0.1c0.5,0,1,0,1.6,0c0,0,0.1,0,0.1-0.1s0-0.2,0-0.2s0-0.1-0.1-0.1c-0.2,0-0.4,0-0.7,0
							h-0.1c-0.2-0.1-0.2-0.2-0.2-0.3c0-0.5,0-1.1,0-1.6c0,0,0-0.1-0.1-0.1c-0.2,0-0.3,0-0.5,0c-0.1,0-0.1,0-0.1,0.1
							C186.6,164.6,186.6,165,186.6,165.4z M189,163.9c0.1,0,0.1,0,0.2,0h0.1v-0.1l0,0c-0.1-0.1-0.2-0.2-0.3-0.3l0,0h-0.1
							c0,0.1,0,0.3,0,0.4l0,0C188.9,163.9,189,163.9,189,163.9z"/>
					</g>
				</g>
				<text transform="matrix(1 0 0 1 149.7979 161.2699)" class="st48 st40 st12">Sarah Jones (User)</text>
				<text transform="matrix(1 0 0 1 149.7979 166.0699)" class="st39 st11 st12">sarah@myapp.com</text>
			</g>
			<text transform="matrix(1 0 0 1 211.4968 161.2696)" class="st11 st12">Thursday</text>
			<text transform="matrix(1 0 0 1 211.4968 166.0696)" class="st11 st12">Nov 15, 2018 12:19 pm</text>
			<text transform="matrix(1 0 0 1 211.4968 170.8696)" class="st49 st12">User Sarah Jones created a new</text>
			<text transform="matrix(1 0 0 1 211.4968 175.6696)" class="st49 st12">group.</text>
			<text transform="matrix(1 0 0 1 275.548 161.2696)" class="st11 st12">Active</text>
			<g>
				<path class="st50" d="M329.4,166.7h-17.9c-0.6,0-1-0.5-1-1V159c0-0.6,0.4-1,1-1h17.9c0.6,0,1,0.4,1,1v6.7
					C330.4,166.3,330,166.7,329.4,166.7z"/>
				<text transform="matrix(1 0 0 1 313.084 163.3753)" class="st6 st40 st41">Actions</text>
				<polygon class="st6" points="327.2,162 328.2,162 327.7,162.6 327.2,163.2 326.7,162.6 326.1,162 				"/>
			</g>
		</g>
	</g>
	<g>
		<defs>
			<path id="SVGID_29_" d="M211.6,213.2c-42.9,0-85.8,0-128.7,0.1c-3.4,0-3.9-1.1-3.9-4.1c0.1-53.7,0.1-107.6,0-161.3
				c0-3.6,1.2-4.1,4.4-4.1c85.1,0.1,170.2,0.1,255.3,0c5,0,6.4,1.1,6.4,6.5c-0.2,52.6-0.2,105.2,0,157.7c0,4.3-1.1,5.4-5.3,5.4
				C297,213.1,254.3,213.2,211.6,213.2"/>
		</defs>
		<clipPath id="SVGID_30_">
			<use xlink:href="#SVGID_29_"  style="overflow:visible;"/>
		</clipPath>
		<g class="st53">
			<rect x="147.4" y="176.6" class="st6" width="185.4" height="21.4"/>
			<g>
				<g>
					<path class="st46" d="M189.8,190.4h-4.2c-0.5,0-1-0.4-1-1v-3.7c0-0.6,0.5-1,1-1h4.2c0.6,0,1,0.4,1,1v3.7
						C190.8,189.9,190.4,190.4,189.8,190.4z"/>
					<g>
						<path class="st47" d="M186.2,187.9c0-0.4,0-0.8,0-1.2c0-0.2,0.2-0.4,0.4-0.4s0.4,0,0.6,0l0,0c0-0.1,0-0.2,0-0.3
							c0-0.2,0.2-0.4,0.3-0.4c0.4,0,0.9,0,1.3,0c0.1,0,0.2,0,0.3,0.1s0.3,0.3,0.4,0.4c0.1,0.1,0.1,0.2,0.1,0.2c0,0.7,0,1.4,0,2
							c0,0.2-0.2,0.3-0.4,0.4c-0.2,0-0.4,0-0.6,0c0,0-0.1,0-0.1,0.1s0,0.2,0,0.3c0,0.2-0.2,0.4-0.4,0.4c-0.6,0-1.1,0-1.7,0
							c-0.2,0-0.4-0.2-0.4-0.4C186.2,188.7,186.2,188.3,186.2,187.9z M187.6,187.2c0,0.4,0,0.8,0,1.1c0,0.1,0,0.1,0.1,0.1
							c0.5,0,1,0,1.6,0c0.1,0,0.1,0,0.1-0.1c0-0.5,0-1,0-1.5l0,0c-0.2,0-0.4,0-0.6,0c-0.1,0-0.2-0.1-0.2-0.2c0-0.2,0-0.4,0-0.6
							c0,0,0-0.1-0.1-0.1c-0.2,0-0.5,0-0.7,0c-0.1,0-0.1,0-0.1,0.1C187.6,186.4,187.6,186.8,187.6,187.2z M186.6,187.9
							c0,0.4,0,0.8,0,1.1c0,0.1,0,0.1,0.1,0.1c0.5,0,1,0,1.6,0c0,0,0.1,0,0.1-0.1s0-0.2,0-0.2s0-0.1-0.1-0.1c-0.2,0-0.4,0-0.7,0
							h-0.1c-0.2-0.1-0.2-0.2-0.2-0.3c0-0.5,0-1.1,0-1.6c0,0,0-0.1-0.1-0.1c-0.2,0-0.3,0-0.5,0c-0.1,0-0.1,0-0.1,0.1
							C186.6,187.1,186.6,187.5,186.6,187.9z M189,186.4c0.1,0,0.1,0,0.2,0h0.1v-0.1l0,0c-0.1-0.1-0.2-0.2-0.3-0.3l0,0h-0.1
							c0,0.1,0,0.3,0,0.4l0,0C188.9,186.4,189,186.4,189,186.4z"/>
					</g>
				</g>
				<text transform="matrix(1 0 0 1 149.7979 182.7875)" class="st48 st40 st12">Taylor Dean (Manager)</text>
				<text transform="matrix(1 0 0 1 149.7979 187.5875)" class="st39 st11 st12">sarah@myapp.com</text>
			</g>
			<text transform="matrix(1 0 0 1 211.4968 182.7872)" class="st11 st12">Thursday</text>
			<text transform="matrix(1 0 0 1 211.4968 187.5872)" class="st11 st12">Nov 15, 2018  9:55 am</text>
			<text transform="matrix(1 0 0 1 211.4968 192.3872)" class="st49 st12">User Taylor Dean deactivated user</text>
			<text transform="matrix(1 0 0 1 211.4968 197.1872)" class="st49 st12">Annie McCord.</text>
			<text transform="matrix(1 0 0 1 275.548 182.7872)" class="st11 st12">Active</text>
			<g>
				<path class="st50" d="M329.4,188.3h-17.9c-0.6,0-1-0.4-1-1v-6.7c0-0.6,0.4-1,1-1h17.9c0.6,0,1,0.4,1,1v6.7
					C330.4,187.8,330,188.3,329.4,188.3z"/>
				<text transform="matrix(1 0 0 1 313.084 184.8929)" class="st6 st40 st41">Actions</text>
				<polygon class="st6" points="327.2,183.5 328.2,183.5 327.7,184.1 327.2,184.7 326.7,184.1 326.1,183.5 				"/>
			</g>
		</g>
	</g>
	<g>
		<defs>
			<path id="SVGID_31_" d="M211.6,213.2c-42.9,0-85.8,0-128.7,0.1c-3.4,0-3.9-1.1-3.9-4.1c0.1-53.7,0.1-107.6,0-161.3
				c0-3.6,1.2-4.1,4.4-4.1c85.1,0.1,170.2,0.1,255.3,0c5,0,6.4,1.1,6.4,6.5c-0.2,52.6-0.2,105.2,0,157.7c0,4.3-1.1,5.4-5.3,5.4
				C297,213.1,254.3,213.2,211.6,213.2"/>
		</defs>
		<clipPath id="SVGID_32_">
			<use xlink:href="#SVGID_31_"  style="overflow:visible;"/>
		</clipPath>
		<g class="st54">
			<path class="st55" d="M175.5,205.5h-25.1c-0.6,0-1-0.4-1-1v-6.6c0-0.6,0.4-1,1-1h25.1c0.6,0,1,0.4,1,1v6.6
				C176.5,205,176.1,205.5,175.5,205.5z"/>
			<text transform="matrix(1 0 0 1 155.2821 202.6009)" class="st56 st11 st12">Create user</text>
			<path class="st56" d="M153,203h-1.4c-0.6,0-1-0.4-1-1v-1.4c0-0.6,0.4-1,1-1h1.4c0.6,0,1,0.4,1,1v1.4C154,202.5,153.6,203,153,203
				z"/>
			<g>
				<line class="st57" x1="152.4" y1="200.4" x2="152.4" y2="202.1"/>
				<line class="st57" x1="153.2" y1="201.3" x2="151.5" y2="201.3"/>
			</g>
		</g>
	</g>
</g>
</svg>
